%TF.GenerationSoftware,KiCad,Pcbnew,10.0.6*%
%TF.CreationDate,2026-10-05T04:48:33+07:00*%
%TF.ProjectId,robosen_master_block,726f626f-7365-46e5-9f6d-61737465725f,rev?*%
%TF.SameCoordinates,Original*%
%TF.FileFunction,Copper,L1,Top*%
%TF.FilePolarity,Positive*%
%FSLAX46Y46*%
G04 Gerber Fmt 4.6, Leading zero omitted, Abs format (unit mm)*
G04 Created by KiCad (PCBNEW 10.0.6) date 2026-10-05 04:48:33*
%MOMM*%
%LPD*%
G01*
G04 APERTURE LIST*
%TA.AperFunction,ComponentPad*%
%ADD10R,2.000000X2.000000*%
%TD*%
%TA.AperFunction,ComponentPad*%
%ADD11C,2.000000*%
%TD*%
%TA.AperFunction,ComponentPad*%
%ADD12R,1.600000X1.600000*%
%TD*%
%TA.AperFunction,ComponentPad*%
%ADD13C,1.600000*%
%TD*%
%TA.AperFunction,ComponentPad*%
%ADD14R,1.800000X1.800000*%
%TD*%
%TA.AperFunction,ComponentPad*%
%ADD15C,1.800000*%
%TD*%
%TA.AperFunction,ComponentPad*%
%ADD16R,2.200000X2.200000*%
%TD*%
%TA.AperFunction,ComponentPad*%
%ADD17C,2.200000*%
%TD*%
%TA.AperFunction,ComponentPad*%
%ADD18R,2.400000X2.400000*%
%TD*%
%TA.AperFunction,ComponentPad*%
%ADD19C,2.400000*%
%TD*%
%TA.AperFunction,ComponentPad*%
%ADD20R,1.700000X1.700000*%
%TD*%
%TA.AperFunction,ComponentPad*%
%ADD21C,1.700000*%
%TD*%
%TA.AperFunction,ViaPad*%
%ADD22C,0.600000*%
%TD*%
%TA.AperFunction,Conductor*%
%ADD23C,0.800000*%
%TD*%
%TA.AperFunction,Conductor*%
%ADD24C,0.250000*%
%TD*%
G04 APERTURE END LIST*
D10*
%TO.P,J1,1,V+_1*%
%TO.N,+3V3*%
X89500000Y-92000000D03*
D11*
%TO.P,J1,2,GND_2*%
%TO.N,GND*%
X89500000Y-94540000D03*
%TO.P,J1,3,DATA_3*%
%TO.N,/CFG_RX*%
X89500000Y-97080000D03*
%TO.P,J1,4,PASS_4*%
%TO.N,/CFG_TX*%
X89500000Y-99620000D03*
%TD*%
D12*
%TO.P,C1,1,1_1*%
%TO.N,GND*%
X186960000Y-97500000D03*
D13*
%TO.P,C1,2,2_2*%
%TO.N,/BATSENSE*%
X189500000Y-97500000D03*
%TD*%
D10*
%TO.P,J2,1,V+_1*%
%TO.N,+3V3*%
X199000000Y-92000000D03*
D11*
%TO.P,J2,2,GND_2*%
%TO.N,GND*%
X199000000Y-94540000D03*
%TO.P,J2,3,DATA_3*%
%TO.N,/CHAIN_TX*%
X199000000Y-97080000D03*
%TO.P,J2,4,PASS_4*%
%TO.N,/CHAIN_RX*%
X199000000Y-99620000D03*
%TD*%
D14*
%TO.P,SW1,1,CLK_1*%
%TO.N,/K1_CLK*%
X103500000Y-85500000D03*
D15*
%TO.P,SW1,2,DT_2*%
%TO.N,/K1_DT*%
X100960000Y-85500000D03*
%TO.P,SW1,3,SW_3*%
%TO.N,/K1_SW*%
X98420000Y-85500000D03*
%TO.P,SW1,4,+_4*%
%TO.N,+3V3*%
X95880000Y-85500000D03*
%TO.P,SW1,5,GND_5*%
%TO.N,GND*%
X93340000Y-85500000D03*
%TD*%
D14*
%TO.P,U3,1,GND_1*%
%TO.N,GND*%
X145060000Y-121300000D03*
D15*
%TO.P,U3,2,GND_2*%
X147600000Y-121300000D03*
%TO.P,U3,3,VIN_3*%
%TO.N,/VBAT_SW*%
X157500000Y-121300000D03*
%TO.P,U3,4,VIN_4*%
X160040000Y-121300000D03*
%TO.P,U3,5,GND_5*%
%TO.N,GND*%
X145060000Y-97520000D03*
%TO.P,U3,6,GND_6*%
X147600000Y-97520000D03*
%TO.P,U3,7,OUT_7*%
%TO.N,+3V3*%
X157500000Y-97520000D03*
%TO.P,U3,8,OUT_8*%
X160040000Y-97520000D03*
%TD*%
D16*
%TO.P,SW3,1,1_1*%
%TO.N,/BTN_START*%
X178000000Y-103500000D03*
D17*
X178000000Y-108500000D03*
%TO.P,SW3,2,2_2*%
%TO.N,GND*%
X190500000Y-103500000D03*
X190500000Y-108500000D03*
%TD*%
D14*
%TO.P,SW2,1,CLK_1*%
%TO.N,/K2_CLK*%
X199380000Y-85500000D03*
D15*
%TO.P,SW2,2,DT_2*%
%TO.N,/K2_DT*%
X196840000Y-85500000D03*
%TO.P,SW2,3,SW_3*%
%TO.N,/K2_SW*%
X194300000Y-85500000D03*
%TO.P,SW2,4,+_4*%
%TO.N,+3V3*%
X191760000Y-85500000D03*
%TO.P,SW2,5,GND_5*%
%TO.N,GND*%
X189220000Y-85500000D03*
%TD*%
D16*
%TO.P,SW5,1,1_1*%
%TO.N,/BTN_STOP*%
X96000000Y-103500000D03*
D17*
X96000000Y-108500000D03*
%TO.P,SW5,2,2_2*%
%TO.N,GND*%
X108500000Y-103500000D03*
X108500000Y-108500000D03*
%TD*%
D14*
%TO.P,R2,1,1_1*%
%TO.N,+3V3*%
X188920000Y-115500000D03*
D15*
%TO.P,R2,2,2_2*%
%TO.N,/CHAIN_RX*%
X199080000Y-115500000D03*
%TD*%
D14*
%TO.P,DISP1,1,BUSY_1*%
%TO.N,/EPD_BUSY*%
X109500000Y-69110000D03*
D15*
%TO.P,DISP1,2,CS_2*%
%TO.N,/EPD_CS*%
X109500000Y-71650000D03*
%TO.P,DISP1,3,DC_3*%
%TO.N,/EPD_DC*%
X109500000Y-74190000D03*
%TO.P,DISP1,4,RES_4*%
%TO.N,/EPD_RES*%
X109500000Y-76730000D03*
%TO.P,DISP1,5,SDA_5*%
%TO.N,/EPD_MOSI*%
X109500000Y-79270000D03*
%TO.P,DISP1,6,SCL_6*%
%TO.N,/EPD_SCK*%
X109500000Y-81810000D03*
%TO.P,DISP1,7,VCC_7*%
%TO.N,+3V3*%
X109500000Y-84350000D03*
%TO.P,DISP1,8,GND_8*%
%TO.N,GND*%
X109500000Y-86890000D03*
%TD*%
D14*
%TO.P,U2,1,OUT+_1*%
%TO.N,/VBAT_PROT*%
X123200000Y-99800000D03*
D15*
%TO.P,U2,2,B+_2*%
%TO.N,/VBAT_RAW*%
X126400000Y-99800000D03*
%TO.P,U2,3,B-_3*%
%TO.N,/VBAT_GND*%
X133800000Y-99800000D03*
%TO.P,U2,4,OUT-_4*%
%TO.N,GND*%
X137000000Y-99800000D03*
%TO.P,U2,5,IN-_5*%
%TO.N,unconnected-(U2-IN--Pad5)*%
X137000000Y-121500000D03*
%TO.P,U2,6,IN+_6*%
%TO.N,unconnected-(U2-IN+-Pad6)*%
X123200000Y-121500000D03*
%TD*%
D18*
%TO.P,SW4,1,1_1*%
%TO.N,/VBAT_PROT*%
X109920000Y-120000000D03*
D19*
%TO.P,SW4,2,2_2*%
%TO.N,/VBAT_SW*%
X115000000Y-120000000D03*
%TD*%
D14*
%TO.P,R3,1,1_1*%
%TO.N,/VBAT_SW*%
X165340000Y-119300000D03*
D15*
%TO.P,R3,2,2_2*%
%TO.N,/BATSENSE*%
X175500000Y-119300000D03*
%TD*%
D14*
%TO.P,R4,1,1_1*%
%TO.N,/BATSENSE*%
X179190000Y-119300000D03*
D15*
%TO.P,R4,2,2_2*%
%TO.N,GND*%
X189350000Y-119300000D03*
%TD*%
D14*
%TO.P,R1,1,1_1*%
%TO.N,+3V3*%
X196500000Y-112660000D03*
D15*
%TO.P,R1,2,2_2*%
%TO.N,/CHAIN_TX*%
X196500000Y-102500000D03*
%TD*%
D18*
%TO.P,BT1,1,+_1*%
%TO.N,/VBAT_RAW*%
X102000000Y-105800000D03*
D19*
%TO.P,BT1,2,-_2*%
%TO.N,/VBAT_GND*%
X185000000Y-105800000D03*
%TD*%
D20*
%TO.P,U1,1,3V3_1*%
%TO.N,+3V3*%
X172780000Y-90360000D03*
D21*
%TO.P,U1,2,3V3_2*%
X170240000Y-90360000D03*
%TO.P,U1,3,EN/RST_3*%
%TO.N,unconnected-(U1-EN{slash}RST-Pad3)*%
X167700000Y-90360000D03*
%TO.P,U1,4,GPIO4_4*%
%TO.N,/EPD_BUSY*%
X165160000Y-90360000D03*
%TO.P,U1,5,GPIO5_5*%
%TO.N,/EPD_RES*%
X162620000Y-90360000D03*
%TO.P,U1,6,GPIO6_6*%
%TO.N,/EPD_DC*%
X160080000Y-90360000D03*
%TO.P,U1,7,GPIO7_7*%
%TO.N,/EPD_CS*%
X157540000Y-90360000D03*
%TO.P,U1,8,GPIO15_8*%
%TO.N,/CHAIN_TX*%
X155000000Y-90360000D03*
%TO.P,U1,9,GPIO16_9*%
%TO.N,/CHAIN_RX*%
X152460000Y-90360000D03*
%TO.P,U1,10,GPIO17_10*%
%TO.N,/CFG_TX*%
X149920000Y-90360000D03*
%TO.P,U1,11,GPIO18_11*%
%TO.N,/CFG_RX*%
X147380000Y-90360000D03*
%TO.P,U1,12,GPIO8_12*%
%TO.N,/K1_CLK*%
X144840000Y-90360000D03*
%TO.P,U1,13,GPIO3_13*%
%TO.N,unconnected-(U1-GPIO3-Pad13)*%
X142300000Y-90360000D03*
%TO.P,U1,14,GPIO46_14*%
%TO.N,unconnected-(U1-GPIO46-Pad14)*%
X139760000Y-90360000D03*
%TO.P,U1,15,GPIO9_15*%
%TO.N,/K1_DT*%
X137220000Y-90360000D03*
%TO.P,U1,16,GPIO10_16*%
%TO.N,/K1_SW*%
X134680000Y-90360000D03*
%TO.P,U1,17,GPIO11_17*%
%TO.N,/K2_CLK*%
X132140000Y-90360000D03*
%TO.P,U1,18,GPIO12_18*%
%TO.N,/K2_DT*%
X129600000Y-90360000D03*
%TO.P,U1,19,GPIO13_19*%
%TO.N,/K2_SW*%
X127060000Y-90360000D03*
%TO.P,U1,20,GPIO14_20*%
%TO.N,/BTN_START*%
X124520000Y-90360000D03*
%TO.P,U1,21,5V_21*%
%TO.N,unconnected-(U1-5V-Pad21)*%
X121980000Y-90360000D03*
%TO.P,U1,22,GND_22*%
%TO.N,GND*%
X119440000Y-90360000D03*
D20*
%TO.P,U1,23,GND_23*%
X172780000Y-67500000D03*
D21*
%TO.P,U1,24,TX/IO43_24*%
%TO.N,unconnected-(U1-TX{slash}IO43-Pad24)*%
X170240000Y-67500000D03*
%TO.P,U1,25,RX/IO44_25*%
%TO.N,unconnected-(U1-RX{slash}IO44-Pad25)*%
X167700000Y-67500000D03*
%TO.P,U1,26,GPIO1_26*%
%TO.N,/BATSENSE*%
X165160000Y-67500000D03*
%TO.P,U1,27,GPIO2_27*%
%TO.N,/BTN_STOP*%
X162620000Y-67500000D03*
%TO.P,U1,28,GPIO42_28*%
%TO.N,unconnected-(U1-GPIO42-Pad28)*%
X160080000Y-67500000D03*
%TO.P,U1,29,GPIO41_29*%
%TO.N,unconnected-(U1-GPIO41-Pad29)*%
X157540000Y-67500000D03*
%TO.P,U1,30,GPIO40_30*%
%TO.N,unconnected-(U1-GPIO40-Pad30)*%
X155000000Y-67500000D03*
%TO.P,U1,31,GPIO39_31*%
%TO.N,unconnected-(U1-GPIO39-Pad31)*%
X152460000Y-67500000D03*
%TO.P,U1,32,GPIO38_32*%
%TO.N,/EPD_MOSI*%
X149920000Y-67500000D03*
%TO.P,U1,33,GPIO37_33*%
%TO.N,unconnected-(U1-GPIO37-Pad33)*%
X147380000Y-67500000D03*
%TO.P,U1,34,GPIO36_34*%
%TO.N,unconnected-(U1-GPIO36-Pad34)*%
X144840000Y-67500000D03*
%TO.P,U1,35,GPIO35_35*%
%TO.N,unconnected-(U1-GPIO35-Pad35)*%
X142300000Y-67500000D03*
%TO.P,U1,36,GPIO0_36*%
%TO.N,unconnected-(U1-GPIO0-Pad36)*%
X139760000Y-67500000D03*
%TO.P,U1,37,GPIO45_37*%
%TO.N,unconnected-(U1-GPIO45-Pad37)*%
X137220000Y-67500000D03*
%TO.P,U1,38,GPIO48_38*%
%TO.N,unconnected-(U1-GPIO48-Pad38)*%
X134680000Y-67500000D03*
%TO.P,U1,39,GPIO47_39*%
%TO.N,unconnected-(U1-GPIO47-Pad39)*%
X132140000Y-67500000D03*
%TO.P,U1,40,GPIO21_40*%
%TO.N,/EPD_SCK*%
X129600000Y-67500000D03*
%TO.P,U1,41,GPIO20_41*%
%TO.N,unconnected-(U1-GPIO20-Pad41)*%
X127060000Y-67500000D03*
%TO.P,U1,42,GPIO19_42*%
%TO.N,unconnected-(U1-GPIO19-Pad42)*%
X124520000Y-67500000D03*
%TO.P,U1,43,GND_43*%
%TO.N,GND*%
X121980000Y-67500000D03*
%TO.P,U1,44,GND_44*%
X119440000Y-67500000D03*
%TD*%
D22*
%TO.N,/CFG_RX*%
X145500000Y-91625000D03*
%TO.N,/CFG_TX*%
X146125000Y-92250000D03*
%TO.N,/BATSENSE*%
X168000000Y-86125000D03*
X171250000Y-89375000D03*
%TO.N,/CHAIN_TX*%
X164250000Y-94625000D03*
%TO.N,/K1_SW*%
X132875000Y-88375000D03*
%TO.N,/BTN_START*%
X138000000Y-87375000D03*
X126375000Y-87625000D03*
X144125000Y-89125000D03*
%TO.N,/K2_CLK*%
X134000000Y-88125000D03*
%TO.N,/K2_DT*%
X195250000Y-87625000D03*
X172875000Y-88875000D03*
%TO.N,/BTN_STOP*%
X111250000Y-87500000D03*
%TO.N,/EPD_BUSY*%
X163375000Y-87375000D03*
X154375000Y-78375000D03*
%TO.N,/EPD_CS*%
X155750000Y-87375000D03*
X136125000Y-79125000D03*
%TO.N,/EPD_DC*%
X158250000Y-87375000D03*
X134250000Y-79875000D03*
%TO.N,/EPD_RES*%
X153250000Y-87375000D03*
X134500000Y-80750000D03*
%TD*%
%TO.N,+3V3*%
D23*
X174500000Y-88625000D02*
X172750000Y-90375000D01*
X166750000Y-92000000D02*
X165500000Y-92000000D01*
X109500000Y-84350000D02*
X109500000Y-84375000D01*
X183125000Y-87125000D02*
X181875000Y-88375000D01*
X190250000Y-86875000D02*
X190125000Y-86875000D01*
X109500000Y-84375000D02*
X105250000Y-84375000D01*
X196500000Y-112660000D02*
X196500000Y-112625000D01*
X198625000Y-91750000D02*
X198500000Y-91625000D01*
X197375000Y-100375000D02*
X197375000Y-100125000D01*
X157500000Y-97520000D02*
X157500000Y-97500000D01*
X89625000Y-91875000D02*
X89500000Y-92000000D01*
X170000000Y-90625000D02*
X169875000Y-90625000D01*
X189750000Y-87125000D02*
X183125000Y-87125000D01*
X198000000Y-103125000D02*
X198125000Y-103000000D01*
X197875000Y-103375000D02*
X198000000Y-103250000D01*
X168375000Y-91875000D02*
X166875000Y-91875000D01*
X97375000Y-84125000D02*
X96125000Y-85375000D01*
X190125000Y-86875000D02*
X190000000Y-87000000D01*
X191760000Y-85500000D02*
X191750000Y-85500000D01*
X172780000Y-90360000D02*
X172750000Y-90375000D01*
X105250000Y-84375000D02*
X104750000Y-83875000D01*
X168500000Y-91750000D02*
X168375000Y-91875000D01*
X168625000Y-91750000D02*
X168500000Y-91750000D01*
X172750000Y-90375000D02*
X170250000Y-90375000D01*
X95875000Y-85500000D02*
X89625000Y-91750000D01*
X196500000Y-112625000D02*
X196500000Y-104875000D01*
X197500000Y-100625000D02*
X197500000Y-100500000D01*
X96000000Y-85375000D02*
X95875000Y-85500000D01*
X196500000Y-112660000D02*
X196500000Y-112625000D01*
X169625000Y-90750000D02*
X168625000Y-91750000D01*
X190000000Y-87000000D02*
X189875000Y-87000000D01*
X166875000Y-91875000D02*
X166750000Y-92000000D01*
X197750000Y-91500000D02*
X191750000Y-85500000D01*
X196250000Y-112625000D02*
X196500000Y-112625000D01*
X144500000Y-92000000D02*
X117125000Y-92000000D01*
X157500000Y-97500000D02*
X150000000Y-97500000D01*
X109500000Y-84350000D02*
X109500000Y-84375000D01*
X150000000Y-97500000D02*
X144500000Y-92000000D01*
X197500000Y-100500000D02*
X197375000Y-100375000D01*
X117125000Y-92000000D02*
X109500000Y-84375000D01*
X197375000Y-100125000D02*
X197250000Y-100000000D01*
X198500000Y-91625000D02*
X198250000Y-91625000D01*
X169875000Y-90625000D02*
X169750000Y-90750000D01*
X191760000Y-85500000D02*
X191750000Y-85500000D01*
X104750000Y-83875000D02*
X97750000Y-83875000D01*
X198125000Y-91500000D02*
X197750000Y-91500000D01*
X189875000Y-87000000D02*
X189750000Y-87125000D01*
X170240000Y-90360000D02*
X170250000Y-90375000D01*
X191500000Y-85750000D02*
X191375000Y-85750000D01*
X188875000Y-115500000D02*
X191250000Y-113125000D01*
X199000000Y-92000000D02*
X198750000Y-91750000D01*
X181875000Y-88375000D02*
X177375000Y-88375000D01*
X170240000Y-90360000D02*
X170250000Y-90375000D01*
X172780000Y-90360000D02*
X172750000Y-90375000D01*
X188920000Y-115500000D02*
X188875000Y-115500000D01*
X197250000Y-100000000D02*
X197250000Y-92000000D01*
X96125000Y-85375000D02*
X96000000Y-85375000D01*
X95880000Y-85500000D02*
X95875000Y-85500000D01*
X165500000Y-92000000D02*
X160000000Y-97500000D01*
X198000000Y-103250000D02*
X198000000Y-103125000D01*
X169750000Y-90750000D02*
X169625000Y-90750000D01*
X191250000Y-113125000D02*
X195750000Y-113125000D01*
X160000000Y-97500000D02*
X157500000Y-97500000D01*
X191375000Y-85750000D02*
X190250000Y-86875000D01*
X195750000Y-113125000D02*
X196250000Y-112625000D01*
X177125000Y-88625000D02*
X174500000Y-88625000D01*
X196500000Y-104875000D02*
X197875000Y-103500000D01*
X191750000Y-85500000D02*
X191500000Y-85750000D01*
X97500000Y-84125000D02*
X97375000Y-84125000D01*
X160040000Y-97520000D02*
X160000000Y-97500000D01*
X198125000Y-103000000D02*
X198125000Y-101250000D01*
X89625000Y-91750000D02*
X89625000Y-91875000D01*
X198750000Y-91750000D02*
X198625000Y-91750000D01*
X198250000Y-91625000D02*
X198125000Y-91500000D01*
X197250000Y-92000000D02*
X197750000Y-91500000D01*
X95880000Y-85500000D02*
X95875000Y-85500000D01*
X170250000Y-90375000D02*
X170000000Y-90625000D01*
X157500000Y-97520000D02*
X157500000Y-97500000D01*
X97750000Y-83875000D02*
X97500000Y-84125000D01*
X177375000Y-88375000D02*
X177125000Y-88625000D01*
X160040000Y-97520000D02*
X160000000Y-97500000D01*
X197875000Y-103500000D02*
X197875000Y-103375000D01*
X198125000Y-101250000D02*
X197500000Y-100625000D01*
%TO.N,/CFG_RX*%
D24*
X147125000Y-90625000D02*
X147000000Y-90625000D01*
X147380000Y-90360000D02*
X147375000Y-90375000D01*
X147000000Y-90625000D02*
X146875000Y-90750000D01*
X146250000Y-90875000D02*
X145500000Y-91625000D01*
X147375000Y-90375000D02*
X147125000Y-90625000D01*
X146875000Y-90750000D02*
X146625000Y-90750000D01*
X146500000Y-90875000D02*
X146250000Y-90875000D01*
X146625000Y-90750000D02*
X146500000Y-90875000D01*
%TO.N,/CFG_TX*%
X146750000Y-91625000D02*
X146125000Y-92250000D01*
X148750000Y-90875000D02*
X148125000Y-91500000D01*
X149000000Y-90875000D02*
X148750000Y-90875000D01*
X149875000Y-90375000D02*
X149625000Y-90625000D01*
X149625000Y-90625000D02*
X149500000Y-90625000D01*
X149125000Y-90750000D02*
X149000000Y-90875000D01*
X148125000Y-91500000D02*
X148000000Y-91500000D01*
X149920000Y-90360000D02*
X149875000Y-90375000D01*
X147875000Y-91625000D02*
X146750000Y-91625000D01*
X149500000Y-90625000D02*
X149375000Y-90750000D01*
X149375000Y-90750000D02*
X149125000Y-90750000D01*
X148000000Y-91500000D02*
X147875000Y-91625000D01*
%TO.N,/BATSENSE*%
X186375000Y-106875000D02*
X186375000Y-106750000D01*
X181125000Y-112125000D02*
X186375000Y-106875000D01*
X186375000Y-106750000D02*
X186875000Y-106250000D01*
X179190000Y-119300000D02*
X179250000Y-119250000D01*
X179190000Y-119300000D02*
X179250000Y-119250000D01*
X175500000Y-119300000D02*
X175500000Y-119250000D01*
X175500000Y-119250000D02*
X179250000Y-119250000D01*
X168000000Y-86125000D02*
X171250000Y-89375000D01*
X181125000Y-115875000D02*
X181125000Y-112125000D01*
X186875000Y-106250000D02*
X186875000Y-100125000D01*
X186875000Y-100125000D02*
X189500000Y-97500000D01*
X179250000Y-119250000D02*
X181000000Y-117500000D01*
X181000000Y-117500000D02*
X181000000Y-116000000D01*
X181000000Y-116000000D02*
X181125000Y-115875000D01*
%TO.N,/CHAIN_TX*%
X164250000Y-94625000D02*
X164500000Y-94875000D01*
X188875000Y-94875000D02*
X196500000Y-102500000D01*
X164500000Y-94875000D02*
X188875000Y-94875000D01*
%TO.N,/CHAIN_RX*%
X199080000Y-115500000D02*
X199125000Y-115500000D01*
X199000000Y-99620000D02*
X199000000Y-99625000D01*
X199125000Y-115500000D02*
X199125000Y-107625000D01*
X199125000Y-107625000D02*
X199000000Y-107500000D01*
X199000000Y-107500000D02*
X199000000Y-99625000D01*
%TO.N,/K1_SW*%
X134625000Y-90375000D02*
X132875000Y-88625000D01*
X132875000Y-88625000D02*
X132875000Y-88375000D01*
X134680000Y-90360000D02*
X134625000Y-90375000D01*
%TO.N,/VBAT_SW*%
D23*
X157500000Y-121300000D02*
X157500000Y-121250000D01*
X165000000Y-119500000D02*
X164875000Y-119625000D01*
X122750000Y-119875000D02*
X130750000Y-119875000D01*
X165340000Y-119300000D02*
X165375000Y-119250000D01*
X160000000Y-121250000D02*
X157500000Y-121250000D01*
X162125000Y-119875000D02*
X161750000Y-120250000D01*
X165125000Y-119500000D02*
X165000000Y-119500000D01*
X131000000Y-119625000D02*
X155875000Y-119625000D01*
X164500000Y-119750000D02*
X163750000Y-119750000D01*
X160040000Y-121300000D02*
X160000000Y-121250000D01*
X130750000Y-119875000D02*
X131000000Y-119625000D01*
X155875000Y-119625000D02*
X157500000Y-121250000D01*
X163750000Y-119750000D02*
X163625000Y-119875000D01*
X161750000Y-120250000D02*
X161000000Y-120250000D01*
X160040000Y-121300000D02*
X160000000Y-121250000D01*
X165375000Y-119250000D02*
X165125000Y-119500000D01*
X164625000Y-119625000D02*
X164500000Y-119750000D01*
X164875000Y-119625000D02*
X164625000Y-119625000D01*
X161000000Y-120250000D02*
X160000000Y-121250000D01*
X163625000Y-119875000D02*
X162125000Y-119875000D01*
X122625000Y-120000000D02*
X122750000Y-119875000D01*
X157500000Y-121300000D02*
X157500000Y-121250000D01*
X115000000Y-120000000D02*
X122625000Y-120000000D01*
%TO.N,/BTN_START*%
D24*
X142375000Y-87375000D02*
X144125000Y-89125000D01*
X124520000Y-90360000D02*
X124500000Y-90375000D01*
X138000000Y-87375000D02*
X142375000Y-87375000D01*
X124500000Y-90375000D02*
X126375000Y-88500000D01*
X126375000Y-88500000D02*
X126375000Y-87625000D01*
%TO.N,/K2_CLK*%
X132125000Y-90375000D02*
X132125000Y-88000000D01*
X132125000Y-88000000D02*
X132500000Y-87625000D01*
X132140000Y-90360000D02*
X132125000Y-90375000D01*
X132500000Y-87625000D02*
X133500000Y-87625000D01*
X133500000Y-87625000D02*
X134000000Y-88125000D01*
%TO.N,/K2_DT*%
X131500000Y-88500000D02*
X131500000Y-87250000D01*
X129600000Y-90360000D02*
X129625000Y-90375000D01*
X195250000Y-87125000D02*
X196875000Y-85500000D01*
X169375000Y-85375000D02*
X172875000Y-88875000D01*
X131625000Y-87125000D02*
X131625000Y-85625000D01*
X196840000Y-85500000D02*
X196875000Y-85500000D01*
X131875000Y-85500000D02*
X132000000Y-85375000D01*
X131625000Y-85625000D02*
X131750000Y-85500000D01*
X131500000Y-87250000D02*
X131625000Y-87125000D01*
X132000000Y-85375000D02*
X169375000Y-85375000D01*
X131750000Y-85500000D02*
X131875000Y-85500000D01*
X129625000Y-90375000D02*
X131500000Y-88500000D01*
X195250000Y-87625000D02*
X195250000Y-87125000D01*
%TO.N,/K2_SW*%
X194300000Y-85500000D02*
X194250000Y-85500000D01*
X129375000Y-85500000D02*
X129500000Y-85375000D01*
X128875000Y-88500000D02*
X128875000Y-87250000D01*
X129250000Y-85500000D02*
X129375000Y-85500000D01*
X165250000Y-79125000D02*
X174625000Y-69750000D01*
X128875000Y-87250000D02*
X129000000Y-87125000D01*
X130875000Y-85375000D02*
X137000000Y-79250000D01*
X129500000Y-85375000D02*
X130875000Y-85375000D01*
X137000000Y-79250000D02*
X152750000Y-79250000D01*
X127000000Y-90375000D02*
X128875000Y-88500000D01*
X174625000Y-69750000D02*
X181500000Y-69750000D01*
X129000000Y-87125000D02*
X129000000Y-85750000D01*
X181500000Y-72750000D02*
X194250000Y-85500000D01*
X129000000Y-85750000D02*
X129250000Y-85500000D01*
X152750000Y-79250000D02*
X152875000Y-79125000D01*
X181500000Y-69750000D02*
X181500000Y-72750000D01*
X152875000Y-79125000D02*
X165250000Y-79125000D01*
X127060000Y-90360000D02*
X127000000Y-90375000D01*
%TO.N,/BTN_STOP*%
X109000000Y-90500000D02*
X96000000Y-103500000D01*
X96000000Y-108500000D02*
X96000000Y-103500000D01*
X111250000Y-87500000D02*
X109125000Y-89625000D01*
X109000000Y-89875000D02*
X109000000Y-90500000D01*
X109125000Y-89750000D02*
X109000000Y-89875000D01*
X109125000Y-89625000D02*
X109125000Y-89750000D01*
%TO.N,/EPD_BUSY*%
X163375000Y-88625000D02*
X163375000Y-87375000D01*
X165125000Y-90375000D02*
X163375000Y-88625000D01*
X154375000Y-78375000D02*
X118750000Y-78375000D01*
X118750000Y-78375000D02*
X109500000Y-69125000D01*
X165160000Y-90360000D02*
X165125000Y-90375000D01*
X109500000Y-69110000D02*
X109500000Y-69125000D01*
%TO.N,/EPD_CS*%
X117000000Y-79125000D02*
X109500000Y-71625000D01*
X157540000Y-90360000D02*
X157500000Y-90375000D01*
X155750000Y-88625000D02*
X155750000Y-87375000D01*
X157500000Y-90375000D02*
X155750000Y-88625000D01*
X136125000Y-79125000D02*
X117000000Y-79125000D01*
X109500000Y-71650000D02*
X109500000Y-71625000D01*
%TO.N,/EPD_DC*%
X134250000Y-79875000D02*
X115125000Y-79875000D01*
X115125000Y-79875000D02*
X109500000Y-74250000D01*
X160080000Y-90360000D02*
X160125000Y-90375000D01*
X158250000Y-88500000D02*
X158250000Y-87375000D01*
X160125000Y-90375000D02*
X158250000Y-88500000D01*
X109500000Y-74190000D02*
X109500000Y-74250000D01*
%TO.N,/EPD_RES*%
X153750000Y-91000000D02*
X153750000Y-89875000D01*
X161500000Y-90875000D02*
X160875000Y-91500000D01*
X114250000Y-80750000D02*
X114125000Y-80625000D01*
X161750000Y-90875000D02*
X161500000Y-90875000D01*
X162375000Y-90625000D02*
X162250000Y-90625000D01*
X153625000Y-89625000D02*
X153250000Y-89250000D01*
X160625000Y-91625000D02*
X154500000Y-91625000D01*
X162620000Y-90360000D02*
X162625000Y-90375000D01*
X161875000Y-90750000D02*
X161750000Y-90875000D01*
X109500000Y-76730000D02*
X109500000Y-76750000D01*
X153250000Y-89250000D02*
X153250000Y-87375000D01*
X162625000Y-90375000D02*
X162375000Y-90625000D01*
X153625000Y-89750000D02*
X153625000Y-89625000D01*
X154500000Y-91625000D02*
X154375000Y-91500000D01*
X153750000Y-89875000D02*
X153625000Y-89750000D01*
X114125000Y-80625000D02*
X113375000Y-80625000D01*
X154375000Y-91500000D02*
X154250000Y-91500000D01*
X154250000Y-91500000D02*
X153750000Y-91000000D01*
X162125000Y-90750000D02*
X161875000Y-90750000D01*
X160750000Y-91500000D02*
X160625000Y-91625000D01*
X162250000Y-90625000D02*
X162125000Y-90750000D01*
X113375000Y-80625000D02*
X109500000Y-76750000D01*
X160875000Y-91500000D02*
X160750000Y-91500000D01*
X134500000Y-80750000D02*
X114250000Y-80750000D01*
%TO.N,/VBAT_PROT*%
D23*
X110250000Y-119500000D02*
X110250000Y-119250000D01*
X110375000Y-119125000D02*
X110375000Y-118250000D01*
X110500000Y-117125000D02*
X111125000Y-116500000D01*
X109920000Y-120000000D02*
X109875000Y-120000000D01*
X123200000Y-99800000D02*
X123250000Y-99750000D01*
X110375000Y-118250000D02*
X110500000Y-118125000D01*
X110125000Y-119625000D02*
X110250000Y-119500000D01*
X111125000Y-116500000D02*
X111125000Y-114625000D01*
X118375000Y-104625000D02*
X123250000Y-99750000D01*
X110500000Y-118125000D02*
X110500000Y-117125000D01*
X109875000Y-120000000D02*
X110125000Y-119750000D01*
X118375000Y-107375000D02*
X118375000Y-104625000D01*
X110125000Y-119750000D02*
X110125000Y-119625000D01*
X111125000Y-114625000D02*
X118375000Y-107375000D01*
X110250000Y-119250000D02*
X110375000Y-119125000D01*
%TO.N,/VBAT_GND*%
X176750000Y-105375000D02*
X176625000Y-105375000D01*
X185000000Y-105800000D02*
X185000000Y-105750000D01*
X176625000Y-105375000D02*
X173250000Y-102000000D01*
X185000000Y-105750000D02*
X177125000Y-105750000D01*
X170625000Y-101500000D02*
X154875000Y-101500000D01*
X177125000Y-105750000D02*
X176750000Y-105375000D01*
X173250000Y-102000000D02*
X171125000Y-102000000D01*
X154875000Y-101500000D02*
X154750000Y-101375000D01*
X171125000Y-102000000D02*
X170625000Y-101500000D01*
X133800000Y-99800000D02*
X133750000Y-99750000D01*
X135375000Y-101375000D02*
X133750000Y-99750000D01*
X154750000Y-101375000D02*
X135375000Y-101375000D01*
%TD*%
%TA.AperFunction,Conductor*%
%TO.N,GND*%
G36*
X146875527Y-120294407D02*
G01*
X146887340Y-120304496D01*
X147414824Y-120831980D01*
X147407007Y-120834075D01*
X147292993Y-120899901D01*
X147199901Y-120992993D01*
X147134075Y-121107007D01*
X147131980Y-121114824D01*
X146621871Y-120604715D01*
X146573669Y-120671059D01*
X146573667Y-120671063D01*
X146487914Y-120839364D01*
X146453154Y-120946346D01*
X146417190Y-120995846D01*
X146358999Y-121014753D01*
X146300808Y-120995846D01*
X146264844Y-120946345D01*
X146259999Y-120915753D01*
X146259999Y-120374500D01*
X146278906Y-120316309D01*
X146328406Y-120280345D01*
X146358999Y-120275500D01*
X146817336Y-120275500D01*
X146875527Y-120294407D01*
G37*
%TD.AperFunction*%
%TA.AperFunction,Conductor*%
G36*
X198559890Y-94877708D02*
G01*
X198662292Y-94980110D01*
X198776686Y-95046154D01*
X198233122Y-95589718D01*
X198233122Y-95589719D01*
X198318645Y-95651856D01*
X198318651Y-95651860D01*
X198500979Y-95744760D01*
X198503970Y-95745999D01*
X198550496Y-95785735D01*
X198564780Y-95845229D01*
X198541366Y-95901758D01*
X198511030Y-95925673D01*
X198344597Y-96010474D01*
X198185355Y-96126171D01*
X198185354Y-96126172D01*
X198069501Y-96242024D01*
X198014987Y-96269800D01*
X197954555Y-96260229D01*
X197911290Y-96216964D01*
X197900500Y-96172019D01*
X197900500Y-95397664D01*
X197919407Y-95339473D01*
X197929496Y-95327660D01*
X198493844Y-94763311D01*
X198559890Y-94877708D01*
G37*
%TD.AperFunction*%
%TA.AperFunction,Conductor*%
G36*
X198316652Y-93269407D02*
G01*
X198352616Y-93318907D01*
X198352616Y-93380093D01*
X198316652Y-93429593D01*
X198316651Y-93429593D01*
X198233122Y-93490279D01*
X198776687Y-94033844D01*
X198662292Y-94099890D01*
X198559890Y-94202292D01*
X198493844Y-94316686D01*
X197929496Y-93752338D01*
X197901719Y-93697821D01*
X197900500Y-93682334D01*
X197900500Y-93349500D01*
X197919407Y-93291309D01*
X197968907Y-93255345D01*
X197999500Y-93250500D01*
X198258461Y-93250500D01*
X198316652Y-93269407D01*
G37*
%TD.AperFunction*%
%TA.AperFunction,Conductor*%
G36*
X181279004Y-73060041D02*
G01*
X193201567Y-84982604D01*
X193229344Y-85037121D01*
X193225718Y-85083200D01*
X193177828Y-85230593D01*
X193149500Y-85409450D01*
X193149500Y-85590549D01*
X193175042Y-85751820D01*
X193165470Y-85812252D01*
X193122206Y-85855517D01*
X193061774Y-85865088D01*
X193007257Y-85837311D01*
X192925657Y-85755711D01*
X192897880Y-85701194D01*
X192897880Y-85670222D01*
X192909815Y-85594869D01*
X192910500Y-85590547D01*
X192910500Y-85409450D01*
X192882171Y-85230593D01*
X192882171Y-85230591D01*
X192826211Y-85058361D01*
X192743996Y-84897006D01*
X192637553Y-84750499D01*
X192509501Y-84622447D01*
X192362994Y-84516004D01*
X192362993Y-84516003D01*
X192362991Y-84516002D01*
X192201637Y-84433788D01*
X192029406Y-84377828D01*
X191850549Y-84349500D01*
X191850546Y-84349500D01*
X191669454Y-84349500D01*
X191669451Y-84349500D01*
X191490593Y-84377828D01*
X191318362Y-84433788D01*
X191157008Y-84516002D01*
X191117912Y-84544407D01*
X191010499Y-84622447D01*
X190882447Y-84750499D01*
X190843057Y-84804715D01*
X190776002Y-84897008D01*
X190693788Y-85058362D01*
X190637828Y-85230593D01*
X190612839Y-85388365D01*
X190585061Y-85442882D01*
X190530545Y-85470659D01*
X190470113Y-85461087D01*
X190426848Y-85417823D01*
X190417277Y-85388365D01*
X190390453Y-85219003D01*
X190332085Y-85039364D01*
X190246332Y-84871063D01*
X190246328Y-84871057D01*
X190198127Y-84804715D01*
X190198126Y-84804715D01*
X189688019Y-85314822D01*
X189685925Y-85307007D01*
X189620099Y-85192993D01*
X189527007Y-85099901D01*
X189412993Y-85034075D01*
X189405174Y-85031979D01*
X189915283Y-84521871D01*
X189848942Y-84473671D01*
X189848936Y-84473667D01*
X189680635Y-84387914D01*
X189500996Y-84329546D01*
X189314445Y-84300000D01*
X189125555Y-84300000D01*
X188939003Y-84329546D01*
X188759364Y-84387914D01*
X188591063Y-84473667D01*
X188591059Y-84473669D01*
X188524715Y-84521871D01*
X189034824Y-85031980D01*
X189027007Y-85034075D01*
X188912993Y-85099901D01*
X188819901Y-85192993D01*
X188754075Y-85307007D01*
X188751980Y-85314824D01*
X188241871Y-84804715D01*
X188193669Y-84871059D01*
X188193667Y-84871063D01*
X188107914Y-85039364D01*
X188049546Y-85219003D01*
X188020000Y-85405554D01*
X188020000Y-85594445D01*
X188049546Y-85780996D01*
X188107914Y-85960635D01*
X188193667Y-86128936D01*
X188193671Y-86128942D01*
X188241871Y-86195283D01*
X188751979Y-85685174D01*
X188754075Y-85692993D01*
X188819901Y-85807007D01*
X188912993Y-85900099D01*
X189027007Y-85965925D01*
X189034823Y-85968019D01*
X188557339Y-86445504D01*
X188502822Y-86473281D01*
X188487335Y-86474500D01*
X183060930Y-86474500D01*
X183042702Y-86478126D01*
X182944100Y-86497739D01*
X182935264Y-86499496D01*
X182935254Y-86499499D01*
X182816875Y-86548533D01*
X182710334Y-86619720D01*
X181634550Y-87695504D01*
X181580033Y-87723281D01*
X181564546Y-87724500D01*
X181209000Y-87724500D01*
X181150809Y-87705593D01*
X181114845Y-87656093D01*
X181110000Y-87625500D01*
X181110000Y-83378710D01*
X184029500Y-83378710D01*
X184029500Y-83621289D01*
X184061161Y-83861781D01*
X184061161Y-83861786D01*
X184123944Y-84096092D01*
X184123948Y-84096105D01*
X184216772Y-84320204D01*
X184216774Y-84320208D01*
X184216776Y-84320212D01*
X184329817Y-84516004D01*
X184338066Y-84530292D01*
X184485729Y-84722731D01*
X184485731Y-84722733D01*
X184485735Y-84722738D01*
X184657262Y-84894265D01*
X184657266Y-84894268D01*
X184657268Y-84894270D01*
X184827757Y-85025090D01*
X184849711Y-85041936D01*
X185059788Y-85163224D01*
X185283900Y-85256054D01*
X185518211Y-85318838D01*
X185758712Y-85350500D01*
X185758713Y-85350500D01*
X186001287Y-85350500D01*
X186001288Y-85350500D01*
X186241789Y-85318838D01*
X186476100Y-85256054D01*
X186700212Y-85163224D01*
X186910289Y-85041936D01*
X187102738Y-84894265D01*
X187274265Y-84722738D01*
X187421936Y-84530289D01*
X187543224Y-84320212D01*
X187636054Y-84096100D01*
X187698838Y-83861789D01*
X187730500Y-83621288D01*
X187730500Y-83378712D01*
X187698838Y-83138211D01*
X187636054Y-82903900D01*
X187543224Y-82679788D01*
X187421936Y-82469711D01*
X187274265Y-82277262D01*
X187102738Y-82105735D01*
X187102733Y-82105731D01*
X187102731Y-82105729D01*
X186910292Y-81958066D01*
X186910289Y-81958064D01*
X186700212Y-81836776D01*
X186700208Y-81836774D01*
X186700204Y-81836772D01*
X186476105Y-81743948D01*
X186476104Y-81743947D01*
X186476100Y-81743946D01*
X186241789Y-81681162D01*
X186241786Y-81681161D01*
X186241784Y-81681161D01*
X186001289Y-81649500D01*
X186001288Y-81649500D01*
X185758712Y-81649500D01*
X185758710Y-81649500D01*
X185518218Y-81681161D01*
X185518213Y-81681161D01*
X185283907Y-81743944D01*
X185283894Y-81743948D01*
X185059795Y-81836772D01*
X184849707Y-81958066D01*
X184657268Y-82105729D01*
X184485729Y-82277268D01*
X184338066Y-82469707D01*
X184216772Y-82679795D01*
X184123948Y-82903894D01*
X184123944Y-82903907D01*
X184061161Y-83138213D01*
X184061161Y-83138218D01*
X184029500Y-83378710D01*
X181110000Y-83378710D01*
X181110000Y-73130045D01*
X181128907Y-73071854D01*
X181178407Y-73035890D01*
X181239593Y-73035890D01*
X181279004Y-73060041D01*
G37*
%TD.AperFunction*%
%TA.AperFunction,Conductor*%
G36*
X201458691Y-62519407D02*
G01*
X201494655Y-62568907D01*
X201499500Y-62599500D01*
X201499500Y-123400500D01*
X201480593Y-123458691D01*
X201431093Y-123494655D01*
X201400500Y-123499500D01*
X87099500Y-123499500D01*
X87041309Y-123480593D01*
X87005345Y-123431093D01*
X87000500Y-123400500D01*
X87000500Y-120378710D01*
X89649500Y-120378710D01*
X89649500Y-120621289D01*
X89681161Y-120861781D01*
X89681161Y-120861786D01*
X89743944Y-121096092D01*
X89743948Y-121096105D01*
X89836772Y-121320204D01*
X89836774Y-121320208D01*
X89836776Y-121320212D01*
X89958064Y-121530289D01*
X89958066Y-121530292D01*
X90105729Y-121722731D01*
X90105731Y-121722733D01*
X90105735Y-121722738D01*
X90277262Y-121894265D01*
X90277266Y-121894268D01*
X90277268Y-121894270D01*
X90339001Y-121941639D01*
X90469711Y-122041936D01*
X90679788Y-122163224D01*
X90903900Y-122256054D01*
X91138211Y-122318838D01*
X91378712Y-122350500D01*
X91378713Y-122350500D01*
X91621287Y-122350500D01*
X91621288Y-122350500D01*
X91861789Y-122318838D01*
X92096100Y-122256054D01*
X92320212Y-122163224D01*
X92530289Y-122041936D01*
X92722738Y-121894265D01*
X92894265Y-121722738D01*
X93041936Y-121530289D01*
X93163224Y-121320212D01*
X93256054Y-121096100D01*
X93318838Y-120861789D01*
X93350500Y-120621288D01*
X93350500Y-120378712D01*
X93318838Y-120138211D01*
X93256054Y-119903900D01*
X93163224Y-119679788D01*
X93041936Y-119469711D01*
X93021594Y-119443201D01*
X92894270Y-119277268D01*
X92894268Y-119277266D01*
X92894265Y-119277262D01*
X92722738Y-119105735D01*
X92722733Y-119105731D01*
X92722731Y-119105729D01*
X92530292Y-118958066D01*
X92418670Y-118893621D01*
X92320212Y-118836776D01*
X92320208Y-118836774D01*
X92320204Y-118836772D01*
X92171861Y-118775327D01*
X108469500Y-118775327D01*
X108469500Y-121224672D01*
X108469501Y-121224684D01*
X108484033Y-121297736D01*
X108484035Y-121297742D01*
X108539397Y-121380599D01*
X108539400Y-121380602D01*
X108582575Y-121409450D01*
X108622260Y-121435966D01*
X108677808Y-121447015D01*
X108695315Y-121450498D01*
X108695320Y-121450498D01*
X108695326Y-121450500D01*
X108695327Y-121450500D01*
X111144673Y-121450500D01*
X111144674Y-121450500D01*
X111217740Y-121435966D01*
X111300601Y-121380601D01*
X111355966Y-121297740D01*
X111370500Y-121224674D01*
X111370500Y-119885839D01*
X113549500Y-119885839D01*
X113549500Y-120114160D01*
X113585214Y-120339655D01*
X113655769Y-120556799D01*
X113759420Y-120760227D01*
X113759424Y-120760233D01*
X113893616Y-120944931D01*
X113893618Y-120944933D01*
X113893621Y-120944937D01*
X114055063Y-121106379D01*
X114055066Y-121106381D01*
X114055068Y-121106383D01*
X114230956Y-121234174D01*
X114239772Y-121240579D01*
X114443201Y-121344231D01*
X114660340Y-121414784D01*
X114660341Y-121414784D01*
X114660344Y-121414785D01*
X114885840Y-121450500D01*
X114885843Y-121450500D01*
X115114160Y-121450500D01*
X115339655Y-121414785D01*
X115339656Y-121414784D01*
X115339660Y-121414784D01*
X115556799Y-121344231D01*
X115760228Y-121240579D01*
X115944937Y-121106379D01*
X116106379Y-120944937D01*
X116240579Y-120760228D01*
X116268946Y-120704555D01*
X116312211Y-120661290D01*
X116357156Y-120650500D01*
X122200803Y-120650500D01*
X122258994Y-120669407D01*
X122294958Y-120718907D01*
X122294958Y-120780093D01*
X122280898Y-120807685D01*
X122241596Y-120861781D01*
X122216002Y-120897008D01*
X122133788Y-121058362D01*
X122077828Y-121230593D01*
X122049500Y-121409450D01*
X122049500Y-121590549D01*
X122077828Y-121769406D01*
X122133788Y-121941637D01*
X122188747Y-122049501D01*
X122216004Y-122102994D01*
X122322447Y-122249501D01*
X122450499Y-122377553D01*
X122597006Y-122483996D01*
X122758361Y-122566211D01*
X122930591Y-122622171D01*
X123002136Y-122633502D01*
X123109451Y-122650500D01*
X123109454Y-122650500D01*
X123290549Y-122650500D01*
X123379977Y-122636335D01*
X123469409Y-122622171D01*
X123641639Y-122566211D01*
X123802994Y-122483996D01*
X123949501Y-122377553D01*
X124077553Y-122249501D01*
X124183996Y-122102994D01*
X124266211Y-121941639D01*
X124322171Y-121769409D01*
X124350500Y-121590546D01*
X124350500Y-121409454D01*
X124350500Y-121409450D01*
X124322171Y-121230593D01*
X124322171Y-121230591D01*
X124266211Y-121058361D01*
X124183996Y-120897006D01*
X124077553Y-120750499D01*
X124021555Y-120694501D01*
X123993780Y-120639987D01*
X124003351Y-120579555D01*
X124046616Y-120536290D01*
X124091561Y-120525500D01*
X130814068Y-120525500D01*
X130814069Y-120525500D01*
X130939744Y-120500501D01*
X131058127Y-120451465D01*
X131101969Y-120422171D01*
X131164669Y-120380277D01*
X131218618Y-120326328D01*
X131240451Y-120304496D01*
X131294968Y-120276719D01*
X131310454Y-120275500D01*
X136456656Y-120275500D01*
X136514847Y-120294407D01*
X136550811Y-120343907D01*
X136550811Y-120405093D01*
X136514847Y-120454593D01*
X136501601Y-120462710D01*
X136397008Y-120516002D01*
X136349527Y-120550499D01*
X136250499Y-120622447D01*
X136122447Y-120750499D01*
X136115379Y-120760228D01*
X136016002Y-120897008D01*
X135933788Y-121058362D01*
X135877828Y-121230593D01*
X135849500Y-121409450D01*
X135849500Y-121590549D01*
X135877828Y-121769406D01*
X135933788Y-121941637D01*
X135988747Y-122049501D01*
X136016004Y-122102994D01*
X136122447Y-122249501D01*
X136250499Y-122377553D01*
X136397006Y-122483996D01*
X136558361Y-122566211D01*
X136730591Y-122622171D01*
X136802136Y-122633502D01*
X136909451Y-122650500D01*
X136909454Y-122650500D01*
X137090549Y-122650500D01*
X137179977Y-122636335D01*
X137269409Y-122622171D01*
X137441639Y-122566211D01*
X137602994Y-122483996D01*
X137749501Y-122377553D01*
X137877553Y-122249501D01*
X137983996Y-122102994D01*
X138066211Y-121941639D01*
X138122171Y-121769409D01*
X138150500Y-121590546D01*
X138150500Y-121409454D01*
X138150500Y-121409450D01*
X138122171Y-121230593D01*
X138122171Y-121230591D01*
X138066211Y-121058361D01*
X137983996Y-120897006D01*
X137877553Y-120750499D01*
X137749501Y-120622447D01*
X137602994Y-120516004D01*
X137602993Y-120516003D01*
X137602991Y-120516002D01*
X137498399Y-120462710D01*
X137455134Y-120419445D01*
X137445563Y-120359013D01*
X137473341Y-120304496D01*
X137527857Y-120276719D01*
X137543344Y-120275500D01*
X143761000Y-120275500D01*
X143819191Y-120294407D01*
X143855155Y-120343907D01*
X143860000Y-120374500D01*
X143860000Y-121099999D01*
X143860001Y-121100000D01*
X144598120Y-121100000D01*
X144594075Y-121107007D01*
X144560000Y-121234174D01*
X144560000Y-121365826D01*
X144594075Y-121492993D01*
X144598120Y-121500000D01*
X143860002Y-121500000D01*
X143860001Y-121500001D01*
X143860001Y-122244791D01*
X143862909Y-122269874D01*
X143908213Y-122372477D01*
X143987522Y-122451786D01*
X144090127Y-122497090D01*
X144115203Y-122499999D01*
X144859998Y-122499999D01*
X144860000Y-122499998D01*
X144860000Y-121761879D01*
X144867007Y-121765925D01*
X144994174Y-121800000D01*
X145125826Y-121800000D01*
X145252993Y-121765925D01*
X145260000Y-121761879D01*
X145260000Y-122499998D01*
X145260001Y-122499999D01*
X146004790Y-122499999D01*
X146004791Y-122499998D01*
X146029874Y-122497090D01*
X146132477Y-122451786D01*
X146211786Y-122372477D01*
X146257090Y-122269872D01*
X146259999Y-122244797D01*
X146260000Y-122244795D01*
X146260000Y-122240395D01*
X146259999Y-121684247D01*
X146278906Y-121626056D01*
X146328406Y-121590092D01*
X146389592Y-121590092D01*
X146439092Y-121626056D01*
X146453154Y-121653654D01*
X146487914Y-121760635D01*
X146573667Y-121928936D01*
X146573671Y-121928942D01*
X146621871Y-121995283D01*
X147131979Y-121485174D01*
X147134075Y-121492993D01*
X147199901Y-121607007D01*
X147292993Y-121700099D01*
X147407007Y-121765925D01*
X147414822Y-121768019D01*
X146904715Y-122278126D01*
X146904715Y-122278127D01*
X146971057Y-122326328D01*
X146971063Y-122326332D01*
X147139364Y-122412085D01*
X147319003Y-122470453D01*
X147505555Y-122500000D01*
X147694445Y-122500000D01*
X147880996Y-122470453D01*
X148060635Y-122412085D01*
X148228939Y-122326330D01*
X148295283Y-122278127D01*
X147785175Y-121768019D01*
X147792993Y-121765925D01*
X147907007Y-121700099D01*
X148000099Y-121607007D01*
X148065925Y-121492993D01*
X148068019Y-121485175D01*
X148578127Y-121995283D01*
X148626330Y-121928939D01*
X148712085Y-121760635D01*
X148770453Y-121580996D01*
X148800000Y-121394445D01*
X148800000Y-121205554D01*
X148770453Y-121019003D01*
X148712085Y-120839364D01*
X148626332Y-120671063D01*
X148626328Y-120671057D01*
X148578127Y-120604715D01*
X148578126Y-120604715D01*
X148068019Y-121114822D01*
X148065925Y-121107007D01*
X148000099Y-120992993D01*
X147907007Y-120899901D01*
X147792993Y-120834075D01*
X147785175Y-120831980D01*
X148312660Y-120304496D01*
X148367177Y-120276719D01*
X148382664Y-120275500D01*
X155564546Y-120275500D01*
X155622737Y-120294407D01*
X155634550Y-120304496D01*
X156339810Y-121009756D01*
X156367587Y-121064273D01*
X156367587Y-121095246D01*
X156349500Y-121209449D01*
X156349500Y-121390549D01*
X156377828Y-121569406D01*
X156433788Y-121741637D01*
X156511558Y-121894270D01*
X156516004Y-121902994D01*
X156622447Y-122049501D01*
X156750499Y-122177553D01*
X156897006Y-122283996D01*
X157058361Y-122366211D01*
X157230591Y-122422171D01*
X157302136Y-122433502D01*
X157409451Y-122450500D01*
X157409454Y-122450500D01*
X157590549Y-122450500D01*
X157679977Y-122436335D01*
X157769409Y-122422171D01*
X157941639Y-122366211D01*
X158102994Y-122283996D01*
X158249501Y-122177553D01*
X158377553Y-122049501D01*
X158456159Y-121941307D01*
X158505658Y-121905345D01*
X158536251Y-121900500D01*
X159003749Y-121900500D01*
X159061940Y-121919407D01*
X159083839Y-121941306D01*
X159162447Y-122049501D01*
X159290499Y-122177553D01*
X159437006Y-122283996D01*
X159598361Y-122366211D01*
X159770591Y-122422171D01*
X159842136Y-122433502D01*
X159949451Y-122450500D01*
X159949454Y-122450500D01*
X160130549Y-122450500D01*
X160219977Y-122436335D01*
X160309409Y-122422171D01*
X160481639Y-122366211D01*
X160642994Y-122283996D01*
X160789501Y-122177553D01*
X160917553Y-122049501D01*
X161023996Y-121902994D01*
X161106211Y-121741639D01*
X161162171Y-121569409D01*
X161186661Y-121414784D01*
X161190500Y-121390549D01*
X161190500Y-121209451D01*
X161166942Y-121060715D01*
X161176513Y-121000283D01*
X161194717Y-120975227D01*
X161240451Y-120929495D01*
X161294968Y-120901719D01*
X161310453Y-120900500D01*
X161814068Y-120900500D01*
X161814069Y-120900500D01*
X161939744Y-120875501D01*
X162058127Y-120826465D01*
X162071071Y-120817816D01*
X162164669Y-120755277D01*
X162315231Y-120604715D01*
X162365451Y-120554496D01*
X162419967Y-120526719D01*
X162435454Y-120525500D01*
X163689068Y-120525500D01*
X163689069Y-120525500D01*
X163814744Y-120500501D01*
X163933127Y-120451465D01*
X163976969Y-120422171D01*
X163976969Y-120422172D01*
X163976972Y-120422168D01*
X163984442Y-120417177D01*
X164039433Y-120400500D01*
X164259150Y-120400500D01*
X164314149Y-120417183D01*
X164342260Y-120435966D01*
X164397808Y-120447015D01*
X164415315Y-120450498D01*
X164415320Y-120450498D01*
X164415326Y-120450500D01*
X164415327Y-120450500D01*
X166264673Y-120450500D01*
X166264674Y-120450500D01*
X166337740Y-120435966D01*
X166420601Y-120380601D01*
X166475966Y-120297740D01*
X166490500Y-120224674D01*
X166490500Y-118375326D01*
X166475966Y-118302260D01*
X166456864Y-118273671D01*
X166420602Y-118219400D01*
X166420599Y-118219397D01*
X166337742Y-118164035D01*
X166337740Y-118164034D01*
X166337737Y-118164033D01*
X166337736Y-118164033D01*
X166264684Y-118149501D01*
X166264674Y-118149500D01*
X164415326Y-118149500D01*
X164415325Y-118149500D01*
X164415315Y-118149501D01*
X164342263Y-118164033D01*
X164342257Y-118164035D01*
X164259400Y-118219397D01*
X164259397Y-118219400D01*
X164204035Y-118302257D01*
X164204033Y-118302263D01*
X164189501Y-118375315D01*
X164189500Y-118375327D01*
X164189500Y-119000500D01*
X164170593Y-119058691D01*
X164121093Y-119094655D01*
X164090500Y-119099500D01*
X163685930Y-119099500D01*
X163654586Y-119105735D01*
X163560256Y-119124499D01*
X163560255Y-119124499D01*
X163560252Y-119124500D01*
X163441873Y-119173534D01*
X163390567Y-119207816D01*
X163335566Y-119224500D01*
X162060930Y-119224500D01*
X161998093Y-119236999D01*
X161935256Y-119249499D01*
X161935255Y-119249499D01*
X161935252Y-119249500D01*
X161816873Y-119298534D01*
X161710331Y-119369722D01*
X161509549Y-119570504D01*
X161455033Y-119598281D01*
X161439546Y-119599500D01*
X160935930Y-119599500D01*
X160810254Y-119624499D01*
X160761220Y-119644810D01*
X160691876Y-119673532D01*
X160585331Y-119744722D01*
X160209176Y-120120876D01*
X160154660Y-120148653D01*
X160134435Y-120149449D01*
X160134435Y-120149500D01*
X160133151Y-120149500D01*
X160131424Y-120149568D01*
X160130558Y-120149500D01*
X160130546Y-120149500D01*
X159949454Y-120149500D01*
X159949451Y-120149500D01*
X159770593Y-120177828D01*
X159598362Y-120233788D01*
X159437008Y-120316002D01*
X159390902Y-120349500D01*
X159290499Y-120422447D01*
X159290497Y-120422449D01*
X159162440Y-120550506D01*
X159156497Y-120558688D01*
X159106999Y-120594654D01*
X159076403Y-120599500D01*
X158463597Y-120599500D01*
X158405406Y-120580593D01*
X158383503Y-120558688D01*
X158377559Y-120550506D01*
X158377555Y-120550502D01*
X158377553Y-120550499D01*
X158249501Y-120422447D01*
X158102994Y-120316004D01*
X158102993Y-120316003D01*
X158102991Y-120316002D01*
X157941637Y-120233788D01*
X157769406Y-120177828D01*
X157590549Y-120149500D01*
X157590546Y-120149500D01*
X157409454Y-120149500D01*
X157409451Y-120149500D01*
X157381574Y-120153915D01*
X157321142Y-120144343D01*
X157296084Y-120126138D01*
X156794445Y-119624499D01*
X156289669Y-119119723D01*
X156289665Y-119119720D01*
X156183126Y-119048534D01*
X156064747Y-118999500D01*
X156064745Y-118999499D01*
X156064744Y-118999499D01*
X155939069Y-118974500D01*
X130935931Y-118974500D01*
X130935930Y-118974500D01*
X130873093Y-118986999D01*
X130810256Y-118999499D01*
X130810255Y-118999499D01*
X130810252Y-118999500D01*
X130691873Y-119048534D01*
X130585330Y-119119723D01*
X130509549Y-119195504D01*
X130455032Y-119223281D01*
X130439546Y-119224500D01*
X122685930Y-119224500D01*
X122623093Y-119236999D01*
X122560256Y-119249499D01*
X122560255Y-119249499D01*
X122560252Y-119249500D01*
X122441873Y-119298534D01*
X122390567Y-119332816D01*
X122335566Y-119349500D01*
X116357156Y-119349500D01*
X116298965Y-119330593D01*
X116268946Y-119295445D01*
X116240579Y-119239772D01*
X116240575Y-119239766D01*
X116106383Y-119055068D01*
X116106381Y-119055066D01*
X116106379Y-119055063D01*
X115944937Y-118893621D01*
X115944933Y-118893618D01*
X115944931Y-118893616D01*
X115760233Y-118759424D01*
X115760227Y-118759420D01*
X115556799Y-118655769D01*
X115339655Y-118585214D01*
X115114160Y-118549500D01*
X115114157Y-118549500D01*
X114885843Y-118549500D01*
X114885840Y-118549500D01*
X114660344Y-118585214D01*
X114443200Y-118655769D01*
X114239772Y-118759420D01*
X114239766Y-118759424D01*
X114055068Y-118893616D01*
X113893616Y-119055068D01*
X113759424Y-119239766D01*
X113759420Y-119239772D01*
X113655769Y-119443200D01*
X113585214Y-119660344D01*
X113549500Y-119885839D01*
X111370500Y-119885839D01*
X111370500Y-118775326D01*
X111355966Y-118702260D01*
X111300601Y-118619399D01*
X111300599Y-118619397D01*
X111217742Y-118564035D01*
X111217737Y-118564033D01*
X111155435Y-118551639D01*
X111102051Y-118521741D01*
X111076437Y-118466176D01*
X111083287Y-118416657D01*
X111100411Y-118375315D01*
X111125501Y-118314743D01*
X111150500Y-118189069D01*
X111150500Y-118060931D01*
X111150500Y-117435453D01*
X111169407Y-117377262D01*
X111179490Y-117365455D01*
X111630276Y-116914670D01*
X111701465Y-116808127D01*
X111750501Y-116689744D01*
X111772211Y-116580601D01*
X111775500Y-116564069D01*
X111775500Y-114935453D01*
X111794407Y-114877262D01*
X111804490Y-114865455D01*
X118276238Y-108393708D01*
X176649500Y-108393708D01*
X176649500Y-108606290D01*
X176682752Y-108816238D01*
X176748443Y-109018412D01*
X176844948Y-109207815D01*
X176844950Y-109207819D01*
X176969891Y-109379786D01*
X176969893Y-109379788D01*
X176969896Y-109379792D01*
X177120208Y-109530104D01*
X177120211Y-109530106D01*
X177120213Y-109530108D01*
X177292180Y-109655049D01*
X177292184Y-109655051D01*
X177481588Y-109751557D01*
X177683757Y-109817246D01*
X177683758Y-109817246D01*
X177683761Y-109817247D01*
X177893710Y-109850500D01*
X177893713Y-109850500D01*
X178106290Y-109850500D01*
X178316238Y-109817247D01*
X178316239Y-109817246D01*
X178316243Y-109817246D01*
X178518412Y-109751557D01*
X178707816Y-109655051D01*
X178879792Y-109530104D01*
X179030104Y-109379792D01*
X179136199Y-109233764D01*
X179155049Y-109207819D01*
X179155051Y-109207816D01*
X179251557Y-109018412D01*
X179317246Y-108816243D01*
X179350500Y-108606287D01*
X179350500Y-108393713D01*
X179350500Y-108393708D01*
X179350499Y-108393701D01*
X179317247Y-108183761D01*
X179313481Y-108172170D01*
X179251557Y-107981588D01*
X179155051Y-107792184D01*
X179155049Y-107792180D01*
X179030108Y-107620213D01*
X179030106Y-107620211D01*
X179030104Y-107620208D01*
X178879792Y-107469896D01*
X178879788Y-107469893D01*
X178879786Y-107469891D01*
X178707819Y-107344950D01*
X178707815Y-107344948D01*
X178518412Y-107248443D01*
X178316238Y-107182752D01*
X178106290Y-107149500D01*
X178106287Y-107149500D01*
X177893713Y-107149500D01*
X177893710Y-107149500D01*
X177683761Y-107182752D01*
X177481587Y-107248443D01*
X177292184Y-107344948D01*
X177292180Y-107344950D01*
X177120213Y-107469891D01*
X176969891Y-107620213D01*
X176844950Y-107792180D01*
X176844948Y-107792184D01*
X176748443Y-107981587D01*
X176682752Y-108183761D01*
X176649501Y-108393701D01*
X176649500Y-108393708D01*
X118276238Y-108393708D01*
X118880276Y-107789670D01*
X118951465Y-107683127D01*
X119000501Y-107564744D01*
X119003546Y-107549435D01*
X119025500Y-107439069D01*
X119025500Y-105678710D01*
X169399500Y-105678710D01*
X169399500Y-105921289D01*
X169431161Y-106161781D01*
X169431161Y-106161786D01*
X169431162Y-106161789D01*
X169493634Y-106394937D01*
X169493944Y-106396092D01*
X169493948Y-106396105D01*
X169586772Y-106620204D01*
X169586774Y-106620208D01*
X169586776Y-106620212D01*
X169658783Y-106744931D01*
X169708066Y-106830292D01*
X169855729Y-107022731D01*
X169855731Y-107022733D01*
X169855735Y-107022738D01*
X170027262Y-107194265D01*
X170027266Y-107194268D01*
X170027268Y-107194270D01*
X170168463Y-107302612D01*
X170219711Y-107341936D01*
X170429788Y-107463224D01*
X170429794Y-107463226D01*
X170429795Y-107463227D01*
X170445896Y-107469896D01*
X170653900Y-107556054D01*
X170888211Y-107618838D01*
X171128712Y-107650500D01*
X171128713Y-107650500D01*
X171371287Y-107650500D01*
X171371288Y-107650500D01*
X171611789Y-107618838D01*
X171846100Y-107556054D01*
X172070212Y-107463224D01*
X172280289Y-107341936D01*
X172472738Y-107194265D01*
X172644265Y-107022738D01*
X172791936Y-106830289D01*
X172913224Y-106620212D01*
X173006054Y-106396100D01*
X173068838Y-106161789D01*
X173100500Y-105921288D01*
X173100500Y-105678712D01*
X173068838Y-105438211D01*
X173006054Y-105203900D01*
X172913224Y-104979788D01*
X172791936Y-104769711D01*
X172791933Y-104769707D01*
X172644270Y-104577268D01*
X172644268Y-104577266D01*
X172644265Y-104577262D01*
X172472738Y-104405735D01*
X172472733Y-104405731D01*
X172472731Y-104405729D01*
X172280292Y-104258066D01*
X172280289Y-104258064D01*
X172070212Y-104136776D01*
X172070208Y-104136774D01*
X172070204Y-104136772D01*
X171846105Y-104043948D01*
X171846104Y-104043947D01*
X171846100Y-104043946D01*
X171611789Y-103981162D01*
X171611786Y-103981161D01*
X171611784Y-103981161D01*
X171371289Y-103949500D01*
X171371288Y-103949500D01*
X171128712Y-103949500D01*
X171128710Y-103949500D01*
X170888218Y-103981161D01*
X170888213Y-103981161D01*
X170653907Y-104043944D01*
X170653894Y-104043948D01*
X170429795Y-104136772D01*
X170219707Y-104258066D01*
X170027268Y-104405729D01*
X169855729Y-104577268D01*
X169708066Y-104769707D01*
X169586772Y-104979795D01*
X169493948Y-105203894D01*
X169493944Y-105203907D01*
X169431161Y-105438213D01*
X169431161Y-105438218D01*
X169399500Y-105678710D01*
X119025500Y-105678710D01*
X119025500Y-104935454D01*
X119044407Y-104877263D01*
X119054496Y-104865450D01*
X122940450Y-100979496D01*
X122994967Y-100951719D01*
X123010454Y-100950500D01*
X124124673Y-100950500D01*
X124124674Y-100950500D01*
X124197740Y-100935966D01*
X124280601Y-100880601D01*
X124335966Y-100797740D01*
X124350500Y-100724674D01*
X124350500Y-99709450D01*
X125249500Y-99709450D01*
X125249500Y-99890549D01*
X125277828Y-100069406D01*
X125333788Y-100241637D01*
X125406530Y-100384402D01*
X125416004Y-100402994D01*
X125522447Y-100549501D01*
X125650499Y-100677553D01*
X125797006Y-100783996D01*
X125958361Y-100866211D01*
X126130591Y-100922171D01*
X126188583Y-100931356D01*
X126309451Y-100950500D01*
X126309454Y-100950500D01*
X126490549Y-100950500D01*
X126600235Y-100933127D01*
X126669409Y-100922171D01*
X126841639Y-100866211D01*
X127002994Y-100783996D01*
X127149501Y-100677553D01*
X127277553Y-100549501D01*
X127383996Y-100402994D01*
X127466211Y-100241639D01*
X127522171Y-100069409D01*
X127539249Y-99961585D01*
X127550500Y-99890549D01*
X127550500Y-99709450D01*
X127522171Y-99530593D01*
X127522171Y-99530591D01*
X127466211Y-99358361D01*
X127383996Y-99197006D01*
X127277553Y-99050499D01*
X127149501Y-98922447D01*
X127002994Y-98816004D01*
X127002993Y-98816003D01*
X127002991Y-98816002D01*
X126841637Y-98733788D01*
X126669406Y-98677828D01*
X126490549Y-98649500D01*
X126490546Y-98649500D01*
X126309454Y-98649500D01*
X126309451Y-98649500D01*
X126130593Y-98677828D01*
X125958362Y-98733788D01*
X125797008Y-98816002D01*
X125723752Y-98869225D01*
X125650499Y-98922447D01*
X125522447Y-99050499D01*
X125483058Y-99104714D01*
X125416002Y-99197008D01*
X125333788Y-99358362D01*
X125277828Y-99530593D01*
X125249500Y-99709450D01*
X124350500Y-99709450D01*
X124350500Y-98875326D01*
X124335966Y-98802260D01*
X124316864Y-98773671D01*
X124280602Y-98719400D01*
X124280599Y-98719397D01*
X124197742Y-98664035D01*
X124197740Y-98664034D01*
X124197737Y-98664033D01*
X124197736Y-98664033D01*
X124124684Y-98649501D01*
X124124674Y-98649500D01*
X122275326Y-98649500D01*
X122275325Y-98649500D01*
X122275315Y-98649501D01*
X122202263Y-98664033D01*
X122202257Y-98664035D01*
X122119400Y-98719397D01*
X122119397Y-98719400D01*
X122064035Y-98802257D01*
X122064033Y-98802263D01*
X122049501Y-98875315D01*
X122049500Y-98875327D01*
X122049500Y-99989546D01*
X122030593Y-100047737D01*
X122020504Y-100059550D01*
X117869718Y-104210336D01*
X117811138Y-104298011D01*
X117811137Y-104298013D01*
X117798534Y-104316873D01*
X117749500Y-104435252D01*
X117749499Y-104435257D01*
X117724500Y-104560930D01*
X117724500Y-105267171D01*
X117705593Y-105325362D01*
X117656093Y-105361326D01*
X117594907Y-105361326D01*
X117545407Y-105325362D01*
X117529873Y-105292794D01*
X117506054Y-105203900D01*
X117413224Y-104979788D01*
X117291936Y-104769711D01*
X117291933Y-104769707D01*
X117144270Y-104577268D01*
X117144268Y-104577266D01*
X117144265Y-104577262D01*
X116972738Y-104405735D01*
X116972733Y-104405731D01*
X116972731Y-104405729D01*
X116780292Y-104258066D01*
X116780289Y-104258064D01*
X116570212Y-104136776D01*
X116570208Y-104136774D01*
X116570204Y-104136772D01*
X116346105Y-104043948D01*
X116346104Y-104043947D01*
X116346100Y-104043946D01*
X116111789Y-103981162D01*
X116111786Y-103981161D01*
X116111784Y-103981161D01*
X115871289Y-103949500D01*
X115871288Y-103949500D01*
X115628712Y-103949500D01*
X115628710Y-103949500D01*
X115388218Y-103981161D01*
X115388213Y-103981161D01*
X115153907Y-104043944D01*
X115153894Y-104043948D01*
X114929795Y-104136772D01*
X114719707Y-104258066D01*
X114527268Y-104405729D01*
X114355729Y-104577268D01*
X114208066Y-104769707D01*
X114086772Y-104979795D01*
X113993948Y-105203894D01*
X113993944Y-105203907D01*
X113931161Y-105438213D01*
X113931161Y-105438218D01*
X113899500Y-105678710D01*
X113899500Y-105921289D01*
X113931161Y-106161781D01*
X113931161Y-106161786D01*
X113931162Y-106161789D01*
X113993634Y-106394937D01*
X113993944Y-106396092D01*
X113993948Y-106396105D01*
X114086772Y-106620204D01*
X114086774Y-106620208D01*
X114086776Y-106620212D01*
X114158783Y-106744931D01*
X114208066Y-106830292D01*
X114355729Y-107022731D01*
X114355731Y-107022733D01*
X114355735Y-107022738D01*
X114527262Y-107194265D01*
X114527266Y-107194268D01*
X114527268Y-107194270D01*
X114668463Y-107302612D01*
X114719711Y-107341936D01*
X114929788Y-107463224D01*
X114929794Y-107463226D01*
X114929795Y-107463227D01*
X114945896Y-107469896D01*
X115153900Y-107556054D01*
X115388211Y-107618838D01*
X115628712Y-107650500D01*
X115628713Y-107650500D01*
X115871287Y-107650500D01*
X115871288Y-107650500D01*
X116111789Y-107618838D01*
X116346100Y-107556054D01*
X116570212Y-107463224D01*
X116780289Y-107341936D01*
X116972738Y-107194265D01*
X117144265Y-107022738D01*
X117291936Y-106830289D01*
X117413224Y-106620212D01*
X117506054Y-106396100D01*
X117529873Y-106307203D01*
X117563197Y-106255891D01*
X117620318Y-106233964D01*
X117679419Y-106249799D01*
X117717924Y-106297349D01*
X117724500Y-106332828D01*
X117724500Y-107064546D01*
X117705593Y-107122737D01*
X117695504Y-107134550D01*
X110619720Y-114210334D01*
X110548534Y-114316873D01*
X110499500Y-114435252D01*
X110499499Y-114435257D01*
X110474500Y-114560930D01*
X110474500Y-116189546D01*
X110455593Y-116247737D01*
X110445504Y-116259549D01*
X109994722Y-116710331D01*
X109929380Y-116808126D01*
X109923534Y-116816874D01*
X109874500Y-116935252D01*
X109874499Y-116935257D01*
X109849500Y-117060930D01*
X109849500Y-117835565D01*
X109832816Y-117890566D01*
X109802955Y-117935257D01*
X109802954Y-117935256D01*
X109798537Y-117941867D01*
X109749500Y-118060252D01*
X109749499Y-118060257D01*
X109724500Y-118185930D01*
X109724500Y-118450500D01*
X109705593Y-118508691D01*
X109656093Y-118544655D01*
X109625500Y-118549500D01*
X108695326Y-118549500D01*
X108695325Y-118549500D01*
X108695315Y-118549501D01*
X108622263Y-118564033D01*
X108622257Y-118564035D01*
X108539400Y-118619397D01*
X108539397Y-118619400D01*
X108484035Y-118702257D01*
X108484033Y-118702263D01*
X108469501Y-118775315D01*
X108469500Y-118775327D01*
X92171861Y-118775327D01*
X92096105Y-118743948D01*
X92096104Y-118743947D01*
X92096100Y-118743946D01*
X91861789Y-118681162D01*
X91861786Y-118681161D01*
X91861784Y-118681161D01*
X91621289Y-118649500D01*
X91621288Y-118649500D01*
X91378712Y-118649500D01*
X91378710Y-118649500D01*
X91138218Y-118681161D01*
X91138213Y-118681161D01*
X90903907Y-118743944D01*
X90903894Y-118743948D01*
X90679795Y-118836772D01*
X90679788Y-118836775D01*
X90679788Y-118836776D01*
X90654974Y-118851102D01*
X90469707Y-118958066D01*
X90277268Y-119105729D01*
X90105729Y-119277268D01*
X89958066Y-119469707D01*
X89836772Y-119679795D01*
X89743948Y-119903894D01*
X89743944Y-119903907D01*
X89681161Y-120138213D01*
X89681161Y-120138218D01*
X89649500Y-120378710D01*
X87000500Y-120378710D01*
X87000500Y-94437684D01*
X88200000Y-94437684D01*
X88200000Y-94642315D01*
X88232008Y-94844412D01*
X88295243Y-95039027D01*
X88388139Y-95221348D01*
X88388143Y-95221354D01*
X88450279Y-95306876D01*
X88993843Y-94763311D01*
X89059890Y-94877708D01*
X89162292Y-94980110D01*
X89276686Y-95046154D01*
X88733122Y-95589718D01*
X88733122Y-95589719D01*
X88818645Y-95651856D01*
X88818651Y-95651860D01*
X89000979Y-95744760D01*
X89003970Y-95745999D01*
X89050496Y-95785735D01*
X89064780Y-95845229D01*
X89041366Y-95901758D01*
X89011030Y-95925673D01*
X88844597Y-96010474D01*
X88685355Y-96126171D01*
X88546171Y-96265355D01*
X88430474Y-96424597D01*
X88341116Y-96599974D01*
X88280289Y-96787178D01*
X88249500Y-96981579D01*
X88249500Y-97178420D01*
X88280289Y-97372821D01*
X88341116Y-97560025D01*
X88419056Y-97712993D01*
X88430476Y-97735405D01*
X88546172Y-97894646D01*
X88685354Y-98033828D01*
X88844595Y-98149524D01*
X89019975Y-98238884D01*
X89019977Y-98238884D01*
X89019978Y-98238885D01*
X89019981Y-98238887D01*
X89072175Y-98255846D01*
X89121675Y-98291810D01*
X89140582Y-98350001D01*
X89121674Y-98408191D01*
X89072175Y-98444154D01*
X89019981Y-98461112D01*
X89019978Y-98461114D01*
X88844597Y-98550474D01*
X88685355Y-98666171D01*
X88546171Y-98805355D01*
X88430474Y-98964597D01*
X88341116Y-99139974D01*
X88280289Y-99327178D01*
X88249500Y-99521579D01*
X88249500Y-99718420D01*
X88280289Y-99912821D01*
X88341116Y-100100025D01*
X88425645Y-100265925D01*
X88430476Y-100275405D01*
X88546172Y-100434646D01*
X88685354Y-100573828D01*
X88844595Y-100689524D01*
X89019975Y-100778884D01*
X89207174Y-100839709D01*
X89207175Y-100839709D01*
X89207178Y-100839710D01*
X89401580Y-100870500D01*
X89401583Y-100870500D01*
X89598420Y-100870500D01*
X89792821Y-100839710D01*
X89792822Y-100839709D01*
X89792826Y-100839709D01*
X89980025Y-100778884D01*
X90155405Y-100689524D01*
X90314646Y-100573828D01*
X90453828Y-100434646D01*
X90569524Y-100275405D01*
X90658884Y-100100025D01*
X90719709Y-99912826D01*
X90722620Y-99894445D01*
X90750500Y-99718420D01*
X90750500Y-99521579D01*
X90719710Y-99327178D01*
X90719709Y-99327174D01*
X90658884Y-99139975D01*
X90569524Y-98964595D01*
X90453828Y-98805354D01*
X90314646Y-98666172D01*
X90155405Y-98550476D01*
X90155404Y-98550475D01*
X90155402Y-98550474D01*
X89980025Y-98461116D01*
X89975221Y-98459555D01*
X89927823Y-98444154D01*
X89878324Y-98408191D01*
X89859417Y-98350000D01*
X89878324Y-98291809D01*
X89927823Y-98255845D01*
X89980025Y-98238884D01*
X90155405Y-98149524D01*
X90314646Y-98033828D01*
X90453828Y-97894646D01*
X90569524Y-97735405D01*
X90658884Y-97560025D01*
X90719709Y-97372826D01*
X90719710Y-97372821D01*
X90750500Y-97178420D01*
X90750500Y-96981579D01*
X90719710Y-96787178D01*
X90686192Y-96684020D01*
X90658884Y-96599975D01*
X90569524Y-96424595D01*
X90453828Y-96265354D01*
X90314646Y-96126172D01*
X90155405Y-96010476D01*
X90155404Y-96010475D01*
X90155402Y-96010474D01*
X89988969Y-95925673D01*
X89945704Y-95882408D01*
X89936133Y-95821976D01*
X89963910Y-95767460D01*
X89996034Y-95745996D01*
X89999032Y-95744754D01*
X90181348Y-95651860D01*
X90181353Y-95651856D01*
X90266876Y-95589720D01*
X90266876Y-95589719D01*
X89723312Y-95046155D01*
X89837708Y-94980110D01*
X89940110Y-94877708D01*
X90006155Y-94763312D01*
X90549719Y-95306876D01*
X90549720Y-95306876D01*
X90611856Y-95221353D01*
X90611860Y-95221348D01*
X90704756Y-95039027D01*
X90767991Y-94844412D01*
X90800000Y-94642315D01*
X90800000Y-94437684D01*
X90767991Y-94235587D01*
X90704756Y-94040972D01*
X90611860Y-93858651D01*
X90611856Y-93858645D01*
X90549719Y-93773122D01*
X90549718Y-93773122D01*
X90006154Y-94316686D01*
X89940110Y-94202292D01*
X89837708Y-94099890D01*
X89723311Y-94033843D01*
X90266876Y-93490280D01*
X90183348Y-93429593D01*
X90147384Y-93380092D01*
X90147384Y-93318907D01*
X90183348Y-93269407D01*
X90241539Y-93250500D01*
X90524673Y-93250500D01*
X90524674Y-93250500D01*
X90597740Y-93235966D01*
X90680601Y-93180601D01*
X90735966Y-93097740D01*
X90750500Y-93024674D01*
X90750500Y-91878710D01*
X94399500Y-91878710D01*
X94399500Y-92121289D01*
X94431161Y-92361781D01*
X94431161Y-92361786D01*
X94493944Y-92596092D01*
X94493948Y-92596105D01*
X94586772Y-92820204D01*
X94586774Y-92820208D01*
X94586776Y-92820212D01*
X94704821Y-93024672D01*
X94708066Y-93030292D01*
X94855729Y-93222731D01*
X94855731Y-93222733D01*
X94855735Y-93222738D01*
X95027262Y-93394265D01*
X95027266Y-93394268D01*
X95027268Y-93394270D01*
X95073302Y-93429593D01*
X95219711Y-93541936D01*
X95429788Y-93663224D01*
X95653900Y-93756054D01*
X95888211Y-93818838D01*
X96128712Y-93850500D01*
X96128713Y-93850500D01*
X96371287Y-93850500D01*
X96371288Y-93850500D01*
X96611789Y-93818838D01*
X96846100Y-93756054D01*
X97070212Y-93663224D01*
X97280289Y-93541936D01*
X97472738Y-93394265D01*
X97644265Y-93222738D01*
X97791936Y-93030289D01*
X97913224Y-92820212D01*
X98006054Y-92596100D01*
X98068838Y-92361789D01*
X98100500Y-92121288D01*
X98100500Y-91878712D01*
X98068838Y-91638211D01*
X98006054Y-91403900D01*
X97913224Y-91179788D01*
X97791936Y-90969711D01*
X97759073Y-90926883D01*
X97644270Y-90777268D01*
X97644268Y-90777266D01*
X97644265Y-90777262D01*
X97472738Y-90605735D01*
X97472733Y-90605731D01*
X97472731Y-90605729D01*
X97280292Y-90458066D01*
X97267189Y-90450501D01*
X97070212Y-90336776D01*
X97070208Y-90336774D01*
X97070204Y-90336772D01*
X96846105Y-90243948D01*
X96846104Y-90243947D01*
X96846100Y-90243946D01*
X96611789Y-90181162D01*
X96611786Y-90181161D01*
X96611784Y-90181161D01*
X96371289Y-90149500D01*
X96371288Y-90149500D01*
X96128712Y-90149500D01*
X96128710Y-90149500D01*
X95888218Y-90181161D01*
X95888213Y-90181161D01*
X95653907Y-90243944D01*
X95653894Y-90243948D01*
X95429795Y-90336772D01*
X95219707Y-90458066D01*
X95027268Y-90605729D01*
X94855729Y-90777268D01*
X94708066Y-90969707D01*
X94586772Y-91179795D01*
X94493948Y-91403894D01*
X94493944Y-91403907D01*
X94431161Y-91638213D01*
X94431161Y-91638218D01*
X94399500Y-91878710D01*
X90750500Y-91878710D01*
X90750500Y-91585453D01*
X90769407Y-91527262D01*
X90779490Y-91515455D01*
X95628605Y-86666339D01*
X95683120Y-86638564D01*
X95714094Y-86638564D01*
X95746215Y-86643651D01*
X95789452Y-86650500D01*
X95789454Y-86650500D01*
X95970549Y-86650500D01*
X96062323Y-86635964D01*
X96149409Y-86622171D01*
X96321639Y-86566211D01*
X96482994Y-86483996D01*
X96629501Y-86377553D01*
X96757553Y-86249501D01*
X96863996Y-86102994D01*
X96946211Y-85941639D01*
X97002171Y-85769409D01*
X97022442Y-85641421D01*
X97030500Y-85590549D01*
X97030500Y-85430453D01*
X97049407Y-85372262D01*
X97059496Y-85360450D01*
X97102793Y-85317152D01*
X97157309Y-85289374D01*
X97217741Y-85298945D01*
X97261006Y-85342209D01*
X97270579Y-85402638D01*
X97269500Y-85409452D01*
X97269500Y-85590549D01*
X97297828Y-85769406D01*
X97353788Y-85941637D01*
X97410288Y-86052525D01*
X97436004Y-86102994D01*
X97542447Y-86249501D01*
X97670499Y-86377553D01*
X97817006Y-86483996D01*
X97978361Y-86566211D01*
X98150591Y-86622171D01*
X98204271Y-86630673D01*
X98329451Y-86650500D01*
X98329454Y-86650500D01*
X98510549Y-86650500D01*
X98602323Y-86635964D01*
X98689409Y-86622171D01*
X98861639Y-86566211D01*
X99022994Y-86483996D01*
X99169501Y-86377553D01*
X99297553Y-86249501D01*
X99403996Y-86102994D01*
X99486211Y-85941639D01*
X99542171Y-85769409D01*
X99562442Y-85641421D01*
X99570500Y-85590549D01*
X99570500Y-85409450D01*
X99542171Y-85230593D01*
X99542171Y-85230591D01*
X99486211Y-85058361D01*
X99403996Y-84897006D01*
X99297553Y-84750499D01*
X99241555Y-84694501D01*
X99213780Y-84639987D01*
X99223351Y-84579555D01*
X99266616Y-84536290D01*
X99311561Y-84525500D01*
X100068439Y-84525500D01*
X100126630Y-84544407D01*
X100162594Y-84593907D01*
X100162594Y-84655093D01*
X100138444Y-84694501D01*
X100082447Y-84750499D01*
X100043057Y-84804715D01*
X99976002Y-84897008D01*
X99893788Y-85058362D01*
X99837828Y-85230593D01*
X99809500Y-85409450D01*
X99809500Y-85590549D01*
X99837828Y-85769406D01*
X99893788Y-85941637D01*
X99950288Y-86052525D01*
X99976004Y-86102994D01*
X100082447Y-86249501D01*
X100210499Y-86377553D01*
X100357006Y-86483996D01*
X100518361Y-86566211D01*
X100690591Y-86622171D01*
X100744271Y-86630673D01*
X100869451Y-86650500D01*
X100869454Y-86650500D01*
X101050549Y-86650500D01*
X101142323Y-86635964D01*
X101229409Y-86622171D01*
X101401639Y-86566211D01*
X101562994Y-86483996D01*
X101709501Y-86377553D01*
X101837553Y-86249501D01*
X101943996Y-86102994D01*
X102026211Y-85941639D01*
X102082171Y-85769409D01*
X102102442Y-85641421D01*
X102110500Y-85590549D01*
X102110500Y-85409450D01*
X102082171Y-85230593D01*
X102082171Y-85230591D01*
X102026211Y-85058361D01*
X101943996Y-84897006D01*
X101837553Y-84750499D01*
X101781555Y-84694501D01*
X101753780Y-84639987D01*
X101763351Y-84579555D01*
X101806616Y-84536290D01*
X101851561Y-84525500D01*
X102250500Y-84525500D01*
X102308691Y-84544407D01*
X102344655Y-84593907D01*
X102349500Y-84624500D01*
X102349500Y-86424672D01*
X102349501Y-86424684D01*
X102364033Y-86497736D01*
X102364035Y-86497742D01*
X102419397Y-86580599D01*
X102419400Y-86580602D01*
X102487413Y-86626046D01*
X102502260Y-86635966D01*
X102557808Y-86647015D01*
X102575315Y-86650498D01*
X102575320Y-86650498D01*
X102575326Y-86650500D01*
X102575327Y-86650500D01*
X104424673Y-86650500D01*
X104424674Y-86650500D01*
X104497740Y-86635966D01*
X104580601Y-86580601D01*
X104635966Y-86497740D01*
X104650500Y-86424674D01*
X104650500Y-84934453D01*
X104669407Y-84876262D01*
X104718907Y-84840298D01*
X104780093Y-84840298D01*
X104819501Y-84864447D01*
X104835331Y-84880277D01*
X104941873Y-84951465D01*
X105060256Y-85000501D01*
X105185931Y-85025500D01*
X108518239Y-85025500D01*
X108576430Y-85044407D01*
X108598330Y-85066307D01*
X108622447Y-85099501D01*
X108750499Y-85227553D01*
X108897006Y-85333996D01*
X109058361Y-85416211D01*
X109230591Y-85472171D01*
X109310170Y-85484775D01*
X109388365Y-85497160D01*
X109442881Y-85524937D01*
X109470659Y-85579454D01*
X109461088Y-85639886D01*
X109417823Y-85683151D01*
X109388365Y-85692722D01*
X109219003Y-85719546D01*
X109039364Y-85777914D01*
X108871063Y-85863667D01*
X108871059Y-85863669D01*
X108804715Y-85911871D01*
X108804714Y-85911872D01*
X109314822Y-86421980D01*
X109307007Y-86424075D01*
X109192993Y-86489901D01*
X109099901Y-86582993D01*
X109034075Y-86697007D01*
X109031980Y-86704824D01*
X108521871Y-86194715D01*
X108473669Y-86261059D01*
X108473667Y-86261063D01*
X108387914Y-86429364D01*
X108329546Y-86609003D01*
X108300000Y-86795554D01*
X108300000Y-86984445D01*
X108329546Y-87170996D01*
X108387914Y-87350635D01*
X108473667Y-87518936D01*
X108473671Y-87518942D01*
X108521871Y-87585283D01*
X109031979Y-87075174D01*
X109034075Y-87082993D01*
X109099901Y-87197007D01*
X109192993Y-87290099D01*
X109307007Y-87355925D01*
X109314821Y-87358019D01*
X108804715Y-87868126D01*
X108804715Y-87868127D01*
X108871057Y-87916328D01*
X108871063Y-87916332D01*
X109039364Y-88002085D01*
X109219003Y-88060453D01*
X109405555Y-88090000D01*
X109594445Y-88090000D01*
X109780996Y-88060453D01*
X109948022Y-88006183D01*
X110009207Y-88006183D01*
X110058708Y-88042147D01*
X110077615Y-88100338D01*
X110058708Y-88158529D01*
X110048619Y-88170342D01*
X108894438Y-89324525D01*
X108894437Y-89324524D01*
X108824524Y-89394438D01*
X108775091Y-89480059D01*
X108775088Y-89480065D01*
X108764406Y-89519936D01*
X108764406Y-89519937D01*
X108749787Y-89574496D01*
X108749760Y-89574594D01*
X108749421Y-89575854D01*
X108723827Y-89620134D01*
X108699525Y-89644437D01*
X108650091Y-89730059D01*
X108650087Y-89730067D01*
X108644614Y-89750498D01*
X108644614Y-89750500D01*
X108627195Y-89815509D01*
X108624500Y-89825566D01*
X108624500Y-90303455D01*
X108605593Y-90361646D01*
X108595504Y-90373459D01*
X96848459Y-102120504D01*
X96793942Y-102148281D01*
X96778455Y-102149500D01*
X94875326Y-102149500D01*
X94875325Y-102149500D01*
X94875315Y-102149501D01*
X94802263Y-102164033D01*
X94802257Y-102164035D01*
X94719400Y-102219397D01*
X94719397Y-102219400D01*
X94664035Y-102302257D01*
X94664033Y-102302263D01*
X94649501Y-102375315D01*
X94649500Y-102375327D01*
X94649500Y-104624672D01*
X94649501Y-104624684D01*
X94664033Y-104697736D01*
X94664035Y-104697742D01*
X94719397Y-104780599D01*
X94719400Y-104780602D01*
X94764790Y-104810930D01*
X94802260Y-104835966D01*
X94857808Y-104847015D01*
X94875315Y-104850498D01*
X94875320Y-104850498D01*
X94875326Y-104850500D01*
X95525500Y-104850500D01*
X95583691Y-104869407D01*
X95619655Y-104918907D01*
X95624500Y-104949500D01*
X95624500Y-107130080D01*
X95605593Y-107188271D01*
X95556094Y-107224233D01*
X95481588Y-107248443D01*
X95416094Y-107281813D01*
X95292184Y-107344948D01*
X95292180Y-107344950D01*
X95120213Y-107469891D01*
X94969891Y-107620213D01*
X94844950Y-107792180D01*
X94844948Y-107792184D01*
X94748443Y-107981587D01*
X94682752Y-108183761D01*
X94649501Y-108393701D01*
X94649500Y-108393708D01*
X94649500Y-108606290D01*
X94682752Y-108816238D01*
X94748443Y-109018412D01*
X94844948Y-109207815D01*
X94844950Y-109207819D01*
X94969891Y-109379786D01*
X94969893Y-109379788D01*
X94969896Y-109379792D01*
X95120208Y-109530104D01*
X95120211Y-109530106D01*
X95120213Y-109530108D01*
X95292180Y-109655049D01*
X95292184Y-109655051D01*
X95481588Y-109751557D01*
X95683757Y-109817246D01*
X95683758Y-109817246D01*
X95683761Y-109817247D01*
X95893710Y-109850500D01*
X95893713Y-109850500D01*
X96106290Y-109850500D01*
X96316238Y-109817247D01*
X96316239Y-109817246D01*
X96316243Y-109817246D01*
X96518412Y-109751557D01*
X96707816Y-109655051D01*
X96879792Y-109530104D01*
X97030104Y-109379792D01*
X97136199Y-109233764D01*
X97155049Y-109207819D01*
X97155051Y-109207816D01*
X97251557Y-109018412D01*
X97317246Y-108816243D01*
X97350500Y-108606287D01*
X97350500Y-108393713D01*
X97350500Y-108393707D01*
X97350499Y-108393701D01*
X97349883Y-108389814D01*
X107100000Y-108389814D01*
X107100000Y-108610185D01*
X107134471Y-108827829D01*
X107202569Y-109037413D01*
X107302611Y-109233757D01*
X107378688Y-109338467D01*
X107919668Y-108797485D01*
X107923978Y-108807890D01*
X107995112Y-108914351D01*
X108085649Y-109004888D01*
X108192110Y-109076022D01*
X108202510Y-109080330D01*
X107661531Y-109621310D01*
X107661531Y-109621311D01*
X107766234Y-109697383D01*
X107766240Y-109697387D01*
X107962586Y-109797430D01*
X108172170Y-109865528D01*
X108389815Y-109900000D01*
X108610185Y-109900000D01*
X108827829Y-109865528D01*
X109037413Y-109797430D01*
X109233759Y-109697387D01*
X109233764Y-109697383D01*
X109338467Y-109621311D01*
X109338467Y-109621310D01*
X108797487Y-109080330D01*
X108807890Y-109076022D01*
X108914351Y-109004888D01*
X109004888Y-108914351D01*
X109076022Y-108807890D01*
X109080330Y-108797487D01*
X109621310Y-109338467D01*
X109621311Y-109338467D01*
X109697383Y-109233764D01*
X109697387Y-109233759D01*
X109797430Y-109037413D01*
X109865528Y-108827829D01*
X109900000Y-108610185D01*
X109900000Y-108389814D01*
X109865528Y-108172170D01*
X109797430Y-107962586D01*
X109697387Y-107766240D01*
X109697383Y-107766234D01*
X109621311Y-107661531D01*
X109621310Y-107661531D01*
X109080330Y-108202510D01*
X109076022Y-108192110D01*
X109004888Y-108085649D01*
X108914351Y-107995112D01*
X108807890Y-107923978D01*
X108797485Y-107919668D01*
X109338467Y-107378688D01*
X109233757Y-107302611D01*
X109037413Y-107202569D01*
X108827829Y-107134471D01*
X108610185Y-107100000D01*
X108389815Y-107100000D01*
X108172170Y-107134471D01*
X107962586Y-107202569D01*
X107766240Y-107302612D01*
X107766236Y-107302614D01*
X107661531Y-107378687D01*
X108202512Y-107919668D01*
X108192110Y-107923978D01*
X108085649Y-107995112D01*
X107995112Y-108085649D01*
X107923978Y-108192110D01*
X107919668Y-108202512D01*
X107378687Y-107661531D01*
X107302614Y-107766236D01*
X107302612Y-107766240D01*
X107202569Y-107962586D01*
X107134471Y-108172170D01*
X107100000Y-108389814D01*
X97349883Y-108389814D01*
X97317247Y-108183761D01*
X97313481Y-108172170D01*
X97251557Y-107981588D01*
X97155051Y-107792184D01*
X97155049Y-107792180D01*
X97030108Y-107620213D01*
X97030106Y-107620211D01*
X97030104Y-107620208D01*
X96879792Y-107469896D01*
X96879788Y-107469893D01*
X96879786Y-107469891D01*
X96707819Y-107344950D01*
X96707815Y-107344948D01*
X96626377Y-107303454D01*
X96518412Y-107248443D01*
X96443905Y-107224233D01*
X96394407Y-107188270D01*
X96375500Y-107130080D01*
X96375500Y-104949500D01*
X96394407Y-104891309D01*
X96443907Y-104855345D01*
X96474500Y-104850500D01*
X97124673Y-104850500D01*
X97124674Y-104850500D01*
X97197740Y-104835966D01*
X97280601Y-104780601D01*
X97335966Y-104697740D01*
X97350500Y-104624674D01*
X97350500Y-104575327D01*
X100549500Y-104575327D01*
X100549500Y-107024672D01*
X100549501Y-107024684D01*
X100564033Y-107097736D01*
X100564035Y-107097742D01*
X100619397Y-107180599D01*
X100619400Y-107180602D01*
X100695557Y-107231487D01*
X100702260Y-107235966D01*
X100757808Y-107247015D01*
X100775315Y-107250498D01*
X100775320Y-107250498D01*
X100775326Y-107250500D01*
X100775327Y-107250500D01*
X103224673Y-107250500D01*
X103224674Y-107250500D01*
X103297740Y-107235966D01*
X103380601Y-107180601D01*
X103435966Y-107097740D01*
X103450500Y-107024674D01*
X103450500Y-104575326D01*
X103435966Y-104502260D01*
X103420795Y-104479554D01*
X103380602Y-104419400D01*
X103380599Y-104419397D01*
X103297742Y-104364035D01*
X103297740Y-104364034D01*
X103297737Y-104364033D01*
X103297736Y-104364033D01*
X103224684Y-104349501D01*
X103224674Y-104349500D01*
X100775326Y-104349500D01*
X100775325Y-104349500D01*
X100775315Y-104349501D01*
X100702263Y-104364033D01*
X100702257Y-104364035D01*
X100619400Y-104419397D01*
X100619397Y-104419400D01*
X100564035Y-104502257D01*
X100564033Y-104502263D01*
X100549501Y-104575315D01*
X100549500Y-104575327D01*
X97350500Y-104575327D01*
X97350500Y-103389814D01*
X107100000Y-103389814D01*
X107100000Y-103610185D01*
X107134471Y-103827829D01*
X107202569Y-104037413D01*
X107302611Y-104233757D01*
X107378688Y-104338467D01*
X107919668Y-103797485D01*
X107923978Y-103807890D01*
X107995112Y-103914351D01*
X108085649Y-104004888D01*
X108192110Y-104076022D01*
X108202510Y-104080330D01*
X107661531Y-104621310D01*
X107661531Y-104621311D01*
X107766234Y-104697383D01*
X107766240Y-104697387D01*
X107962586Y-104797430D01*
X108172170Y-104865528D01*
X108389815Y-104900000D01*
X108610185Y-104900000D01*
X108827829Y-104865528D01*
X109037413Y-104797430D01*
X109233759Y-104697387D01*
X109233764Y-104697383D01*
X109338467Y-104621311D01*
X109338467Y-104621310D01*
X108797487Y-104080330D01*
X108807890Y-104076022D01*
X108914351Y-104004888D01*
X109004888Y-103914351D01*
X109076022Y-103807890D01*
X109080330Y-103797487D01*
X109621310Y-104338467D01*
X109621311Y-104338467D01*
X109697383Y-104233764D01*
X109697387Y-104233759D01*
X109797430Y-104037413D01*
X109865528Y-103827829D01*
X109900000Y-103610185D01*
X109900000Y-103389814D01*
X109865528Y-103172170D01*
X109797430Y-102962586D01*
X109697387Y-102766240D01*
X109697383Y-102766234D01*
X109621311Y-102661531D01*
X109621310Y-102661531D01*
X109080330Y-103202510D01*
X109076022Y-103192110D01*
X109004888Y-103085649D01*
X108914351Y-102995112D01*
X108807890Y-102923978D01*
X108797485Y-102919668D01*
X109338467Y-102378688D01*
X109233757Y-102302611D01*
X109037413Y-102202569D01*
X108827829Y-102134471D01*
X108610185Y-102100000D01*
X108389815Y-102100000D01*
X108172170Y-102134471D01*
X107962586Y-102202569D01*
X107766240Y-102302612D01*
X107766236Y-102302614D01*
X107661531Y-102378687D01*
X108202512Y-102919668D01*
X108192110Y-102923978D01*
X108085649Y-102995112D01*
X107995112Y-103085649D01*
X107923978Y-103192110D01*
X107919668Y-103202512D01*
X107378687Y-102661531D01*
X107302614Y-102766236D01*
X107302612Y-102766240D01*
X107202569Y-102962586D01*
X107134471Y-103172170D01*
X107100000Y-103389814D01*
X97350500Y-103389814D01*
X97350500Y-102721544D01*
X97369407Y-102663353D01*
X97379490Y-102651546D01*
X109076377Y-90954658D01*
X109130892Y-90926883D01*
X109191324Y-90936454D01*
X109234589Y-90979719D01*
X109240533Y-90994071D01*
X109248439Y-91018405D01*
X109248441Y-91018408D01*
X109344948Y-91207815D01*
X109344950Y-91207819D01*
X109469891Y-91379786D01*
X109469893Y-91379788D01*
X109469896Y-91379792D01*
X109620208Y-91530104D01*
X109620211Y-91530106D01*
X109620213Y-91530108D01*
X109792180Y-91655049D01*
X109792184Y-91655051D01*
X109981588Y-91751557D01*
X110183757Y-91817246D01*
X110183758Y-91817246D01*
X110183761Y-91817247D01*
X110393710Y-91850500D01*
X110393713Y-91850500D01*
X110606290Y-91850500D01*
X110816238Y-91817247D01*
X110816239Y-91817246D01*
X110816243Y-91817246D01*
X111018412Y-91751557D01*
X111207816Y-91655051D01*
X111230995Y-91638211D01*
X111303610Y-91585453D01*
X111379792Y-91530104D01*
X111530104Y-91379792D01*
X111623154Y-91251719D01*
X111655049Y-91207819D01*
X111655051Y-91207816D01*
X111751557Y-91018412D01*
X111817246Y-90816243D01*
X111825515Y-90764034D01*
X111850500Y-90606290D01*
X111850500Y-90393709D01*
X111817247Y-90183761D01*
X111816403Y-90181162D01*
X111751557Y-89981588D01*
X111655051Y-89792184D01*
X111655049Y-89792180D01*
X111530108Y-89620213D01*
X111530106Y-89620211D01*
X111530104Y-89620208D01*
X111379792Y-89469896D01*
X111379788Y-89469893D01*
X111379786Y-89469891D01*
X111207819Y-89344950D01*
X111207815Y-89344948D01*
X111018412Y-89248443D01*
X110816238Y-89182752D01*
X110606290Y-89149500D01*
X110606287Y-89149500D01*
X110393713Y-89149500D01*
X110383135Y-89151175D01*
X110322703Y-89141601D01*
X110279440Y-89098336D01*
X110269870Y-89037903D01*
X110297648Y-88983389D01*
X111201543Y-88079496D01*
X111256059Y-88051719D01*
X111271546Y-88050500D01*
X111322474Y-88050500D01*
X111322475Y-88050500D01*
X111462485Y-88012984D01*
X111462487Y-88012982D01*
X111462489Y-88012982D01*
X111588010Y-87940512D01*
X111588010Y-87940511D01*
X111588015Y-87940509D01*
X111690509Y-87838015D01*
X111755045Y-87726234D01*
X111800514Y-87685294D01*
X111861364Y-87678898D01*
X111910785Y-87705731D01*
X116710330Y-92505276D01*
X116710333Y-92505278D01*
X116807916Y-92570480D01*
X116807915Y-92570480D01*
X116816871Y-92576464D01*
X116816872Y-92576464D01*
X116816873Y-92576465D01*
X116935256Y-92625501D01*
X117060931Y-92650500D01*
X144189546Y-92650500D01*
X144247737Y-92669407D01*
X144259550Y-92679496D01*
X147731050Y-96150996D01*
X147758827Y-96205513D01*
X147749256Y-96265945D01*
X147705991Y-96309210D01*
X147661046Y-96320000D01*
X147505555Y-96320000D01*
X147319003Y-96349546D01*
X147139364Y-96407914D01*
X146971063Y-96493667D01*
X146971059Y-96493669D01*
X146904715Y-96541871D01*
X146904714Y-96541872D01*
X147414822Y-97051980D01*
X147407007Y-97054075D01*
X147292993Y-97119901D01*
X147199901Y-97212993D01*
X147134075Y-97327007D01*
X147131980Y-97334824D01*
X146621871Y-96824715D01*
X146573669Y-96891059D01*
X146573667Y-96891063D01*
X146487914Y-97059364D01*
X146429546Y-97239003D01*
X146427781Y-97250152D01*
X146400003Y-97304669D01*
X146345487Y-97332446D01*
X146285055Y-97322875D01*
X146241790Y-97279610D01*
X146232219Y-97250152D01*
X146230453Y-97239003D01*
X146172085Y-97059364D01*
X146086332Y-96891063D01*
X146086328Y-96891057D01*
X146038127Y-96824715D01*
X146038126Y-96824715D01*
X145528019Y-97334822D01*
X145525925Y-97327007D01*
X145460099Y-97212993D01*
X145367007Y-97119901D01*
X145252993Y-97054075D01*
X145245174Y-97051979D01*
X145755283Y-96541871D01*
X145688942Y-96493671D01*
X145688936Y-96493667D01*
X145520635Y-96407914D01*
X145340996Y-96349546D01*
X145154445Y-96320000D01*
X144965555Y-96320000D01*
X144779003Y-96349546D01*
X144599364Y-96407914D01*
X144431063Y-96493667D01*
X144431059Y-96493669D01*
X144364715Y-96541871D01*
X144874824Y-97051980D01*
X144867007Y-97054075D01*
X144752993Y-97119901D01*
X144659901Y-97212993D01*
X144594075Y-97327007D01*
X144591980Y-97334824D01*
X144081871Y-96824715D01*
X144033669Y-96891059D01*
X144033667Y-96891063D01*
X143947914Y-97059364D01*
X143889546Y-97239003D01*
X143860000Y-97425554D01*
X143860000Y-97614445D01*
X143889546Y-97800996D01*
X143947914Y-97980635D01*
X144033667Y-98148936D01*
X144033671Y-98148942D01*
X144081871Y-98215283D01*
X144591979Y-97705174D01*
X144594075Y-97712993D01*
X144659901Y-97827007D01*
X144752993Y-97920099D01*
X144867007Y-97985925D01*
X144874822Y-97988019D01*
X144364715Y-98498126D01*
X144364715Y-98498127D01*
X144431057Y-98546328D01*
X144431063Y-98546332D01*
X144599364Y-98632085D01*
X144779003Y-98690453D01*
X144965555Y-98720000D01*
X145154445Y-98720000D01*
X145340996Y-98690453D01*
X145520635Y-98632085D01*
X145688939Y-98546330D01*
X145755283Y-98498127D01*
X145245175Y-97988019D01*
X145252993Y-97985925D01*
X145367007Y-97920099D01*
X145460099Y-97827007D01*
X145525925Y-97712993D01*
X145528019Y-97705175D01*
X146038127Y-98215283D01*
X146086330Y-98148939D01*
X146172085Y-97980635D01*
X146230453Y-97800995D01*
X146232219Y-97789848D01*
X146259996Y-97735331D01*
X146314512Y-97707553D01*
X146374944Y-97717124D01*
X146418209Y-97760388D01*
X146427781Y-97789848D01*
X146429546Y-97800995D01*
X146487914Y-97980635D01*
X146573667Y-98148936D01*
X146573671Y-98148942D01*
X146621871Y-98215283D01*
X147131979Y-97705174D01*
X147134075Y-97712993D01*
X147199901Y-97827007D01*
X147292993Y-97920099D01*
X147407007Y-97985925D01*
X147414822Y-97988019D01*
X146904715Y-98498126D01*
X146904715Y-98498127D01*
X146971057Y-98546328D01*
X146971063Y-98546332D01*
X147139364Y-98632085D01*
X147319003Y-98690453D01*
X147505555Y-98720000D01*
X147694445Y-98720000D01*
X147880996Y-98690453D01*
X148060635Y-98632085D01*
X148228939Y-98546330D01*
X148295283Y-98498127D01*
X147785175Y-97988019D01*
X147792993Y-97985925D01*
X147907007Y-97920099D01*
X148000099Y-97827007D01*
X148065925Y-97712993D01*
X148068019Y-97705177D01*
X148578126Y-98215283D01*
X148578127Y-98215283D01*
X148626330Y-98148939D01*
X148712085Y-97980635D01*
X148770453Y-97800996D01*
X148800000Y-97614445D01*
X148800000Y-97458953D01*
X148818907Y-97400762D01*
X148868407Y-97364798D01*
X148929593Y-97364798D01*
X148969001Y-97388947D01*
X149585331Y-98005277D01*
X149585334Y-98005279D01*
X149691869Y-98076463D01*
X149691870Y-98076463D01*
X149691874Y-98076466D01*
X149755816Y-98102951D01*
X149810256Y-98125501D01*
X149935931Y-98150500D01*
X156485545Y-98150500D01*
X156543736Y-98169407D01*
X156565637Y-98191309D01*
X156600982Y-98239957D01*
X156622447Y-98269501D01*
X156750499Y-98397553D01*
X156897006Y-98503996D01*
X157058361Y-98586211D01*
X157230591Y-98642171D01*
X157302136Y-98653502D01*
X157409451Y-98670500D01*
X157409454Y-98670500D01*
X157590549Y-98670500D01*
X157679977Y-98656335D01*
X157769409Y-98642171D01*
X157941639Y-98586211D01*
X158102994Y-98503996D01*
X158249501Y-98397553D01*
X158377553Y-98269501D01*
X158434363Y-98191309D01*
X158483863Y-98155345D01*
X158514455Y-98150500D01*
X159025545Y-98150500D01*
X159083736Y-98169407D01*
X159105637Y-98191309D01*
X159140982Y-98239957D01*
X159162447Y-98269501D01*
X159290499Y-98397553D01*
X159437006Y-98503996D01*
X159598361Y-98586211D01*
X159770591Y-98642171D01*
X159842136Y-98653502D01*
X159949451Y-98670500D01*
X159949454Y-98670500D01*
X160130549Y-98670500D01*
X160219977Y-98656335D01*
X160309409Y-98642171D01*
X160481639Y-98586211D01*
X160642994Y-98503996D01*
X160789501Y-98397553D01*
X160917553Y-98269501D01*
X161023996Y-98122994D01*
X161106211Y-97961639D01*
X161162171Y-97789409D01*
X161176332Y-97700000D01*
X161185280Y-97643506D01*
X161190500Y-97610548D01*
X161190500Y-97429451D01*
X161171044Y-97306614D01*
X161180615Y-97246182D01*
X161198818Y-97221126D01*
X163589215Y-94830729D01*
X163643730Y-94802954D01*
X163704162Y-94812525D01*
X163744953Y-94851234D01*
X163809489Y-94963012D01*
X163809491Y-94963015D01*
X163911985Y-95065509D01*
X163911987Y-95065510D01*
X163911989Y-95065512D01*
X164037511Y-95137982D01*
X164037512Y-95137982D01*
X164037515Y-95137984D01*
X164177525Y-95175500D01*
X164242954Y-95175500D01*
X164292452Y-95188762D01*
X164355062Y-95224910D01*
X164355064Y-95224910D01*
X164355065Y-95224911D01*
X164402812Y-95237705D01*
X164402813Y-95237705D01*
X164450564Y-95250500D01*
X164450565Y-95250500D01*
X188678455Y-95250500D01*
X188736646Y-95269407D01*
X188748459Y-95279496D01*
X189765905Y-96296942D01*
X189793682Y-96351459D01*
X189784111Y-96411891D01*
X189740846Y-96455156D01*
X189680414Y-96464727D01*
X189676588Y-96464044D01*
X189603470Y-96449500D01*
X189603465Y-96449500D01*
X189396535Y-96449500D01*
X189396532Y-96449500D01*
X189193581Y-96489869D01*
X189002402Y-96569058D01*
X188830348Y-96684020D01*
X188684020Y-96830348D01*
X188569058Y-97002402D01*
X188489869Y-97193581D01*
X188449500Y-97396532D01*
X188449500Y-97603467D01*
X188489869Y-97806418D01*
X188515130Y-97867404D01*
X188519929Y-97928400D01*
X188493669Y-97975292D01*
X188229004Y-98239957D01*
X188174487Y-98267734D01*
X188114055Y-98258163D01*
X188070790Y-98214898D01*
X188060000Y-98169953D01*
X188060000Y-97700001D01*
X188059999Y-97700000D01*
X187335277Y-97700000D01*
X187356037Y-97664044D01*
X187385000Y-97555952D01*
X187385000Y-97444048D01*
X187356037Y-97335956D01*
X187335277Y-97300000D01*
X188059998Y-97300000D01*
X188059999Y-97299999D01*
X188059999Y-96655210D01*
X188059998Y-96655208D01*
X188057090Y-96630125D01*
X188011786Y-96527522D01*
X187932477Y-96448213D01*
X187829872Y-96402909D01*
X187804797Y-96400000D01*
X187160001Y-96400000D01*
X187160000Y-96400001D01*
X187160000Y-97124722D01*
X187124044Y-97103963D01*
X187015952Y-97075000D01*
X186904048Y-97075000D01*
X186795956Y-97103963D01*
X186760000Y-97124722D01*
X186760000Y-96400001D01*
X186759999Y-96400000D01*
X186115210Y-96400000D01*
X186115207Y-96400001D01*
X186090125Y-96402909D01*
X185987522Y-96448213D01*
X185908213Y-96527522D01*
X185862909Y-96630127D01*
X185860000Y-96655202D01*
X185860000Y-97299999D01*
X185860001Y-97300000D01*
X186584723Y-97300000D01*
X186563963Y-97335956D01*
X186535000Y-97444048D01*
X186535000Y-97555952D01*
X186563963Y-97664044D01*
X186584723Y-97700000D01*
X185860002Y-97700000D01*
X185860001Y-97700001D01*
X185860001Y-98344791D01*
X185862909Y-98369874D01*
X185908213Y-98472477D01*
X185987522Y-98551786D01*
X186090127Y-98597090D01*
X186115203Y-98599999D01*
X186759998Y-98599999D01*
X186760000Y-98599998D01*
X186760000Y-97875277D01*
X186795956Y-97896037D01*
X186904048Y-97925000D01*
X187015952Y-97925000D01*
X187124044Y-97896037D01*
X187160000Y-97875277D01*
X187160000Y-98599998D01*
X187160001Y-98599999D01*
X187629954Y-98599999D01*
X187688145Y-98618906D01*
X187724109Y-98668406D01*
X187724109Y-98729592D01*
X187699958Y-98769003D01*
X186644438Y-99824525D01*
X186644437Y-99824524D01*
X186574524Y-99894438D01*
X186525092Y-99980056D01*
X186525088Y-99980066D01*
X186519968Y-99999178D01*
X186519968Y-99999179D01*
X186504174Y-100058124D01*
X186504173Y-100058127D01*
X186499500Y-100075564D01*
X186499500Y-105135568D01*
X186480593Y-105193759D01*
X186431093Y-105229723D01*
X186369907Y-105229723D01*
X186320407Y-105193759D01*
X186312290Y-105180513D01*
X186240579Y-105039772D01*
X186240575Y-105039766D01*
X186106383Y-104855068D01*
X186106381Y-104855066D01*
X186106379Y-104855063D01*
X185944937Y-104693621D01*
X185944933Y-104693618D01*
X185944931Y-104693616D01*
X185760230Y-104559422D01*
X185760227Y-104559420D01*
X185556799Y-104455769D01*
X185339655Y-104385214D01*
X185114160Y-104349500D01*
X185114157Y-104349500D01*
X184885843Y-104349500D01*
X184885840Y-104349500D01*
X184660344Y-104385214D01*
X184443200Y-104455769D01*
X184239772Y-104559420D01*
X184239770Y-104559422D01*
X184055068Y-104693616D01*
X183893616Y-104855068D01*
X183759424Y-105039766D01*
X183759416Y-105039778D01*
X183756528Y-105045448D01*
X183713262Y-105088711D01*
X183668320Y-105099500D01*
X177435454Y-105099500D01*
X177377263Y-105080593D01*
X177365450Y-105070504D01*
X177314450Y-105019504D01*
X177286673Y-104964987D01*
X177296244Y-104904555D01*
X177339509Y-104861290D01*
X177384454Y-104850500D01*
X179124673Y-104850500D01*
X179124674Y-104850500D01*
X179197740Y-104835966D01*
X179280601Y-104780601D01*
X179335966Y-104697740D01*
X179350500Y-104624674D01*
X179350500Y-102375326D01*
X179335966Y-102302260D01*
X179335964Y-102302257D01*
X179280602Y-102219400D01*
X179280599Y-102219397D01*
X179197742Y-102164035D01*
X179197740Y-102164034D01*
X179197737Y-102164033D01*
X179197736Y-102164033D01*
X179124684Y-102149501D01*
X179124674Y-102149500D01*
X176875326Y-102149500D01*
X176875325Y-102149500D01*
X176875315Y-102149501D01*
X176802263Y-102164033D01*
X176802257Y-102164035D01*
X176719400Y-102219397D01*
X176719397Y-102219400D01*
X176664035Y-102302257D01*
X176664033Y-102302263D01*
X176649501Y-102375315D01*
X176649500Y-102375327D01*
X176649500Y-104240546D01*
X176630593Y-104298737D01*
X176581093Y-104334701D01*
X176519907Y-104334701D01*
X176480496Y-104310550D01*
X175093924Y-102923978D01*
X173664669Y-101494723D01*
X173664665Y-101494720D01*
X173558126Y-101423534D01*
X173439747Y-101374500D01*
X173439745Y-101374499D01*
X173439744Y-101374499D01*
X173314069Y-101349500D01*
X171435454Y-101349500D01*
X171377263Y-101330593D01*
X171365451Y-101320504D01*
X171039668Y-100994722D01*
X170933126Y-100923534D01*
X170814747Y-100874500D01*
X170814745Y-100874499D01*
X170814744Y-100874499D01*
X170689069Y-100849500D01*
X155164434Y-100849500D01*
X155109433Y-100832816D01*
X155058126Y-100798534D01*
X154939747Y-100749500D01*
X154939745Y-100749499D01*
X154939744Y-100749499D01*
X154814069Y-100724500D01*
X138005892Y-100724500D01*
X137947701Y-100705593D01*
X137911737Y-100656093D01*
X137911737Y-100594907D01*
X137925799Y-100567309D01*
X138026332Y-100428935D01*
X138112085Y-100260635D01*
X138170453Y-100080996D01*
X138200000Y-99894445D01*
X138200000Y-99705554D01*
X138170453Y-99519003D01*
X138112085Y-99339364D01*
X138026332Y-99171063D01*
X138026328Y-99171057D01*
X137978127Y-99104715D01*
X137978126Y-99104715D01*
X137468019Y-99614821D01*
X137465925Y-99607007D01*
X137400099Y-99492993D01*
X137307007Y-99399901D01*
X137192993Y-99334075D01*
X137185174Y-99331979D01*
X137695283Y-98821871D01*
X137628942Y-98773671D01*
X137628936Y-98773667D01*
X137460635Y-98687914D01*
X137280996Y-98629546D01*
X137094445Y-98600000D01*
X136905555Y-98600000D01*
X136719003Y-98629546D01*
X136539364Y-98687914D01*
X136371063Y-98773667D01*
X136371059Y-98773669D01*
X136304715Y-98821871D01*
X136814824Y-99331980D01*
X136807007Y-99334075D01*
X136692993Y-99399901D01*
X136599901Y-99492993D01*
X136534075Y-99607007D01*
X136531980Y-99614822D01*
X136021872Y-99104714D01*
X136021871Y-99104715D01*
X135973669Y-99171059D01*
X135973667Y-99171063D01*
X135887914Y-99339364D01*
X135829546Y-99519003D01*
X135800000Y-99705554D01*
X135800000Y-99894445D01*
X135829546Y-100080996D01*
X135887914Y-100260635D01*
X135973667Y-100428935D01*
X136074201Y-100567309D01*
X136093108Y-100625500D01*
X136074201Y-100683691D01*
X136024700Y-100719655D01*
X135994108Y-100724500D01*
X135685454Y-100724500D01*
X135627263Y-100705593D01*
X135615450Y-100695504D01*
X134967024Y-100047078D01*
X134939247Y-99992561D01*
X134939247Y-99961590D01*
X134949130Y-99899194D01*
X134950500Y-99890547D01*
X134950500Y-99709450D01*
X134922171Y-99530593D01*
X134922171Y-99530591D01*
X134866211Y-99358361D01*
X134783996Y-99197006D01*
X134677553Y-99050499D01*
X134549501Y-98922447D01*
X134402994Y-98816004D01*
X134402993Y-98816003D01*
X134402991Y-98816002D01*
X134241637Y-98733788D01*
X134069406Y-98677828D01*
X133890549Y-98649500D01*
X133890546Y-98649500D01*
X133709454Y-98649500D01*
X133709451Y-98649500D01*
X133530593Y-98677828D01*
X133358362Y-98733788D01*
X133197008Y-98816002D01*
X133123752Y-98869225D01*
X133050499Y-98922447D01*
X132922447Y-99050499D01*
X132883058Y-99104714D01*
X132816002Y-99197008D01*
X132733788Y-99358362D01*
X132677828Y-99530593D01*
X132649500Y-99709450D01*
X132649500Y-99890549D01*
X132677828Y-100069406D01*
X132733788Y-100241637D01*
X132806530Y-100384402D01*
X132816004Y-100402994D01*
X132922447Y-100549501D01*
X133050499Y-100677553D01*
X133197006Y-100783996D01*
X133358361Y-100866211D01*
X133530591Y-100922171D01*
X133588583Y-100931356D01*
X133709451Y-100950500D01*
X133709454Y-100950500D01*
X133890547Y-100950500D01*
X133901171Y-100948817D01*
X133961587Y-100939247D01*
X134022017Y-100948817D01*
X134047078Y-100967024D01*
X134960331Y-101880277D01*
X135066873Y-101951465D01*
X135185256Y-102000501D01*
X135310931Y-102025500D01*
X154460566Y-102025500D01*
X154515566Y-102042183D01*
X154539778Y-102058361D01*
X154566873Y-102076465D01*
X154685256Y-102125501D01*
X154810931Y-102150500D01*
X170314546Y-102150500D01*
X170372737Y-102169407D01*
X170384549Y-102179496D01*
X170580369Y-102375315D01*
X170710331Y-102505277D01*
X170816873Y-102576465D01*
X170935256Y-102625501D01*
X171060931Y-102650500D01*
X172939546Y-102650500D01*
X172997737Y-102669407D01*
X173009550Y-102679496D01*
X176210331Y-105880277D01*
X176299331Y-105939744D01*
X176316873Y-105951465D01*
X176435256Y-106000501D01*
X176435264Y-106000502D01*
X176439913Y-106001913D01*
X176439263Y-106004052D01*
X176481828Y-106026775D01*
X176616835Y-106161781D01*
X176710331Y-106255277D01*
X176776421Y-106299436D01*
X176816873Y-106326465D01*
X176935256Y-106375501D01*
X177060931Y-106400500D01*
X183617368Y-106400500D01*
X183675559Y-106419407D01*
X183705578Y-106454555D01*
X183759420Y-106560227D01*
X183759424Y-106560233D01*
X183893616Y-106744931D01*
X183893618Y-106744933D01*
X183893621Y-106744937D01*
X184055063Y-106906379D01*
X184055066Y-106906381D01*
X184055068Y-106906383D01*
X184239766Y-107040575D01*
X184239772Y-107040579D01*
X184443201Y-107144231D01*
X184660340Y-107214784D01*
X184660341Y-107214784D01*
X184660344Y-107214785D01*
X184885840Y-107250500D01*
X184885843Y-107250500D01*
X185114159Y-107250500D01*
X185154733Y-107244073D01*
X185234198Y-107231487D01*
X185294629Y-107241058D01*
X185337894Y-107284322D01*
X185347466Y-107344754D01*
X185319689Y-107399271D01*
X185319689Y-107399272D01*
X180894438Y-111824525D01*
X180894437Y-111824524D01*
X180824524Y-111894438D01*
X180775091Y-111980057D01*
X180749500Y-112075566D01*
X180749500Y-115678455D01*
X180730593Y-115736646D01*
X180720505Y-115748457D01*
X180699524Y-115769437D01*
X180650089Y-115855061D01*
X180650090Y-115855062D01*
X180631503Y-115924432D01*
X180631502Y-115924436D01*
X180624500Y-115950564D01*
X180624500Y-117303454D01*
X180605593Y-117361645D01*
X180595504Y-117373458D01*
X179848459Y-118120504D01*
X179793942Y-118148281D01*
X179778455Y-118149500D01*
X178265326Y-118149500D01*
X178265325Y-118149500D01*
X178265315Y-118149501D01*
X178192263Y-118164033D01*
X178192257Y-118164035D01*
X178109400Y-118219397D01*
X178109397Y-118219400D01*
X178054035Y-118302257D01*
X178054033Y-118302263D01*
X178039501Y-118375315D01*
X178039500Y-118375327D01*
X178039500Y-118775500D01*
X178020593Y-118833691D01*
X177971093Y-118869655D01*
X177940500Y-118874500D01*
X176635101Y-118874500D01*
X176576910Y-118855593D01*
X176546892Y-118820447D01*
X176483996Y-118697006D01*
X176377553Y-118550499D01*
X176249501Y-118422447D01*
X176102994Y-118316004D01*
X176102993Y-118316003D01*
X176102991Y-118316002D01*
X175941637Y-118233788D01*
X175769406Y-118177828D01*
X175590549Y-118149500D01*
X175590546Y-118149500D01*
X175409454Y-118149500D01*
X175409451Y-118149500D01*
X175230593Y-118177828D01*
X175058362Y-118233788D01*
X174897008Y-118316002D01*
X174823752Y-118369225D01*
X174750499Y-118422447D01*
X174622447Y-118550499D01*
X174572388Y-118619400D01*
X174516002Y-118697008D01*
X174433788Y-118858362D01*
X174377828Y-119030593D01*
X174349500Y-119209450D01*
X174349500Y-119390549D01*
X174377828Y-119569406D01*
X174433787Y-119741635D01*
X174433789Y-119741639D01*
X174516004Y-119902994D01*
X174622447Y-120049501D01*
X174750499Y-120177553D01*
X174897006Y-120283996D01*
X175058361Y-120366211D01*
X175230591Y-120422171D01*
X175302136Y-120433502D01*
X175409451Y-120450500D01*
X175409454Y-120450500D01*
X175590549Y-120450500D01*
X175682323Y-120435964D01*
X175769409Y-120422171D01*
X175941639Y-120366211D01*
X176102994Y-120283996D01*
X176249501Y-120177553D01*
X176377553Y-120049501D01*
X176483996Y-119902994D01*
X176566211Y-119741639D01*
X176566212Y-119741635D01*
X176566213Y-119741635D01*
X176581719Y-119693909D01*
X176617682Y-119644408D01*
X176675872Y-119625500D01*
X177940500Y-119625500D01*
X177998691Y-119644407D01*
X178034655Y-119693907D01*
X178039500Y-119724500D01*
X178039500Y-120224672D01*
X178039501Y-120224684D01*
X178054033Y-120297736D01*
X178054035Y-120297742D01*
X178109397Y-120380599D01*
X178109399Y-120380601D01*
X178192260Y-120435966D01*
X178247808Y-120447015D01*
X178265315Y-120450498D01*
X178265320Y-120450498D01*
X178265326Y-120450500D01*
X178265327Y-120450500D01*
X180114673Y-120450500D01*
X180114674Y-120450500D01*
X180187740Y-120435966D01*
X180270601Y-120380601D01*
X180325966Y-120297740D01*
X180340500Y-120224674D01*
X180340500Y-119205554D01*
X188150000Y-119205554D01*
X188150000Y-119394445D01*
X188179546Y-119580996D01*
X188237914Y-119760635D01*
X188323667Y-119928936D01*
X188323671Y-119928942D01*
X188371871Y-119995283D01*
X188943216Y-119423937D01*
X188953963Y-119464044D01*
X189009916Y-119560956D01*
X189089044Y-119640084D01*
X189185956Y-119696037D01*
X189226059Y-119706782D01*
X188654715Y-120278126D01*
X188654715Y-120278127D01*
X188721057Y-120326328D01*
X188721063Y-120326332D01*
X188889364Y-120412085D01*
X189069003Y-120470453D01*
X189255555Y-120500000D01*
X189444445Y-120500000D01*
X189630996Y-120470453D01*
X189810635Y-120412085D01*
X189876137Y-120378710D01*
X195149500Y-120378710D01*
X195149500Y-120621289D01*
X195181161Y-120861781D01*
X195181161Y-120861786D01*
X195243944Y-121096092D01*
X195243948Y-121096105D01*
X195336772Y-121320204D01*
X195336774Y-121320208D01*
X195336776Y-121320212D01*
X195458064Y-121530289D01*
X195458066Y-121530292D01*
X195605729Y-121722731D01*
X195605731Y-121722733D01*
X195605735Y-121722738D01*
X195777262Y-121894265D01*
X195777266Y-121894268D01*
X195777268Y-121894270D01*
X195839001Y-121941639D01*
X195969711Y-122041936D01*
X196179788Y-122163224D01*
X196403900Y-122256054D01*
X196638211Y-122318838D01*
X196878712Y-122350500D01*
X196878713Y-122350500D01*
X197121287Y-122350500D01*
X197121288Y-122350500D01*
X197361789Y-122318838D01*
X197596100Y-122256054D01*
X197820212Y-122163224D01*
X198030289Y-122041936D01*
X198222738Y-121894265D01*
X198394265Y-121722738D01*
X198541936Y-121530289D01*
X198663224Y-121320212D01*
X198756054Y-121096100D01*
X198818838Y-120861789D01*
X198850500Y-120621288D01*
X198850500Y-120378712D01*
X198818838Y-120138211D01*
X198756054Y-119903900D01*
X198663224Y-119679788D01*
X198541936Y-119469711D01*
X198521594Y-119443201D01*
X198394270Y-119277268D01*
X198394268Y-119277266D01*
X198394265Y-119277262D01*
X198222738Y-119105735D01*
X198222733Y-119105731D01*
X198222731Y-119105729D01*
X198030292Y-118958066D01*
X197918670Y-118893621D01*
X197820212Y-118836776D01*
X197820208Y-118836774D01*
X197820204Y-118836772D01*
X197596105Y-118743948D01*
X197596104Y-118743947D01*
X197596100Y-118743946D01*
X197361789Y-118681162D01*
X197361786Y-118681161D01*
X197361784Y-118681161D01*
X197121289Y-118649500D01*
X197121288Y-118649500D01*
X196878712Y-118649500D01*
X196878710Y-118649500D01*
X196638218Y-118681161D01*
X196638213Y-118681161D01*
X196403907Y-118743944D01*
X196403894Y-118743948D01*
X196179795Y-118836772D01*
X196179788Y-118836775D01*
X196179788Y-118836776D01*
X196154974Y-118851102D01*
X195969707Y-118958066D01*
X195777268Y-119105729D01*
X195605729Y-119277268D01*
X195458066Y-119469707D01*
X195336772Y-119679795D01*
X195243948Y-119903894D01*
X195243944Y-119903907D01*
X195181161Y-120138213D01*
X195181161Y-120138218D01*
X195149500Y-120378710D01*
X189876137Y-120378710D01*
X189978939Y-120326330D01*
X190021540Y-120295379D01*
X190045283Y-120278127D01*
X189473939Y-119706783D01*
X189514044Y-119696037D01*
X189610956Y-119640084D01*
X189690084Y-119560956D01*
X189746037Y-119464044D01*
X189756783Y-119423939D01*
X190328127Y-119995283D01*
X190376330Y-119928939D01*
X190462085Y-119760635D01*
X190520453Y-119580996D01*
X190550000Y-119394445D01*
X190550000Y-119205554D01*
X190520453Y-119019003D01*
X190462085Y-118839364D01*
X190376332Y-118671063D01*
X190376328Y-118671057D01*
X190328127Y-118604715D01*
X190328126Y-118604715D01*
X189756782Y-119176059D01*
X189746037Y-119135956D01*
X189690084Y-119039044D01*
X189610956Y-118959916D01*
X189514044Y-118903963D01*
X189473937Y-118893216D01*
X190045283Y-118321871D01*
X189978942Y-118273671D01*
X189978936Y-118273667D01*
X189810635Y-118187914D01*
X189630996Y-118129546D01*
X189444445Y-118100000D01*
X189255555Y-118100000D01*
X189069003Y-118129546D01*
X188889364Y-118187914D01*
X188721063Y-118273667D01*
X188721059Y-118273669D01*
X188654715Y-118321871D01*
X189226060Y-118893216D01*
X189185956Y-118903963D01*
X189089044Y-118959916D01*
X189009916Y-119039044D01*
X188953963Y-119135956D01*
X188943216Y-119176060D01*
X188371871Y-118604715D01*
X188323669Y-118671059D01*
X188323667Y-118671063D01*
X188237914Y-118839364D01*
X188179546Y-119019003D01*
X188150000Y-119205554D01*
X180340500Y-119205554D01*
X180340500Y-118731545D01*
X180359407Y-118673354D01*
X180369496Y-118661541D01*
X180741438Y-118289599D01*
X180811640Y-118219397D01*
X181300475Y-117730563D01*
X181349911Y-117644937D01*
X181375500Y-117549436D01*
X181375500Y-117450564D01*
X181375500Y-116196544D01*
X181394407Y-116138353D01*
X181404494Y-116126542D01*
X181425475Y-116105563D01*
X181474911Y-116019937D01*
X181500500Y-115924436D01*
X181500500Y-115825564D01*
X181500500Y-112321544D01*
X181519407Y-112263353D01*
X181529490Y-112251546D01*
X185391223Y-108389814D01*
X189100000Y-108389814D01*
X189100000Y-108610185D01*
X189134471Y-108827829D01*
X189202569Y-109037413D01*
X189302611Y-109233757D01*
X189378688Y-109338467D01*
X189919668Y-108797485D01*
X189923978Y-108807890D01*
X189995112Y-108914351D01*
X190085649Y-109004888D01*
X190192110Y-109076022D01*
X190202510Y-109080330D01*
X189661531Y-109621310D01*
X189661531Y-109621311D01*
X189766234Y-109697383D01*
X189766240Y-109697387D01*
X189962586Y-109797430D01*
X190172170Y-109865528D01*
X190389815Y-109900000D01*
X190610185Y-109900000D01*
X190827829Y-109865528D01*
X191037413Y-109797430D01*
X191233759Y-109697387D01*
X191233764Y-109697383D01*
X191338467Y-109621311D01*
X191338467Y-109621310D01*
X190797487Y-109080330D01*
X190807890Y-109076022D01*
X190914351Y-109004888D01*
X191004888Y-108914351D01*
X191076022Y-108807890D01*
X191080330Y-108797487D01*
X191621310Y-109338467D01*
X191621311Y-109338467D01*
X191697383Y-109233764D01*
X191697387Y-109233759D01*
X191797430Y-109037413D01*
X191865528Y-108827829D01*
X191900000Y-108610185D01*
X191900000Y-108389814D01*
X191865528Y-108172170D01*
X191797430Y-107962586D01*
X191697387Y-107766240D01*
X191697383Y-107766234D01*
X191621311Y-107661531D01*
X191621310Y-107661531D01*
X191080330Y-108202510D01*
X191076022Y-108192110D01*
X191004888Y-108085649D01*
X190914351Y-107995112D01*
X190807890Y-107923978D01*
X190797485Y-107919668D01*
X191338467Y-107378688D01*
X191233757Y-107302611D01*
X191037413Y-107202569D01*
X190827829Y-107134471D01*
X190610185Y-107100000D01*
X190389815Y-107100000D01*
X190172170Y-107134471D01*
X189962586Y-107202569D01*
X189766240Y-107302612D01*
X189766236Y-107302614D01*
X189661531Y-107378687D01*
X190202512Y-107919668D01*
X190192110Y-107923978D01*
X190085649Y-107995112D01*
X189995112Y-108085649D01*
X189923978Y-108192110D01*
X189919668Y-108202512D01*
X189378687Y-107661531D01*
X189302614Y-107766236D01*
X189302612Y-107766240D01*
X189202569Y-107962586D01*
X189134471Y-108172170D01*
X189100000Y-108389814D01*
X185391223Y-108389814D01*
X186675474Y-107105563D01*
X186679991Y-107097740D01*
X186679994Y-107097736D01*
X186693336Y-107074625D01*
X186724910Y-107019938D01*
X186750500Y-106924435D01*
X186750500Y-106924430D01*
X186750550Y-106924244D01*
X186776172Y-106879864D01*
X187175475Y-106480563D01*
X187224911Y-106394937D01*
X187250500Y-106299436D01*
X187250500Y-106200564D01*
X187250500Y-103389814D01*
X189100000Y-103389814D01*
X189100000Y-103610185D01*
X189134471Y-103827829D01*
X189202569Y-104037413D01*
X189302611Y-104233757D01*
X189378688Y-104338467D01*
X189919668Y-103797485D01*
X189923978Y-103807890D01*
X189995112Y-103914351D01*
X190085649Y-104004888D01*
X190192110Y-104076022D01*
X190202510Y-104080330D01*
X189661531Y-104621310D01*
X189661531Y-104621311D01*
X189766234Y-104697383D01*
X189766240Y-104697387D01*
X189962586Y-104797430D01*
X190172170Y-104865528D01*
X190389815Y-104900000D01*
X190610185Y-104900000D01*
X190827829Y-104865528D01*
X191037413Y-104797430D01*
X191233759Y-104697387D01*
X191233764Y-104697383D01*
X191338467Y-104621311D01*
X191338467Y-104621310D01*
X190797487Y-104080330D01*
X190807890Y-104076022D01*
X190914351Y-104004888D01*
X191004888Y-103914351D01*
X191076022Y-103807890D01*
X191080330Y-103797487D01*
X191621310Y-104338467D01*
X191621311Y-104338467D01*
X191697383Y-104233764D01*
X191697387Y-104233759D01*
X191797430Y-104037413D01*
X191865528Y-103827829D01*
X191900000Y-103610185D01*
X191900000Y-103389814D01*
X191865528Y-103172170D01*
X191797430Y-102962586D01*
X191697387Y-102766240D01*
X191697383Y-102766234D01*
X191621311Y-102661531D01*
X191621310Y-102661531D01*
X191080330Y-103202510D01*
X191076022Y-103192110D01*
X191004888Y-103085649D01*
X190914351Y-102995112D01*
X190807890Y-102923978D01*
X190797485Y-102919668D01*
X191338467Y-102378688D01*
X191233757Y-102302611D01*
X191037413Y-102202569D01*
X190827829Y-102134471D01*
X190610185Y-102100000D01*
X190389815Y-102100000D01*
X190172170Y-102134471D01*
X189962586Y-102202569D01*
X189766240Y-102302612D01*
X189766236Y-102302614D01*
X189661531Y-102378687D01*
X190202512Y-102919668D01*
X190192110Y-102923978D01*
X190085649Y-102995112D01*
X189995112Y-103085649D01*
X189923978Y-103192110D01*
X189919668Y-103202512D01*
X189378687Y-102661531D01*
X189302614Y-102766236D01*
X189302612Y-102766240D01*
X189202569Y-102962586D01*
X189134471Y-103172170D01*
X189100000Y-103389814D01*
X187250500Y-103389814D01*
X187250500Y-100321544D01*
X187269407Y-100263353D01*
X187279490Y-100251546D01*
X189024708Y-98506327D01*
X189079223Y-98478552D01*
X189132593Y-98484868D01*
X189193580Y-98510130D01*
X189396535Y-98550500D01*
X189396536Y-98550500D01*
X189603464Y-98550500D01*
X189603465Y-98550500D01*
X189806420Y-98510130D01*
X189997598Y-98430941D01*
X190169655Y-98315977D01*
X190315977Y-98169655D01*
X190430941Y-97997598D01*
X190510130Y-97806420D01*
X190550500Y-97603465D01*
X190550500Y-97396535D01*
X190535955Y-97323411D01*
X190543147Y-97262651D01*
X190584679Y-97217721D01*
X190644689Y-97205784D01*
X190700254Y-97231400D01*
X190703057Y-97234094D01*
X195414500Y-101945537D01*
X195442277Y-102000054D01*
X195433725Y-102054126D01*
X195435277Y-102054769D01*
X195433789Y-102058360D01*
X195377828Y-102230593D01*
X195349500Y-102409450D01*
X195349500Y-102590549D01*
X195377828Y-102769406D01*
X195428050Y-102923978D01*
X195433789Y-102941639D01*
X195516004Y-103102994D01*
X195622447Y-103249501D01*
X195750499Y-103377553D01*
X195897006Y-103483996D01*
X196058361Y-103566211D01*
X196230591Y-103622171D01*
X196302136Y-103633502D01*
X196409451Y-103650500D01*
X196565546Y-103650500D01*
X196623737Y-103669407D01*
X196659701Y-103718907D01*
X196659701Y-103780093D01*
X196635551Y-103819502D01*
X196417641Y-104037413D01*
X195994720Y-104460334D01*
X195928514Y-104559420D01*
X195928514Y-104559421D01*
X195923535Y-104566873D01*
X195923533Y-104566875D01*
X195923533Y-104566877D01*
X195874500Y-104685252D01*
X195874499Y-104685257D01*
X195849500Y-104810930D01*
X195849500Y-111410500D01*
X195830593Y-111468691D01*
X195781093Y-111504655D01*
X195750500Y-111509500D01*
X195575326Y-111509500D01*
X195575325Y-111509500D01*
X195575315Y-111509501D01*
X195502263Y-111524033D01*
X195502257Y-111524035D01*
X195419400Y-111579397D01*
X195419397Y-111579400D01*
X195364035Y-111662257D01*
X195364033Y-111662263D01*
X195349501Y-111735315D01*
X195349500Y-111735327D01*
X195349500Y-112375500D01*
X195330593Y-112433691D01*
X195281093Y-112469655D01*
X195250500Y-112474500D01*
X191185930Y-112474500D01*
X191123093Y-112486999D01*
X191060256Y-112499499D01*
X191060255Y-112499499D01*
X191060252Y-112499500D01*
X190941874Y-112548534D01*
X190941866Y-112548538D01*
X190835332Y-112619723D01*
X189134550Y-114320504D01*
X189080033Y-114348281D01*
X189064546Y-114349500D01*
X187995326Y-114349500D01*
X187995325Y-114349500D01*
X187995315Y-114349501D01*
X187922263Y-114364033D01*
X187922257Y-114364035D01*
X187839400Y-114419397D01*
X187839397Y-114419400D01*
X187784035Y-114502257D01*
X187784033Y-114502263D01*
X187769501Y-114575315D01*
X187769500Y-114575327D01*
X187769500Y-116424672D01*
X187769501Y-116424684D01*
X187784033Y-116497736D01*
X187784035Y-116497742D01*
X187839397Y-116580599D01*
X187839399Y-116580601D01*
X187922260Y-116635966D01*
X187977808Y-116647015D01*
X187995315Y-116650498D01*
X187995320Y-116650498D01*
X187995326Y-116650500D01*
X187995327Y-116650500D01*
X189844673Y-116650500D01*
X189844674Y-116650500D01*
X189917740Y-116635966D01*
X190000601Y-116580601D01*
X190055966Y-116497740D01*
X190070500Y-116424674D01*
X190070500Y-115265453D01*
X190089407Y-115207262D01*
X190099496Y-115195449D01*
X191490449Y-113804496D01*
X191544966Y-113776719D01*
X191560453Y-113775500D01*
X195441599Y-113775500D01*
X195496601Y-113792185D01*
X195502256Y-113795964D01*
X195502257Y-113795964D01*
X195502260Y-113795966D01*
X195557808Y-113807015D01*
X195575315Y-113810498D01*
X195575320Y-113810498D01*
X195575326Y-113810500D01*
X195575327Y-113810500D01*
X197424673Y-113810500D01*
X197424674Y-113810500D01*
X197497740Y-113795966D01*
X197580601Y-113740601D01*
X197635966Y-113657740D01*
X197650500Y-113584674D01*
X197650500Y-111735326D01*
X197635966Y-111662260D01*
X197580601Y-111579399D01*
X197580599Y-111579397D01*
X197497742Y-111524035D01*
X197497740Y-111524034D01*
X197497737Y-111524033D01*
X197497736Y-111524033D01*
X197424684Y-111509501D01*
X197424674Y-111509500D01*
X197424673Y-111509500D01*
X197249500Y-111509500D01*
X197191309Y-111490593D01*
X197155345Y-111441093D01*
X197150500Y-111410500D01*
X197150500Y-105185453D01*
X197169407Y-105127262D01*
X197179490Y-105115455D01*
X198380277Y-103914669D01*
X198443185Y-103820518D01*
X198491233Y-103782640D01*
X198552372Y-103780238D01*
X198603246Y-103814230D01*
X198624424Y-103871633D01*
X198624500Y-103875521D01*
X198624500Y-107549436D01*
X198637294Y-107597184D01*
X198637294Y-107597185D01*
X198650088Y-107644934D01*
X198650091Y-107644941D01*
X198699525Y-107730563D01*
X198699526Y-107730563D01*
X198720504Y-107751541D01*
X198748281Y-107806058D01*
X198749500Y-107821545D01*
X198749500Y-114325749D01*
X198730593Y-114383940D01*
X198681094Y-114419903D01*
X198638369Y-114433785D01*
X198477008Y-114516002D01*
X198415170Y-114560930D01*
X198330499Y-114622447D01*
X198202447Y-114750499D01*
X198149225Y-114823752D01*
X198096002Y-114897008D01*
X198013788Y-115058362D01*
X197957828Y-115230593D01*
X197929500Y-115409450D01*
X197929500Y-115590549D01*
X197957828Y-115769406D01*
X198008198Y-115924433D01*
X198013789Y-115941639D01*
X198096004Y-116102994D01*
X198202447Y-116249501D01*
X198330499Y-116377553D01*
X198477006Y-116483996D01*
X198638361Y-116566211D01*
X198810591Y-116622171D01*
X198882136Y-116633502D01*
X198989451Y-116650500D01*
X198989454Y-116650500D01*
X199170549Y-116650500D01*
X199262323Y-116635964D01*
X199349409Y-116622171D01*
X199521639Y-116566211D01*
X199682994Y-116483996D01*
X199829501Y-116377553D01*
X199957553Y-116249501D01*
X200063996Y-116102994D01*
X200146211Y-115941639D01*
X200202171Y-115769409D01*
X200230500Y-115590546D01*
X200230500Y-115409454D01*
X200230500Y-115409450D01*
X200211614Y-115290212D01*
X200202171Y-115230591D01*
X200146211Y-115058361D01*
X200063996Y-114897006D01*
X199957553Y-114750499D01*
X199829501Y-114622447D01*
X199682994Y-114516004D01*
X199682993Y-114516003D01*
X199682991Y-114516002D01*
X199609638Y-114478627D01*
X199554554Y-114450560D01*
X199511290Y-114407296D01*
X199500500Y-114362351D01*
X199500500Y-107575566D01*
X199500500Y-107575565D01*
X199493499Y-107549436D01*
X199474911Y-107480063D01*
X199425475Y-107394437D01*
X199425472Y-107394434D01*
X199404495Y-107373456D01*
X199376719Y-107318939D01*
X199375500Y-107303454D01*
X199375500Y-100884774D01*
X199394407Y-100826583D01*
X199443906Y-100790619D01*
X199480025Y-100778884D01*
X199655405Y-100689524D01*
X199814646Y-100573828D01*
X199953828Y-100434646D01*
X200069524Y-100275405D01*
X200158884Y-100100025D01*
X200219709Y-99912826D01*
X200222620Y-99894445D01*
X200250500Y-99718420D01*
X200250500Y-99521579D01*
X200219710Y-99327178D01*
X200219709Y-99327174D01*
X200158884Y-99139975D01*
X200069524Y-98964595D01*
X199953828Y-98805354D01*
X199814646Y-98666172D01*
X199655405Y-98550476D01*
X199655404Y-98550475D01*
X199655402Y-98550474D01*
X199480025Y-98461116D01*
X199475221Y-98459555D01*
X199427823Y-98444154D01*
X199378324Y-98408191D01*
X199359417Y-98350000D01*
X199378324Y-98291809D01*
X199427823Y-98255845D01*
X199480025Y-98238884D01*
X199655405Y-98149524D01*
X199814646Y-98033828D01*
X199953828Y-97894646D01*
X200069524Y-97735405D01*
X200158884Y-97560025D01*
X200219709Y-97372826D01*
X200219710Y-97372821D01*
X200250500Y-97178420D01*
X200250500Y-96981579D01*
X200219710Y-96787178D01*
X200186192Y-96684020D01*
X200158884Y-96599975D01*
X200069524Y-96424595D01*
X199953828Y-96265354D01*
X199814646Y-96126172D01*
X199655405Y-96010476D01*
X199655404Y-96010475D01*
X199655402Y-96010474D01*
X199488969Y-95925673D01*
X199445704Y-95882408D01*
X199436133Y-95821976D01*
X199463910Y-95767460D01*
X199496034Y-95745996D01*
X199499032Y-95744754D01*
X199681348Y-95651860D01*
X199681353Y-95651856D01*
X199766876Y-95589720D01*
X199766876Y-95589719D01*
X199223312Y-95046155D01*
X199337708Y-94980110D01*
X199440110Y-94877708D01*
X199506155Y-94763312D01*
X200049719Y-95306876D01*
X200049720Y-95306876D01*
X200111856Y-95221353D01*
X200111860Y-95221348D01*
X200204756Y-95039027D01*
X200267991Y-94844412D01*
X200300000Y-94642315D01*
X200300000Y-94437684D01*
X200267991Y-94235587D01*
X200204756Y-94040972D01*
X200111860Y-93858651D01*
X200111856Y-93858645D01*
X200049719Y-93773122D01*
X200049718Y-93773122D01*
X199506154Y-94316686D01*
X199440110Y-94202292D01*
X199337708Y-94099890D01*
X199223311Y-94033843D01*
X199766876Y-93490280D01*
X199683348Y-93429593D01*
X199647384Y-93380092D01*
X199647384Y-93318907D01*
X199683348Y-93269407D01*
X199741539Y-93250500D01*
X200024673Y-93250500D01*
X200024674Y-93250500D01*
X200097740Y-93235966D01*
X200180601Y-93180601D01*
X200235966Y-93097740D01*
X200250500Y-93024674D01*
X200250500Y-90975326D01*
X200235966Y-90902260D01*
X200194650Y-90840425D01*
X200180602Y-90819400D01*
X200180599Y-90819397D01*
X200097742Y-90764035D01*
X200097740Y-90764034D01*
X200097737Y-90764033D01*
X200097736Y-90764033D01*
X200024684Y-90749501D01*
X200024674Y-90749500D01*
X197975326Y-90749500D01*
X197975319Y-90749500D01*
X197971038Y-90749921D01*
X197911276Y-90736799D01*
X197891346Y-90721400D01*
X195455731Y-88285785D01*
X195427954Y-88231268D01*
X195437525Y-88170836D01*
X195476234Y-88130045D01*
X195588015Y-88065509D01*
X195690509Y-87963015D01*
X195703503Y-87940509D01*
X195762982Y-87837489D01*
X195762982Y-87837487D01*
X195762984Y-87837485D01*
X195800500Y-87697475D01*
X195800500Y-87552525D01*
X195762984Y-87412515D01*
X195762982Y-87412512D01*
X195762982Y-87412510D01*
X195702337Y-87307470D01*
X195689615Y-87247622D01*
X195714502Y-87191726D01*
X195718050Y-87187985D01*
X196311283Y-86594752D01*
X196365798Y-86566977D01*
X196411877Y-86570603D01*
X196477453Y-86591909D01*
X196570591Y-86622171D01*
X196624271Y-86630673D01*
X196749451Y-86650500D01*
X196749454Y-86650500D01*
X196930549Y-86650500D01*
X197022323Y-86635964D01*
X197109409Y-86622171D01*
X197281639Y-86566211D01*
X197442994Y-86483996D01*
X197589501Y-86377553D01*
X197717553Y-86249501D01*
X197823996Y-86102994D01*
X197906211Y-85941639D01*
X197962171Y-85769409D01*
X197982442Y-85641421D01*
X197990500Y-85590549D01*
X197990500Y-85409450D01*
X197962171Y-85230593D01*
X197962171Y-85230591D01*
X197906211Y-85058361D01*
X197823996Y-84897006D01*
X197717553Y-84750499D01*
X197589501Y-84622447D01*
X197524646Y-84575327D01*
X198229500Y-84575327D01*
X198229500Y-86424672D01*
X198229501Y-86424684D01*
X198244033Y-86497736D01*
X198244035Y-86497742D01*
X198299397Y-86580599D01*
X198299400Y-86580602D01*
X198367413Y-86626046D01*
X198382260Y-86635966D01*
X198437808Y-86647015D01*
X198455315Y-86650498D01*
X198455320Y-86650498D01*
X198455326Y-86650500D01*
X198455327Y-86650500D01*
X200304673Y-86650500D01*
X200304674Y-86650500D01*
X200377740Y-86635966D01*
X200460601Y-86580601D01*
X200515966Y-86497740D01*
X200530500Y-86424674D01*
X200530500Y-84575326D01*
X200515966Y-84502260D01*
X200496864Y-84473671D01*
X200460602Y-84419400D01*
X200460599Y-84419397D01*
X200377742Y-84364035D01*
X200377740Y-84364034D01*
X200377737Y-84364033D01*
X200377736Y-84364033D01*
X200304684Y-84349501D01*
X200304674Y-84349500D01*
X198455326Y-84349500D01*
X198455325Y-84349500D01*
X198455315Y-84349501D01*
X198382263Y-84364033D01*
X198382257Y-84364035D01*
X198299400Y-84419397D01*
X198299397Y-84419400D01*
X198244035Y-84502257D01*
X198244033Y-84502263D01*
X198229501Y-84575315D01*
X198229500Y-84575327D01*
X197524646Y-84575327D01*
X197442994Y-84516004D01*
X197442993Y-84516003D01*
X197442991Y-84516002D01*
X197281637Y-84433788D01*
X197109406Y-84377828D01*
X196930549Y-84349500D01*
X196930546Y-84349500D01*
X196749454Y-84349500D01*
X196749451Y-84349500D01*
X196570593Y-84377828D01*
X196398362Y-84433788D01*
X196237008Y-84516002D01*
X196197912Y-84544407D01*
X196090499Y-84622447D01*
X195962447Y-84750499D01*
X195923057Y-84804715D01*
X195856002Y-84897008D01*
X195773788Y-85058362D01*
X195717828Y-85230593D01*
X195689500Y-85409450D01*
X195689500Y-85590549D01*
X195717828Y-85769406D01*
X195773788Y-85941638D01*
X195784520Y-85962701D01*
X195794090Y-86023133D01*
X195766313Y-86077647D01*
X195019438Y-86824524D01*
X194949524Y-86894438D01*
X194900091Y-86980058D01*
X194900090Y-86980060D01*
X194889538Y-87019436D01*
X194889539Y-87019437D01*
X194874787Y-87074495D01*
X194874780Y-87074520D01*
X194874500Y-87075561D01*
X194874500Y-87180968D01*
X194855593Y-87239159D01*
X194845504Y-87250971D01*
X194809492Y-87286983D01*
X194809487Y-87286989D01*
X194744954Y-87398764D01*
X194699485Y-87439705D01*
X194638634Y-87446101D01*
X194589214Y-87419268D01*
X193962688Y-86792742D01*
X193934911Y-86738225D01*
X193944482Y-86677793D01*
X193987747Y-86634528D01*
X194048179Y-86624957D01*
X194209451Y-86650500D01*
X194209454Y-86650500D01*
X194390549Y-86650500D01*
X194482323Y-86635964D01*
X194569409Y-86622171D01*
X194741639Y-86566211D01*
X194902994Y-86483996D01*
X195049501Y-86377553D01*
X195177553Y-86249501D01*
X195283996Y-86102994D01*
X195366211Y-85941639D01*
X195422171Y-85769409D01*
X195442442Y-85641421D01*
X195450500Y-85590549D01*
X195450500Y-85409450D01*
X195422171Y-85230593D01*
X195422171Y-85230591D01*
X195366211Y-85058361D01*
X195283996Y-84897006D01*
X195177553Y-84750499D01*
X195049501Y-84622447D01*
X194902994Y-84516004D01*
X194902993Y-84516003D01*
X194902991Y-84516002D01*
X194741637Y-84433788D01*
X194569406Y-84377828D01*
X194390549Y-84349500D01*
X194390546Y-84349500D01*
X194209454Y-84349500D01*
X194209451Y-84349500D01*
X194030593Y-84377828D01*
X193858359Y-84433789D01*
X193858358Y-84433789D01*
X193827362Y-84449583D01*
X193766930Y-84459154D01*
X193712414Y-84431377D01*
X181904496Y-72623459D01*
X181876719Y-72568942D01*
X181875500Y-72553455D01*
X181875500Y-69700566D01*
X181875500Y-69700565D01*
X181849910Y-69605062D01*
X181849908Y-69605059D01*
X181849908Y-69605057D01*
X181800476Y-69519440D01*
X181800475Y-69519438D01*
X181730562Y-69449525D01*
X181730559Y-69449523D01*
X181644941Y-69400091D01*
X181644943Y-69400091D01*
X181597186Y-69387295D01*
X181549435Y-69374500D01*
X174674436Y-69374500D01*
X174575564Y-69374500D01*
X174527813Y-69387295D01*
X174527812Y-69387294D01*
X174480062Y-69400089D01*
X174480058Y-69400091D01*
X174394436Y-69449525D01*
X174394437Y-69449526D01*
X165123459Y-78720504D01*
X165068942Y-78748281D01*
X165053455Y-78749500D01*
X154965918Y-78749500D01*
X154907727Y-78730593D01*
X154871763Y-78681093D01*
X154871763Y-78619907D01*
X154880181Y-78601000D01*
X154887983Y-78587486D01*
X154887984Y-78587485D01*
X154925500Y-78447475D01*
X154925500Y-78302525D01*
X154887984Y-78162515D01*
X154887982Y-78162512D01*
X154887982Y-78162510D01*
X154815512Y-78036989D01*
X154815510Y-78036987D01*
X154815509Y-78036985D01*
X154713015Y-77934491D01*
X154713012Y-77934489D01*
X154713010Y-77934487D01*
X154587488Y-77862017D01*
X154587489Y-77862017D01*
X154550743Y-77852171D01*
X154447475Y-77824500D01*
X154302525Y-77824500D01*
X154240790Y-77841041D01*
X154162510Y-77862017D01*
X154036989Y-77934487D01*
X154036983Y-77934492D01*
X154000971Y-77970504D01*
X153946454Y-77998281D01*
X153930968Y-77999500D01*
X118946545Y-77999500D01*
X118888354Y-77980593D01*
X118876541Y-77970504D01*
X110679496Y-69773459D01*
X110651719Y-69718942D01*
X110650500Y-69703455D01*
X110650500Y-68185327D01*
X110650498Y-68185315D01*
X110645360Y-68159487D01*
X110635966Y-68112260D01*
X110580601Y-68029399D01*
X110580599Y-68029397D01*
X110497742Y-67974035D01*
X110497740Y-67974034D01*
X110497737Y-67974033D01*
X110497736Y-67974033D01*
X110424684Y-67959501D01*
X110424674Y-67959500D01*
X108575326Y-67959500D01*
X108575325Y-67959500D01*
X108575315Y-67959501D01*
X108502263Y-67974033D01*
X108502257Y-67974035D01*
X108419400Y-68029397D01*
X108419397Y-68029400D01*
X108364035Y-68112257D01*
X108364033Y-68112263D01*
X108349501Y-68185315D01*
X108349500Y-68185327D01*
X108349500Y-70034672D01*
X108349501Y-70034684D01*
X108364033Y-70107736D01*
X108364035Y-70107742D01*
X108419397Y-70190599D01*
X108419400Y-70190602D01*
X108470133Y-70224500D01*
X108502260Y-70245966D01*
X108557808Y-70257015D01*
X108575315Y-70260498D01*
X108575320Y-70260498D01*
X108575326Y-70260500D01*
X110063455Y-70260500D01*
X110121646Y-70279407D01*
X110133459Y-70289496D01*
X118424459Y-78580496D01*
X118452236Y-78635013D01*
X118442665Y-78695445D01*
X118399400Y-78738710D01*
X118354455Y-78749500D01*
X117196546Y-78749500D01*
X117138355Y-78730593D01*
X117126542Y-78720504D01*
X110592301Y-72186264D01*
X110564524Y-72131747D01*
X110568149Y-72085672D01*
X110622171Y-71919409D01*
X110650500Y-71740546D01*
X110650500Y-71559454D01*
X110650500Y-71559450D01*
X110622171Y-71380593D01*
X110622171Y-71380591D01*
X110566211Y-71208361D01*
X110483996Y-71047006D01*
X110377553Y-70900499D01*
X110249501Y-70772447D01*
X110102994Y-70666004D01*
X110102993Y-70666003D01*
X110102991Y-70666002D01*
X109941637Y-70583788D01*
X109769406Y-70527828D01*
X109590549Y-70499500D01*
X109590546Y-70499500D01*
X109409454Y-70499500D01*
X109409451Y-70499500D01*
X109230593Y-70527828D01*
X109058362Y-70583788D01*
X108897008Y-70666002D01*
X108823752Y-70719225D01*
X108750499Y-70772447D01*
X108622447Y-70900499D01*
X108569225Y-70973752D01*
X108516002Y-71047008D01*
X108433788Y-71208362D01*
X108377828Y-71380593D01*
X108349500Y-71559450D01*
X108349500Y-71740549D01*
X108377828Y-71919406D01*
X108431848Y-72085667D01*
X108433789Y-72091639D01*
X108516004Y-72252994D01*
X108622447Y-72399501D01*
X108750499Y-72527553D01*
X108897006Y-72633996D01*
X109058361Y-72716211D01*
X109230591Y-72772171D01*
X109302136Y-72783502D01*
X109409451Y-72800500D01*
X109409454Y-72800500D01*
X109590549Y-72800500D01*
X109679977Y-72786335D01*
X109769409Y-72772171D01*
X109941639Y-72716211D01*
X109956073Y-72708856D01*
X110016500Y-72699282D01*
X110071018Y-72727056D01*
X110071022Y-72727059D01*
X116674460Y-79330498D01*
X116702236Y-79385013D01*
X116692665Y-79445445D01*
X116649400Y-79488710D01*
X116604455Y-79499500D01*
X115321545Y-79499500D01*
X115263354Y-79480593D01*
X115251541Y-79470504D01*
X110565246Y-74784209D01*
X110537469Y-74729692D01*
X110547039Y-74669264D01*
X110566211Y-74631639D01*
X110622171Y-74459409D01*
X110650500Y-74280546D01*
X110650500Y-74099454D01*
X110650500Y-74099450D01*
X110622171Y-73920593D01*
X110622171Y-73920591D01*
X110566211Y-73748361D01*
X110483996Y-73587006D01*
X110377553Y-73440499D01*
X110249501Y-73312447D01*
X110102994Y-73206004D01*
X110102993Y-73206003D01*
X110102991Y-73206002D01*
X109941637Y-73123788D01*
X109769406Y-73067828D01*
X109590549Y-73039500D01*
X109590546Y-73039500D01*
X109409454Y-73039500D01*
X109409451Y-73039500D01*
X109230593Y-73067828D01*
X109058362Y-73123788D01*
X108897008Y-73206002D01*
X108823752Y-73259225D01*
X108750499Y-73312447D01*
X108622447Y-73440499D01*
X108569225Y-73513752D01*
X108516002Y-73587008D01*
X108433788Y-73748362D01*
X108377828Y-73920593D01*
X108349500Y-74099450D01*
X108349500Y-74280549D01*
X108377828Y-74459406D01*
X108433788Y-74631637D01*
X108511527Y-74784209D01*
X108516004Y-74792994D01*
X108622447Y-74939501D01*
X108750499Y-75067553D01*
X108897006Y-75173996D01*
X109058361Y-75256211D01*
X109230591Y-75312171D01*
X109302136Y-75323502D01*
X109409451Y-75340500D01*
X109409454Y-75340500D01*
X109590549Y-75340500D01*
X109769410Y-75312171D01*
X109815959Y-75297046D01*
X109909252Y-75266733D01*
X109970435Y-75266733D01*
X110009847Y-75290884D01*
X114824525Y-80105562D01*
X114824524Y-80105562D01*
X114894438Y-80175475D01*
X114919187Y-80189764D01*
X114960128Y-80235233D01*
X114966524Y-80296083D01*
X114935931Y-80349071D01*
X114880035Y-80373958D01*
X114869687Y-80374500D01*
X114446545Y-80374500D01*
X114388354Y-80355593D01*
X114376541Y-80345504D01*
X114355563Y-80324526D01*
X114355563Y-80324525D01*
X114269941Y-80275091D01*
X114269934Y-80275088D01*
X114222185Y-80262294D01*
X114222184Y-80262294D01*
X114174438Y-80249500D01*
X114174436Y-80249500D01*
X114174435Y-80249500D01*
X113571545Y-80249500D01*
X113513354Y-80230593D01*
X113501541Y-80220504D01*
X110578748Y-77297711D01*
X110550971Y-77243194D01*
X110560541Y-77182766D01*
X110566211Y-77171639D01*
X110622171Y-76999409D01*
X110650500Y-76820546D01*
X110650500Y-76639454D01*
X110650500Y-76639450D01*
X110622171Y-76460593D01*
X110622171Y-76460591D01*
X110566211Y-76288361D01*
X110483996Y-76127006D01*
X110377553Y-75980499D01*
X110249501Y-75852447D01*
X110102994Y-75746004D01*
X110102993Y-75746003D01*
X110102991Y-75746002D01*
X109941637Y-75663788D01*
X109769406Y-75607828D01*
X109590549Y-75579500D01*
X109590546Y-75579500D01*
X109409454Y-75579500D01*
X109409451Y-75579500D01*
X109230593Y-75607828D01*
X109058362Y-75663788D01*
X108897008Y-75746002D01*
X108823752Y-75799225D01*
X108750499Y-75852447D01*
X108622447Y-75980499D01*
X108569225Y-76053752D01*
X108516002Y-76127008D01*
X108433788Y-76288362D01*
X108377828Y-76460593D01*
X108349500Y-76639450D01*
X108349500Y-76820549D01*
X108377828Y-76999406D01*
X108433788Y-77171637D01*
X108472111Y-77246851D01*
X108516004Y-77332994D01*
X108622447Y-77479501D01*
X108750499Y-77607553D01*
X108897006Y-77713996D01*
X109058361Y-77796211D01*
X109230591Y-77852171D01*
X109302136Y-77863502D01*
X109409451Y-77880500D01*
X109409454Y-77880500D01*
X109590549Y-77880500D01*
X109769404Y-77852172D01*
X109769405Y-77852171D01*
X109769409Y-77852171D01*
X109939445Y-77796924D01*
X110000627Y-77796924D01*
X110040038Y-77821075D01*
X113144438Y-80925475D01*
X113144440Y-80925476D01*
X113144441Y-80925477D01*
X113144442Y-80925478D01*
X113230059Y-80974909D01*
X113230057Y-80974909D01*
X113230061Y-80974910D01*
X113230063Y-80974911D01*
X113325564Y-81000500D01*
X113325565Y-81000500D01*
X113928455Y-81000500D01*
X113986646Y-81019407D01*
X113998452Y-81029490D01*
X114019437Y-81050475D01*
X114105063Y-81099911D01*
X114200564Y-81125500D01*
X114200565Y-81125500D01*
X134055968Y-81125500D01*
X134114159Y-81144407D01*
X134125971Y-81154496D01*
X134161983Y-81190507D01*
X134161989Y-81190512D01*
X134282581Y-81260136D01*
X134323522Y-81305605D01*
X134329918Y-81366455D01*
X134303085Y-81415876D01*
X130748459Y-84970504D01*
X130693942Y-84998281D01*
X130678455Y-84999500D01*
X129549436Y-84999500D01*
X129450564Y-84999500D01*
X129402812Y-85012295D01*
X129355062Y-85025089D01*
X129325888Y-85041933D01*
X129277433Y-85069909D01*
X129269434Y-85074527D01*
X129245133Y-85098827D01*
X129200757Y-85124447D01*
X129152815Y-85137294D01*
X129152814Y-85137294D01*
X129105062Y-85150089D01*
X129105058Y-85150091D01*
X129019436Y-85199525D01*
X129019437Y-85199526D01*
X128769438Y-85449525D01*
X128769437Y-85449524D01*
X128699524Y-85519438D01*
X128650091Y-85605059D01*
X128650090Y-85605061D01*
X128650090Y-85605062D01*
X128650090Y-85605063D01*
X128630518Y-85678109D01*
X128629174Y-85683124D01*
X128629173Y-85683127D01*
X128624500Y-85700564D01*
X128624500Y-86928455D01*
X128605593Y-86986646D01*
X128595505Y-86998457D01*
X128574524Y-87019437D01*
X128525091Y-87105058D01*
X128525090Y-87105060D01*
X128514538Y-87144436D01*
X128514539Y-87144437D01*
X128499787Y-87199495D01*
X128499780Y-87199520D01*
X128499500Y-87200561D01*
X128499500Y-88303454D01*
X128480593Y-88361645D01*
X128470504Y-88373458D01*
X127541487Y-89302474D01*
X127486970Y-89330251D01*
X127440890Y-89326624D01*
X127317706Y-89286598D01*
X127317702Y-89286597D01*
X127146614Y-89259500D01*
X127146611Y-89259500D01*
X126973389Y-89259500D01*
X126973386Y-89259500D01*
X126802297Y-89286597D01*
X126802293Y-89286598D01*
X126637561Y-89340123D01*
X126637558Y-89340125D01*
X126483214Y-89418766D01*
X126343073Y-89520585D01*
X126220585Y-89643073D01*
X126118766Y-89783214D01*
X126040125Y-89937558D01*
X126040123Y-89937561D01*
X125986598Y-90102293D01*
X125986597Y-90102297D01*
X125959500Y-90273385D01*
X125959500Y-90446614D01*
X125986597Y-90617702D01*
X125986598Y-90617706D01*
X126040123Y-90782438D01*
X126040125Y-90782441D01*
X126118597Y-90936454D01*
X126118768Y-90936788D01*
X126220586Y-91076928D01*
X126324156Y-91180498D01*
X126351932Y-91235013D01*
X126342361Y-91295445D01*
X126299096Y-91338710D01*
X126254151Y-91349500D01*
X125325849Y-91349500D01*
X125267658Y-91330593D01*
X125231694Y-91281093D01*
X125231694Y-91219907D01*
X125255843Y-91180498D01*
X125359414Y-91076928D01*
X125461232Y-90936788D01*
X125539873Y-90782445D01*
X125539874Y-90782440D01*
X125539876Y-90782438D01*
X125593401Y-90617706D01*
X125593402Y-90617702D01*
X125620500Y-90446614D01*
X125620500Y-90273385D01*
X125593402Y-90102297D01*
X125555827Y-89986657D01*
X125541111Y-89941368D01*
X125541111Y-89880185D01*
X125565260Y-89840775D01*
X126675474Y-88730563D01*
X126675763Y-88730063D01*
X126724910Y-88644938D01*
X126736999Y-88599823D01*
X126747421Y-88560930D01*
X126750499Y-88549440D01*
X126750500Y-88549435D01*
X126750500Y-88069031D01*
X126769407Y-88010840D01*
X126779490Y-87999033D01*
X126815509Y-87963015D01*
X126828503Y-87940509D01*
X126887982Y-87837489D01*
X126887982Y-87837487D01*
X126887984Y-87837485D01*
X126925500Y-87697475D01*
X126925500Y-87552525D01*
X126887984Y-87412515D01*
X126887982Y-87412512D01*
X126887982Y-87412510D01*
X126815512Y-87286989D01*
X126815510Y-87286987D01*
X126815509Y-87286985D01*
X126713015Y-87184491D01*
X126713012Y-87184489D01*
X126713010Y-87184487D01*
X126587488Y-87112017D01*
X126587489Y-87112017D01*
X126557896Y-87104087D01*
X126447475Y-87074500D01*
X126302525Y-87074500D01*
X126263399Y-87084984D01*
X126162510Y-87112017D01*
X126036989Y-87184487D01*
X125934487Y-87286989D01*
X125862017Y-87412510D01*
X125834148Y-87516519D01*
X125824500Y-87552525D01*
X125824500Y-87697475D01*
X125851579Y-87798535D01*
X125862017Y-87837489D01*
X125934487Y-87963010D01*
X125934489Y-87963012D01*
X125934491Y-87963015D01*
X125970505Y-87999029D01*
X125998281Y-88053544D01*
X125999500Y-88069031D01*
X125999500Y-88303454D01*
X125980593Y-88361645D01*
X125970504Y-88373458D01*
X125031678Y-89312283D01*
X124977161Y-89340060D01*
X124931081Y-89336434D01*
X124777698Y-89286597D01*
X124606614Y-89259500D01*
X124606611Y-89259500D01*
X124433389Y-89259500D01*
X124433386Y-89259500D01*
X124262297Y-89286597D01*
X124262293Y-89286598D01*
X124097561Y-89340123D01*
X124097558Y-89340125D01*
X123943214Y-89418766D01*
X123803073Y-89520585D01*
X123680585Y-89643073D01*
X123578766Y-89783214D01*
X123500125Y-89937558D01*
X123500123Y-89937561D01*
X123446598Y-90102293D01*
X123446597Y-90102297D01*
X123419500Y-90273385D01*
X123419500Y-90446614D01*
X123446597Y-90617702D01*
X123446598Y-90617706D01*
X123500123Y-90782438D01*
X123500125Y-90782441D01*
X123578597Y-90936454D01*
X123578768Y-90936788D01*
X123680586Y-91076928D01*
X123784156Y-91180498D01*
X123811932Y-91235013D01*
X123802361Y-91295445D01*
X123759096Y-91338710D01*
X123714151Y-91349500D01*
X122785849Y-91349500D01*
X122727658Y-91330593D01*
X122691694Y-91281093D01*
X122691694Y-91219907D01*
X122715843Y-91180498D01*
X122819414Y-91076928D01*
X122921232Y-90936788D01*
X122999873Y-90782445D01*
X122999874Y-90782440D01*
X122999876Y-90782438D01*
X123053401Y-90617706D01*
X123053402Y-90617702D01*
X123080500Y-90446614D01*
X123080500Y-90273385D01*
X123053402Y-90102297D01*
X123053401Y-90102293D01*
X122999876Y-89937561D01*
X122999874Y-89937558D01*
X122999873Y-89937557D01*
X122999873Y-89937555D01*
X122921232Y-89783212D01*
X122819414Y-89643072D01*
X122696928Y-89520586D01*
X122556788Y-89418768D01*
X122556787Y-89418767D01*
X122556785Y-89418766D01*
X122402441Y-89340125D01*
X122402438Y-89340123D01*
X122237706Y-89286598D01*
X122237702Y-89286597D01*
X122066614Y-89259500D01*
X122066611Y-89259500D01*
X121893389Y-89259500D01*
X121893386Y-89259500D01*
X121722297Y-89286597D01*
X121722293Y-89286598D01*
X121557561Y-89340123D01*
X121557558Y-89340125D01*
X121403214Y-89418766D01*
X121263073Y-89520585D01*
X121140585Y-89643073D01*
X121038766Y-89783214D01*
X120960125Y-89937558D01*
X120960123Y-89937561D01*
X120906598Y-90102293D01*
X120906597Y-90102297D01*
X120879500Y-90273385D01*
X120879500Y-90446614D01*
X120906597Y-90617702D01*
X120906598Y-90617706D01*
X120960123Y-90782438D01*
X120960125Y-90782441D01*
X121038597Y-90936454D01*
X121038768Y-90936788D01*
X121140586Y-91076928D01*
X121244156Y-91180498D01*
X121271932Y-91235013D01*
X121262361Y-91295445D01*
X121219096Y-91338710D01*
X121174151Y-91349500D01*
X120187665Y-91349500D01*
X120129474Y-91330593D01*
X120117661Y-91320504D01*
X119625176Y-90828019D01*
X119632993Y-90825925D01*
X119747007Y-90760099D01*
X119840099Y-90667007D01*
X119905925Y-90552993D01*
X119908019Y-90545176D01*
X120382330Y-91019487D01*
X120423569Y-90962728D01*
X120505749Y-90801440D01*
X120561683Y-90629289D01*
X120590000Y-90450510D01*
X120590000Y-90269489D01*
X120561683Y-90090710D01*
X120505749Y-89918559D01*
X120423571Y-89757275D01*
X120382330Y-89700511D01*
X119908019Y-90174821D01*
X119905925Y-90167007D01*
X119840099Y-90052993D01*
X119747007Y-89959901D01*
X119632993Y-89894075D01*
X119625174Y-89891980D01*
X120099488Y-89417667D01*
X120042728Y-89376430D01*
X119881440Y-89294250D01*
X119709289Y-89238316D01*
X119530510Y-89210000D01*
X119349490Y-89210000D01*
X119170710Y-89238316D01*
X118998559Y-89294250D01*
X118837267Y-89376432D01*
X118780510Y-89417667D01*
X119254823Y-89891980D01*
X119247007Y-89894075D01*
X119132993Y-89959901D01*
X119039901Y-90052993D01*
X118974075Y-90167007D01*
X118971980Y-90174823D01*
X118497667Y-89700510D01*
X118456432Y-89757267D01*
X118374250Y-89918559D01*
X118318316Y-90090710D01*
X118290000Y-90269489D01*
X118290000Y-90450510D01*
X118318316Y-90629289D01*
X118374250Y-90801440D01*
X118456430Y-90962728D01*
X118497667Y-91019488D01*
X118971980Y-90545174D01*
X118974075Y-90552993D01*
X119039901Y-90667007D01*
X119132993Y-90760099D01*
X119247007Y-90825925D01*
X119254822Y-90828019D01*
X118762338Y-91320504D01*
X118707821Y-91348281D01*
X118692334Y-91349500D01*
X117435454Y-91349500D01*
X117377263Y-91330593D01*
X117365450Y-91320504D01*
X110663606Y-84618660D01*
X110635829Y-84564143D01*
X110635829Y-84533171D01*
X110650500Y-84440546D01*
X110650500Y-84259454D01*
X110650500Y-84259450D01*
X110622171Y-84080593D01*
X110622171Y-84080591D01*
X110566211Y-83908361D01*
X110483996Y-83747006D01*
X110377553Y-83600499D01*
X110249501Y-83472447D01*
X110102994Y-83366004D01*
X110102993Y-83366003D01*
X110102991Y-83366002D01*
X109941637Y-83283788D01*
X109769406Y-83227828D01*
X109590549Y-83199500D01*
X109590546Y-83199500D01*
X109409454Y-83199500D01*
X109409451Y-83199500D01*
X109230593Y-83227828D01*
X109058362Y-83283788D01*
X108897008Y-83366002D01*
X108879513Y-83378713D01*
X108750499Y-83472447D01*
X108622447Y-83600499D01*
X108562003Y-83683691D01*
X108512505Y-83719655D01*
X108481912Y-83724500D01*
X105560454Y-83724500D01*
X105502263Y-83705593D01*
X105490451Y-83695504D01*
X105164668Y-83369722D01*
X105058126Y-83298534D01*
X104939747Y-83249500D01*
X104939745Y-83249499D01*
X104939744Y-83249499D01*
X104814069Y-83224500D01*
X97685931Y-83224500D01*
X97685930Y-83224500D01*
X97669200Y-83227828D01*
X97560256Y-83249499D01*
X97560255Y-83249499D01*
X97560252Y-83249500D01*
X97441873Y-83298534D01*
X97335330Y-83369723D01*
X97231828Y-83473224D01*
X97189271Y-83495998D01*
X97189906Y-83498089D01*
X97185252Y-83499500D01*
X97066873Y-83548534D01*
X96960331Y-83619722D01*
X96230670Y-84349381D01*
X96176154Y-84377158D01*
X96145180Y-84377158D01*
X95970549Y-84349500D01*
X95970546Y-84349500D01*
X95789454Y-84349500D01*
X95789451Y-84349500D01*
X95610593Y-84377828D01*
X95438362Y-84433788D01*
X95277008Y-84516002D01*
X95237912Y-84544407D01*
X95130499Y-84622447D01*
X95002447Y-84750499D01*
X94963057Y-84804715D01*
X94896002Y-84897008D01*
X94813788Y-85058362D01*
X94757828Y-85230593D01*
X94732839Y-85388365D01*
X94705061Y-85442882D01*
X94650545Y-85470659D01*
X94590113Y-85461087D01*
X94546848Y-85417823D01*
X94537277Y-85388365D01*
X94510453Y-85219003D01*
X94452085Y-85039364D01*
X94366332Y-84871063D01*
X94366328Y-84871057D01*
X94318127Y-84804715D01*
X94318126Y-84804715D01*
X93808019Y-85314821D01*
X93805925Y-85307007D01*
X93740099Y-85192993D01*
X93647007Y-85099901D01*
X93532993Y-85034075D01*
X93525174Y-85031979D01*
X94035283Y-84521871D01*
X93968942Y-84473671D01*
X93968936Y-84473667D01*
X93800635Y-84387914D01*
X93620996Y-84329546D01*
X93434445Y-84300000D01*
X93245555Y-84300000D01*
X93059003Y-84329546D01*
X92879364Y-84387914D01*
X92711063Y-84473667D01*
X92711059Y-84473669D01*
X92644715Y-84521871D01*
X93154824Y-85031980D01*
X93147007Y-85034075D01*
X93032993Y-85099901D01*
X92939901Y-85192993D01*
X92874075Y-85307007D01*
X92871980Y-85314824D01*
X92361871Y-84804715D01*
X92313669Y-84871059D01*
X92313667Y-84871063D01*
X92227914Y-85039364D01*
X92169546Y-85219003D01*
X92140000Y-85405554D01*
X92140000Y-85594445D01*
X92169546Y-85780996D01*
X92227914Y-85960635D01*
X92313667Y-86128936D01*
X92313671Y-86128942D01*
X92361871Y-86195283D01*
X92871979Y-85685174D01*
X92874075Y-85692993D01*
X92939901Y-85807007D01*
X93032993Y-85900099D01*
X93147007Y-85965925D01*
X93154821Y-85968019D01*
X92644715Y-86478126D01*
X92644715Y-86478127D01*
X92711057Y-86526328D01*
X92711063Y-86526332D01*
X92879364Y-86612085D01*
X93059003Y-86670453D01*
X93245555Y-86700000D01*
X93434444Y-86700000D01*
X93514446Y-86687328D01*
X93574878Y-86696899D01*
X93618143Y-86740163D01*
X93627715Y-86800595D01*
X93599938Y-86855112D01*
X93599938Y-86855113D01*
X89734550Y-90720504D01*
X89680033Y-90748281D01*
X89664546Y-90749500D01*
X88475326Y-90749500D01*
X88475325Y-90749500D01*
X88475315Y-90749501D01*
X88402263Y-90764033D01*
X88402257Y-90764035D01*
X88319400Y-90819397D01*
X88319397Y-90819400D01*
X88264035Y-90902257D01*
X88264033Y-90902263D01*
X88249501Y-90975315D01*
X88249500Y-90975327D01*
X88249500Y-93024672D01*
X88249501Y-93024684D01*
X88264033Y-93097736D01*
X88264035Y-93097742D01*
X88319397Y-93180599D01*
X88319400Y-93180602D01*
X88400500Y-93234790D01*
X88402260Y-93235966D01*
X88457808Y-93247015D01*
X88475315Y-93250498D01*
X88475320Y-93250498D01*
X88475326Y-93250500D01*
X88475327Y-93250500D01*
X88758461Y-93250500D01*
X88816652Y-93269407D01*
X88852616Y-93318907D01*
X88852616Y-93380093D01*
X88816652Y-93429593D01*
X88816651Y-93429593D01*
X88733122Y-93490279D01*
X89276687Y-94033844D01*
X89162292Y-94099890D01*
X89059890Y-94202292D01*
X88993844Y-94316687D01*
X88450279Y-93773122D01*
X88388141Y-93858647D01*
X88388139Y-93858651D01*
X88295243Y-94040972D01*
X88232008Y-94235587D01*
X88200000Y-94437684D01*
X87000500Y-94437684D01*
X87000500Y-83378710D01*
X88149500Y-83378710D01*
X88149500Y-83621289D01*
X88181161Y-83861781D01*
X88181161Y-83861786D01*
X88243944Y-84096092D01*
X88243948Y-84096105D01*
X88336772Y-84320204D01*
X88336774Y-84320208D01*
X88336776Y-84320212D01*
X88449817Y-84516004D01*
X88458066Y-84530292D01*
X88605729Y-84722731D01*
X88605731Y-84722733D01*
X88605735Y-84722738D01*
X88777262Y-84894265D01*
X88777266Y-84894268D01*
X88777268Y-84894270D01*
X88947757Y-85025090D01*
X88969711Y-85041936D01*
X89179788Y-85163224D01*
X89403900Y-85256054D01*
X89638211Y-85318838D01*
X89878712Y-85350500D01*
X89878713Y-85350500D01*
X90121287Y-85350500D01*
X90121288Y-85350500D01*
X90361789Y-85318838D01*
X90596100Y-85256054D01*
X90820212Y-85163224D01*
X91030289Y-85041936D01*
X91222738Y-84894265D01*
X91394265Y-84722738D01*
X91541936Y-84530289D01*
X91663224Y-84320212D01*
X91756054Y-84096100D01*
X91818838Y-83861789D01*
X91850500Y-83621288D01*
X91850500Y-83378712D01*
X91818838Y-83138211D01*
X91756054Y-82903900D01*
X91663224Y-82679788D01*
X91541936Y-82469711D01*
X91394265Y-82277262D01*
X91222738Y-82105735D01*
X91222733Y-82105731D01*
X91222731Y-82105729D01*
X91030292Y-81958066D01*
X90820207Y-81836773D01*
X90748394Y-81807028D01*
X90748393Y-81807027D01*
X90596105Y-81743948D01*
X90596104Y-81743947D01*
X90596100Y-81743946D01*
X90504680Y-81719450D01*
X108349500Y-81719450D01*
X108349500Y-81900549D01*
X108377828Y-82079406D01*
X108377829Y-82079409D01*
X108433789Y-82251639D01*
X108516004Y-82412994D01*
X108622447Y-82559501D01*
X108750499Y-82687553D01*
X108897006Y-82793996D01*
X109058361Y-82876211D01*
X109230591Y-82932171D01*
X109302136Y-82943502D01*
X109409451Y-82960500D01*
X109409454Y-82960500D01*
X109590549Y-82960500D01*
X109679977Y-82946335D01*
X109769409Y-82932171D01*
X109941639Y-82876211D01*
X110102994Y-82793996D01*
X110249501Y-82687553D01*
X110377553Y-82559501D01*
X110483996Y-82412994D01*
X110566211Y-82251639D01*
X110622171Y-82079409D01*
X110650500Y-81900546D01*
X110650500Y-81719454D01*
X110650500Y-81719450D01*
X110622171Y-81540593D01*
X110622171Y-81540591D01*
X110566211Y-81368361D01*
X110483996Y-81207006D01*
X110377553Y-81060499D01*
X110249501Y-80932447D01*
X110102994Y-80826004D01*
X110102993Y-80826003D01*
X110102991Y-80826002D01*
X109941637Y-80743788D01*
X109769406Y-80687828D01*
X109590549Y-80659500D01*
X109590546Y-80659500D01*
X109409454Y-80659500D01*
X109409451Y-80659500D01*
X109230593Y-80687828D01*
X109058362Y-80743788D01*
X108897008Y-80826002D01*
X108823752Y-80879225D01*
X108750499Y-80932447D01*
X108622447Y-81060499D01*
X108593813Y-81099911D01*
X108516002Y-81207008D01*
X108433788Y-81368362D01*
X108377828Y-81540593D01*
X108349500Y-81719450D01*
X90504680Y-81719450D01*
X90361789Y-81681162D01*
X90361786Y-81681161D01*
X90361784Y-81681161D01*
X90121289Y-81649500D01*
X90121288Y-81649500D01*
X89878712Y-81649500D01*
X89878710Y-81649500D01*
X89638218Y-81681161D01*
X89638213Y-81681161D01*
X89403907Y-81743944D01*
X89403894Y-81743948D01*
X89179795Y-81836772D01*
X88969707Y-81958066D01*
X88777268Y-82105729D01*
X88605729Y-82277268D01*
X88458066Y-82469707D01*
X88336772Y-82679795D01*
X88243948Y-82903894D01*
X88243944Y-82903907D01*
X88181161Y-83138213D01*
X88181161Y-83138218D01*
X88149500Y-83378710D01*
X87000500Y-83378710D01*
X87000500Y-79179450D01*
X108349500Y-79179450D01*
X108349500Y-79360549D01*
X108377828Y-79539406D01*
X108433788Y-79711637D01*
X108474162Y-79790876D01*
X108516004Y-79872994D01*
X108622447Y-80019501D01*
X108750499Y-80147553D01*
X108897006Y-80253996D01*
X109058361Y-80336211D01*
X109230591Y-80392171D01*
X109302136Y-80403502D01*
X109409451Y-80420500D01*
X109409454Y-80420500D01*
X109590549Y-80420500D01*
X109679977Y-80406335D01*
X109769409Y-80392171D01*
X109941639Y-80336211D01*
X110102994Y-80253996D01*
X110249501Y-80147553D01*
X110377553Y-80019501D01*
X110483996Y-79872994D01*
X110566211Y-79711639D01*
X110622171Y-79539409D01*
X110650500Y-79360546D01*
X110650500Y-79179454D01*
X110650500Y-79179450D01*
X110631614Y-79060212D01*
X110622171Y-79000591D01*
X110566211Y-78828361D01*
X110483996Y-78667006D01*
X110377553Y-78520499D01*
X110249501Y-78392447D01*
X110102994Y-78286004D01*
X110102993Y-78286003D01*
X110102991Y-78286002D01*
X109941637Y-78203788D01*
X109769406Y-78147828D01*
X109590549Y-78119500D01*
X109590546Y-78119500D01*
X109409454Y-78119500D01*
X109409451Y-78119500D01*
X109230593Y-78147828D01*
X109058362Y-78203788D01*
X108897008Y-78286002D01*
X108823752Y-78339225D01*
X108750499Y-78392447D01*
X108622447Y-78520499D01*
X108578857Y-78580496D01*
X108516002Y-78667008D01*
X108433788Y-78828362D01*
X108377828Y-79000593D01*
X108349500Y-79179450D01*
X87000500Y-79179450D01*
X87000500Y-67378710D01*
X88149500Y-67378710D01*
X88149500Y-67621289D01*
X88181161Y-67861781D01*
X88181161Y-67861786D01*
X88243944Y-68096092D01*
X88243948Y-68096105D01*
X88336772Y-68320204D01*
X88336774Y-68320208D01*
X88336776Y-68320212D01*
X88452051Y-68519874D01*
X88458066Y-68530292D01*
X88605729Y-68722731D01*
X88605731Y-68722733D01*
X88605735Y-68722738D01*
X88777262Y-68894265D01*
X88777266Y-68894268D01*
X88777268Y-68894270D01*
X88969707Y-69041933D01*
X88969711Y-69041936D01*
X89179788Y-69163224D01*
X89403900Y-69256054D01*
X89638211Y-69318838D01*
X89878712Y-69350500D01*
X89878713Y-69350500D01*
X90121287Y-69350500D01*
X90121288Y-69350500D01*
X90361789Y-69318838D01*
X90596100Y-69256054D01*
X90820212Y-69163224D01*
X91030289Y-69041936D01*
X91222738Y-68894265D01*
X91394265Y-68722738D01*
X91541936Y-68530289D01*
X91663224Y-68320212D01*
X91756054Y-68096100D01*
X91818838Y-67861789D01*
X91850500Y-67621288D01*
X91850500Y-67409489D01*
X118290000Y-67409489D01*
X118290000Y-67590510D01*
X118318316Y-67769289D01*
X118374250Y-67941440D01*
X118456430Y-68102728D01*
X118497667Y-68159488D01*
X118971980Y-67685174D01*
X118974075Y-67692993D01*
X119039901Y-67807007D01*
X119132993Y-67900099D01*
X119247007Y-67965925D01*
X119254821Y-67968019D01*
X118780511Y-68442330D01*
X118837275Y-68483571D01*
X118998559Y-68565749D01*
X119170710Y-68621683D01*
X119349490Y-68650000D01*
X119530510Y-68650000D01*
X119709289Y-68621683D01*
X119881440Y-68565749D01*
X120042728Y-68483569D01*
X120099487Y-68442330D01*
X119625176Y-67968019D01*
X119632993Y-67965925D01*
X119747007Y-67900099D01*
X119840099Y-67807007D01*
X119905925Y-67692993D01*
X119908019Y-67685176D01*
X120382330Y-68159487D01*
X120423569Y-68102728D01*
X120505749Y-67941440D01*
X120561683Y-67769289D01*
X120590000Y-67590510D01*
X120590000Y-67409489D01*
X120830000Y-67409489D01*
X120830000Y-67590510D01*
X120858316Y-67769289D01*
X120914250Y-67941440D01*
X120996430Y-68102728D01*
X121037667Y-68159488D01*
X121511980Y-67685174D01*
X121514075Y-67692993D01*
X121579901Y-67807007D01*
X121672993Y-67900099D01*
X121787007Y-67965925D01*
X121794821Y-67968019D01*
X121320511Y-68442330D01*
X121377275Y-68483571D01*
X121538559Y-68565749D01*
X121710710Y-68621683D01*
X121889490Y-68650000D01*
X122070510Y-68650000D01*
X122249289Y-68621683D01*
X122421440Y-68565749D01*
X122582728Y-68483569D01*
X122639487Y-68442330D01*
X122165176Y-67968019D01*
X122172993Y-67965925D01*
X122287007Y-67900099D01*
X122380099Y-67807007D01*
X122445925Y-67692993D01*
X122448019Y-67685176D01*
X122922330Y-68159487D01*
X122963569Y-68102728D01*
X123045749Y-67941440D01*
X123101683Y-67769289D01*
X123130000Y-67590510D01*
X123130000Y-67413385D01*
X123419500Y-67413385D01*
X123419500Y-67586614D01*
X123446597Y-67757702D01*
X123446598Y-67757706D01*
X123500123Y-67922438D01*
X123500125Y-67922441D01*
X123500126Y-67922444D01*
X123500127Y-67922445D01*
X123578768Y-68076788D01*
X123680586Y-68216928D01*
X123803072Y-68339414D01*
X123943212Y-68441232D01*
X124097555Y-68519873D01*
X124097557Y-68519873D01*
X124097558Y-68519874D01*
X124097561Y-68519876D01*
X124262293Y-68573401D01*
X124262297Y-68573402D01*
X124433386Y-68600500D01*
X124433389Y-68600500D01*
X124606614Y-68600500D01*
X124777702Y-68573402D01*
X124777706Y-68573401D01*
X124942438Y-68519876D01*
X124942440Y-68519874D01*
X124942445Y-68519873D01*
X125096788Y-68441232D01*
X125236928Y-68339414D01*
X125359414Y-68216928D01*
X125461232Y-68076788D01*
X125539873Y-67922445D01*
X125539874Y-67922440D01*
X125539876Y-67922438D01*
X125593401Y-67757706D01*
X125593402Y-67757702D01*
X125620500Y-67586614D01*
X125620500Y-67413385D01*
X125959500Y-67413385D01*
X125959500Y-67586614D01*
X125986597Y-67757702D01*
X125986598Y-67757706D01*
X126040123Y-67922438D01*
X126040125Y-67922441D01*
X126040126Y-67922444D01*
X126040127Y-67922445D01*
X126118768Y-68076788D01*
X126220586Y-68216928D01*
X126343072Y-68339414D01*
X126483212Y-68441232D01*
X126637555Y-68519873D01*
X126637557Y-68519873D01*
X126637558Y-68519874D01*
X126637561Y-68519876D01*
X126802293Y-68573401D01*
X126802297Y-68573402D01*
X126973386Y-68600500D01*
X126973389Y-68600500D01*
X127146614Y-68600500D01*
X127317702Y-68573402D01*
X127317706Y-68573401D01*
X127482438Y-68519876D01*
X127482440Y-68519874D01*
X127482445Y-68519873D01*
X127636788Y-68441232D01*
X127776928Y-68339414D01*
X127899414Y-68216928D01*
X128001232Y-68076788D01*
X128079873Y-67922445D01*
X128079874Y-67922440D01*
X128079876Y-67922438D01*
X128133401Y-67757706D01*
X128133402Y-67757702D01*
X128160500Y-67586614D01*
X128160500Y-67413385D01*
X128499500Y-67413385D01*
X128499500Y-67586614D01*
X128526597Y-67757702D01*
X128526598Y-67757706D01*
X128580123Y-67922438D01*
X128580125Y-67922441D01*
X128580126Y-67922444D01*
X128580127Y-67922445D01*
X128658768Y-68076788D01*
X128760586Y-68216928D01*
X128883072Y-68339414D01*
X129023212Y-68441232D01*
X129177555Y-68519873D01*
X129177557Y-68519873D01*
X129177558Y-68519874D01*
X129177561Y-68519876D01*
X129342293Y-68573401D01*
X129342297Y-68573402D01*
X129513386Y-68600500D01*
X129513389Y-68600500D01*
X129686614Y-68600500D01*
X129857702Y-68573402D01*
X129857706Y-68573401D01*
X130022438Y-68519876D01*
X130022440Y-68519874D01*
X130022445Y-68519873D01*
X130176788Y-68441232D01*
X130316928Y-68339414D01*
X130439414Y-68216928D01*
X130541232Y-68076788D01*
X130619873Y-67922445D01*
X130619874Y-67922440D01*
X130619876Y-67922438D01*
X130673401Y-67757706D01*
X130673402Y-67757702D01*
X130700500Y-67586614D01*
X130700500Y-67413385D01*
X131039500Y-67413385D01*
X131039500Y-67586614D01*
X131066597Y-67757702D01*
X131066598Y-67757706D01*
X131120123Y-67922438D01*
X131120125Y-67922441D01*
X131120126Y-67922444D01*
X131120127Y-67922445D01*
X131198768Y-68076788D01*
X131300586Y-68216928D01*
X131423072Y-68339414D01*
X131563212Y-68441232D01*
X131717555Y-68519873D01*
X131717557Y-68519873D01*
X131717558Y-68519874D01*
X131717561Y-68519876D01*
X131882293Y-68573401D01*
X131882297Y-68573402D01*
X132053386Y-68600500D01*
X132053389Y-68600500D01*
X132226614Y-68600500D01*
X132397702Y-68573402D01*
X132397706Y-68573401D01*
X132562438Y-68519876D01*
X132562440Y-68519874D01*
X132562445Y-68519873D01*
X132716788Y-68441232D01*
X132856928Y-68339414D01*
X132979414Y-68216928D01*
X133081232Y-68076788D01*
X133159873Y-67922445D01*
X133159874Y-67922440D01*
X133159876Y-67922438D01*
X133213401Y-67757706D01*
X133213402Y-67757702D01*
X133240500Y-67586614D01*
X133240500Y-67413385D01*
X133579500Y-67413385D01*
X133579500Y-67586614D01*
X133606597Y-67757702D01*
X133606598Y-67757706D01*
X133660123Y-67922438D01*
X133660125Y-67922441D01*
X133660126Y-67922444D01*
X133660127Y-67922445D01*
X133738768Y-68076788D01*
X133840586Y-68216928D01*
X133963072Y-68339414D01*
X134103212Y-68441232D01*
X134257555Y-68519873D01*
X134257557Y-68519873D01*
X134257558Y-68519874D01*
X134257561Y-68519876D01*
X134422293Y-68573401D01*
X134422297Y-68573402D01*
X134593386Y-68600500D01*
X134593389Y-68600500D01*
X134766614Y-68600500D01*
X134937702Y-68573402D01*
X134937706Y-68573401D01*
X135102438Y-68519876D01*
X135102440Y-68519874D01*
X135102445Y-68519873D01*
X135256788Y-68441232D01*
X135396928Y-68339414D01*
X135519414Y-68216928D01*
X135621232Y-68076788D01*
X135699873Y-67922445D01*
X135699874Y-67922440D01*
X135699876Y-67922438D01*
X135753401Y-67757706D01*
X135753402Y-67757702D01*
X135780500Y-67586614D01*
X135780500Y-67413385D01*
X136119500Y-67413385D01*
X136119500Y-67586614D01*
X136146597Y-67757702D01*
X136146598Y-67757706D01*
X136200123Y-67922438D01*
X136200125Y-67922441D01*
X136200126Y-67922444D01*
X136200127Y-67922445D01*
X136278768Y-68076788D01*
X136380586Y-68216928D01*
X136503072Y-68339414D01*
X136643212Y-68441232D01*
X136797555Y-68519873D01*
X136797557Y-68519873D01*
X136797558Y-68519874D01*
X136797561Y-68519876D01*
X136962293Y-68573401D01*
X136962297Y-68573402D01*
X137133386Y-68600500D01*
X137133389Y-68600500D01*
X137306614Y-68600500D01*
X137477702Y-68573402D01*
X137477706Y-68573401D01*
X137642438Y-68519876D01*
X137642440Y-68519874D01*
X137642445Y-68519873D01*
X137796788Y-68441232D01*
X137936928Y-68339414D01*
X138059414Y-68216928D01*
X138161232Y-68076788D01*
X138239873Y-67922445D01*
X138239874Y-67922440D01*
X138239876Y-67922438D01*
X138293401Y-67757706D01*
X138293402Y-67757702D01*
X138320500Y-67586614D01*
X138320500Y-67413385D01*
X138659500Y-67413385D01*
X138659500Y-67586614D01*
X138686597Y-67757702D01*
X138686598Y-67757706D01*
X138740123Y-67922438D01*
X138740125Y-67922441D01*
X138740126Y-67922444D01*
X138740127Y-67922445D01*
X138818768Y-68076788D01*
X138920586Y-68216928D01*
X139043072Y-68339414D01*
X139183212Y-68441232D01*
X139337555Y-68519873D01*
X139337557Y-68519873D01*
X139337558Y-68519874D01*
X139337561Y-68519876D01*
X139502293Y-68573401D01*
X139502297Y-68573402D01*
X139673386Y-68600500D01*
X139673389Y-68600500D01*
X139846614Y-68600500D01*
X140017702Y-68573402D01*
X140017706Y-68573401D01*
X140182438Y-68519876D01*
X140182440Y-68519874D01*
X140182445Y-68519873D01*
X140336788Y-68441232D01*
X140476928Y-68339414D01*
X140599414Y-68216928D01*
X140701232Y-68076788D01*
X140779873Y-67922445D01*
X140779874Y-67922440D01*
X140779876Y-67922438D01*
X140833401Y-67757706D01*
X140833402Y-67757702D01*
X140860500Y-67586614D01*
X140860500Y-67413385D01*
X141199500Y-67413385D01*
X141199500Y-67586614D01*
X141226597Y-67757702D01*
X141226598Y-67757706D01*
X141280123Y-67922438D01*
X141280125Y-67922441D01*
X141280126Y-67922444D01*
X141280127Y-67922445D01*
X141358768Y-68076788D01*
X141460586Y-68216928D01*
X141583072Y-68339414D01*
X141723212Y-68441232D01*
X141877555Y-68519873D01*
X141877557Y-68519873D01*
X141877558Y-68519874D01*
X141877561Y-68519876D01*
X142042293Y-68573401D01*
X142042297Y-68573402D01*
X142213386Y-68600500D01*
X142213389Y-68600500D01*
X142386614Y-68600500D01*
X142557702Y-68573402D01*
X142557706Y-68573401D01*
X142722438Y-68519876D01*
X142722440Y-68519874D01*
X142722445Y-68519873D01*
X142876788Y-68441232D01*
X143016928Y-68339414D01*
X143139414Y-68216928D01*
X143241232Y-68076788D01*
X143319873Y-67922445D01*
X143319874Y-67922440D01*
X143319876Y-67922438D01*
X143373401Y-67757706D01*
X143373402Y-67757702D01*
X143400500Y-67586614D01*
X143400500Y-67413385D01*
X143739500Y-67413385D01*
X143739500Y-67586614D01*
X143766597Y-67757702D01*
X143766598Y-67757706D01*
X143820123Y-67922438D01*
X143820125Y-67922441D01*
X143820126Y-67922444D01*
X143820127Y-67922445D01*
X143898768Y-68076788D01*
X144000586Y-68216928D01*
X144123072Y-68339414D01*
X144263212Y-68441232D01*
X144417555Y-68519873D01*
X144417557Y-68519873D01*
X144417558Y-68519874D01*
X144417561Y-68519876D01*
X144582293Y-68573401D01*
X144582297Y-68573402D01*
X144753386Y-68600500D01*
X144753389Y-68600500D01*
X144926614Y-68600500D01*
X145097702Y-68573402D01*
X145097706Y-68573401D01*
X145262438Y-68519876D01*
X145262440Y-68519874D01*
X145262445Y-68519873D01*
X145416788Y-68441232D01*
X145556928Y-68339414D01*
X145679414Y-68216928D01*
X145781232Y-68076788D01*
X145859873Y-67922445D01*
X145859874Y-67922440D01*
X145859876Y-67922438D01*
X145913401Y-67757706D01*
X145913402Y-67757702D01*
X145940500Y-67586614D01*
X145940500Y-67413385D01*
X146279500Y-67413385D01*
X146279500Y-67586614D01*
X146306597Y-67757702D01*
X146306598Y-67757706D01*
X146360123Y-67922438D01*
X146360125Y-67922441D01*
X146360126Y-67922444D01*
X146360127Y-67922445D01*
X146438768Y-68076788D01*
X146540586Y-68216928D01*
X146663072Y-68339414D01*
X146803212Y-68441232D01*
X146957555Y-68519873D01*
X146957557Y-68519873D01*
X146957558Y-68519874D01*
X146957561Y-68519876D01*
X147122293Y-68573401D01*
X147122297Y-68573402D01*
X147293386Y-68600500D01*
X147293389Y-68600500D01*
X147466614Y-68600500D01*
X147637702Y-68573402D01*
X147637706Y-68573401D01*
X147802438Y-68519876D01*
X147802440Y-68519874D01*
X147802445Y-68519873D01*
X147956788Y-68441232D01*
X148096928Y-68339414D01*
X148219414Y-68216928D01*
X148321232Y-68076788D01*
X148399873Y-67922445D01*
X148399874Y-67922440D01*
X148399876Y-67922438D01*
X148453401Y-67757706D01*
X148453402Y-67757702D01*
X148480500Y-67586614D01*
X148480500Y-67413385D01*
X148819500Y-67413385D01*
X148819500Y-67586614D01*
X148846597Y-67757702D01*
X148846598Y-67757706D01*
X148900123Y-67922438D01*
X148900125Y-67922441D01*
X148900126Y-67922444D01*
X148900127Y-67922445D01*
X148978768Y-68076788D01*
X149080586Y-68216928D01*
X149203072Y-68339414D01*
X149343212Y-68441232D01*
X149497555Y-68519873D01*
X149497557Y-68519873D01*
X149497558Y-68519874D01*
X149497561Y-68519876D01*
X149662293Y-68573401D01*
X149662297Y-68573402D01*
X149833386Y-68600500D01*
X149833389Y-68600500D01*
X150006614Y-68600500D01*
X150177702Y-68573402D01*
X150177706Y-68573401D01*
X150342438Y-68519876D01*
X150342440Y-68519874D01*
X150342445Y-68519873D01*
X150496788Y-68441232D01*
X150636928Y-68339414D01*
X150759414Y-68216928D01*
X150861232Y-68076788D01*
X150939873Y-67922445D01*
X150939874Y-67922440D01*
X150939876Y-67922438D01*
X150993401Y-67757706D01*
X150993402Y-67757702D01*
X151020500Y-67586614D01*
X151020500Y-67413385D01*
X151359500Y-67413385D01*
X151359500Y-67586614D01*
X151386597Y-67757702D01*
X151386598Y-67757706D01*
X151440123Y-67922438D01*
X151440125Y-67922441D01*
X151440126Y-67922444D01*
X151440127Y-67922445D01*
X151518768Y-68076788D01*
X151620586Y-68216928D01*
X151743072Y-68339414D01*
X151883212Y-68441232D01*
X152037555Y-68519873D01*
X152037557Y-68519873D01*
X152037558Y-68519874D01*
X152037561Y-68519876D01*
X152202293Y-68573401D01*
X152202297Y-68573402D01*
X152373386Y-68600500D01*
X152373389Y-68600500D01*
X152546614Y-68600500D01*
X152717702Y-68573402D01*
X152717706Y-68573401D01*
X152882438Y-68519876D01*
X152882440Y-68519874D01*
X152882445Y-68519873D01*
X153036788Y-68441232D01*
X153176928Y-68339414D01*
X153299414Y-68216928D01*
X153401232Y-68076788D01*
X153479873Y-67922445D01*
X153479874Y-67922440D01*
X153479876Y-67922438D01*
X153533401Y-67757706D01*
X153533402Y-67757702D01*
X153560500Y-67586614D01*
X153560500Y-67413385D01*
X153899500Y-67413385D01*
X153899500Y-67586614D01*
X153926597Y-67757702D01*
X153926598Y-67757706D01*
X153980123Y-67922438D01*
X153980125Y-67922441D01*
X153980126Y-67922444D01*
X153980127Y-67922445D01*
X154058768Y-68076788D01*
X154160586Y-68216928D01*
X154283072Y-68339414D01*
X154423212Y-68441232D01*
X154577555Y-68519873D01*
X154577557Y-68519873D01*
X154577558Y-68519874D01*
X154577561Y-68519876D01*
X154742293Y-68573401D01*
X154742297Y-68573402D01*
X154913386Y-68600500D01*
X154913389Y-68600500D01*
X155086614Y-68600500D01*
X155257702Y-68573402D01*
X155257706Y-68573401D01*
X155422438Y-68519876D01*
X155422440Y-68519874D01*
X155422445Y-68519873D01*
X155576788Y-68441232D01*
X155716928Y-68339414D01*
X155839414Y-68216928D01*
X155941232Y-68076788D01*
X156019873Y-67922445D01*
X156019874Y-67922440D01*
X156019876Y-67922438D01*
X156073401Y-67757706D01*
X156073402Y-67757702D01*
X156100500Y-67586614D01*
X156100500Y-67413385D01*
X156439500Y-67413385D01*
X156439500Y-67586614D01*
X156466597Y-67757702D01*
X156466598Y-67757706D01*
X156520123Y-67922438D01*
X156520125Y-67922441D01*
X156520126Y-67922444D01*
X156520127Y-67922445D01*
X156598768Y-68076788D01*
X156700586Y-68216928D01*
X156823072Y-68339414D01*
X156963212Y-68441232D01*
X157117555Y-68519873D01*
X157117557Y-68519873D01*
X157117558Y-68519874D01*
X157117561Y-68519876D01*
X157282293Y-68573401D01*
X157282297Y-68573402D01*
X157453386Y-68600500D01*
X157453389Y-68600500D01*
X157626614Y-68600500D01*
X157797702Y-68573402D01*
X157797706Y-68573401D01*
X157962438Y-68519876D01*
X157962440Y-68519874D01*
X157962445Y-68519873D01*
X158116788Y-68441232D01*
X158256928Y-68339414D01*
X158379414Y-68216928D01*
X158481232Y-68076788D01*
X158559873Y-67922445D01*
X158559874Y-67922440D01*
X158559876Y-67922438D01*
X158613401Y-67757706D01*
X158613402Y-67757702D01*
X158640500Y-67586614D01*
X158640500Y-67413385D01*
X158979500Y-67413385D01*
X158979500Y-67586614D01*
X159006597Y-67757702D01*
X159006598Y-67757706D01*
X159060123Y-67922438D01*
X159060125Y-67922441D01*
X159060126Y-67922444D01*
X159060127Y-67922445D01*
X159138768Y-68076788D01*
X159240586Y-68216928D01*
X159363072Y-68339414D01*
X159503212Y-68441232D01*
X159657555Y-68519873D01*
X159657557Y-68519873D01*
X159657558Y-68519874D01*
X159657561Y-68519876D01*
X159822293Y-68573401D01*
X159822297Y-68573402D01*
X159993386Y-68600500D01*
X159993389Y-68600500D01*
X160166614Y-68600500D01*
X160337702Y-68573402D01*
X160337706Y-68573401D01*
X160502438Y-68519876D01*
X160502440Y-68519874D01*
X160502445Y-68519873D01*
X160656788Y-68441232D01*
X160796928Y-68339414D01*
X160919414Y-68216928D01*
X161021232Y-68076788D01*
X161099873Y-67922445D01*
X161099874Y-67922440D01*
X161099876Y-67922438D01*
X161153401Y-67757706D01*
X161153402Y-67757702D01*
X161180500Y-67586614D01*
X161180500Y-67413385D01*
X161519500Y-67413385D01*
X161519500Y-67586614D01*
X161546597Y-67757702D01*
X161546598Y-67757706D01*
X161600123Y-67922438D01*
X161600125Y-67922441D01*
X161600126Y-67922444D01*
X161600127Y-67922445D01*
X161678768Y-68076788D01*
X161780586Y-68216928D01*
X161903072Y-68339414D01*
X162043212Y-68441232D01*
X162197555Y-68519873D01*
X162197557Y-68519873D01*
X162197558Y-68519874D01*
X162197561Y-68519876D01*
X162362293Y-68573401D01*
X162362297Y-68573402D01*
X162533386Y-68600500D01*
X162533389Y-68600500D01*
X162706614Y-68600500D01*
X162877702Y-68573402D01*
X162877706Y-68573401D01*
X163042438Y-68519876D01*
X163042440Y-68519874D01*
X163042445Y-68519873D01*
X163196788Y-68441232D01*
X163336928Y-68339414D01*
X163459414Y-68216928D01*
X163561232Y-68076788D01*
X163639873Y-67922445D01*
X163639874Y-67922440D01*
X163639876Y-67922438D01*
X163693401Y-67757706D01*
X163693402Y-67757702D01*
X163720500Y-67586614D01*
X163720500Y-67413385D01*
X164059500Y-67413385D01*
X164059500Y-67586614D01*
X164086597Y-67757702D01*
X164086598Y-67757706D01*
X164140123Y-67922438D01*
X164140125Y-67922441D01*
X164140126Y-67922444D01*
X164140127Y-67922445D01*
X164218768Y-68076788D01*
X164320586Y-68216928D01*
X164443072Y-68339414D01*
X164583212Y-68441232D01*
X164737555Y-68519873D01*
X164737557Y-68519873D01*
X164737558Y-68519874D01*
X164737561Y-68519876D01*
X164902293Y-68573401D01*
X164902297Y-68573402D01*
X165073386Y-68600500D01*
X165073389Y-68600500D01*
X165246614Y-68600500D01*
X165417702Y-68573402D01*
X165417706Y-68573401D01*
X165582438Y-68519876D01*
X165582440Y-68519874D01*
X165582445Y-68519873D01*
X165736788Y-68441232D01*
X165876928Y-68339414D01*
X165999414Y-68216928D01*
X166101232Y-68076788D01*
X166179873Y-67922445D01*
X166179874Y-67922440D01*
X166179876Y-67922438D01*
X166233401Y-67757706D01*
X166233402Y-67757702D01*
X166260500Y-67586614D01*
X166260500Y-67413385D01*
X166599500Y-67413385D01*
X166599500Y-67586614D01*
X166626597Y-67757702D01*
X166626598Y-67757706D01*
X166680123Y-67922438D01*
X166680125Y-67922441D01*
X166680126Y-67922444D01*
X166680127Y-67922445D01*
X166758768Y-68076788D01*
X166860586Y-68216928D01*
X166983072Y-68339414D01*
X167123212Y-68441232D01*
X167277555Y-68519873D01*
X167277557Y-68519873D01*
X167277558Y-68519874D01*
X167277561Y-68519876D01*
X167442293Y-68573401D01*
X167442297Y-68573402D01*
X167613386Y-68600500D01*
X167613389Y-68600500D01*
X167786614Y-68600500D01*
X167957702Y-68573402D01*
X167957706Y-68573401D01*
X168122438Y-68519876D01*
X168122440Y-68519874D01*
X168122445Y-68519873D01*
X168276788Y-68441232D01*
X168416928Y-68339414D01*
X168539414Y-68216928D01*
X168641232Y-68076788D01*
X168719873Y-67922445D01*
X168719874Y-67922440D01*
X168719876Y-67922438D01*
X168773401Y-67757706D01*
X168773402Y-67757702D01*
X168800500Y-67586614D01*
X168800500Y-67413385D01*
X169139500Y-67413385D01*
X169139500Y-67586614D01*
X169166597Y-67757702D01*
X169166598Y-67757706D01*
X169220123Y-67922438D01*
X169220125Y-67922441D01*
X169220126Y-67922444D01*
X169220127Y-67922445D01*
X169298768Y-68076788D01*
X169400586Y-68216928D01*
X169523072Y-68339414D01*
X169663212Y-68441232D01*
X169817555Y-68519873D01*
X169817557Y-68519873D01*
X169817558Y-68519874D01*
X169817561Y-68519876D01*
X169982293Y-68573401D01*
X169982297Y-68573402D01*
X170153386Y-68600500D01*
X170153389Y-68600500D01*
X170326614Y-68600500D01*
X170497702Y-68573402D01*
X170497706Y-68573401D01*
X170662438Y-68519876D01*
X170662440Y-68519874D01*
X170662445Y-68519873D01*
X170816788Y-68441232D01*
X170956928Y-68339414D01*
X171079414Y-68216928D01*
X171181232Y-68076788D01*
X171259873Y-67922445D01*
X171259874Y-67922440D01*
X171259876Y-67922438D01*
X171313401Y-67757706D01*
X171313402Y-67757702D01*
X171331489Y-67643506D01*
X171340500Y-67586613D01*
X171340500Y-67413385D01*
X171313402Y-67242297D01*
X171313401Y-67242293D01*
X171259876Y-67077561D01*
X171259874Y-67077558D01*
X171259873Y-67077557D01*
X171259873Y-67077555D01*
X171181232Y-66923212D01*
X171079414Y-66783072D01*
X170956928Y-66660586D01*
X170880699Y-66605202D01*
X171630000Y-66605202D01*
X171630000Y-67299999D01*
X171630001Y-67300000D01*
X172318120Y-67300000D01*
X172314075Y-67307007D01*
X172280000Y-67434174D01*
X172280000Y-67565826D01*
X172314075Y-67692993D01*
X172318120Y-67700000D01*
X171630002Y-67700000D01*
X171630001Y-67700001D01*
X171630001Y-68394791D01*
X171632909Y-68419874D01*
X171678213Y-68522477D01*
X171757522Y-68601786D01*
X171860127Y-68647090D01*
X171885203Y-68649999D01*
X172579998Y-68649999D01*
X172580000Y-68649998D01*
X172580000Y-67961879D01*
X172587007Y-67965925D01*
X172714174Y-68000000D01*
X172845826Y-68000000D01*
X172972993Y-67965925D01*
X172980000Y-67961879D01*
X172980000Y-68649998D01*
X172980001Y-68649999D01*
X173674790Y-68649999D01*
X173674791Y-68649998D01*
X173699874Y-68647090D01*
X173802477Y-68601786D01*
X173881786Y-68522477D01*
X173927090Y-68419872D01*
X173929999Y-68394797D01*
X173930000Y-68394795D01*
X173930000Y-67700001D01*
X173929999Y-67700000D01*
X173241880Y-67700000D01*
X173245925Y-67692993D01*
X173280000Y-67565826D01*
X173280000Y-67434174D01*
X173265138Y-67378710D01*
X184029500Y-67378710D01*
X184029500Y-67621289D01*
X184061161Y-67861781D01*
X184061161Y-67861786D01*
X184123944Y-68096092D01*
X184123948Y-68096105D01*
X184216772Y-68320204D01*
X184216774Y-68320208D01*
X184216776Y-68320212D01*
X184332051Y-68519874D01*
X184338066Y-68530292D01*
X184485729Y-68722731D01*
X184485731Y-68722733D01*
X184485735Y-68722738D01*
X184657262Y-68894265D01*
X184657266Y-68894268D01*
X184657268Y-68894270D01*
X184849707Y-69041933D01*
X184849711Y-69041936D01*
X185059788Y-69163224D01*
X185283900Y-69256054D01*
X185518211Y-69318838D01*
X185758712Y-69350500D01*
X185758713Y-69350500D01*
X186001287Y-69350500D01*
X186001288Y-69350500D01*
X186241789Y-69318838D01*
X186476100Y-69256054D01*
X186700212Y-69163224D01*
X186910289Y-69041936D01*
X187102738Y-68894265D01*
X187274265Y-68722738D01*
X187421936Y-68530289D01*
X187543224Y-68320212D01*
X187636054Y-68096100D01*
X187698838Y-67861789D01*
X187730500Y-67621288D01*
X187730500Y-67378712D01*
X187698838Y-67138211D01*
X187636054Y-66903900D01*
X187543224Y-66679788D01*
X187421936Y-66469711D01*
X187388854Y-66426597D01*
X187274270Y-66277268D01*
X187274268Y-66277266D01*
X187274265Y-66277262D01*
X187102738Y-66105735D01*
X187102733Y-66105731D01*
X187102731Y-66105729D01*
X186910292Y-65958066D01*
X186910289Y-65958064D01*
X186700212Y-65836776D01*
X186700208Y-65836774D01*
X186700204Y-65836772D01*
X186476105Y-65743948D01*
X186476104Y-65743947D01*
X186476100Y-65743946D01*
X186241789Y-65681162D01*
X186241786Y-65681161D01*
X186241784Y-65681161D01*
X186001289Y-65649500D01*
X186001288Y-65649500D01*
X185758712Y-65649500D01*
X185758710Y-65649500D01*
X185518218Y-65681161D01*
X185518213Y-65681161D01*
X185283907Y-65743944D01*
X185283894Y-65743948D01*
X185059795Y-65836772D01*
X184849707Y-65958066D01*
X184657268Y-66105729D01*
X184485729Y-66277268D01*
X184338066Y-66469707D01*
X184216772Y-66679795D01*
X184123948Y-66903894D01*
X184123944Y-66903907D01*
X184061161Y-67138213D01*
X184061161Y-67138218D01*
X184029500Y-67378710D01*
X173265138Y-67378710D01*
X173245925Y-67307007D01*
X173241880Y-67300000D01*
X173929998Y-67300000D01*
X173929999Y-67299999D01*
X173929999Y-66605210D01*
X173929998Y-66605208D01*
X173927090Y-66580125D01*
X173881786Y-66477522D01*
X173802477Y-66398213D01*
X173699872Y-66352909D01*
X173674797Y-66350000D01*
X172980001Y-66350000D01*
X172980000Y-66350001D01*
X172980000Y-67038120D01*
X172972993Y-67034075D01*
X172845826Y-67000000D01*
X172714174Y-67000000D01*
X172587007Y-67034075D01*
X172580000Y-67038120D01*
X172580000Y-66350001D01*
X172579999Y-66350000D01*
X171885210Y-66350000D01*
X171885207Y-66350001D01*
X171860125Y-66352909D01*
X171757522Y-66398213D01*
X171678213Y-66477522D01*
X171632909Y-66580127D01*
X171630000Y-66605202D01*
X170880699Y-66605202D01*
X170816788Y-66558768D01*
X170816787Y-66558767D01*
X170816785Y-66558766D01*
X170662441Y-66480125D01*
X170662438Y-66480123D01*
X170497706Y-66426598D01*
X170497702Y-66426597D01*
X170326614Y-66399500D01*
X170326611Y-66399500D01*
X170153389Y-66399500D01*
X170153386Y-66399500D01*
X169982297Y-66426597D01*
X169982293Y-66426598D01*
X169817561Y-66480123D01*
X169817558Y-66480125D01*
X169663214Y-66558766D01*
X169523073Y-66660585D01*
X169400585Y-66783073D01*
X169298766Y-66923214D01*
X169220125Y-67077558D01*
X169220123Y-67077561D01*
X169166598Y-67242293D01*
X169166597Y-67242297D01*
X169139500Y-67413385D01*
X168800500Y-67413385D01*
X168773402Y-67242297D01*
X168773401Y-67242293D01*
X168719876Y-67077561D01*
X168719874Y-67077558D01*
X168719873Y-67077557D01*
X168719873Y-67077555D01*
X168641232Y-66923212D01*
X168539414Y-66783072D01*
X168416928Y-66660586D01*
X168276788Y-66558768D01*
X168276787Y-66558767D01*
X168276785Y-66558766D01*
X168122441Y-66480125D01*
X168122438Y-66480123D01*
X167957706Y-66426598D01*
X167957702Y-66426597D01*
X167786614Y-66399500D01*
X167786611Y-66399500D01*
X167613389Y-66399500D01*
X167613386Y-66399500D01*
X167442297Y-66426597D01*
X167442293Y-66426598D01*
X167277561Y-66480123D01*
X167277558Y-66480125D01*
X167123214Y-66558766D01*
X166983073Y-66660585D01*
X166860585Y-66783073D01*
X166758766Y-66923214D01*
X166680125Y-67077558D01*
X166680123Y-67077561D01*
X166626598Y-67242293D01*
X166626597Y-67242297D01*
X166599500Y-67413385D01*
X166260500Y-67413385D01*
X166233402Y-67242297D01*
X166233401Y-67242293D01*
X166179876Y-67077561D01*
X166179874Y-67077558D01*
X166179873Y-67077557D01*
X166179873Y-67077555D01*
X166101232Y-66923212D01*
X165999414Y-66783072D01*
X165876928Y-66660586D01*
X165736788Y-66558768D01*
X165736787Y-66558767D01*
X165736785Y-66558766D01*
X165582441Y-66480125D01*
X165582438Y-66480123D01*
X165417706Y-66426598D01*
X165417702Y-66426597D01*
X165246614Y-66399500D01*
X165246611Y-66399500D01*
X165073389Y-66399500D01*
X165073386Y-66399500D01*
X164902297Y-66426597D01*
X164902293Y-66426598D01*
X164737561Y-66480123D01*
X164737558Y-66480125D01*
X164583214Y-66558766D01*
X164443073Y-66660585D01*
X164320585Y-66783073D01*
X164218766Y-66923214D01*
X164140125Y-67077558D01*
X164140123Y-67077561D01*
X164086598Y-67242293D01*
X164086597Y-67242297D01*
X164059500Y-67413385D01*
X163720500Y-67413385D01*
X163693402Y-67242297D01*
X163693401Y-67242293D01*
X163639876Y-67077561D01*
X163639874Y-67077558D01*
X163639873Y-67077557D01*
X163639873Y-67077555D01*
X163561232Y-66923212D01*
X163459414Y-66783072D01*
X163336928Y-66660586D01*
X163196788Y-66558768D01*
X163196787Y-66558767D01*
X163196785Y-66558766D01*
X163042441Y-66480125D01*
X163042438Y-66480123D01*
X162877706Y-66426598D01*
X162877702Y-66426597D01*
X162706614Y-66399500D01*
X162706611Y-66399500D01*
X162533389Y-66399500D01*
X162533386Y-66399500D01*
X162362297Y-66426597D01*
X162362293Y-66426598D01*
X162197561Y-66480123D01*
X162197558Y-66480125D01*
X162043214Y-66558766D01*
X161903073Y-66660585D01*
X161780585Y-66783073D01*
X161678766Y-66923214D01*
X161600125Y-67077558D01*
X161600123Y-67077561D01*
X161546598Y-67242293D01*
X161546597Y-67242297D01*
X161519500Y-67413385D01*
X161180500Y-67413385D01*
X161153402Y-67242297D01*
X161153401Y-67242293D01*
X161099876Y-67077561D01*
X161099874Y-67077558D01*
X161099873Y-67077557D01*
X161099873Y-67077555D01*
X161021232Y-66923212D01*
X160919414Y-66783072D01*
X160796928Y-66660586D01*
X160656788Y-66558768D01*
X160656787Y-66558767D01*
X160656785Y-66558766D01*
X160502441Y-66480125D01*
X160502438Y-66480123D01*
X160337706Y-66426598D01*
X160337702Y-66426597D01*
X160166614Y-66399500D01*
X160166611Y-66399500D01*
X159993389Y-66399500D01*
X159993386Y-66399500D01*
X159822297Y-66426597D01*
X159822293Y-66426598D01*
X159657561Y-66480123D01*
X159657558Y-66480125D01*
X159503214Y-66558766D01*
X159363073Y-66660585D01*
X159240585Y-66783073D01*
X159138766Y-66923214D01*
X159060125Y-67077558D01*
X159060123Y-67077561D01*
X159006598Y-67242293D01*
X159006597Y-67242297D01*
X158979500Y-67413385D01*
X158640500Y-67413385D01*
X158613402Y-67242297D01*
X158613401Y-67242293D01*
X158559876Y-67077561D01*
X158559874Y-67077558D01*
X158559873Y-67077557D01*
X158559873Y-67077555D01*
X158481232Y-66923212D01*
X158379414Y-66783072D01*
X158256928Y-66660586D01*
X158116788Y-66558768D01*
X158116787Y-66558767D01*
X158116785Y-66558766D01*
X157962441Y-66480125D01*
X157962438Y-66480123D01*
X157797706Y-66426598D01*
X157797702Y-66426597D01*
X157626614Y-66399500D01*
X157626611Y-66399500D01*
X157453389Y-66399500D01*
X157453386Y-66399500D01*
X157282297Y-66426597D01*
X157282293Y-66426598D01*
X157117561Y-66480123D01*
X157117558Y-66480125D01*
X156963214Y-66558766D01*
X156823073Y-66660585D01*
X156700585Y-66783073D01*
X156598766Y-66923214D01*
X156520125Y-67077558D01*
X156520123Y-67077561D01*
X156466598Y-67242293D01*
X156466597Y-67242297D01*
X156439500Y-67413385D01*
X156100500Y-67413385D01*
X156073402Y-67242297D01*
X156073401Y-67242293D01*
X156019876Y-67077561D01*
X156019874Y-67077558D01*
X156019873Y-67077557D01*
X156019873Y-67077555D01*
X155941232Y-66923212D01*
X155839414Y-66783072D01*
X155716928Y-66660586D01*
X155576788Y-66558768D01*
X155576787Y-66558767D01*
X155576785Y-66558766D01*
X155422441Y-66480125D01*
X155422438Y-66480123D01*
X155257706Y-66426598D01*
X155257702Y-66426597D01*
X155086614Y-66399500D01*
X155086611Y-66399500D01*
X154913389Y-66399500D01*
X154913386Y-66399500D01*
X154742297Y-66426597D01*
X154742293Y-66426598D01*
X154577561Y-66480123D01*
X154577558Y-66480125D01*
X154423214Y-66558766D01*
X154283073Y-66660585D01*
X154160585Y-66783073D01*
X154058766Y-66923214D01*
X153980125Y-67077558D01*
X153980123Y-67077561D01*
X153926598Y-67242293D01*
X153926597Y-67242297D01*
X153899500Y-67413385D01*
X153560500Y-67413385D01*
X153533402Y-67242297D01*
X153533401Y-67242293D01*
X153479876Y-67077561D01*
X153479874Y-67077558D01*
X153479873Y-67077557D01*
X153479873Y-67077555D01*
X153401232Y-66923212D01*
X153299414Y-66783072D01*
X153176928Y-66660586D01*
X153036788Y-66558768D01*
X153036787Y-66558767D01*
X153036785Y-66558766D01*
X152882441Y-66480125D01*
X152882438Y-66480123D01*
X152717706Y-66426598D01*
X152717702Y-66426597D01*
X152546614Y-66399500D01*
X152546611Y-66399500D01*
X152373389Y-66399500D01*
X152373386Y-66399500D01*
X152202297Y-66426597D01*
X152202293Y-66426598D01*
X152037561Y-66480123D01*
X152037558Y-66480125D01*
X151883214Y-66558766D01*
X151743073Y-66660585D01*
X151620585Y-66783073D01*
X151518766Y-66923214D01*
X151440125Y-67077558D01*
X151440123Y-67077561D01*
X151386598Y-67242293D01*
X151386597Y-67242297D01*
X151359500Y-67413385D01*
X151020500Y-67413385D01*
X150993402Y-67242297D01*
X150993401Y-67242293D01*
X150939876Y-67077561D01*
X150939874Y-67077558D01*
X150939873Y-67077557D01*
X150939873Y-67077555D01*
X150861232Y-66923212D01*
X150759414Y-66783072D01*
X150636928Y-66660586D01*
X150496788Y-66558768D01*
X150496787Y-66558767D01*
X150496785Y-66558766D01*
X150342441Y-66480125D01*
X150342438Y-66480123D01*
X150177706Y-66426598D01*
X150177702Y-66426597D01*
X150006614Y-66399500D01*
X150006611Y-66399500D01*
X149833389Y-66399500D01*
X149833386Y-66399500D01*
X149662297Y-66426597D01*
X149662293Y-66426598D01*
X149497561Y-66480123D01*
X149497558Y-66480125D01*
X149343214Y-66558766D01*
X149203073Y-66660585D01*
X149080585Y-66783073D01*
X148978766Y-66923214D01*
X148900125Y-67077558D01*
X148900123Y-67077561D01*
X148846598Y-67242293D01*
X148846597Y-67242297D01*
X148819500Y-67413385D01*
X148480500Y-67413385D01*
X148453402Y-67242297D01*
X148453401Y-67242293D01*
X148399876Y-67077561D01*
X148399874Y-67077558D01*
X148399873Y-67077557D01*
X148399873Y-67077555D01*
X148321232Y-66923212D01*
X148219414Y-66783072D01*
X148096928Y-66660586D01*
X147956788Y-66558768D01*
X147956787Y-66558767D01*
X147956785Y-66558766D01*
X147802441Y-66480125D01*
X147802438Y-66480123D01*
X147637706Y-66426598D01*
X147637702Y-66426597D01*
X147466614Y-66399500D01*
X147466611Y-66399500D01*
X147293389Y-66399500D01*
X147293386Y-66399500D01*
X147122297Y-66426597D01*
X147122293Y-66426598D01*
X146957561Y-66480123D01*
X146957558Y-66480125D01*
X146803214Y-66558766D01*
X146663073Y-66660585D01*
X146540585Y-66783073D01*
X146438766Y-66923214D01*
X146360125Y-67077558D01*
X146360123Y-67077561D01*
X146306598Y-67242293D01*
X146306597Y-67242297D01*
X146279500Y-67413385D01*
X145940500Y-67413385D01*
X145913402Y-67242297D01*
X145913401Y-67242293D01*
X145859876Y-67077561D01*
X145859874Y-67077558D01*
X145859873Y-67077557D01*
X145859873Y-67077555D01*
X145781232Y-66923212D01*
X145679414Y-66783072D01*
X145556928Y-66660586D01*
X145416788Y-66558768D01*
X145416787Y-66558767D01*
X145416785Y-66558766D01*
X145262441Y-66480125D01*
X145262438Y-66480123D01*
X145097706Y-66426598D01*
X145097702Y-66426597D01*
X144926614Y-66399500D01*
X144926611Y-66399500D01*
X144753389Y-66399500D01*
X144753386Y-66399500D01*
X144582297Y-66426597D01*
X144582293Y-66426598D01*
X144417561Y-66480123D01*
X144417558Y-66480125D01*
X144263214Y-66558766D01*
X144123073Y-66660585D01*
X144000585Y-66783073D01*
X143898766Y-66923214D01*
X143820125Y-67077558D01*
X143820123Y-67077561D01*
X143766598Y-67242293D01*
X143766597Y-67242297D01*
X143739500Y-67413385D01*
X143400500Y-67413385D01*
X143373402Y-67242297D01*
X143373401Y-67242293D01*
X143319876Y-67077561D01*
X143319874Y-67077558D01*
X143319873Y-67077557D01*
X143319873Y-67077555D01*
X143241232Y-66923212D01*
X143139414Y-66783072D01*
X143016928Y-66660586D01*
X142876788Y-66558768D01*
X142876787Y-66558767D01*
X142876785Y-66558766D01*
X142722441Y-66480125D01*
X142722438Y-66480123D01*
X142557706Y-66426598D01*
X142557702Y-66426597D01*
X142386614Y-66399500D01*
X142386611Y-66399500D01*
X142213389Y-66399500D01*
X142213386Y-66399500D01*
X142042297Y-66426597D01*
X142042293Y-66426598D01*
X141877561Y-66480123D01*
X141877558Y-66480125D01*
X141723214Y-66558766D01*
X141583073Y-66660585D01*
X141460585Y-66783073D01*
X141358766Y-66923214D01*
X141280125Y-67077558D01*
X141280123Y-67077561D01*
X141226598Y-67242293D01*
X141226597Y-67242297D01*
X141199500Y-67413385D01*
X140860500Y-67413385D01*
X140833402Y-67242297D01*
X140833401Y-67242293D01*
X140779876Y-67077561D01*
X140779874Y-67077558D01*
X140779873Y-67077557D01*
X140779873Y-67077555D01*
X140701232Y-66923212D01*
X140599414Y-66783072D01*
X140476928Y-66660586D01*
X140336788Y-66558768D01*
X140336787Y-66558767D01*
X140336785Y-66558766D01*
X140182441Y-66480125D01*
X140182438Y-66480123D01*
X140017706Y-66426598D01*
X140017702Y-66426597D01*
X139846614Y-66399500D01*
X139846611Y-66399500D01*
X139673389Y-66399500D01*
X139673386Y-66399500D01*
X139502297Y-66426597D01*
X139502293Y-66426598D01*
X139337561Y-66480123D01*
X139337558Y-66480125D01*
X139183214Y-66558766D01*
X139043073Y-66660585D01*
X138920585Y-66783073D01*
X138818766Y-66923214D01*
X138740125Y-67077558D01*
X138740123Y-67077561D01*
X138686598Y-67242293D01*
X138686597Y-67242297D01*
X138659500Y-67413385D01*
X138320500Y-67413385D01*
X138293402Y-67242297D01*
X138293401Y-67242293D01*
X138239876Y-67077561D01*
X138239874Y-67077558D01*
X138239873Y-67077557D01*
X138239873Y-67077555D01*
X138161232Y-66923212D01*
X138059414Y-66783072D01*
X137936928Y-66660586D01*
X137796788Y-66558768D01*
X137796787Y-66558767D01*
X137796785Y-66558766D01*
X137642441Y-66480125D01*
X137642438Y-66480123D01*
X137477706Y-66426598D01*
X137477702Y-66426597D01*
X137306614Y-66399500D01*
X137306611Y-66399500D01*
X137133389Y-66399500D01*
X137133386Y-66399500D01*
X136962297Y-66426597D01*
X136962293Y-66426598D01*
X136797561Y-66480123D01*
X136797558Y-66480125D01*
X136643214Y-66558766D01*
X136503073Y-66660585D01*
X136380585Y-66783073D01*
X136278766Y-66923214D01*
X136200125Y-67077558D01*
X136200123Y-67077561D01*
X136146598Y-67242293D01*
X136146597Y-67242297D01*
X136119500Y-67413385D01*
X135780500Y-67413385D01*
X135753402Y-67242297D01*
X135753401Y-67242293D01*
X135699876Y-67077561D01*
X135699874Y-67077558D01*
X135699873Y-67077557D01*
X135699873Y-67077555D01*
X135621232Y-66923212D01*
X135519414Y-66783072D01*
X135396928Y-66660586D01*
X135256788Y-66558768D01*
X135256787Y-66558767D01*
X135256785Y-66558766D01*
X135102441Y-66480125D01*
X135102438Y-66480123D01*
X134937706Y-66426598D01*
X134937702Y-66426597D01*
X134766614Y-66399500D01*
X134766611Y-66399500D01*
X134593389Y-66399500D01*
X134593386Y-66399500D01*
X134422297Y-66426597D01*
X134422293Y-66426598D01*
X134257561Y-66480123D01*
X134257558Y-66480125D01*
X134103214Y-66558766D01*
X133963073Y-66660585D01*
X133840585Y-66783073D01*
X133738766Y-66923214D01*
X133660125Y-67077558D01*
X133660123Y-67077561D01*
X133606598Y-67242293D01*
X133606597Y-67242297D01*
X133579500Y-67413385D01*
X133240500Y-67413385D01*
X133213402Y-67242297D01*
X133213401Y-67242293D01*
X133159876Y-67077561D01*
X133159874Y-67077558D01*
X133159873Y-67077557D01*
X133159873Y-67077555D01*
X133081232Y-66923212D01*
X132979414Y-66783072D01*
X132856928Y-66660586D01*
X132716788Y-66558768D01*
X132716787Y-66558767D01*
X132716785Y-66558766D01*
X132562441Y-66480125D01*
X132562438Y-66480123D01*
X132397706Y-66426598D01*
X132397702Y-66426597D01*
X132226614Y-66399500D01*
X132226611Y-66399500D01*
X132053389Y-66399500D01*
X132053386Y-66399500D01*
X131882297Y-66426597D01*
X131882293Y-66426598D01*
X131717561Y-66480123D01*
X131717558Y-66480125D01*
X131563214Y-66558766D01*
X131423073Y-66660585D01*
X131300585Y-66783073D01*
X131198766Y-66923214D01*
X131120125Y-67077558D01*
X131120123Y-67077561D01*
X131066598Y-67242293D01*
X131066597Y-67242297D01*
X131039500Y-67413385D01*
X130700500Y-67413385D01*
X130673402Y-67242297D01*
X130673401Y-67242293D01*
X130619876Y-67077561D01*
X130619874Y-67077558D01*
X130619873Y-67077557D01*
X130619873Y-67077555D01*
X130541232Y-66923212D01*
X130439414Y-66783072D01*
X130316928Y-66660586D01*
X130176788Y-66558768D01*
X130176787Y-66558767D01*
X130176785Y-66558766D01*
X130022441Y-66480125D01*
X130022438Y-66480123D01*
X129857706Y-66426598D01*
X129857702Y-66426597D01*
X129686614Y-66399500D01*
X129686611Y-66399500D01*
X129513389Y-66399500D01*
X129513386Y-66399500D01*
X129342297Y-66426597D01*
X129342293Y-66426598D01*
X129177561Y-66480123D01*
X129177558Y-66480125D01*
X129023214Y-66558766D01*
X128883073Y-66660585D01*
X128760585Y-66783073D01*
X128658766Y-66923214D01*
X128580125Y-67077558D01*
X128580123Y-67077561D01*
X128526598Y-67242293D01*
X128526597Y-67242297D01*
X128499500Y-67413385D01*
X128160500Y-67413385D01*
X128133402Y-67242297D01*
X128133401Y-67242293D01*
X128079876Y-67077561D01*
X128079874Y-67077558D01*
X128079873Y-67077557D01*
X128079873Y-67077555D01*
X128001232Y-66923212D01*
X127899414Y-66783072D01*
X127776928Y-66660586D01*
X127636788Y-66558768D01*
X127636787Y-66558767D01*
X127636785Y-66558766D01*
X127482441Y-66480125D01*
X127482438Y-66480123D01*
X127317706Y-66426598D01*
X127317702Y-66426597D01*
X127146614Y-66399500D01*
X127146611Y-66399500D01*
X126973389Y-66399500D01*
X126973386Y-66399500D01*
X126802297Y-66426597D01*
X126802293Y-66426598D01*
X126637561Y-66480123D01*
X126637558Y-66480125D01*
X126483214Y-66558766D01*
X126343073Y-66660585D01*
X126220585Y-66783073D01*
X126118766Y-66923214D01*
X126040125Y-67077558D01*
X126040123Y-67077561D01*
X125986598Y-67242293D01*
X125986597Y-67242297D01*
X125959500Y-67413385D01*
X125620500Y-67413385D01*
X125593402Y-67242297D01*
X125593401Y-67242293D01*
X125539876Y-67077561D01*
X125539874Y-67077558D01*
X125539873Y-67077557D01*
X125539873Y-67077555D01*
X125461232Y-66923212D01*
X125359414Y-66783072D01*
X125236928Y-66660586D01*
X125096788Y-66558768D01*
X125096787Y-66558767D01*
X125096785Y-66558766D01*
X124942441Y-66480125D01*
X124942438Y-66480123D01*
X124777706Y-66426598D01*
X124777702Y-66426597D01*
X124606614Y-66399500D01*
X124606611Y-66399500D01*
X124433389Y-66399500D01*
X124433386Y-66399500D01*
X124262297Y-66426597D01*
X124262293Y-66426598D01*
X124097561Y-66480123D01*
X124097558Y-66480125D01*
X123943214Y-66558766D01*
X123803073Y-66660585D01*
X123680585Y-66783073D01*
X123578766Y-66923214D01*
X123500125Y-67077558D01*
X123500123Y-67077561D01*
X123446598Y-67242293D01*
X123446597Y-67242297D01*
X123419500Y-67413385D01*
X123130000Y-67413385D01*
X123130000Y-67409489D01*
X123101683Y-67230710D01*
X123045749Y-67058559D01*
X122963571Y-66897275D01*
X122922330Y-66840511D01*
X122448019Y-67314821D01*
X122445925Y-67307007D01*
X122380099Y-67192993D01*
X122287007Y-67099901D01*
X122172993Y-67034075D01*
X122165174Y-67031980D01*
X122639488Y-66557667D01*
X122582728Y-66516430D01*
X122421440Y-66434250D01*
X122249289Y-66378316D01*
X122070510Y-66350000D01*
X121889490Y-66350000D01*
X121710710Y-66378316D01*
X121538559Y-66434250D01*
X121377267Y-66516432D01*
X121320510Y-66557667D01*
X121794823Y-67031980D01*
X121787007Y-67034075D01*
X121672993Y-67099901D01*
X121579901Y-67192993D01*
X121514075Y-67307007D01*
X121511980Y-67314823D01*
X121037667Y-66840510D01*
X120996432Y-66897267D01*
X120914250Y-67058559D01*
X120858316Y-67230710D01*
X120830000Y-67409489D01*
X120590000Y-67409489D01*
X120561683Y-67230710D01*
X120505749Y-67058559D01*
X120423571Y-66897275D01*
X120382330Y-66840511D01*
X119908019Y-67314821D01*
X119905925Y-67307007D01*
X119840099Y-67192993D01*
X119747007Y-67099901D01*
X119632993Y-67034075D01*
X119625174Y-67031980D01*
X120099488Y-66557667D01*
X120042728Y-66516430D01*
X119881440Y-66434250D01*
X119709289Y-66378316D01*
X119530510Y-66350000D01*
X119349490Y-66350000D01*
X119170710Y-66378316D01*
X118998559Y-66434250D01*
X118837267Y-66516432D01*
X118780510Y-66557667D01*
X119254823Y-67031980D01*
X119247007Y-67034075D01*
X119132993Y-67099901D01*
X119039901Y-67192993D01*
X118974075Y-67307007D01*
X118971980Y-67314823D01*
X118497667Y-66840510D01*
X118456432Y-66897267D01*
X118374250Y-67058559D01*
X118318316Y-67230710D01*
X118290000Y-67409489D01*
X91850500Y-67409489D01*
X91850500Y-67378712D01*
X91818838Y-67138211D01*
X91756054Y-66903900D01*
X91663224Y-66679788D01*
X91541936Y-66469711D01*
X91508854Y-66426597D01*
X91394270Y-66277268D01*
X91394268Y-66277266D01*
X91394265Y-66277262D01*
X91222738Y-66105735D01*
X91222733Y-66105731D01*
X91222731Y-66105729D01*
X91030292Y-65958066D01*
X91030289Y-65958064D01*
X90820212Y-65836776D01*
X90820208Y-65836774D01*
X90820204Y-65836772D01*
X90596105Y-65743948D01*
X90596104Y-65743947D01*
X90596100Y-65743946D01*
X90361789Y-65681162D01*
X90361786Y-65681161D01*
X90361784Y-65681161D01*
X90121289Y-65649500D01*
X90121288Y-65649500D01*
X89878712Y-65649500D01*
X89878710Y-65649500D01*
X89638218Y-65681161D01*
X89638213Y-65681161D01*
X89403907Y-65743944D01*
X89403894Y-65743948D01*
X89179795Y-65836772D01*
X88969707Y-65958066D01*
X88777268Y-66105729D01*
X88605729Y-66277268D01*
X88458066Y-66469707D01*
X88336772Y-66679795D01*
X88243948Y-66903894D01*
X88243944Y-66903907D01*
X88181161Y-67138213D01*
X88181161Y-67138218D01*
X88149500Y-67378710D01*
X87000500Y-67378710D01*
X87000500Y-65393709D01*
X109149500Y-65393709D01*
X109149500Y-65606290D01*
X109182752Y-65816238D01*
X109248443Y-66018412D01*
X109344948Y-66207815D01*
X109344950Y-66207819D01*
X109469891Y-66379786D01*
X109469893Y-66379788D01*
X109469896Y-66379792D01*
X109620208Y-66530104D01*
X109620211Y-66530106D01*
X109620213Y-66530108D01*
X109792180Y-66655049D01*
X109792184Y-66655051D01*
X109981588Y-66751557D01*
X110183757Y-66817246D01*
X110183758Y-66817246D01*
X110183761Y-66817247D01*
X110393710Y-66850500D01*
X110393713Y-66850500D01*
X110606290Y-66850500D01*
X110816238Y-66817247D01*
X110816239Y-66817246D01*
X110816243Y-66817246D01*
X111018412Y-66751557D01*
X111207816Y-66655051D01*
X111379792Y-66530104D01*
X111530104Y-66379792D01*
X111655051Y-66207816D01*
X111751557Y-66018412D01*
X111817246Y-65816243D01*
X111817247Y-65816238D01*
X111850500Y-65606290D01*
X111850500Y-65393709D01*
X175149500Y-65393709D01*
X175149500Y-65606290D01*
X175182752Y-65816238D01*
X175248443Y-66018412D01*
X175344948Y-66207815D01*
X175344950Y-66207819D01*
X175469891Y-66379786D01*
X175469893Y-66379788D01*
X175469896Y-66379792D01*
X175620208Y-66530104D01*
X175620211Y-66530106D01*
X175620213Y-66530108D01*
X175792180Y-66655049D01*
X175792184Y-66655051D01*
X175981588Y-66751557D01*
X176183757Y-66817246D01*
X176183758Y-66817246D01*
X176183761Y-66817247D01*
X176393710Y-66850500D01*
X176393713Y-66850500D01*
X176606290Y-66850500D01*
X176816238Y-66817247D01*
X176816239Y-66817246D01*
X176816243Y-66817246D01*
X177018412Y-66751557D01*
X177207816Y-66655051D01*
X177379792Y-66530104D01*
X177530104Y-66379792D01*
X177655051Y-66207816D01*
X177751557Y-66018412D01*
X177817246Y-65816243D01*
X177817247Y-65816238D01*
X177850500Y-65606290D01*
X177850500Y-65393709D01*
X177817247Y-65183761D01*
X177817246Y-65183757D01*
X177751557Y-64981588D01*
X177655051Y-64792184D01*
X177655049Y-64792180D01*
X177530108Y-64620213D01*
X177530106Y-64620211D01*
X177530104Y-64620208D01*
X177379792Y-64469896D01*
X177379788Y-64469893D01*
X177379786Y-64469891D01*
X177207819Y-64344950D01*
X177207815Y-64344948D01*
X177018412Y-64248443D01*
X176816238Y-64182752D01*
X176606290Y-64149500D01*
X176606287Y-64149500D01*
X176393713Y-64149500D01*
X176393710Y-64149500D01*
X176183761Y-64182752D01*
X175981587Y-64248443D01*
X175792184Y-64344948D01*
X175792180Y-64344950D01*
X175620213Y-64469891D01*
X175469891Y-64620213D01*
X175344950Y-64792180D01*
X175344948Y-64792184D01*
X175248443Y-64981587D01*
X175182752Y-65183761D01*
X175149500Y-65393709D01*
X111850500Y-65393709D01*
X111817247Y-65183761D01*
X111817246Y-65183757D01*
X111751557Y-64981588D01*
X111655051Y-64792184D01*
X111655049Y-64792180D01*
X111530108Y-64620213D01*
X111530106Y-64620211D01*
X111530104Y-64620208D01*
X111379792Y-64469896D01*
X111379788Y-64469893D01*
X111379786Y-64469891D01*
X111207819Y-64344950D01*
X111207815Y-64344948D01*
X111018412Y-64248443D01*
X110816238Y-64182752D01*
X110606290Y-64149500D01*
X110606287Y-64149500D01*
X110393713Y-64149500D01*
X110393710Y-64149500D01*
X110183761Y-64182752D01*
X109981587Y-64248443D01*
X109792184Y-64344948D01*
X109792180Y-64344950D01*
X109620213Y-64469891D01*
X109469891Y-64620213D01*
X109344950Y-64792180D01*
X109344948Y-64792184D01*
X109248443Y-64981587D01*
X109182752Y-65183761D01*
X109149500Y-65393709D01*
X87000500Y-65393709D01*
X87000500Y-62599500D01*
X87019407Y-62541309D01*
X87068907Y-62505345D01*
X87099500Y-62500500D01*
X201400500Y-62500500D01*
X201458691Y-62519407D01*
G37*
%TD.AperFunction*%
%TD*%
M02*
