M48
; DRILL file KiCad 10.0.6 date 2026-10-05T05:35:31
; FORMAT={-:-/ absolute / metric / decimal}
; #@! TF.CreationDate,2026-10-05T05:35:31+07:00
; #@! TF.GenerationSoftware,Kicad,Pcbnew,10.0.6
; #@! TF.FileFunction,Plated,1,2,PTH
FMAT,2
METRIC
; #@! TA.AperFunction,Plated,PTH,ComponentDrill
T1C0.850
; #@! TA.AperFunction,Plated,PTH,ComponentDrill
T2C1.000
; #@! TA.AperFunction,Plated,PTH,ComponentDrill
T3C1.100
%
G90
G05
T1
X109.5Y-60.96
X109.5Y-63.5
T2
X84.0Y-59.96
X84.0Y-62.5
X84.0Y-65.04
X88.76Y-60.0
X88.76Y-62.54
X88.76Y-65.08
X88.76Y-67.62
X88.76Y-70.16
X88.76Y-72.7
X88.76Y-75.24
X88.76Y-77.78
X88.76Y-80.32
X88.76Y-82.86
X88.76Y-85.4
X104.0Y-60.0
X104.0Y-62.54
X104.0Y-65.08
X104.0Y-67.62
X104.0Y-70.16
X104.0Y-72.7
X104.0Y-75.24
X104.0Y-77.78
X104.0Y-80.32
X104.0Y-82.86
X104.0Y-85.4
X109.5Y-81.42
X109.5Y-83.96
X109.5Y-86.5
T3
X83.5Y-68.69
X83.5Y-71.23
X83.5Y-73.77
X83.5Y-76.31
X109.5Y-68.69
X109.5Y-71.23
X109.5Y-73.77
X109.5Y-76.31
M30
