M48
; DRILL file KiCad 10.0.6 date 2026-10-04T21:22:57
; FORMAT={-:-/ absolute / metric / decimal}
; #@! TF.CreationDate,2026-10-04T21:22:57+07:00
; #@! TF.GenerationSoftware,Kicad,Pcbnew,10.0.6
; #@! TF.FileFunction,Plated,1,2,PTH
FMAT,2
METRIC
; #@! TA.AperFunction,Plated,PTH,ViaDrill
T1C0.300
; #@! TA.AperFunction,Plated,PTH,ComponentDrill
T2C0.850
; #@! TA.AperFunction,Plated,PTH,ComponentDrill
T3C1.000
; #@! TA.AperFunction,Plated,PTH,ComponentDrill
T4C1.100
; #@! TA.AperFunction,Plated,PTH,ComponentDrill
T5C1.200
; #@! TA.AperFunction,Plated,PTH,ComponentDrill
T6C1.300
%
G90
G05
T1
X111.25Y-87.5
X126.375Y-87.625
X132.875Y-88.375
X134.0Y-88.125
X134.25Y-79.875
X134.5Y-80.75
X136.125Y-79.125
X138.0Y-87.375
X144.125Y-89.125
X145.5Y-91.625
X146.125Y-92.25
X153.25Y-87.375
X154.375Y-78.375
X155.75Y-87.375
X158.25Y-87.375
X163.375Y-87.375
X164.25Y-94.625
X168.0Y-86.125
X171.25Y-89.375
X172.875Y-88.875
X195.25Y-87.625
T2
X165.34Y-119.3
X175.5Y-119.3
X179.19Y-119.3
X186.96Y-97.5
X188.92Y-115.5
X189.35Y-119.3
X189.5Y-97.5
X196.5Y-102.5
X196.5Y-112.66
X199.08Y-115.5
T3
X93.34Y-85.5
X95.88Y-85.5
X98.42Y-85.5
X100.96Y-85.5
X103.5Y-85.5
X109.5Y-69.11
X109.5Y-71.65
X109.5Y-74.19
X109.5Y-76.73
X109.5Y-79.27
X109.5Y-81.81
X109.5Y-84.35
X109.5Y-86.89
X119.44Y-67.5
X119.44Y-90.36
X121.98Y-67.5
X121.98Y-90.36
X123.2Y-99.8
X123.2Y-121.5
X124.52Y-67.5
X124.52Y-90.36
X126.4Y-99.8
X127.06Y-67.5
X127.06Y-90.36
X129.6Y-67.5
X129.6Y-90.36
X132.14Y-67.5
X132.14Y-90.36
X133.8Y-99.8
X134.68Y-67.5
X134.68Y-90.36
X137.0Y-99.8
X137.0Y-121.5
X137.22Y-67.5
X137.22Y-90.36
X139.76Y-67.5
X139.76Y-90.36
X142.3Y-67.5
X142.3Y-90.36
X144.84Y-67.5
X144.84Y-90.36
X145.06Y-97.52
X145.06Y-121.3
X147.38Y-67.5
X147.38Y-90.36
X147.6Y-97.52
X147.6Y-121.3
X149.92Y-67.5
X149.92Y-90.36
X152.46Y-67.5
X152.46Y-90.36
X155.0Y-67.5
X155.0Y-90.36
X157.5Y-97.52
X157.5Y-121.3
X157.54Y-67.5
X157.54Y-90.36
X160.04Y-97.52
X160.04Y-121.3
X160.08Y-67.5
X160.08Y-90.36
X162.62Y-67.5
X162.62Y-90.36
X165.16Y-67.5
X165.16Y-90.36
X167.7Y-67.5
X167.7Y-90.36
X170.24Y-67.5
X170.24Y-90.36
X172.78Y-67.5
X172.78Y-90.36
X189.22Y-85.5
X191.76Y-85.5
X194.3Y-85.5
X196.84Y-85.5
X199.38Y-85.5
T4
X89.5Y-92.0
X89.5Y-94.54
X89.5Y-97.08
X89.5Y-99.62
X199.0Y-92.0
X199.0Y-94.54
X199.0Y-97.08
X199.0Y-99.62
T5
X102.0Y-105.8
X109.92Y-120.0
X115.0Y-120.0
X185.0Y-105.8
T6
X96.0Y-103.5
X96.0Y-108.5
X108.5Y-103.5
X108.5Y-108.5
X178.0Y-103.5
X178.0Y-108.5
X190.5Y-103.5
X190.5Y-108.5
M30
