<?xml version="1.0" standalone="no"?>
 <!DOCTYPE svg PUBLIC "-//W3C//DTD SVG 1.1//EN" 
 "http://www.w3.org/Graphics/SVG/1.1/DTD/svg11.dtd"> 
<svg
  xmlns:svg="http://www.w3.org/2000/svg"
  xmlns="http://www.w3.org/2000/svg"
  xmlns:xlink="http://www.w3.org/1999/xlink"
  xmlns:inkscape="http://www.inkscape.org/namespaces/inkscape"
  version="1.1"
  width="9.779000mm" height="8.686800mm" viewBox="0.000000 0.000000 9.779000 8.686800">
<title>SVG Image created as SW_Slide_SS12D00.svg date 2026-10-04T15:21:52 </title>
  <desc>Image generated by PCBNEW </desc>
<g style="fill:#000000; fill-opacity:1.000000;stroke:#000000; stroke-opacity:1.000000;
stroke-linecap:round; stroke-linejoin:round;"
 transform="translate(0 0) scale(1 1)">
<path style="fill:#4D7FC4; fill-opacity:1.000000; stroke:none;fill-rule:evenodd;"
d="M 1.510000,5.198250
1.510000,3.498250
3.210000,3.498250
3.210000,5.198250
Z" /> 
</g>
<g style="fill:#4D7FC4; fill-opacity:1.000000; stroke:none;">
<circle cx="4.900000" cy="4.348250" r="0.850000" /> 
<circle cx="7.440000" cy="4.348250" r="0.850000" /> 
<circle cx="0.800000" cy="4.348250" r="0.800000" /> 
<circle cx="9.000000" cy="4.348250" r="0.800000" /> 
<path style="fill:#02FFEE; fill-opacity:0.400000; stroke:none;fill-rule:evenodd;"
d="M 1.510000,5.198250
1.510000,3.498250
3.210000,3.498250
3.210000,5.198250
Z" /> 
</g>
<g style="fill:#02FFEE; fill-opacity:0.400000; stroke:none;">
<circle cx="4.900000" cy="4.348250" r="0.850000" /> 
<circle cx="7.440000" cy="4.348250" r="0.850000" /> 
<circle cx="0.800000" cy="4.348250" r="0.800000" /> 
<circle cx="9.000000" cy="4.348250" r="0.800000" /> 
<path style="fill:#F2EDA1; fill-opacity:1.000000; stroke:none;fill-rule:evenodd;"
d="M 1.510000,5.198250
1.510000,3.498250
3.210000,3.498250
3.210000,5.198250
Z" /> 
</g>
<g style="fill:#F2EDA1; fill-opacity:1.000000; stroke:none;">
<circle cx="4.900000" cy="4.348250" r="0.850000" /> 
<circle cx="7.440000" cy="4.348250" r="0.850000" /> 
<circle cx="0.800000" cy="4.348250" r="0.800000" /> 
<circle cx="9.000000" cy="4.348250" r="0.800000" /> 
<path style="fill:#E8B2A7; fill-opacity:1.000000; stroke:none;fill-rule:evenodd;"
d="M 1.510000,5.198250
1.510000,3.498250
3.210000,3.498250
3.210000,5.198250
Z" /> 
</g>
<g style="fill:#E8B2A7; fill-opacity:1.000000; stroke:none;">
<circle cx="4.900000" cy="4.348250" r="0.850000" /> 
<circle cx="7.440000" cy="4.348250" r="0.850000" /> 
<circle cx="0.800000" cy="4.348250" r="0.800000" /> 
<circle cx="9.000000" cy="4.348250" r="0.800000" /> 
<path style="fill:#28CCD9; fill-opacity:1.000000; stroke:none;fill-rule:evenodd;"
d="M 1.510000,5.198250
1.510000,3.498250
3.210000,3.498250
3.210000,5.198250
Z" /> 
</g>
<g style="fill:#28CCD9; fill-opacity:1.000000; stroke:none;">
<circle cx="4.900000" cy="4.348250" r="0.850000" /> 
<circle cx="7.440000" cy="4.348250" r="0.850000" /> 
<circle cx="0.800000" cy="4.348250" r="0.800000" /> 
<circle cx="9.000000" cy="4.348250" r="0.800000" /> 
<path style="fill:#A7A5C6; fill-opacity:1.000000; stroke:none;fill-rule:evenodd;"
d="M 1.510000,5.198250
1.510000,3.498250
3.210000,3.498250
3.210000,5.198250
Z" /> 
</g>
<g style="fill:#A7A5C6; fill-opacity:1.000000; stroke:none;">
<circle cx="4.900000" cy="4.348250" r="0.850000" /> 
<circle cx="7.440000" cy="4.348250" r="0.850000" /> 
<circle cx="0.800000" cy="4.348250" r="0.800000" /> 
<circle cx="9.000000" cy="4.348250" r="0.800000" /> 
<path style="fill:#F76F8E; fill-opacity:1.000000; stroke:none;fill-rule:evenodd;"
d="M 1.510000,5.198250
1.510000,3.498250
3.210000,3.498250
3.210000,5.198250
Z" /> 
</g>
<g style="fill:#F76F8E; fill-opacity:1.000000; stroke:none;">
<circle cx="4.900000" cy="4.348250" r="0.850000" /> 
<circle cx="7.440000" cy="4.348250" r="0.850000" /> 
<circle cx="0.800000" cy="4.348250" r="0.800000" /> 
<circle cx="9.000000" cy="4.348250" r="0.800000" /> 
<path style="fill:#5BC3EB; fill-opacity:1.000000; stroke:none;fill-rule:evenodd;"
d="M 1.510000,5.198250
1.510000,3.498250
3.210000,3.498250
3.210000,5.198250
Z" /> 
</g>
<g style="fill:#5BC3EB; fill-opacity:1.000000; stroke:none;">
<circle cx="4.900000" cy="4.348250" r="0.850000" /> 
<circle cx="7.440000" cy="4.348250" r="0.850000" /> 
<circle cx="0.800000" cy="4.348250" r="0.800000" /> 
<circle cx="9.000000" cy="4.348250" r="0.800000" /> 
<path style="fill:#ED7C33; fill-opacity:1.000000; stroke:none;fill-rule:evenodd;"
d="M 1.510000,5.198250
1.510000,3.498250
3.210000,3.498250
3.210000,5.198250
Z" /> 
</g>
<g style="fill:#ED7C33; fill-opacity:1.000000; stroke:none;">
<circle cx="4.900000" cy="4.348250" r="0.850000" /> 
<circle cx="7.440000" cy="4.348250" r="0.850000" /> 
<circle cx="0.800000" cy="4.348250" r="0.800000" /> 
<circle cx="9.000000" cy="4.348250" r="0.800000" /> 
<path style="fill:#F2EDA1; fill-opacity:1.000000; stroke:none;fill-rule:evenodd;"
d="M 1.510000,5.198250
1.510000,3.498250
3.210000,3.498250
3.210000,5.198250
Z" /> 
</g>
<g style="fill:#F2EDA1; fill-opacity:1.000000; stroke:none;">
<circle cx="4.900000" cy="4.348250" r="0.850000" /> 
<circle cx="7.440000" cy="4.348250" r="0.850000" /> 
<circle cx="0.800000" cy="4.348250" r="0.800000" /> 
<circle cx="9.000000" cy="4.348250" r="0.800000" /> 
<path style="fill:#E8B2A7; fill-opacity:1.000000; stroke:none;fill-rule:evenodd;"
d="M 1.510000,5.198250
1.510000,3.498250
3.210000,3.498250
3.210000,5.198250
Z" /> 
</g>
<g style="fill:#E8B2A7; fill-opacity:1.000000; stroke:none;">
<circle cx="4.900000" cy="4.348250" r="0.850000" /> 
<circle cx="7.440000" cy="4.348250" r="0.850000" /> 
<circle cx="0.800000" cy="4.348250" r="0.800000" /> 
<circle cx="9.000000" cy="4.348250" r="0.800000" /> 
<path style="fill:#28CCD9; fill-opacity:1.000000; stroke:none;fill-rule:evenodd;"
d="M 1.510000,5.198250
1.510000,3.498250
3.210000,3.498250
3.210000,5.198250
Z" /> 
</g>
<g style="fill:#28CCD9; fill-opacity:1.000000; stroke:none;">
<circle cx="4.900000" cy="4.348250" r="0.850000" /> 
<circle cx="7.440000" cy="4.348250" r="0.850000" /> 
<circle cx="0.800000" cy="4.348250" r="0.800000" /> 
<circle cx="9.000000" cy="4.348250" r="0.800000" /> 
<path style="fill:#A7A5C6; fill-opacity:1.000000; stroke:none;fill-rule:evenodd;"
d="M 1.510000,5.198250
1.510000,3.498250
3.210000,3.498250
3.210000,5.198250
Z" /> 
</g>
<g style="fill:#A7A5C6; fill-opacity:1.000000; stroke:none;">
<circle cx="4.900000" cy="4.348250" r="0.850000" /> 
<circle cx="7.440000" cy="4.348250" r="0.850000" /> 
<circle cx="0.800000" cy="4.348250" r="0.800000" /> 
<circle cx="9.000000" cy="4.348250" r="0.800000" /> 
<path style="fill:#F76F8E; fill-opacity:1.000000; stroke:none;fill-rule:evenodd;"
d="M 1.510000,5.198250
1.510000,3.498250
3.210000,3.498250
3.210000,5.198250
Z" /> 
</g>
<g style="fill:#F76F8E; fill-opacity:1.000000; stroke:none;">
<circle cx="4.900000" cy="4.348250" r="0.850000" /> 
<circle cx="7.440000" cy="4.348250" r="0.850000" /> 
<circle cx="0.800000" cy="4.348250" r="0.800000" /> 
<circle cx="9.000000" cy="4.348250" r="0.800000" /> 
<path style="fill:#5BC3EB; fill-opacity:1.000000; stroke:none;fill-rule:evenodd;"
d="M 1.510000,5.198250
1.510000,3.498250
3.210000,3.498250
3.210000,5.198250
Z" /> 
</g>
<g style="fill:#5BC3EB; fill-opacity:1.000000; stroke:none;">
<circle cx="4.900000" cy="4.348250" r="0.850000" /> 
<circle cx="7.440000" cy="4.348250" r="0.850000" /> 
<circle cx="0.800000" cy="4.348250" r="0.800000" /> 
<circle cx="9.000000" cy="4.348250" r="0.800000" /> 
<path style="fill:#ED7C33; fill-opacity:1.000000; stroke:none;fill-rule:evenodd;"
d="M 1.510000,5.198250
1.510000,3.498250
3.210000,3.498250
3.210000,5.198250
Z" /> 
</g>
<g style="fill:#ED7C33; fill-opacity:1.000000; stroke:none;">
<circle cx="4.900000" cy="4.348250" r="0.850000" /> 
<circle cx="7.440000" cy="4.348250" r="0.850000" /> 
<circle cx="0.800000" cy="4.348250" r="0.800000" /> 
<circle cx="9.000000" cy="4.348250" r="0.800000" /> 
<path style="fill:#F2EDA1; fill-opacity:1.000000; stroke:none;fill-rule:evenodd;"
d="M 1.510000,5.198250
1.510000,3.498250
3.210000,3.498250
3.210000,5.198250
Z" /> 
</g>
<g style="fill:#F2EDA1; fill-opacity:1.000000; stroke:none;">
<circle cx="4.900000" cy="4.348250" r="0.850000" /> 
<circle cx="7.440000" cy="4.348250" r="0.850000" /> 
<circle cx="0.800000" cy="4.348250" r="0.800000" /> 
<circle cx="9.000000" cy="4.348250" r="0.800000" /> 
<path style="fill:#E8B2A7; fill-opacity:1.000000; stroke:none;fill-rule:evenodd;"
d="M 1.510000,5.198250
1.510000,3.498250
3.210000,3.498250
3.210000,5.198250
Z" /> 
</g>
<g style="fill:#E8B2A7; fill-opacity:1.000000; stroke:none;">
<circle cx="4.900000" cy="4.348250" r="0.850000" /> 
<circle cx="7.440000" cy="4.348250" r="0.850000" /> 
<circle cx="0.800000" cy="4.348250" r="0.800000" /> 
<circle cx="9.000000" cy="4.348250" r="0.800000" /> 
<path style="fill:#28CCD9; fill-opacity:1.000000; stroke:none;fill-rule:evenodd;"
d="M 1.510000,5.198250
1.510000,3.498250
3.210000,3.498250
3.210000,5.198250
Z" /> 
</g>
<g style="fill:#28CCD9; fill-opacity:1.000000; stroke:none;">
<circle cx="4.900000" cy="4.348250" r="0.850000" /> 
<circle cx="7.440000" cy="4.348250" r="0.850000" /> 
<circle cx="0.800000" cy="4.348250" r="0.800000" /> 
<circle cx="9.000000" cy="4.348250" r="0.800000" /> 
<path style="fill:#A7A5C6; fill-opacity:1.000000; stroke:none;fill-rule:evenodd;"
d="M 1.510000,5.198250
1.510000,3.498250
3.210000,3.498250
3.210000,5.198250
Z" /> 
</g>
<g style="fill:#A7A5C6; fill-opacity:1.000000; stroke:none;">
<circle cx="4.900000" cy="4.348250" r="0.850000" /> 
<circle cx="7.440000" cy="4.348250" r="0.850000" /> 
<circle cx="0.800000" cy="4.348250" r="0.800000" /> 
<circle cx="9.000000" cy="4.348250" r="0.800000" /> 
<path style="fill:#F76F8E; fill-opacity:1.000000; stroke:none;fill-rule:evenodd;"
d="M 1.510000,5.198250
1.510000,3.498250
3.210000,3.498250
3.210000,5.198250
Z" /> 
</g>
<g style="fill:#F76F8E; fill-opacity:1.000000; stroke:none;">
<circle cx="4.900000" cy="4.348250" r="0.850000" /> 
<circle cx="7.440000" cy="4.348250" r="0.850000" /> 
<circle cx="0.800000" cy="4.348250" r="0.800000" /> 
<circle cx="9.000000" cy="4.348250" r="0.800000" /> 
<path style="fill:#5BC3EB; fill-opacity:1.000000; stroke:none;fill-rule:evenodd;"
d="M 1.510000,5.198250
1.510000,3.498250
3.210000,3.498250
3.210000,5.198250
Z" /> 
</g>
<g style="fill:#5BC3EB; fill-opacity:1.000000; stroke:none;">
<circle cx="4.900000" cy="4.348250" r="0.850000" /> 
<circle cx="7.440000" cy="4.348250" r="0.850000" /> 
<circle cx="0.800000" cy="4.348250" r="0.800000" /> 
<circle cx="9.000000" cy="4.348250" r="0.800000" /> 
<path style="fill:#ED7C33; fill-opacity:1.000000; stroke:none;fill-rule:evenodd;"
d="M 1.510000,5.198250
1.510000,3.498250
3.210000,3.498250
3.210000,5.198250
Z" /> 
</g>
<g style="fill:#ED7C33; fill-opacity:1.000000; stroke:none;">
<circle cx="4.900000" cy="4.348250" r="0.850000" /> 
<circle cx="7.440000" cy="4.348250" r="0.850000" /> 
<circle cx="0.800000" cy="4.348250" r="0.800000" /> 
<circle cx="9.000000" cy="4.348250" r="0.800000" /> 
<path style="fill:#8DCB81; fill-opacity:1.000000; stroke:none;fill-rule:evenodd;"
d="M 1.510000,5.198250
1.510000,3.498250
3.210000,3.498250
3.210000,5.198250
Z" /> 
</g>
<g style="fill:#8DCB81; fill-opacity:1.000000; stroke:none;">
<circle cx="4.900000" cy="4.348250" r="0.850000" /> 
<circle cx="7.440000" cy="4.348250" r="0.850000" /> 
<circle cx="0.800000" cy="4.348250" r="0.800000" /> 
<circle cx="9.000000" cy="4.348250" r="0.800000" /> 
<path style="fill:#F2EDA1; fill-opacity:1.000000; stroke:none;fill-rule:evenodd;"
d="M 1.510000,5.198250
1.510000,3.498250
3.210000,3.498250
3.210000,5.198250
Z" /> 
</g>
<g style="fill:#F2EDA1; fill-opacity:1.000000; stroke:none;">
<circle cx="4.900000" cy="4.348250" r="0.850000" /> 
<circle cx="7.440000" cy="4.348250" r="0.850000" /> 
<circle cx="0.800000" cy="4.348250" r="0.800000" /> 
<circle cx="9.000000" cy="4.348250" r="0.800000" /> 
<path style="fill:#E8B2A7; fill-opacity:1.000000; stroke:none;fill-rule:evenodd;"
d="M 1.510000,5.198250
1.510000,3.498250
3.210000,3.498250
3.210000,5.198250
Z" /> 
</g>
<g style="fill:#E8B2A7; fill-opacity:1.000000; stroke:none;">
<circle cx="4.900000" cy="4.348250" r="0.850000" /> 
<circle cx="7.440000" cy="4.348250" r="0.850000" /> 
<circle cx="0.800000" cy="4.348250" r="0.800000" /> 
<circle cx="9.000000" cy="4.348250" r="0.800000" /> 
<path style="fill:#28CCD9; fill-opacity:1.000000; stroke:none;fill-rule:evenodd;"
d="M 1.510000,5.198250
1.510000,3.498250
3.210000,3.498250
3.210000,5.198250
Z" /> 
</g>
<g style="fill:#28CCD9; fill-opacity:1.000000; stroke:none;">
<circle cx="4.900000" cy="4.348250" r="0.850000" /> 
<circle cx="7.440000" cy="4.348250" r="0.850000" /> 
<circle cx="0.800000" cy="4.348250" r="0.800000" /> 
<circle cx="9.000000" cy="4.348250" r="0.800000" /> 
<path style="fill:#A7A5C6; fill-opacity:1.000000; stroke:none;fill-rule:evenodd;"
d="M 1.510000,5.198250
1.510000,3.498250
3.210000,3.498250
3.210000,5.198250
Z" /> 
</g>
<g style="fill:#A7A5C6; fill-opacity:1.000000; stroke:none;">
<circle cx="4.900000" cy="4.348250" r="0.850000" /> 
<circle cx="7.440000" cy="4.348250" r="0.850000" /> 
<circle cx="0.800000" cy="4.348250" r="0.800000" /> 
<circle cx="9.000000" cy="4.348250" r="0.800000" /> 
<path style="fill:#DB628B; fill-opacity:1.000000; stroke:none;fill-rule:evenodd;"
d="M 1.510000,5.198250
1.510000,3.498250
3.210000,3.498250
3.210000,5.198250
Z" /> 
</g>
<g style="fill:#DB628B; fill-opacity:1.000000; stroke:none;">
<circle cx="4.900000" cy="4.348250" r="0.850000" /> 
<circle cx="7.440000" cy="4.348250" r="0.850000" /> 
<circle cx="0.800000" cy="4.348250" r="0.800000" /> 
<circle cx="9.000000" cy="4.348250" r="0.800000" /> 
<path style="fill:#4FCBCB; fill-opacity:1.000000; stroke:none;fill-rule:evenodd;"
d="M 1.510000,5.198250
1.510000,3.498250
3.210000,3.498250
3.210000,5.198250
Z" /> 
</g>
<g style="fill:#4FCBCB; fill-opacity:1.000000; stroke:none;">
<circle cx="4.900000" cy="4.348250" r="0.850000" /> 
<circle cx="7.440000" cy="4.348250" r="0.850000" /> 
<circle cx="0.800000" cy="4.348250" r="0.800000" /> 
<circle cx="9.000000" cy="4.348250" r="0.800000" /> 
<path style="fill:#CE7D2C; fill-opacity:1.000000; stroke:none;fill-rule:evenodd;"
d="M 1.510000,5.198250
1.510000,3.498250
3.210000,3.498250
3.210000,5.198250
Z" /> 
</g>
<g style="fill:#CE7D2C; fill-opacity:1.000000; stroke:none;">
<circle cx="4.900000" cy="4.348250" r="0.850000" /> 
<circle cx="7.440000" cy="4.348250" r="0.850000" /> 
<circle cx="0.800000" cy="4.348250" r="0.800000" /> 
<circle cx="9.000000" cy="4.348250" r="0.800000" /> 
<path style="fill:#7FC87F; fill-opacity:1.000000; stroke:none;fill-rule:evenodd;"
d="M 1.510000,5.198250
1.510000,3.498250
3.210000,3.498250
3.210000,5.198250
Z" /> 
</g>
<g style="fill:#7FC87F; fill-opacity:1.000000; stroke:none;">
<circle cx="4.900000" cy="4.348250" r="0.850000" /> 
<circle cx="7.440000" cy="4.348250" r="0.850000" /> 
<circle cx="0.800000" cy="4.348250" r="0.800000" /> 
<circle cx="9.000000" cy="4.348250" r="0.800000" /> 
<path style="fill:#C83434; fill-opacity:1.000000; stroke:none;fill-rule:evenodd;"
d="M 1.510000,5.198250
1.510000,3.498250
3.210000,3.498250
3.210000,5.198250
Z" /> 
</g>
<g style="fill:#C83434; fill-opacity:1.000000; stroke:none;">
<circle cx="4.900000" cy="4.348250" r="0.850000" /> 
<circle cx="7.440000" cy="4.348250" r="0.850000" /> 
<circle cx="0.800000" cy="4.348250" r="0.800000" /> 
<circle cx="9.000000" cy="4.348250" r="0.800000" /> 
<path style="fill:#D864FF; fill-opacity:0.400000; stroke:none;fill-rule:evenodd;"
d="M 1.510000,5.198250
1.510000,3.498250
3.210000,3.498250
3.210000,5.198250
Z" /> 
</g>
<g style="fill:#D864FF; fill-opacity:0.400000; stroke:none;">
<circle cx="4.900000" cy="4.348250" r="0.850000" /> 
<circle cx="7.440000" cy="4.348250" r="0.850000" /> 
<circle cx="0.800000" cy="4.348250" r="0.800000" /> 
<circle cx="9.000000" cy="4.348250" r="0.800000" /> 
</g>
<g style="fill:none; 
stroke:#F2EDA1; stroke-width:0.150000; stroke-opacity:1; 
stroke-linecap:round; stroke-linejoin:round;">
<text x="4.900000" y="1.348250"
textLength="4.535715" font-size="1.333333" lengthAdjust="spacingAndGlyphs"
text-anchor="middle" opacity="0" stroke-opacity="0">REF**</text>
<g class="stroked-text"><desc>REF**</desc>
<path d="M3.566667 1.303070
L3.233334 0.826879
" />
<path d="M2.995239 1.303070
L2.995239 0.303070
" />
<path d="M2.995239 0.303070
L3.376191 0.303070
" />
<path d="M3.376191 0.303070
L3.471429 0.350689
" />
<path d="M3.471429 0.350689
L3.519048 0.398308
" />
<path d="M3.519048 0.398308
L3.566667 0.493546
" />
<path d="M3.566667 0.493546
L3.566667 0.636403
" />
<path d="M3.566667 0.636403
L3.519048 0.731641
" />
<path d="M3.519048 0.731641
L3.471429 0.779260
" />
<path d="M3.471429 0.779260
L3.376191 0.826879
" />
<path d="M3.376191 0.826879
L2.995239 0.826879
" />
<path d="M3.995239 0.779260
L4.328572 0.779260
" />
<path d="M4.471429 1.303070
L3.995239 1.303070
" />
<path d="M3.995239 1.303070
L3.995239 0.303070
" />
<path d="M3.995239 0.303070
L4.471429 0.303070
" />
<path d="M5.233333 0.779260
L4.900000 0.779260
" />
<path d="M4.900000 1.303070
L4.900000 0.303070
" />
<path d="M4.900000 0.303070
L5.376190 0.303070
" />
<path d="M5.900000 0.303070
L5.900000 0.541165
" />
<path d="M5.661905 0.445927
L5.900000 0.541165
" />
<path d="M5.900000 0.541165
L6.138095 0.445927
" />
<path d="M5.757143 0.731641
L5.900000 0.541165
" />
<path d="M5.900000 0.541165
L6.042857 0.731641
" />
<path d="M6.661905 0.303070
L6.661905 0.541165
" />
<path d="M6.423810 0.445927
L6.661905 0.541165
" />
<path d="M6.661905 0.541165
L6.900000 0.445927
" />
<path d="M6.519048 0.731641
L6.661905 0.541165
" />
<path d="M6.661905 0.541165
L6.804762 0.731641
" />
</g><path style="fill:none; 
stroke:#F2EDA1; stroke-width:0.150000; stroke-opacity:1; 
stroke-linecap:round; stroke-linejoin:round;fill:none"
d="M 0.600000,2.148250
9.200000,2.148250
9.200000,6.548250
0.600000,6.548250
Z" /> 
</g>
<g style="fill:none; 
stroke:#AFAFAF; stroke-width:0.150000; stroke-opacity:1; 
stroke-linecap:round; stroke-linejoin:round;">
<text x="4.900000" y="8.348250"
textLength="6.773810" font-size="1.333333" lengthAdjust="spacingAndGlyphs"
text-anchor="middle" opacity="0" stroke-opacity="0">SW_SPST</text>
<g class="stroked-text"><desc>SW_SPST</desc>
<path d="M1.828572 8.255450
L1.971429 8.303069
" />
<path d="M1.971429 8.303069
L2.209524 8.303069
" />
<path d="M2.209524 8.303069
L2.304762 8.255450
" />
<path d="M2.304762 8.255450
L2.352381 8.207830
" />
<path d="M2.352381 8.207830
L2.400000 8.112592
" />
<path d="M2.400000 8.112592
L2.400000 8.017354
" />
<path d="M2.400000 8.017354
L2.352381 7.922116
" />
<path d="M2.352381 7.922116
L2.304762 7.874497
" />
<path d="M2.304762 7.874497
L2.209524 7.826878
" />
<path d="M2.209524 7.826878
L2.019048 7.779259
" />
<path d="M2.019048 7.779259
L1.923810 7.731640
" />
<path d="M1.923810 7.731640
L1.876191 7.684021
" />
<path d="M1.876191 7.684021
L1.828572 7.588783
" />
<path d="M1.828572 7.588783
L1.828572 7.493545
" />
<path d="M1.828572 7.493545
L1.876191 7.398307
" />
<path d="M1.876191 7.398307
L1.923810 7.350688
" />
<path d="M1.923810 7.350688
L2.019048 7.303069
" />
<path d="M2.019048 7.303069
L2.257143 7.303069
" />
<path d="M2.257143 7.303069
L2.400000 7.350688
" />
<path d="M2.733334 7.303069
L2.971429 8.303069
" />
<path d="M2.971429 8.303069
L3.161905 7.588783
" />
<path d="M3.161905 7.588783
L3.352381 8.303069
" />
<path d="M3.352381 8.303069
L3.590476 7.303069
" />
<path d="M3.733333 8.398307
L4.495238 8.398307
" />
<path d="M4.685715 8.255450
L4.828572 8.303069
" />
<path d="M4.828572 8.303069
L5.066666 8.303069
" />
<path d="M5.066666 8.303069
L5.161904 8.255450
" />
<path d="M5.161904 8.255450
L5.209523 8.207830
" />
<path d="M5.209523 8.207830
L5.257142 8.112592
" />
<path d="M5.257142 8.112592
L5.257142 8.017354
" />
<path d="M5.257142 8.017354
L5.209523 7.922116
" />
<path d="M5.209523 7.922116
L5.161904 7.874497
" />
<path d="M5.161904 7.874497
L5.066666 7.826878
" />
<path d="M5.066666 7.826878
L4.876191 7.779259
" />
<path d="M4.876191 7.779259
L4.780953 7.731640
" />
<path d="M4.780953 7.731640
L4.733334 7.684021
" />
<path d="M4.733334 7.684021
L4.685715 7.588783
" />
<path d="M4.685715 7.588783
L4.685715 7.493545
" />
<path d="M4.685715 7.493545
L4.733334 7.398307
" />
<path d="M4.733334 7.398307
L4.780953 7.350688
" />
<path d="M4.780953 7.350688
L4.876191 7.303069
" />
<path d="M4.876191 7.303069
L5.114285 7.303069
" />
<path d="M5.114285 7.303069
L5.257142 7.350688
" />
<path d="M5.685714 8.303069
L5.685714 7.303069
" />
<path d="M5.685714 7.303069
L6.066666 7.303069
" />
<path d="M6.066666 7.303069
L6.161904 7.350688
" />
<path d="M6.161904 7.350688
L6.209523 7.398307
" />
<path d="M6.209523 7.398307
L6.257142 7.493545
" />
<path d="M6.257142 7.493545
L6.257142 7.636402
" />
<path d="M6.257142 7.636402
L6.209523 7.731640
" />
<path d="M6.209523 7.731640
L6.161904 7.779259
" />
<path d="M6.161904 7.779259
L6.066666 7.826878
" />
<path d="M6.066666 7.826878
L5.685714 7.826878
" />
<path d="M6.638095 8.255450
L6.780952 8.303069
" />
<path d="M6.780952 8.303069
L7.019047 8.303069
" />
<path d="M7.019047 8.303069
L7.114285 8.255450
" />
<path d="M7.114285 8.255450
L7.161904 8.207830
" />
<path d="M7.161904 8.207830
L7.209523 8.112592
" />
<path d="M7.209523 8.112592
L7.209523 8.017354
" />
<path d="M7.209523 8.017354
L7.161904 7.922116
" />
<path d="M7.161904 7.922116
L7.114285 7.874497
" />
<path d="M7.114285 7.874497
L7.019047 7.826878
" />
<path d="M7.019047 7.826878
L6.828571 7.779259
" />
<path d="M6.828571 7.779259
L6.733333 7.731640
" />
<path d="M6.733333 7.731640
L6.685714 7.684021
" />
<path d="M6.685714 7.684021
L6.638095 7.588783
" />
<path d="M6.638095 7.588783
L6.638095 7.493545
" />
<path d="M6.638095 7.493545
L6.685714 7.398307
" />
<path d="M6.685714 7.398307
L6.733333 7.350688
" />
<path d="M6.733333 7.350688
L6.828571 7.303069
" />
<path d="M6.828571 7.303069
L7.066666 7.303069
" />
<path d="M7.066666 7.303069
L7.209523 7.350688
" />
<path d="M7.495238 7.303069
L8.066666 7.303069
" />
<path d="M7.780952 8.303069
L7.780952 7.303069
" />
</g><path style="fill:none; 
stroke:#AFAFAF; stroke-width:0.120000; stroke-opacity:1; 
stroke-linecap:round; stroke-linejoin:round;fill:none"
d="M 3.400000,3.348250
6.400000,3.348250
6.400000,5.348250
3.400000,5.348250
Z" /> 
</g>
<g style="fill:#FFFFFF; fill-opacity:1.000000; stroke:none;">
<circle cx="2.360000" cy="4.348250" r="0.450000" /> 
</g>
<g style="fill:#FFFFFF; fill-opacity:1.000000; stroke:none;">
<circle cx="4.900000" cy="4.348250" r="0.450000" /> 
</g>
<g style="fill:#FFFFFF; fill-opacity:1.000000; stroke:none;">
<circle cx="7.440000" cy="4.348250" r="0.450000" /> 
</g>
<g style="fill:#FFFFFF; fill-opacity:1.000000; stroke:none;">
<circle cx="0.800000" cy="4.348250" r="0.550000" /> 
</g>
<g style="fill:#FFFFFF; fill-opacity:1.000000; stroke:none;">
<circle cx="9.000000" cy="4.348250" r="0.550000" /> 
</g> 
</svg>
