<?xml version="1.0" standalone="no"?>
 <!DOCTYPE svg PUBLIC "-//W3C//DTD SVG 1.1//EN" 
 "http://www.w3.org/Graphics/SVG/1.1/DTD/svg11.dtd"> 
<svg
  xmlns:svg="http://www.w3.org/2000/svg"
  xmlns="http://www.w3.org/2000/svg"
  xmlns:xlink="http://www.w3.org/1999/xlink"
  xmlns:inkscape="http://www.inkscape.org/namespaces/inkscape"
  version="1.1"
  width="11.506200mm" height="25.679400mm" viewBox="0.000000 0.000000 11.506200 25.679400">
<title>SVG Image created as EPaper_2.13in_Header_1x08.svg date 2026-10-04T13:12:19 </title>
  <desc>Image generated by PCBNEW </desc>
<g style="fill:#000000; fill-opacity:1.000000;stroke:#000000; stroke-opacity:1.000000;
stroke-linecap:round; stroke-linejoin:round;"
 transform="translate(0 0) scale(1 1)">
<path style="fill:#4D7FC4; fill-opacity:1.000000; stroke:none;fill-rule:evenodd;"
d="M 3.415476,4.748250
3.415476,2.948250
5.215476,2.948250
5.215476,4.748250
Z" /> 
</g>
<g style="fill:#4D7FC4; fill-opacity:1.000000; stroke:none;">
<circle cx="4.315476" cy="6.388250" r="0.900000" /> 
<circle cx="4.315476" cy="8.928250" r="0.900000" /> 
<circle cx="4.315476" cy="11.468250" r="0.900000" /> 
<circle cx="4.315476" cy="14.008250" r="0.900000" /> 
<circle cx="4.315476" cy="16.548250" r="0.900000" /> 
<circle cx="4.315476" cy="19.088250" r="0.900000" /> 
<circle cx="4.315476" cy="21.628250" r="0.900000" /> 
<path style="fill:#02FFEE; fill-opacity:0.400000; stroke:none;fill-rule:evenodd;"
d="M 3.415476,4.748250
3.415476,2.948250
5.215476,2.948250
5.215476,4.748250
Z" /> 
</g>
<g style="fill:#02FFEE; fill-opacity:0.400000; stroke:none;">
<circle cx="4.315476" cy="6.388250" r="0.900000" /> 
<circle cx="4.315476" cy="8.928250" r="0.900000" /> 
<circle cx="4.315476" cy="11.468250" r="0.900000" /> 
<circle cx="4.315476" cy="14.008250" r="0.900000" /> 
<circle cx="4.315476" cy="16.548250" r="0.900000" /> 
<circle cx="4.315476" cy="19.088250" r="0.900000" /> 
<circle cx="4.315476" cy="21.628250" r="0.900000" /> 
<path style="fill:#F2EDA1; fill-opacity:1.000000; stroke:none;fill-rule:evenodd;"
d="M 3.415476,4.748250
3.415476,2.948250
5.215476,2.948250
5.215476,4.748250
Z" /> 
</g>
<g style="fill:#F2EDA1; fill-opacity:1.000000; stroke:none;">
<circle cx="4.315476" cy="6.388250" r="0.900000" /> 
<circle cx="4.315476" cy="8.928250" r="0.900000" /> 
<circle cx="4.315476" cy="11.468250" r="0.900000" /> 
<circle cx="4.315476" cy="14.008250" r="0.900000" /> 
<circle cx="4.315476" cy="16.548250" r="0.900000" /> 
<circle cx="4.315476" cy="19.088250" r="0.900000" /> 
<circle cx="4.315476" cy="21.628250" r="0.900000" /> 
<path style="fill:#E8B2A7; fill-opacity:1.000000; stroke:none;fill-rule:evenodd;"
d="M 3.415476,4.748250
3.415476,2.948250
5.215476,2.948250
5.215476,4.748250
Z" /> 
</g>
<g style="fill:#E8B2A7; fill-opacity:1.000000; stroke:none;">
<circle cx="4.315476" cy="6.388250" r="0.900000" /> 
<circle cx="4.315476" cy="8.928250" r="0.900000" /> 
<circle cx="4.315476" cy="11.468250" r="0.900000" /> 
<circle cx="4.315476" cy="14.008250" r="0.900000" /> 
<circle cx="4.315476" cy="16.548250" r="0.900000" /> 
<circle cx="4.315476" cy="19.088250" r="0.900000" /> 
<circle cx="4.315476" cy="21.628250" r="0.900000" /> 
<path style="fill:#28CCD9; fill-opacity:1.000000; stroke:none;fill-rule:evenodd;"
d="M 3.415476,4.748250
3.415476,2.948250
5.215476,2.948250
5.215476,4.748250
Z" /> 
</g>
<g style="fill:#28CCD9; fill-opacity:1.000000; stroke:none;">
<circle cx="4.315476" cy="6.388250" r="0.900000" /> 
<circle cx="4.315476" cy="8.928250" r="0.900000" /> 
<circle cx="4.315476" cy="11.468250" r="0.900000" /> 
<circle cx="4.315476" cy="14.008250" r="0.900000" /> 
<circle cx="4.315476" cy="16.548250" r="0.900000" /> 
<circle cx="4.315476" cy="19.088250" r="0.900000" /> 
<circle cx="4.315476" cy="21.628250" r="0.900000" /> 
<path style="fill:#A7A5C6; fill-opacity:1.000000; stroke:none;fill-rule:evenodd;"
d="M 3.415476,4.748250
3.415476,2.948250
5.215476,2.948250
5.215476,4.748250
Z" /> 
</g>
<g style="fill:#A7A5C6; fill-opacity:1.000000; stroke:none;">
<circle cx="4.315476" cy="6.388250" r="0.900000" /> 
<circle cx="4.315476" cy="8.928250" r="0.900000" /> 
<circle cx="4.315476" cy="11.468250" r="0.900000" /> 
<circle cx="4.315476" cy="14.008250" r="0.900000" /> 
<circle cx="4.315476" cy="16.548250" r="0.900000" /> 
<circle cx="4.315476" cy="19.088250" r="0.900000" /> 
<circle cx="4.315476" cy="21.628250" r="0.900000" /> 
<path style="fill:#F76F8E; fill-opacity:1.000000; stroke:none;fill-rule:evenodd;"
d="M 3.415476,4.748250
3.415476,2.948250
5.215476,2.948250
5.215476,4.748250
Z" /> 
</g>
<g style="fill:#F76F8E; fill-opacity:1.000000; stroke:none;">
<circle cx="4.315476" cy="6.388250" r="0.900000" /> 
<circle cx="4.315476" cy="8.928250" r="0.900000" /> 
<circle cx="4.315476" cy="11.468250" r="0.900000" /> 
<circle cx="4.315476" cy="14.008250" r="0.900000" /> 
<circle cx="4.315476" cy="16.548250" r="0.900000" /> 
<circle cx="4.315476" cy="19.088250" r="0.900000" /> 
<circle cx="4.315476" cy="21.628250" r="0.900000" /> 
<path style="fill:#5BC3EB; fill-opacity:1.000000; stroke:none;fill-rule:evenodd;"
d="M 3.415476,4.748250
3.415476,2.948250
5.215476,2.948250
5.215476,4.748250
Z" /> 
</g>
<g style="fill:#5BC3EB; fill-opacity:1.000000; stroke:none;">
<circle cx="4.315476" cy="6.388250" r="0.900000" /> 
<circle cx="4.315476" cy="8.928250" r="0.900000" /> 
<circle cx="4.315476" cy="11.468250" r="0.900000" /> 
<circle cx="4.315476" cy="14.008250" r="0.900000" /> 
<circle cx="4.315476" cy="16.548250" r="0.900000" /> 
<circle cx="4.315476" cy="19.088250" r="0.900000" /> 
<circle cx="4.315476" cy="21.628250" r="0.900000" /> 
<path style="fill:#ED7C33; fill-opacity:1.000000; stroke:none;fill-rule:evenodd;"
d="M 3.415476,4.748250
3.415476,2.948250
5.215476,2.948250
5.215476,4.748250
Z" /> 
</g>
<g style="fill:#ED7C33; fill-opacity:1.000000; stroke:none;">
<circle cx="4.315476" cy="6.388250" r="0.900000" /> 
<circle cx="4.315476" cy="8.928250" r="0.900000" /> 
<circle cx="4.315476" cy="11.468250" r="0.900000" /> 
<circle cx="4.315476" cy="14.008250" r="0.900000" /> 
<circle cx="4.315476" cy="16.548250" r="0.900000" /> 
<circle cx="4.315476" cy="19.088250" r="0.900000" /> 
<circle cx="4.315476" cy="21.628250" r="0.900000" /> 
<path style="fill:#F2EDA1; fill-opacity:1.000000; stroke:none;fill-rule:evenodd;"
d="M 3.415476,4.748250
3.415476,2.948250
5.215476,2.948250
5.215476,4.748250
Z" /> 
</g>
<g style="fill:#F2EDA1; fill-opacity:1.000000; stroke:none;">
<circle cx="4.315476" cy="6.388250" r="0.900000" /> 
<circle cx="4.315476" cy="8.928250" r="0.900000" /> 
<circle cx="4.315476" cy="11.468250" r="0.900000" /> 
<circle cx="4.315476" cy="14.008250" r="0.900000" /> 
<circle cx="4.315476" cy="16.548250" r="0.900000" /> 
<circle cx="4.315476" cy="19.088250" r="0.900000" /> 
<circle cx="4.315476" cy="21.628250" r="0.900000" /> 
<path style="fill:#E8B2A7; fill-opacity:1.000000; stroke:none;fill-rule:evenodd;"
d="M 3.415476,4.748250
3.415476,2.948250
5.215476,2.948250
5.215476,4.748250
Z" /> 
</g>
<g style="fill:#E8B2A7; fill-opacity:1.000000; stroke:none;">
<circle cx="4.315476" cy="6.388250" r="0.900000" /> 
<circle cx="4.315476" cy="8.928250" r="0.900000" /> 
<circle cx="4.315476" cy="11.468250" r="0.900000" /> 
<circle cx="4.315476" cy="14.008250" r="0.900000" /> 
<circle cx="4.315476" cy="16.548250" r="0.900000" /> 
<circle cx="4.315476" cy="19.088250" r="0.900000" /> 
<circle cx="4.315476" cy="21.628250" r="0.900000" /> 
<path style="fill:#28CCD9; fill-opacity:1.000000; stroke:none;fill-rule:evenodd;"
d="M 3.415476,4.748250
3.415476,2.948250
5.215476,2.948250
5.215476,4.748250
Z" /> 
</g>
<g style="fill:#28CCD9; fill-opacity:1.000000; stroke:none;">
<circle cx="4.315476" cy="6.388250" r="0.900000" /> 
<circle cx="4.315476" cy="8.928250" r="0.900000" /> 
<circle cx="4.315476" cy="11.468250" r="0.900000" /> 
<circle cx="4.315476" cy="14.008250" r="0.900000" /> 
<circle cx="4.315476" cy="16.548250" r="0.900000" /> 
<circle cx="4.315476" cy="19.088250" r="0.900000" /> 
<circle cx="4.315476" cy="21.628250" r="0.900000" /> 
<path style="fill:#A7A5C6; fill-opacity:1.000000; stroke:none;fill-rule:evenodd;"
d="M 3.415476,4.748250
3.415476,2.948250
5.215476,2.948250
5.215476,4.748250
Z" /> 
</g>
<g style="fill:#A7A5C6; fill-opacity:1.000000; stroke:none;">
<circle cx="4.315476" cy="6.388250" r="0.900000" /> 
<circle cx="4.315476" cy="8.928250" r="0.900000" /> 
<circle cx="4.315476" cy="11.468250" r="0.900000" /> 
<circle cx="4.315476" cy="14.008250" r="0.900000" /> 
<circle cx="4.315476" cy="16.548250" r="0.900000" /> 
<circle cx="4.315476" cy="19.088250" r="0.900000" /> 
<circle cx="4.315476" cy="21.628250" r="0.900000" /> 
<path style="fill:#F76F8E; fill-opacity:1.000000; stroke:none;fill-rule:evenodd;"
d="M 3.415476,4.748250
3.415476,2.948250
5.215476,2.948250
5.215476,4.748250
Z" /> 
</g>
<g style="fill:#F76F8E; fill-opacity:1.000000; stroke:none;">
<circle cx="4.315476" cy="6.388250" r="0.900000" /> 
<circle cx="4.315476" cy="8.928250" r="0.900000" /> 
<circle cx="4.315476" cy="11.468250" r="0.900000" /> 
<circle cx="4.315476" cy="14.008250" r="0.900000" /> 
<circle cx="4.315476" cy="16.548250" r="0.900000" /> 
<circle cx="4.315476" cy="19.088250" r="0.900000" /> 
<circle cx="4.315476" cy="21.628250" r="0.900000" /> 
<path style="fill:#5BC3EB; fill-opacity:1.000000; stroke:none;fill-rule:evenodd;"
d="M 3.415476,4.748250
3.415476,2.948250
5.215476,2.948250
5.215476,4.748250
Z" /> 
</g>
<g style="fill:#5BC3EB; fill-opacity:1.000000; stroke:none;">
<circle cx="4.315476" cy="6.388250" r="0.900000" /> 
<circle cx="4.315476" cy="8.928250" r="0.900000" /> 
<circle cx="4.315476" cy="11.468250" r="0.900000" /> 
<circle cx="4.315476" cy="14.008250" r="0.900000" /> 
<circle cx="4.315476" cy="16.548250" r="0.900000" /> 
<circle cx="4.315476" cy="19.088250" r="0.900000" /> 
<circle cx="4.315476" cy="21.628250" r="0.900000" /> 
<path style="fill:#ED7C33; fill-opacity:1.000000; stroke:none;fill-rule:evenodd;"
d="M 3.415476,4.748250
3.415476,2.948250
5.215476,2.948250
5.215476,4.748250
Z" /> 
</g>
<g style="fill:#ED7C33; fill-opacity:1.000000; stroke:none;">
<circle cx="4.315476" cy="6.388250" r="0.900000" /> 
<circle cx="4.315476" cy="8.928250" r="0.900000" /> 
<circle cx="4.315476" cy="11.468250" r="0.900000" /> 
<circle cx="4.315476" cy="14.008250" r="0.900000" /> 
<circle cx="4.315476" cy="16.548250" r="0.900000" /> 
<circle cx="4.315476" cy="19.088250" r="0.900000" /> 
<circle cx="4.315476" cy="21.628250" r="0.900000" /> 
<path style="fill:#F2EDA1; fill-opacity:1.000000; stroke:none;fill-rule:evenodd;"
d="M 3.415476,4.748250
3.415476,2.948250
5.215476,2.948250
5.215476,4.748250
Z" /> 
</g>
<g style="fill:#F2EDA1; fill-opacity:1.000000; stroke:none;">
<circle cx="4.315476" cy="6.388250" r="0.900000" /> 
<circle cx="4.315476" cy="8.928250" r="0.900000" /> 
<circle cx="4.315476" cy="11.468250" r="0.900000" /> 
<circle cx="4.315476" cy="14.008250" r="0.900000" /> 
<circle cx="4.315476" cy="16.548250" r="0.900000" /> 
<circle cx="4.315476" cy="19.088250" r="0.900000" /> 
<circle cx="4.315476" cy="21.628250" r="0.900000" /> 
<path style="fill:#E8B2A7; fill-opacity:1.000000; stroke:none;fill-rule:evenodd;"
d="M 3.415476,4.748250
3.415476,2.948250
5.215476,2.948250
5.215476,4.748250
Z" /> 
</g>
<g style="fill:#E8B2A7; fill-opacity:1.000000; stroke:none;">
<circle cx="4.315476" cy="6.388250" r="0.900000" /> 
<circle cx="4.315476" cy="8.928250" r="0.900000" /> 
<circle cx="4.315476" cy="11.468250" r="0.900000" /> 
<circle cx="4.315476" cy="14.008250" r="0.900000" /> 
<circle cx="4.315476" cy="16.548250" r="0.900000" /> 
<circle cx="4.315476" cy="19.088250" r="0.900000" /> 
<circle cx="4.315476" cy="21.628250" r="0.900000" /> 
<path style="fill:#28CCD9; fill-opacity:1.000000; stroke:none;fill-rule:evenodd;"
d="M 3.415476,4.748250
3.415476,2.948250
5.215476,2.948250
5.215476,4.748250
Z" /> 
</g>
<g style="fill:#28CCD9; fill-opacity:1.000000; stroke:none;">
<circle cx="4.315476" cy="6.388250" r="0.900000" /> 
<circle cx="4.315476" cy="8.928250" r="0.900000" /> 
<circle cx="4.315476" cy="11.468250" r="0.900000" /> 
<circle cx="4.315476" cy="14.008250" r="0.900000" /> 
<circle cx="4.315476" cy="16.548250" r="0.900000" /> 
<circle cx="4.315476" cy="19.088250" r="0.900000" /> 
<circle cx="4.315476" cy="21.628250" r="0.900000" /> 
<path style="fill:#A7A5C6; fill-opacity:1.000000; stroke:none;fill-rule:evenodd;"
d="M 3.415476,4.748250
3.415476,2.948250
5.215476,2.948250
5.215476,4.748250
Z" /> 
</g>
<g style="fill:#A7A5C6; fill-opacity:1.000000; stroke:none;">
<circle cx="4.315476" cy="6.388250" r="0.900000" /> 
<circle cx="4.315476" cy="8.928250" r="0.900000" /> 
<circle cx="4.315476" cy="11.468250" r="0.900000" /> 
<circle cx="4.315476" cy="14.008250" r="0.900000" /> 
<circle cx="4.315476" cy="16.548250" r="0.900000" /> 
<circle cx="4.315476" cy="19.088250" r="0.900000" /> 
<circle cx="4.315476" cy="21.628250" r="0.900000" /> 
<path style="fill:#F76F8E; fill-opacity:1.000000; stroke:none;fill-rule:evenodd;"
d="M 3.415476,4.748250
3.415476,2.948250
5.215476,2.948250
5.215476,4.748250
Z" /> 
</g>
<g style="fill:#F76F8E; fill-opacity:1.000000; stroke:none;">
<circle cx="4.315476" cy="6.388250" r="0.900000" /> 
<circle cx="4.315476" cy="8.928250" r="0.900000" /> 
<circle cx="4.315476" cy="11.468250" r="0.900000" /> 
<circle cx="4.315476" cy="14.008250" r="0.900000" /> 
<circle cx="4.315476" cy="16.548250" r="0.900000" /> 
<circle cx="4.315476" cy="19.088250" r="0.900000" /> 
<circle cx="4.315476" cy="21.628250" r="0.900000" /> 
<path style="fill:#5BC3EB; fill-opacity:1.000000; stroke:none;fill-rule:evenodd;"
d="M 3.415476,4.748250
3.415476,2.948250
5.215476,2.948250
5.215476,4.748250
Z" /> 
</g>
<g style="fill:#5BC3EB; fill-opacity:1.000000; stroke:none;">
<circle cx="4.315476" cy="6.388250" r="0.900000" /> 
<circle cx="4.315476" cy="8.928250" r="0.900000" /> 
<circle cx="4.315476" cy="11.468250" r="0.900000" /> 
<circle cx="4.315476" cy="14.008250" r="0.900000" /> 
<circle cx="4.315476" cy="16.548250" r="0.900000" /> 
<circle cx="4.315476" cy="19.088250" r="0.900000" /> 
<circle cx="4.315476" cy="21.628250" r="0.900000" /> 
<path style="fill:#ED7C33; fill-opacity:1.000000; stroke:none;fill-rule:evenodd;"
d="M 3.415476,4.748250
3.415476,2.948250
5.215476,2.948250
5.215476,4.748250
Z" /> 
</g>
<g style="fill:#ED7C33; fill-opacity:1.000000; stroke:none;">
<circle cx="4.315476" cy="6.388250" r="0.900000" /> 
<circle cx="4.315476" cy="8.928250" r="0.900000" /> 
<circle cx="4.315476" cy="11.468250" r="0.900000" /> 
<circle cx="4.315476" cy="14.008250" r="0.900000" /> 
<circle cx="4.315476" cy="16.548250" r="0.900000" /> 
<circle cx="4.315476" cy="19.088250" r="0.900000" /> 
<circle cx="4.315476" cy="21.628250" r="0.900000" /> 
<path style="fill:#8DCB81; fill-opacity:1.000000; stroke:none;fill-rule:evenodd;"
d="M 3.415476,4.748250
3.415476,2.948250
5.215476,2.948250
5.215476,4.748250
Z" /> 
</g>
<g style="fill:#8DCB81; fill-opacity:1.000000; stroke:none;">
<circle cx="4.315476" cy="6.388250" r="0.900000" /> 
<circle cx="4.315476" cy="8.928250" r="0.900000" /> 
<circle cx="4.315476" cy="11.468250" r="0.900000" /> 
<circle cx="4.315476" cy="14.008250" r="0.900000" /> 
<circle cx="4.315476" cy="16.548250" r="0.900000" /> 
<circle cx="4.315476" cy="19.088250" r="0.900000" /> 
<circle cx="4.315476" cy="21.628250" r="0.900000" /> 
<path style="fill:#F2EDA1; fill-opacity:1.000000; stroke:none;fill-rule:evenodd;"
d="M 3.415476,4.748250
3.415476,2.948250
5.215476,2.948250
5.215476,4.748250
Z" /> 
</g>
<g style="fill:#F2EDA1; fill-opacity:1.000000; stroke:none;">
<circle cx="4.315476" cy="6.388250" r="0.900000" /> 
<circle cx="4.315476" cy="8.928250" r="0.900000" /> 
<circle cx="4.315476" cy="11.468250" r="0.900000" /> 
<circle cx="4.315476" cy="14.008250" r="0.900000" /> 
<circle cx="4.315476" cy="16.548250" r="0.900000" /> 
<circle cx="4.315476" cy="19.088250" r="0.900000" /> 
<circle cx="4.315476" cy="21.628250" r="0.900000" /> 
<path style="fill:#E8B2A7; fill-opacity:1.000000; stroke:none;fill-rule:evenodd;"
d="M 3.415476,4.748250
3.415476,2.948250
5.215476,2.948250
5.215476,4.748250
Z" /> 
</g>
<g style="fill:#E8B2A7; fill-opacity:1.000000; stroke:none;">
<circle cx="4.315476" cy="6.388250" r="0.900000" /> 
<circle cx="4.315476" cy="8.928250" r="0.900000" /> 
<circle cx="4.315476" cy="11.468250" r="0.900000" /> 
<circle cx="4.315476" cy="14.008250" r="0.900000" /> 
<circle cx="4.315476" cy="16.548250" r="0.900000" /> 
<circle cx="4.315476" cy="19.088250" r="0.900000" /> 
<circle cx="4.315476" cy="21.628250" r="0.900000" /> 
<path style="fill:#28CCD9; fill-opacity:1.000000; stroke:none;fill-rule:evenodd;"
d="M 3.415476,4.748250
3.415476,2.948250
5.215476,2.948250
5.215476,4.748250
Z" /> 
</g>
<g style="fill:#28CCD9; fill-opacity:1.000000; stroke:none;">
<circle cx="4.315476" cy="6.388250" r="0.900000" /> 
<circle cx="4.315476" cy="8.928250" r="0.900000" /> 
<circle cx="4.315476" cy="11.468250" r="0.900000" /> 
<circle cx="4.315476" cy="14.008250" r="0.900000" /> 
<circle cx="4.315476" cy="16.548250" r="0.900000" /> 
<circle cx="4.315476" cy="19.088250" r="0.900000" /> 
<circle cx="4.315476" cy="21.628250" r="0.900000" /> 
<path style="fill:#A7A5C6; fill-opacity:1.000000; stroke:none;fill-rule:evenodd;"
d="M 3.415476,4.748250
3.415476,2.948250
5.215476,2.948250
5.215476,4.748250
Z" /> 
</g>
<g style="fill:#A7A5C6; fill-opacity:1.000000; stroke:none;">
<circle cx="4.315476" cy="6.388250" r="0.900000" /> 
<circle cx="4.315476" cy="8.928250" r="0.900000" /> 
<circle cx="4.315476" cy="11.468250" r="0.900000" /> 
<circle cx="4.315476" cy="14.008250" r="0.900000" /> 
<circle cx="4.315476" cy="16.548250" r="0.900000" /> 
<circle cx="4.315476" cy="19.088250" r="0.900000" /> 
<circle cx="4.315476" cy="21.628250" r="0.900000" /> 
<path style="fill:#DB628B; fill-opacity:1.000000; stroke:none;fill-rule:evenodd;"
d="M 3.415476,4.748250
3.415476,2.948250
5.215476,2.948250
5.215476,4.748250
Z" /> 
</g>
<g style="fill:#DB628B; fill-opacity:1.000000; stroke:none;">
<circle cx="4.315476" cy="6.388250" r="0.900000" /> 
<circle cx="4.315476" cy="8.928250" r="0.900000" /> 
<circle cx="4.315476" cy="11.468250" r="0.900000" /> 
<circle cx="4.315476" cy="14.008250" r="0.900000" /> 
<circle cx="4.315476" cy="16.548250" r="0.900000" /> 
<circle cx="4.315476" cy="19.088250" r="0.900000" /> 
<circle cx="4.315476" cy="21.628250" r="0.900000" /> 
<path style="fill:#4FCBCB; fill-opacity:1.000000; stroke:none;fill-rule:evenodd;"
d="M 3.415476,4.748250
3.415476,2.948250
5.215476,2.948250
5.215476,4.748250
Z" /> 
</g>
<g style="fill:#4FCBCB; fill-opacity:1.000000; stroke:none;">
<circle cx="4.315476" cy="6.388250" r="0.900000" /> 
<circle cx="4.315476" cy="8.928250" r="0.900000" /> 
<circle cx="4.315476" cy="11.468250" r="0.900000" /> 
<circle cx="4.315476" cy="14.008250" r="0.900000" /> 
<circle cx="4.315476" cy="16.548250" r="0.900000" /> 
<circle cx="4.315476" cy="19.088250" r="0.900000" /> 
<circle cx="4.315476" cy="21.628250" r="0.900000" /> 
<path style="fill:#CE7D2C; fill-opacity:1.000000; stroke:none;fill-rule:evenodd;"
d="M 3.415476,4.748250
3.415476,2.948250
5.215476,2.948250
5.215476,4.748250
Z" /> 
</g>
<g style="fill:#CE7D2C; fill-opacity:1.000000; stroke:none;">
<circle cx="4.315476" cy="6.388250" r="0.900000" /> 
<circle cx="4.315476" cy="8.928250" r="0.900000" /> 
<circle cx="4.315476" cy="11.468250" r="0.900000" /> 
<circle cx="4.315476" cy="14.008250" r="0.900000" /> 
<circle cx="4.315476" cy="16.548250" r="0.900000" /> 
<circle cx="4.315476" cy="19.088250" r="0.900000" /> 
<circle cx="4.315476" cy="21.628250" r="0.900000" /> 
<path style="fill:#7FC87F; fill-opacity:1.000000; stroke:none;fill-rule:evenodd;"
d="M 3.415476,4.748250
3.415476,2.948250
5.215476,2.948250
5.215476,4.748250
Z" /> 
</g>
<g style="fill:#7FC87F; fill-opacity:1.000000; stroke:none;">
<circle cx="4.315476" cy="6.388250" r="0.900000" /> 
<circle cx="4.315476" cy="8.928250" r="0.900000" /> 
<circle cx="4.315476" cy="11.468250" r="0.900000" /> 
<circle cx="4.315476" cy="14.008250" r="0.900000" /> 
<circle cx="4.315476" cy="16.548250" r="0.900000" /> 
<circle cx="4.315476" cy="19.088250" r="0.900000" /> 
<circle cx="4.315476" cy="21.628250" r="0.900000" /> 
<path style="fill:#C83434; fill-opacity:1.000000; stroke:none;fill-rule:evenodd;"
d="M 3.415476,4.748250
3.415476,2.948250
5.215476,2.948250
5.215476,4.748250
Z" /> 
</g>
<g style="fill:#C83434; fill-opacity:1.000000; stroke:none;">
<circle cx="4.315476" cy="6.388250" r="0.900000" /> 
<circle cx="4.315476" cy="8.928250" r="0.900000" /> 
<circle cx="4.315476" cy="11.468250" r="0.900000" /> 
<circle cx="4.315476" cy="14.008250" r="0.900000" /> 
<circle cx="4.315476" cy="16.548250" r="0.900000" /> 
<circle cx="4.315476" cy="19.088250" r="0.900000" /> 
<circle cx="4.315476" cy="21.628250" r="0.900000" /> 
<path style="fill:#D864FF; fill-opacity:0.400000; stroke:none;fill-rule:evenodd;"
d="M 3.415476,4.748250
3.415476,2.948250
5.215476,2.948250
5.215476,4.748250
Z" /> 
</g>
<g style="fill:#D864FF; fill-opacity:0.400000; stroke:none;">
<circle cx="4.315476" cy="6.388250" r="0.900000" /> 
<circle cx="4.315476" cy="8.928250" r="0.900000" /> 
<circle cx="4.315476" cy="11.468250" r="0.900000" /> 
<circle cx="4.315476" cy="14.008250" r="0.900000" /> 
<circle cx="4.315476" cy="16.548250" r="0.900000" /> 
<circle cx="4.315476" cy="19.088250" r="0.900000" /> 
<circle cx="4.315476" cy="21.628250" r="0.900000" /> 
</g>
<g style="fill:none; 
stroke:#F2EDA1; stroke-width:0.150000; stroke-opacity:1; 
stroke-linecap:round; stroke-linejoin:round;">
<text x="4.315476" y="1.348250"
textLength="4.535715" font-size="1.333333" lengthAdjust="spacingAndGlyphs"
text-anchor="middle" opacity="0" stroke-opacity="0">REF**</text>
<g class="stroked-text"><desc>REF**</desc>
<path d="M2.982143 1.303070
L2.648810 0.826879
" />
<path d="M2.410715 1.303070
L2.410715 0.303070
" />
<path d="M2.410715 0.303070
L2.791667 0.303070
" />
<path d="M2.791667 0.303070
L2.886905 0.350689
" />
<path d="M2.886905 0.350689
L2.934524 0.398308
" />
<path d="M2.934524 0.398308
L2.982143 0.493546
" />
<path d="M2.982143 0.493546
L2.982143 0.636403
" />
<path d="M2.982143 0.636403
L2.934524 0.731641
" />
<path d="M2.934524 0.731641
L2.886905 0.779260
" />
<path d="M2.886905 0.779260
L2.791667 0.826879
" />
<path d="M2.791667 0.826879
L2.410715 0.826879
" />
<path d="M3.410715 0.779260
L3.744048 0.779260
" />
<path d="M3.886905 1.303070
L3.410715 1.303070
" />
<path d="M3.410715 1.303070
L3.410715 0.303070
" />
<path d="M3.410715 0.303070
L3.886905 0.303070
" />
<path d="M4.648809 0.779260
L4.315476 0.779260
" />
<path d="M4.315476 1.303070
L4.315476 0.303070
" />
<path d="M4.315476 0.303070
L4.791666 0.303070
" />
<path d="M5.315476 0.303070
L5.315476 0.541165
" />
<path d="M5.077381 0.445927
L5.315476 0.541165
" />
<path d="M5.315476 0.541165
L5.553571 0.445927
" />
<path d="M5.172619 0.731641
L5.315476 0.541165
" />
<path d="M5.315476 0.541165
L5.458333 0.731641
" />
<path d="M6.077381 0.303070
L6.077381 0.541165
" />
<path d="M5.839286 0.445927
L6.077381 0.541165
" />
<path d="M6.077381 0.541165
L6.315476 0.445927
" />
<path d="M5.934524 0.731641
L6.077381 0.541165
" />
<path d="M6.077381 0.541165
L6.220238 0.731641
" />
</g></g>
<g style="fill:none; 
stroke:#F2EDA1; stroke-width:0.100000; stroke-opacity:1; 
stroke-linecap:round; stroke-linejoin:round;">
<text x="8.815476" y="4.198250"
textLength="3.693333" font-size="0.933333" lengthAdjust="spacingAndGlyphs"
text-anchor="middle" opacity="0" stroke-opacity="0">1: VCC</text>
<g class="stroked-text"><desc>1: VCC</desc>
<path d="M7.582143 4.166883
L7.182143 4.166883
" />
<path d="M7.382143 4.166883
L7.382143 3.466884
" />
<path d="M7.382143 3.466884
L7.315476 3.566884
" />
<path d="M7.315476 3.566884
L7.248810 3.633551
" />
<path d="M7.248810 3.633551
L7.182143 3.666884
" />
<path d="M7.882143 4.100216
L7.915477 4.133550
" />
<path d="M7.915477 4.133550
L7.882143 4.166883
" />
<path d="M7.882143 4.166883
L7.848810 4.133550
" />
<path d="M7.848810 4.133550
L7.882143 4.100216
" />
<path d="M7.882143 4.100216
L7.882143 4.166883
" />
<path d="M7.882143 3.733550
L7.915477 3.766884
" />
<path d="M7.915477 3.766884
L7.882143 3.800217
" />
<path d="M7.882143 3.800217
L7.848810 3.766884
" />
<path d="M7.848810 3.766884
L7.882143 3.733550
" />
<path d="M7.882143 3.733550
L7.882143 3.800217
" />
<path d="M8.648809 3.466884
L8.882143 4.166883
" />
<path d="M8.882143 4.166883
L9.115476 3.466884
" />
<path d="M9.748809 4.100216
L9.715476 4.133550
" />
<path d="M9.715476 4.133550
L9.615476 4.166883
" />
<path d="M9.615476 4.166883
L9.548809 4.166883
" />
<path d="M9.548809 4.166883
L9.448809 4.133550
" />
<path d="M9.448809 4.133550
L9.382143 4.066883
" />
<path d="M9.382143 4.066883
L9.348809 4.000216
" />
<path d="M9.348809 4.000216
L9.315476 3.866883
" />
<path d="M9.315476 3.866883
L9.315476 3.766884
" />
<path d="M9.315476 3.766884
L9.348809 3.633551
" />
<path d="M9.348809 3.633551
L9.382143 3.566884
" />
<path d="M9.382143 3.566884
L9.448809 3.500217
" />
<path d="M9.448809 3.500217
L9.548809 3.466884
" />
<path d="M9.548809 3.466884
L9.615476 3.466884
" />
<path d="M9.615476 3.466884
L9.715476 3.500217
" />
<path d="M9.715476 3.500217
L9.748809 3.533550
" />
<path d="M10.448809 4.100216
L10.415476 4.133550
" />
<path d="M10.415476 4.133550
L10.315476 4.166883
" />
<path d="M10.315476 4.166883
L10.248809 4.166883
" />
<path d="M10.248809 4.166883
L10.148809 4.133550
" />
<path d="M10.148809 4.133550
L10.082143 4.066883
" />
<path d="M10.082143 4.066883
L10.048809 4.000216
" />
<path d="M10.048809 4.000216
L10.015476 3.866883
" />
<path d="M10.015476 3.866883
L10.015476 3.766884
" />
<path d="M10.015476 3.766884
L10.048809 3.633551
" />
<path d="M10.048809 3.633551
L10.082143 3.566884
" />
<path d="M10.082143 3.566884
L10.148809 3.500217
" />
<path d="M10.148809 3.500217
L10.248809 3.466884
" />
<path d="M10.248809 3.466884
L10.315476 3.466884
" />
<path d="M10.315476 3.466884
L10.415476 3.500217
" />
<path d="M10.415476 3.500217
L10.448809 3.533550
" />
</g><text x="8.815476" y="6.738250"
textLength="3.826666" font-size="0.933333" lengthAdjust="spacingAndGlyphs"
text-anchor="middle" opacity="0" stroke-opacity="0">2: GND</text>
<g class="stroked-text"><desc>2: GND</desc>
<path d="M7.115476 6.073550
L7.148809 6.040216
" />
<path d="M7.148809 6.040216
L7.215476 6.006883
" />
<path d="M7.215476 6.006883
L7.382143 6.006883
" />
<path d="M7.382143 6.006883
L7.448809 6.040216
" />
<path d="M7.448809 6.040216
L7.482143 6.073550
" />
<path d="M7.482143 6.073550
L7.515476 6.140216
" />
<path d="M7.515476 6.140216
L7.515476 6.206883
" />
<path d="M7.515476 6.206883
L7.482143 6.306883
" />
<path d="M7.482143 6.306883
L7.082143 6.706883
" />
<path d="M7.082143 6.706883
L7.515476 6.706883
" />
<path d="M7.815476 6.640216
L7.848810 6.673550
" />
<path d="M7.848810 6.673550
L7.815476 6.706883
" />
<path d="M7.815476 6.706883
L7.782143 6.673550
" />
<path d="M7.782143 6.673550
L7.815476 6.640216
" />
<path d="M7.815476 6.640216
L7.815476 6.706883
" />
<path d="M7.815476 6.273550
L7.848810 6.306883
" />
<path d="M7.848810 6.306883
L7.815476 6.340216
" />
<path d="M7.815476 6.340216
L7.782143 6.306883
" />
<path d="M7.782143 6.306883
L7.815476 6.273550
" />
<path d="M7.815476 6.273550
L7.815476 6.340216
" />
<path d="M9.048809 6.040216
L8.982142 6.006883
" />
<path d="M8.982142 6.006883
L8.882142 6.006883
" />
<path d="M8.882142 6.006883
L8.782142 6.040216
" />
<path d="M8.782142 6.040216
L8.715476 6.106883
" />
<path d="M8.715476 6.106883
L8.682142 6.173550
" />
<path d="M8.682142 6.173550
L8.648809 6.306883
" />
<path d="M8.648809 6.306883
L8.648809 6.406883
" />
<path d="M8.648809 6.406883
L8.682142 6.540216
" />
<path d="M8.682142 6.540216
L8.715476 6.606883
" />
<path d="M8.715476 6.606883
L8.782142 6.673550
" />
<path d="M8.782142 6.673550
L8.882142 6.706883
" />
<path d="M8.882142 6.706883
L8.948809 6.706883
" />
<path d="M8.948809 6.706883
L9.048809 6.673550
" />
<path d="M9.048809 6.673550
L9.082142 6.640216
" />
<path d="M9.082142 6.640216
L9.082142 6.406883
" />
<path d="M9.082142 6.406883
L8.948809 6.406883
" />
<path d="M9.382142 6.706883
L9.382142 6.006883
" />
<path d="M9.382142 6.006883
L9.782142 6.706883
" />
<path d="M9.782142 6.706883
L9.782142 6.006883
" />
<path d="M10.115475 6.706883
L10.115475 6.006883
" />
<path d="M10.115475 6.006883
L10.282142 6.006883
" />
<path d="M10.282142 6.006883
L10.382142 6.040216
" />
<path d="M10.382142 6.040216
L10.448809 6.106883
" />
<path d="M10.448809 6.106883
L10.482142 6.173550
" />
<path d="M10.482142 6.173550
L10.515475 6.306883
" />
<path d="M10.515475 6.306883
L10.515475 6.406883
" />
<path d="M10.515475 6.406883
L10.482142 6.540216
" />
<path d="M10.482142 6.540216
L10.448809 6.606883
" />
<path d="M10.448809 6.606883
L10.382142 6.673550
" />
<path d="M10.382142 6.673550
L10.282142 6.706883
" />
<path d="M10.282142 6.706883
L10.115475 6.706883
" />
</g><text x="8.815476" y="9.278250"
textLength="3.393333" font-size="0.933333" lengthAdjust="spacingAndGlyphs"
text-anchor="middle" opacity="0" stroke-opacity="0">3: SDI</text>
<g class="stroked-text"><desc>3: SDI</desc>
<path d="M7.298810 8.546883
L7.732143 8.546883
" />
<path d="M7.732143 8.546883
L7.498810 8.813550
" />
<path d="M7.498810 8.813550
L7.598810 8.813550
" />
<path d="M7.598810 8.813550
L7.665476 8.846883
" />
<path d="M7.665476 8.846883
L7.698810 8.880216
" />
<path d="M7.698810 8.880216
L7.732143 8.946883
" />
<path d="M7.732143 8.946883
L7.732143 9.113550
" />
<path d="M7.732143 9.113550
L7.698810 9.180216
" />
<path d="M7.698810 9.180216
L7.665476 9.213550
" />
<path d="M7.665476 9.213550
L7.598810 9.246883
" />
<path d="M7.598810 9.246883
L7.398810 9.246883
" />
<path d="M7.398810 9.246883
L7.332143 9.213550
" />
<path d="M7.332143 9.213550
L7.298810 9.180216
" />
<path d="M8.032143 9.180216
L8.065477 9.213550
" />
<path d="M8.065477 9.213550
L8.032143 9.246883
" />
<path d="M8.032143 9.246883
L7.998810 9.213550
" />
<path d="M7.998810 9.213550
L8.032143 9.180216
" />
<path d="M8.032143 9.180216
L8.032143 9.246883
" />
<path d="M8.032143 8.813550
L8.065477 8.846883
" />
<path d="M8.065477 8.846883
L8.032143 8.880216
" />
<path d="M8.032143 8.880216
L7.998810 8.846883
" />
<path d="M7.998810 8.846883
L8.032143 8.813550
" />
<path d="M8.032143 8.813550
L8.032143 8.880216
" />
<path d="M8.865476 9.213550
L8.965476 9.246883
" />
<path d="M8.965476 9.246883
L9.132143 9.246883
" />
<path d="M9.132143 9.246883
L9.198809 9.213550
" />
<path d="M9.198809 9.213550
L9.232143 9.180216
" />
<path d="M9.232143 9.180216
L9.265476 9.113550
" />
<path d="M9.265476 9.113550
L9.265476 9.046883
" />
<path d="M9.265476 9.046883
L9.232143 8.980216
" />
<path d="M9.232143 8.980216
L9.198809 8.946883
" />
<path d="M9.198809 8.946883
L9.132143 8.913550
" />
<path d="M9.132143 8.913550
L8.998809 8.880216
" />
<path d="M8.998809 8.880216
L8.932143 8.846883
" />
<path d="M8.932143 8.846883
L8.898809 8.813550
" />
<path d="M8.898809 8.813550
L8.865476 8.746883
" />
<path d="M8.865476 8.746883
L8.865476 8.680216
" />
<path d="M8.865476 8.680216
L8.898809 8.613550
" />
<path d="M8.898809 8.613550
L8.932143 8.580216
" />
<path d="M8.932143 8.580216
L8.998809 8.546883
" />
<path d="M8.998809 8.546883
L9.165476 8.546883
" />
<path d="M9.165476 8.546883
L9.265476 8.580216
" />
<path d="M9.565476 9.246883
L9.565476 8.546883
" />
<path d="M9.565476 8.546883
L9.732143 8.546883
" />
<path d="M9.732143 8.546883
L9.832143 8.580216
" />
<path d="M9.832143 8.580216
L9.898810 8.646883
" />
<path d="M9.898810 8.646883
L9.932143 8.713550
" />
<path d="M9.932143 8.713550
L9.965476 8.846883
" />
<path d="M9.965476 8.846883
L9.965476 8.946883
" />
<path d="M9.965476 8.946883
L9.932143 9.080216
" />
<path d="M9.932143 9.080216
L9.898810 9.146883
" />
<path d="M9.898810 9.146883
L9.832143 9.213550
" />
<path d="M9.832143 9.213550
L9.732143 9.246883
" />
<path d="M9.732143 9.246883
L9.565476 9.246883
" />
<path d="M10.265476 9.246883
L10.265476 8.546883
" />
</g><text x="9.315476" y="11.818250"
textLength="4.326667" font-size="0.933333" lengthAdjust="spacingAndGlyphs"
text-anchor="middle" opacity="0" stroke-opacity="0">4: SCLK</text>
<g class="stroked-text"><desc>4: SCLK</desc>
<path d="M7.698809 11.320216
L7.698809 11.786883
" />
<path d="M7.532143 11.053550
L7.365476 11.553550
" />
<path d="M7.365476 11.553550
L7.798809 11.553550
" />
<path d="M8.065476 11.720216
L8.098810 11.753550
" />
<path d="M8.098810 11.753550
L8.065476 11.786883
" />
<path d="M8.065476 11.786883
L8.032143 11.753550
" />
<path d="M8.032143 11.753550
L8.065476 11.720216
" />
<path d="M8.065476 11.720216
L8.065476 11.786883
" />
<path d="M8.065476 11.353550
L8.098810 11.386883
" />
<path d="M8.098810 11.386883
L8.065476 11.420216
" />
<path d="M8.065476 11.420216
L8.032143 11.386883
" />
<path d="M8.032143 11.386883
L8.065476 11.353550
" />
<path d="M8.065476 11.353550
L8.065476 11.420216
" />
<path d="M8.898809 11.753550
L8.998809 11.786883
" />
<path d="M8.998809 11.786883
L9.165476 11.786883
" />
<path d="M9.165476 11.786883
L9.232142 11.753550
" />
<path d="M9.232142 11.753550
L9.265476 11.720216
" />
<path d="M9.265476 11.720216
L9.298809 11.653550
" />
<path d="M9.298809 11.653550
L9.298809 11.586883
" />
<path d="M9.298809 11.586883
L9.265476 11.520216
" />
<path d="M9.265476 11.520216
L9.232142 11.486883
" />
<path d="M9.232142 11.486883
L9.165476 11.453550
" />
<path d="M9.165476 11.453550
L9.032142 11.420216
" />
<path d="M9.032142 11.420216
L8.965476 11.386883
" />
<path d="M8.965476 11.386883
L8.932142 11.353550
" />
<path d="M8.932142 11.353550
L8.898809 11.286883
" />
<path d="M8.898809 11.286883
L8.898809 11.220216
" />
<path d="M8.898809 11.220216
L8.932142 11.153550
" />
<path d="M8.932142 11.153550
L8.965476 11.120216
" />
<path d="M8.965476 11.120216
L9.032142 11.086883
" />
<path d="M9.032142 11.086883
L9.198809 11.086883
" />
<path d="M9.198809 11.086883
L9.298809 11.120216
" />
<path d="M9.998809 11.720216
L9.965476 11.753550
" />
<path d="M9.965476 11.753550
L9.865476 11.786883
" />
<path d="M9.865476 11.786883
L9.798809 11.786883
" />
<path d="M9.798809 11.786883
L9.698809 11.753550
" />
<path d="M9.698809 11.753550
L9.632143 11.686883
" />
<path d="M9.632143 11.686883
L9.598809 11.620216
" />
<path d="M9.598809 11.620216
L9.565476 11.486883
" />
<path d="M9.565476 11.486883
L9.565476 11.386883
" />
<path d="M9.565476 11.386883
L9.598809 11.253550
" />
<path d="M9.598809 11.253550
L9.632143 11.186883
" />
<path d="M9.632143 11.186883
L9.698809 11.120216
" />
<path d="M9.698809 11.120216
L9.798809 11.086883
" />
<path d="M9.798809 11.086883
L9.865476 11.086883
" />
<path d="M9.865476 11.086883
L9.965476 11.120216
" />
<path d="M9.965476 11.120216
L9.998809 11.153550
" />
<path d="M10.632143 11.786883
L10.298809 11.786883
" />
<path d="M10.298809 11.786883
L10.298809 11.086883
" />
<path d="M10.865476 11.786883
L10.865476 11.086883
" />
<path d="M11.265476 11.786883
L10.965476 11.386883
" />
<path d="M11.265476 11.086883
L10.865476 11.486883
" />
</g><text x="8.815476" y="14.358250"
textLength="3.060000" font-size="0.933333" lengthAdjust="spacingAndGlyphs"
text-anchor="middle" opacity="0" stroke-opacity="0">5: CS</text>
<g class="stroked-text"><desc>5: CS</desc>
<path d="M7.865476 13.626883
L7.532142 13.626883
" />
<path d="M7.532142 13.626883
L7.498809 13.960216
" />
<path d="M7.498809 13.960216
L7.532142 13.926883
" />
<path d="M7.532142 13.926883
L7.598809 13.893550
" />
<path d="M7.598809 13.893550
L7.765476 13.893550
" />
<path d="M7.765476 13.893550
L7.832142 13.926883
" />
<path d="M7.832142 13.926883
L7.865476 13.960216
" />
<path d="M7.865476 13.960216
L7.898809 14.026883
" />
<path d="M7.898809 14.026883
L7.898809 14.193550
" />
<path d="M7.898809 14.193550
L7.865476 14.260216
" />
<path d="M7.865476 14.260216
L7.832142 14.293550
" />
<path d="M7.832142 14.293550
L7.765476 14.326883
" />
<path d="M7.765476 14.326883
L7.598809 14.326883
" />
<path d="M7.598809 14.326883
L7.532142 14.293550
" />
<path d="M7.532142 14.293550
L7.498809 14.260216
" />
<path d="M8.198809 14.260216
L8.232143 14.293550
" />
<path d="M8.232143 14.293550
L8.198809 14.326883
" />
<path d="M8.198809 14.326883
L8.165476 14.293550
" />
<path d="M8.165476 14.293550
L8.198809 14.260216
" />
<path d="M8.198809 14.260216
L8.198809 14.326883
" />
<path d="M8.198809 13.893550
L8.232143 13.926883
" />
<path d="M8.232143 13.926883
L8.198809 13.960216
" />
<path d="M8.198809 13.960216
L8.165476 13.926883
" />
<path d="M8.165476 13.926883
L8.198809 13.893550
" />
<path d="M8.198809 13.893550
L8.198809 13.960216
" />
<path d="M9.465475 14.260216
L9.432142 14.293550
" />
<path d="M9.432142 14.293550
L9.332142 14.326883
" />
<path d="M9.332142 14.326883
L9.265475 14.326883
" />
<path d="M9.265475 14.326883
L9.165475 14.293550
" />
<path d="M9.165475 14.293550
L9.098809 14.226883
" />
<path d="M9.098809 14.226883
L9.065475 14.160216
" />
<path d="M9.065475 14.160216
L9.032142 14.026883
" />
<path d="M9.032142 14.026883
L9.032142 13.926883
" />
<path d="M9.032142 13.926883
L9.065475 13.793550
" />
<path d="M9.065475 13.793550
L9.098809 13.726883
" />
<path d="M9.098809 13.726883
L9.165475 13.660216
" />
<path d="M9.165475 13.660216
L9.265475 13.626883
" />
<path d="M9.265475 13.626883
L9.332142 13.626883
" />
<path d="M9.332142 13.626883
L9.432142 13.660216
" />
<path d="M9.432142 13.660216
L9.465475 13.693550
" />
<path d="M9.732142 14.293550
L9.832142 14.326883
" />
<path d="M9.832142 14.326883
L9.998809 14.326883
" />
<path d="M9.998809 14.326883
L10.065475 14.293550
" />
<path d="M10.065475 14.293550
L10.098809 14.260216
" />
<path d="M10.098809 14.260216
L10.132142 14.193550
" />
<path d="M10.132142 14.193550
L10.132142 14.126883
" />
<path d="M10.132142 14.126883
L10.098809 14.060216
" />
<path d="M10.098809 14.060216
L10.065475 14.026883
" />
<path d="M10.065475 14.026883
L9.998809 13.993550
" />
<path d="M9.998809 13.993550
L9.865475 13.960216
" />
<path d="M9.865475 13.960216
L9.798809 13.926883
" />
<path d="M9.798809 13.926883
L9.765475 13.893550
" />
<path d="M9.765475 13.893550
L9.732142 13.826883
" />
<path d="M9.732142 13.826883
L9.732142 13.760216
" />
<path d="M9.732142 13.760216
L9.765475 13.693550
" />
<path d="M9.765475 13.693550
L9.798809 13.660216
" />
<path d="M9.798809 13.660216
L9.865475 13.626883
" />
<path d="M9.865475 13.626883
L10.032142 13.626883
" />
<path d="M10.032142 13.626883
L10.132142 13.660216
" />
</g><text x="8.815476" y="16.898250"
textLength="3.826666" font-size="0.933333" lengthAdjust="spacingAndGlyphs"
text-anchor="middle" opacity="0" stroke-opacity="0">6: D/C</text>
<g class="stroked-text"><desc>6: D/C</desc>
<path d="M7.448809 16.166883
L7.315476 16.166883
" />
<path d="M7.315476 16.166883
L7.248809 16.200216
" />
<path d="M7.248809 16.200216
L7.215476 16.233550
" />
<path d="M7.215476 16.233550
L7.148809 16.333550
" />
<path d="M7.148809 16.333550
L7.115476 16.466883
" />
<path d="M7.115476 16.466883
L7.115476 16.733550
" />
<path d="M7.115476 16.733550
L7.148809 16.800216
" />
<path d="M7.148809 16.800216
L7.182143 16.833550
" />
<path d="M7.182143 16.833550
L7.248809 16.866883
" />
<path d="M7.248809 16.866883
L7.382143 16.866883
" />
<path d="M7.382143 16.866883
L7.448809 16.833550
" />
<path d="M7.448809 16.833550
L7.482143 16.800216
" />
<path d="M7.482143 16.800216
L7.515476 16.733550
" />
<path d="M7.515476 16.733550
L7.515476 16.566883
" />
<path d="M7.515476 16.566883
L7.482143 16.500216
" />
<path d="M7.482143 16.500216
L7.448809 16.466883
" />
<path d="M7.448809 16.466883
L7.382143 16.433550
" />
<path d="M7.382143 16.433550
L7.248809 16.433550
" />
<path d="M7.248809 16.433550
L7.182143 16.466883
" />
<path d="M7.182143 16.466883
L7.148809 16.500216
" />
<path d="M7.148809 16.500216
L7.115476 16.566883
" />
<path d="M7.815476 16.800216
L7.848810 16.833550
" />
<path d="M7.848810 16.833550
L7.815476 16.866883
" />
<path d="M7.815476 16.866883
L7.782143 16.833550
" />
<path d="M7.782143 16.833550
L7.815476 16.800216
" />
<path d="M7.815476 16.800216
L7.815476 16.866883
" />
<path d="M7.815476 16.433550
L7.848810 16.466883
" />
<path d="M7.848810 16.466883
L7.815476 16.500216
" />
<path d="M7.815476 16.500216
L7.782143 16.466883
" />
<path d="M7.782143 16.466883
L7.815476 16.433550
" />
<path d="M7.815476 16.433550
L7.815476 16.500216
" />
<path d="M8.682142 16.866883
L8.682142 16.166883
" />
<path d="M8.682142 16.166883
L8.848809 16.166883
" />
<path d="M8.848809 16.166883
L8.948809 16.200216
" />
<path d="M8.948809 16.200216
L9.015476 16.266883
" />
<path d="M9.015476 16.266883
L9.048809 16.333550
" />
<path d="M9.048809 16.333550
L9.082142 16.466883
" />
<path d="M9.082142 16.466883
L9.082142 16.566883
" />
<path d="M9.082142 16.566883
L9.048809 16.700216
" />
<path d="M9.048809 16.700216
L9.015476 16.766883
" />
<path d="M9.015476 16.766883
L8.948809 16.833550
" />
<path d="M8.948809 16.833550
L8.848809 16.866883
" />
<path d="M8.848809 16.866883
L8.682142 16.866883
" />
<path d="M9.882142 16.133550
L9.282142 17.033550
" />
<path d="M10.515475 16.800216
L10.482142 16.833550
" />
<path d="M10.482142 16.833550
L10.382142 16.866883
" />
<path d="M10.382142 16.866883
L10.315475 16.866883
" />
<path d="M10.315475 16.866883
L10.215475 16.833550
" />
<path d="M10.215475 16.833550
L10.148809 16.766883
" />
<path d="M10.148809 16.766883
L10.115475 16.700216
" />
<path d="M10.115475 16.700216
L10.082142 16.566883
" />
<path d="M10.082142 16.566883
L10.082142 16.466883
" />
<path d="M10.082142 16.466883
L10.115475 16.333550
" />
<path d="M10.115475 16.333550
L10.148809 16.266883
" />
<path d="M10.148809 16.266883
L10.215475 16.200216
" />
<path d="M10.215475 16.200216
L10.315475 16.166883
" />
<path d="M10.315475 16.166883
L10.382142 16.166883
" />
<path d="M10.382142 16.166883
L10.482142 16.200216
" />
<path d="M10.482142 16.200216
L10.515475 16.233550
" />
</g><text x="8.815476" y="19.438250"
textLength="3.693333" font-size="0.933333" lengthAdjust="spacingAndGlyphs"
text-anchor="middle" opacity="0" stroke-opacity="0">7: RES</text>
<g class="stroked-text"><desc>7: RES</desc>
<path d="M7.148810 18.706883
L7.615476 18.706883
" />
<path d="M7.615476 18.706883
L7.315476 19.406883
" />
<path d="M7.882143 19.340216
L7.915477 19.373550
" />
<path d="M7.915477 19.373550
L7.882143 19.406883
" />
<path d="M7.882143 19.406883
L7.848810 19.373550
" />
<path d="M7.848810 19.373550
L7.882143 19.340216
" />
<path d="M7.882143 19.340216
L7.882143 19.406883
" />
<path d="M7.882143 18.973550
L7.915477 19.006883
" />
<path d="M7.915477 19.006883
L7.882143 19.040216
" />
<path d="M7.882143 19.040216
L7.848810 19.006883
" />
<path d="M7.848810 19.006883
L7.882143 18.973550
" />
<path d="M7.882143 18.973550
L7.882143 19.040216
" />
<path d="M9.148809 19.406883
L8.915476 19.073550
" />
<path d="M8.748809 19.406883
L8.748809 18.706883
" />
<path d="M8.748809 18.706883
L9.015476 18.706883
" />
<path d="M9.015476 18.706883
L9.082143 18.740216
" />
<path d="M9.082143 18.740216
L9.115476 18.773550
" />
<path d="M9.115476 18.773550
L9.148809 18.840216
" />
<path d="M9.148809 18.840216
L9.148809 18.940216
" />
<path d="M9.148809 18.940216
L9.115476 19.006883
" />
<path d="M9.115476 19.006883
L9.082143 19.040216
" />
<path d="M9.082143 19.040216
L9.015476 19.073550
" />
<path d="M9.015476 19.073550
L8.748809 19.073550
" />
<path d="M9.448809 19.040216
L9.682143 19.040216
" />
<path d="M9.782143 19.406883
L9.448809 19.406883
" />
<path d="M9.448809 19.406883
L9.448809 18.706883
" />
<path d="M9.448809 18.706883
L9.782143 18.706883
" />
<path d="M10.048809 19.373550
L10.148809 19.406883
" />
<path d="M10.148809 19.406883
L10.315476 19.406883
" />
<path d="M10.315476 19.406883
L10.382142 19.373550
" />
<path d="M10.382142 19.373550
L10.415476 19.340216
" />
<path d="M10.415476 19.340216
L10.448809 19.273550
" />
<path d="M10.448809 19.273550
L10.448809 19.206883
" />
<path d="M10.448809 19.206883
L10.415476 19.140216
" />
<path d="M10.415476 19.140216
L10.382142 19.106883
" />
<path d="M10.382142 19.106883
L10.315476 19.073550
" />
<path d="M10.315476 19.073550
L10.182142 19.040216
" />
<path d="M10.182142 19.040216
L10.115476 19.006883
" />
<path d="M10.115476 19.006883
L10.082142 18.973550
" />
<path d="M10.082142 18.973550
L10.048809 18.906883
" />
<path d="M10.048809 18.906883
L10.048809 18.840216
" />
<path d="M10.048809 18.840216
L10.082142 18.773550
" />
<path d="M10.082142 18.773550
L10.115476 18.740216
" />
<path d="M10.115476 18.740216
L10.182142 18.706883
" />
<path d="M10.182142 18.706883
L10.348809 18.706883
" />
<path d="M10.348809 18.706883
L10.448809 18.740216
" />
</g><text x="9.315476" y="21.978250"
textLength="4.393333" font-size="0.933333" lengthAdjust="spacingAndGlyphs"
text-anchor="middle" opacity="0" stroke-opacity="0">8: BUSY</text>
<g class="stroked-text"><desc>8: BUSY</desc>
<path d="M7.465476 21.546883
L7.398810 21.513550
" />
<path d="M7.398810 21.513550
L7.365476 21.480216
" />
<path d="M7.365476 21.480216
L7.332143 21.413550
" />
<path d="M7.332143 21.413550
L7.332143 21.380216
" />
<path d="M7.332143 21.380216
L7.365476 21.313550
" />
<path d="M7.365476 21.313550
L7.398810 21.280216
" />
<path d="M7.398810 21.280216
L7.465476 21.246883
" />
<path d="M7.465476 21.246883
L7.598810 21.246883
" />
<path d="M7.598810 21.246883
L7.665476 21.280216
" />
<path d="M7.665476 21.280216
L7.698810 21.313550
" />
<path d="M7.698810 21.313550
L7.732143 21.380216
" />
<path d="M7.732143 21.380216
L7.732143 21.413550
" />
<path d="M7.732143 21.413550
L7.698810 21.480216
" />
<path d="M7.698810 21.480216
L7.665476 21.513550
" />
<path d="M7.665476 21.513550
L7.598810 21.546883
" />
<path d="M7.598810 21.546883
L7.465476 21.546883
" />
<path d="M7.465476 21.546883
L7.398810 21.580216
" />
<path d="M7.398810 21.580216
L7.365476 21.613550
" />
<path d="M7.365476 21.613550
L7.332143 21.680216
" />
<path d="M7.332143 21.680216
L7.332143 21.813550
" />
<path d="M7.332143 21.813550
L7.365476 21.880216
" />
<path d="M7.365476 21.880216
L7.398810 21.913550
" />
<path d="M7.398810 21.913550
L7.465476 21.946883
" />
<path d="M7.465476 21.946883
L7.598810 21.946883
" />
<path d="M7.598810 21.946883
L7.665476 21.913550
" />
<path d="M7.665476 21.913550
L7.698810 21.880216
" />
<path d="M7.698810 21.880216
L7.732143 21.813550
" />
<path d="M7.732143 21.813550
L7.732143 21.680216
" />
<path d="M7.732143 21.680216
L7.698810 21.613550
" />
<path d="M7.698810 21.613550
L7.665476 21.580216
" />
<path d="M7.665476 21.580216
L7.598810 21.546883
" />
<path d="M8.032143 21.880216
L8.065477 21.913550
" />
<path d="M8.065477 21.913550
L8.032143 21.946883
" />
<path d="M8.032143 21.946883
L7.998810 21.913550
" />
<path d="M7.998810 21.913550
L8.032143 21.880216
" />
<path d="M8.032143 21.880216
L8.032143 21.946883
" />
<path d="M8.032143 21.513550
L8.065477 21.546883
" />
<path d="M8.065477 21.546883
L8.032143 21.580216
" />
<path d="M8.032143 21.580216
L7.998810 21.546883
" />
<path d="M7.998810 21.546883
L8.032143 21.513550
" />
<path d="M8.032143 21.513550
L8.032143 21.580216
" />
<path d="M9.132143 21.580216
L9.232143 21.613550
" />
<path d="M9.232143 21.613550
L9.265476 21.646883
" />
<path d="M9.265476 21.646883
L9.298809 21.713550
" />
<path d="M9.298809 21.713550
L9.298809 21.813550
" />
<path d="M9.298809 21.813550
L9.265476 21.880216
" />
<path d="M9.265476 21.880216
L9.232143 21.913550
" />
<path d="M9.232143 21.913550
L9.165476 21.946883
" />
<path d="M9.165476 21.946883
L8.898809 21.946883
" />
<path d="M8.898809 21.946883
L8.898809 21.246883
" />
<path d="M8.898809 21.246883
L9.132143 21.246883
" />
<path d="M9.132143 21.246883
L9.198809 21.280216
" />
<path d="M9.198809 21.280216
L9.232143 21.313550
" />
<path d="M9.232143 21.313550
L9.265476 21.380216
" />
<path d="M9.265476 21.380216
L9.265476 21.446883
" />
<path d="M9.265476 21.446883
L9.232143 21.513550
" />
<path d="M9.232143 21.513550
L9.198809 21.546883
" />
<path d="M9.198809 21.546883
L9.132143 21.580216
" />
<path d="M9.132143 21.580216
L8.898809 21.580216
" />
<path d="M9.598809 21.246883
L9.598809 21.813550
" />
<path d="M9.598809 21.813550
L9.632143 21.880216
" />
<path d="M9.632143 21.880216
L9.665476 21.913550
" />
<path d="M9.665476 21.913550
L9.732143 21.946883
" />
<path d="M9.732143 21.946883
L9.865476 21.946883
" />
<path d="M9.865476 21.946883
L9.932143 21.913550
" />
<path d="M9.932143 21.913550
L9.965476 21.880216
" />
<path d="M9.965476 21.880216
L9.998809 21.813550
" />
<path d="M9.998809 21.813550
L9.998809 21.246883
" />
<path d="M10.298809 21.913550
L10.398809 21.946883
" />
<path d="M10.398809 21.946883
L10.565476 21.946883
" />
<path d="M10.565476 21.946883
L10.632142 21.913550
" />
<path d="M10.632142 21.913550
L10.665476 21.880216
" />
<path d="M10.665476 21.880216
L10.698809 21.813550
" />
<path d="M10.698809 21.813550
L10.698809 21.746883
" />
<path d="M10.698809 21.746883
L10.665476 21.680216
" />
<path d="M10.665476 21.680216
L10.632142 21.646883
" />
<path d="M10.632142 21.646883
L10.565476 21.613550
" />
<path d="M10.565476 21.613550
L10.432142 21.580216
" />
<path d="M10.432142 21.580216
L10.365476 21.546883
" />
<path d="M10.365476 21.546883
L10.332142 21.513550
" />
<path d="M10.332142 21.513550
L10.298809 21.446883
" />
<path d="M10.298809 21.446883
L10.298809 21.380216
" />
<path d="M10.298809 21.380216
L10.332142 21.313550
" />
<path d="M10.332142 21.313550
L10.365476 21.280216
" />
<path d="M10.365476 21.280216
L10.432142 21.246883
" />
<path d="M10.432142 21.246883
L10.598809 21.246883
" />
<path d="M10.598809 21.246883
L10.698809 21.280216
" />
<path d="M11.132143 21.613550
L11.132143 21.946883
" />
<path d="M10.898809 21.246883
L11.132143 21.613550
" />
<path d="M11.132143 21.613550
L11.365476 21.246883
" />
</g><path style="fill:none; 
stroke:#F2EDA1; stroke-width:0.150000; stroke-opacity:1; 
stroke-linecap:round; stroke-linejoin:round;fill:none"
d="M 1.815476,2.048250
6.815476,2.048250
6.815476,23.428250
1.815476,23.428250
Z" /> 
</g>
<g style="fill:none; 
stroke:#AFAFAF; stroke-width:0.150000; stroke-opacity:1; 
stroke-linecap:round; stroke-linejoin:round;">
<text x="4.315476" y="25.348250"
textLength="8.630952" font-size="1.333333" lengthAdjust="spacingAndGlyphs"
text-anchor="middle" opacity="0" stroke-opacity="0">EPD_2.13in</text>
<g class="stroked-text"><desc>EPD_2.13in</desc>
<path d="M0.363096 24.779259
L0.696429 24.779259
" />
<path d="M0.839286 25.303069
L0.363096 25.303069
" />
<path d="M0.363096 25.303069
L0.363096 24.303069
" />
<path d="M0.363096 24.303069
L0.839286 24.303069
" />
<path d="M1.267858 25.303069
L1.267858 24.303069
" />
<path d="M1.267858 24.303069
L1.648810 24.303069
" />
<path d="M1.648810 24.303069
L1.744048 24.350688
" />
<path d="M1.744048 24.350688
L1.791667 24.398307
" />
<path d="M1.791667 24.398307
L1.839286 24.493545
" />
<path d="M1.839286 24.493545
L1.839286 24.636402
" />
<path d="M1.839286 24.636402
L1.791667 24.731640
" />
<path d="M1.791667 24.731640
L1.744048 24.779259
" />
<path d="M1.744048 24.779259
L1.648810 24.826878
" />
<path d="M1.648810 24.826878
L1.267858 24.826878
" />
<path d="M2.267858 25.303069
L2.267858 24.303069
" />
<path d="M2.267858 24.303069
L2.505953 24.303069
" />
<path d="M2.505953 24.303069
L2.648810 24.350688
" />
<path d="M2.648810 24.350688
L2.744048 24.445926
" />
<path d="M2.744048 24.445926
L2.791667 24.541164
" />
<path d="M2.791667 24.541164
L2.839286 24.731640
" />
<path d="M2.839286 24.731640
L2.839286 24.874497
" />
<path d="M2.839286 24.874497
L2.791667 25.064973
" />
<path d="M2.791667 25.064973
L2.744048 25.160211
" />
<path d="M2.744048 25.160211
L2.648810 25.255450
" />
<path d="M2.648810 25.255450
L2.505953 25.303069
" />
<path d="M2.505953 25.303069
L2.267858 25.303069
" />
<path d="M3.029762 25.398307
L3.791667 25.398307
" />
<path d="M3.982144 24.398307
L4.029763 24.350688
" />
<path d="M4.029763 24.350688
L4.125001 24.303069
" />
<path d="M4.125001 24.303069
L4.363095 24.303069
" />
<path d="M4.363095 24.303069
L4.458333 24.350688
" />
<path d="M4.458333 24.350688
L4.505952 24.398307
" />
<path d="M4.505952 24.398307
L4.553571 24.493545
" />
<path d="M4.553571 24.493545
L4.553571 24.588783
" />
<path d="M4.553571 24.588783
L4.505952 24.731640
" />
<path d="M4.505952 24.731640
L3.934525 25.303069
" />
<path d="M3.934525 25.303069
L4.553571 25.303069
" />
<path d="M4.982143 25.207830
L5.029762 25.255450
" />
<path d="M5.029762 25.255450
L4.982143 25.303069
" />
<path d="M4.982143 25.303069
L4.934524 25.255450
" />
<path d="M4.934524 25.255450
L4.982143 25.207830
" />
<path d="M4.982143 25.207830
L4.982143 25.303069
" />
<path d="M5.982142 25.303069
L5.410714 25.303069
" />
<path d="M5.696428 25.303069
L5.696428 24.303069
" />
<path d="M5.696428 24.303069
L5.601190 24.445926
" />
<path d="M5.601190 24.445926
L5.505952 24.541164
" />
<path d="M5.505952 24.541164
L5.410714 24.588783
" />
<path d="M6.315476 24.303069
L6.934523 24.303069
" />
<path d="M6.934523 24.303069
L6.601190 24.684021
" />
<path d="M6.601190 24.684021
L6.744047 24.684021
" />
<path d="M6.744047 24.684021
L6.839285 24.731640
" />
<path d="M6.839285 24.731640
L6.886904 24.779259
" />
<path d="M6.886904 24.779259
L6.934523 24.874497
" />
<path d="M6.934523 24.874497
L6.934523 25.112592
" />
<path d="M6.934523 25.112592
L6.886904 25.207830
" />
<path d="M6.886904 25.207830
L6.839285 25.255450
" />
<path d="M6.839285 25.255450
L6.744047 25.303069
" />
<path d="M6.744047 25.303069
L6.458333 25.303069
" />
<path d="M6.458333 25.303069
L6.363095 25.255450
" />
<path d="M6.363095 25.255450
L6.315476 25.207830
" />
<path d="M7.363095 25.303069
L7.363095 24.636402
" />
<path d="M7.363095 24.303069
L7.315476 24.350688
" />
<path d="M7.315476 24.350688
L7.363095 24.398307
" />
<path d="M7.363095 24.398307
L7.410714 24.350688
" />
<path d="M7.410714 24.350688
L7.363095 24.303069
" />
<path d="M7.363095 24.303069
L7.363095 24.398307
" />
<path d="M7.839285 24.636402
L7.839285 25.303069
" />
<path d="M7.839285 24.731640
L7.886904 24.684021
" />
<path d="M7.886904 24.684021
L7.982142 24.636402
" />
<path d="M7.982142 24.636402
L8.124999 24.636402
" />
<path d="M8.124999 24.636402
L8.220237 24.684021
" />
<path d="M8.220237 24.684021
L8.267856 24.779259
" />
<path d="M8.267856 24.779259
L8.267856 25.303069
" />
</g></g>
<g style="fill:#FFFFFF; fill-opacity:1.000000; stroke:none;">
<circle cx="4.315476" cy="3.848250" r="0.500000" /> 
</g>
<g style="fill:#FFFFFF; fill-opacity:1.000000; stroke:none;">
<circle cx="4.315476" cy="6.388250" r="0.500000" /> 
</g>
<g style="fill:#FFFFFF; fill-opacity:1.000000; stroke:none;">
<circle cx="4.315476" cy="8.928250" r="0.500000" /> 
</g>
<g style="fill:#FFFFFF; fill-opacity:1.000000; stroke:none;">
<circle cx="4.315476" cy="11.468250" r="0.500000" /> 
</g>
<g style="fill:#FFFFFF; fill-opacity:1.000000; stroke:none;">
<circle cx="4.315476" cy="14.008250" r="0.500000" /> 
</g>
<g style="fill:#FFFFFF; fill-opacity:1.000000; stroke:none;">
<circle cx="4.315476" cy="16.548250" r="0.500000" /> 
</g>
<g style="fill:#FFFFFF; fill-opacity:1.000000; stroke:none;">
<circle cx="4.315476" cy="19.088250" r="0.500000" /> 
</g>
<g style="fill:#FFFFFF; fill-opacity:1.000000; stroke:none;">
<circle cx="4.315476" cy="21.628250" r="0.500000" /> 
</g> 
</svg>
