%TF.GenerationSoftware,KiCad,Pcbnew,10.0.6*%
%TF.CreationDate,2026-10-05T04:48:33+07:00*%
%TF.ProjectId,action_block,61637469-6f6e-45f6-926c-6f636b2e6b69,rev?*%
%TF.SameCoordinates,Original*%
%TF.FileFunction,Copper,L1,Top*%
%TF.FilePolarity,Positive*%
%FSLAX46Y46*%
G04 Gerber Fmt 4.6, Leading zero omitted, Abs format (unit mm)*
G04 Created by KiCad (PCBNEW 10.0.6) date 2026-10-05 04:48:33*
%MOMM*%
%LPD*%
G01*
G04 APERTURE LIST*
%TA.AperFunction,ComponentPad*%
%ADD10R,2.000000X2.000000*%
%TD*%
%TA.AperFunction,ComponentPad*%
%ADD11C,2.000000*%
%TD*%
%TA.AperFunction,ComponentPad*%
%ADD12R,1.800000X1.800000*%
%TD*%
%TA.AperFunction,ComponentPad*%
%ADD13C,1.800000*%
%TD*%
%TA.AperFunction,ComponentPad*%
%ADD14R,1.600000X1.600000*%
%TD*%
%TA.AperFunction,ComponentPad*%
%ADD15C,1.600000*%
%TD*%
%TA.AperFunction,Conductor*%
%ADD16C,0.600000*%
%TD*%
%TA.AperFunction,Conductor*%
%ADD17C,0.300000*%
%TD*%
G04 APERTURE END LIST*
D10*
%TO.P,OUT,1*%
%TO.N,+3V3*%
X109500000Y-68690000D03*
D11*
%TO.P,OUT,2*%
%TO.N,GND*%
X109500000Y-71230000D03*
%TO.P,OUT,3*%
%TO.N,/TX_OUT*%
X109500000Y-73770000D03*
%TO.P,OUT,4*%
%TO.N,/RETURN_BUS*%
X109500000Y-76310000D03*
%TD*%
D12*
%TO.P,RGB,1*%
%TO.N,GND*%
X84000000Y-59960000D03*
D13*
%TO.P,RGB,2*%
%TO.N,+3V3*%
X84000000Y-62500000D03*
%TO.P,RGB,3*%
%TO.N,/LED_DIN*%
X84000000Y-65040000D03*
%TD*%
D10*
%TO.P,IN,1*%
%TO.N,+3V3*%
X83500000Y-68690000D03*
D11*
%TO.P,IN,2*%
%TO.N,GND*%
X83500000Y-71230000D03*
%TO.P,IN,3*%
%TO.N,/RX_IN*%
X83500000Y-73770000D03*
%TO.P,IN,4*%
%TO.N,/RETURN_BUS*%
X83500000Y-76310000D03*
%TD*%
D14*
%TO.P,C104,1*%
%TO.N,GND*%
X109500000Y-63500000D03*
D15*
%TO.P,C104,2*%
%TO.N,+3V3*%
X109500000Y-60960000D03*
%TD*%
D12*
%TO.P,PROG,1*%
%TO.N,GND*%
X109500000Y-81420000D03*
D13*
%TO.P,PROG,2*%
%TO.N,+3V3*%
X109500000Y-83960000D03*
%TO.P,PROG,3*%
%TO.N,/SWIO*%
X109500000Y-86500000D03*
%TD*%
D12*
%TO.P,MCU,1*%
%TO.N,unconnected-(MCU-PC4-Pad1)*%
X88760000Y-85400000D03*
D13*
%TO.P,MCU,2*%
%TO.N,unconnected-(MCU-PC3-Pad2)*%
X88760000Y-82860000D03*
%TO.P,MCU,3*%
%TO.N,unconnected-(MCU-PC2-Pad3)*%
X88760000Y-80320000D03*
%TO.P,MCU,4*%
%TO.N,unconnected-(MCU-PC1-Pad4)*%
X88760000Y-77780000D03*
%TO.P,MCU,5*%
%TO.N,unconnected-(MCU-PC0-Pad5)*%
X88760000Y-75240000D03*
%TO.P,MCU,6*%
%TO.N,/LED_DIN*%
X88760000Y-72700000D03*
%TO.P,MCU,7*%
%TO.N,unconnected-(MCU-PA1-Pad7)*%
X88760000Y-70160000D03*
%TO.P,MCU,8*%
%TO.N,/RX_IN*%
X88760000Y-67620000D03*
%TO.P,MCU,9*%
%TO.N,/TX_OUT*%
X88760000Y-65080000D03*
%TO.P,MCU,10*%
%TO.N,+3V3*%
X88760000Y-62540000D03*
%TO.P,MCU,11*%
%TO.N,GND*%
X88760000Y-60000000D03*
D12*
%TO.P,MCU,12*%
%TO.N,unconnected-(MCU-PC5-Pad12)*%
X104000000Y-85400000D03*
D13*
%TO.P,MCU,13*%
%TO.N,unconnected-(MCU-PC6-Pad13)*%
X104000000Y-82860000D03*
%TO.P,MCU,14*%
%TO.N,unconnected-(MCU-PC7-Pad14)*%
X104000000Y-80320000D03*
%TO.P,MCU,15*%
%TO.N,unconnected-(MCU-PD0-Pad15)*%
X104000000Y-77780000D03*
%TO.P,MCU,16*%
%TO.N,/SWIO*%
X104000000Y-75240000D03*
%TO.P,MCU,17*%
%TO.N,unconnected-(MCU-PD2-Pad17)*%
X104000000Y-72700000D03*
%TO.P,MCU,18*%
%TO.N,unconnected-(MCU-PD3-Pad18)*%
X104000000Y-70160000D03*
%TO.P,MCU,19*%
%TO.N,unconnected-(MCU-PD4-Pad19)*%
X104000000Y-67620000D03*
%TO.P,MCU,20*%
%TO.N,unconnected-(MCU-PD7-Pad20)*%
X104000000Y-65080000D03*
%TO.P,MCU,21*%
%TO.N,+3V3*%
X104000000Y-62540000D03*
%TO.P,MCU,22*%
%TO.N,GND*%
X104000000Y-60000000D03*
%TD*%
%TO.N,+3V3*%
D16*
X105580000Y-60960000D02*
X109500000Y-60960000D01*
X111400000Y-70590000D02*
X111400000Y-82060000D01*
X111400000Y-82060000D02*
X109500000Y-83960000D01*
X81800000Y-64700000D02*
X81800000Y-66989999D01*
X81800000Y-66989999D02*
X83500000Y-68690000D01*
X109500000Y-68690000D02*
X111400000Y-70590000D01*
X88760000Y-62540000D02*
X104000000Y-62540000D01*
X106500000Y-65690000D02*
X109500000Y-68690000D01*
X105580000Y-60960000D02*
X106500000Y-61880000D01*
X84000000Y-62500000D02*
X81800000Y-64700000D01*
X106500000Y-61880000D02*
X106500000Y-65690000D01*
X104000000Y-62540000D02*
X105580000Y-60960000D01*
%TO.N,/LED_DIN*%
D17*
X86500000Y-67540000D02*
X86500000Y-70440000D01*
X86500000Y-70440000D02*
X88760000Y-72700000D01*
X84000000Y-65040000D02*
X86500000Y-67540000D01*
%TO.N,/SWIO*%
X106000000Y-83000000D02*
X109500000Y-86500000D01*
X104000000Y-75240000D02*
X106000000Y-77240000D01*
X106000000Y-77240000D02*
X106000000Y-83000000D01*
%TD*%
%TA.AperFunction,Conductor*%
%TO.N,GND*%
G36*
X111958691Y-57019407D02*
G01*
X111994655Y-57068907D01*
X111999500Y-57099500D01*
X111999500Y-70171967D01*
X111980593Y-70230158D01*
X111931093Y-70266122D01*
X111869907Y-70266122D01*
X111830496Y-70241971D01*
X110779496Y-69190971D01*
X110751719Y-69136454D01*
X110750500Y-69120967D01*
X110750500Y-67665327D01*
X110750498Y-67665315D01*
X110747015Y-67647808D01*
X110735966Y-67592260D01*
X110694001Y-67529454D01*
X110680602Y-67509400D01*
X110680599Y-67509397D01*
X110597742Y-67454035D01*
X110597740Y-67454034D01*
X110597737Y-67454033D01*
X110597736Y-67454033D01*
X110524684Y-67439501D01*
X110524674Y-67439500D01*
X110524673Y-67439500D01*
X109069032Y-67439500D01*
X109010841Y-67420593D01*
X108999028Y-67410504D01*
X107079496Y-65490971D01*
X107051719Y-65436454D01*
X107050500Y-65420967D01*
X107050500Y-62655202D01*
X108400000Y-62655202D01*
X108400000Y-63299999D01*
X108400001Y-63300000D01*
X109124723Y-63300000D01*
X109103963Y-63335956D01*
X109075000Y-63444048D01*
X109075000Y-63555952D01*
X109103963Y-63664044D01*
X109124723Y-63700000D01*
X108400002Y-63700000D01*
X108400001Y-63700001D01*
X108400001Y-64344791D01*
X108402909Y-64369874D01*
X108448213Y-64472477D01*
X108527522Y-64551786D01*
X108630127Y-64597090D01*
X108655203Y-64599999D01*
X109299998Y-64599999D01*
X109300000Y-64599998D01*
X109300000Y-63875277D01*
X109335956Y-63896037D01*
X109444048Y-63925000D01*
X109555952Y-63925000D01*
X109664044Y-63896037D01*
X109700000Y-63875277D01*
X109700000Y-64599998D01*
X109700001Y-64599999D01*
X110344790Y-64599999D01*
X110344791Y-64599998D01*
X110369874Y-64597090D01*
X110472477Y-64551786D01*
X110551786Y-64472477D01*
X110597090Y-64369872D01*
X110599999Y-64344797D01*
X110600000Y-64344795D01*
X110600000Y-63700001D01*
X110599999Y-63700000D01*
X109875277Y-63700000D01*
X109896037Y-63664044D01*
X109925000Y-63555952D01*
X109925000Y-63444048D01*
X109896037Y-63335956D01*
X109875277Y-63300000D01*
X110599998Y-63300000D01*
X110599999Y-63299999D01*
X110599999Y-62655210D01*
X110599998Y-62655208D01*
X110597090Y-62630125D01*
X110551786Y-62527522D01*
X110472477Y-62448213D01*
X110369872Y-62402909D01*
X110344797Y-62400000D01*
X109700001Y-62400000D01*
X109700000Y-62400001D01*
X109700000Y-63124722D01*
X109664044Y-63103963D01*
X109555952Y-63075000D01*
X109444048Y-63075000D01*
X109335956Y-63103963D01*
X109300000Y-63124722D01*
X109300000Y-62400001D01*
X109299999Y-62400000D01*
X108655210Y-62400000D01*
X108655207Y-62400001D01*
X108630125Y-62402909D01*
X108527522Y-62448213D01*
X108448213Y-62527522D01*
X108402909Y-62630127D01*
X108400000Y-62655202D01*
X107050500Y-62655202D01*
X107050500Y-61807525D01*
X107012983Y-61667513D01*
X107010058Y-61662447D01*
X107008068Y-61659001D01*
X106995346Y-61599156D01*
X107020230Y-61543259D01*
X107073217Y-61512664D01*
X107093804Y-61510500D01*
X108551490Y-61510500D01*
X108609681Y-61529407D01*
X108633805Y-61554498D01*
X108684023Y-61629655D01*
X108830345Y-61775977D01*
X109002402Y-61890941D01*
X109193580Y-61970130D01*
X109396535Y-62010500D01*
X109396536Y-62010500D01*
X109603464Y-62010500D01*
X109603465Y-62010500D01*
X109806420Y-61970130D01*
X109997598Y-61890941D01*
X110169655Y-61775977D01*
X110315977Y-61629655D01*
X110430941Y-61457598D01*
X110510130Y-61266420D01*
X110550500Y-61063465D01*
X110550500Y-60856535D01*
X110510130Y-60653580D01*
X110430941Y-60462402D01*
X110315977Y-60290345D01*
X110169655Y-60144023D01*
X110095456Y-60094445D01*
X109997597Y-60029058D01*
X109806418Y-59949869D01*
X109603467Y-59909500D01*
X109603465Y-59909500D01*
X109396535Y-59909500D01*
X109396532Y-59909500D01*
X109193581Y-59949869D01*
X109002402Y-60029058D01*
X108830348Y-60144020D01*
X108684020Y-60290348D01*
X108633806Y-60365501D01*
X108585756Y-60403381D01*
X108551490Y-60409500D01*
X105507525Y-60409500D01*
X105411221Y-60435305D01*
X105411220Y-60435304D01*
X105367518Y-60447014D01*
X105367514Y-60447016D01*
X105281902Y-60496444D01*
X105222054Y-60509165D01*
X105166159Y-60484278D01*
X105135566Y-60431290D01*
X105138248Y-60380114D01*
X105170453Y-60280996D01*
X105200000Y-60094445D01*
X105200000Y-59905554D01*
X105170453Y-59719003D01*
X105112085Y-59539364D01*
X105026332Y-59371063D01*
X105026328Y-59371057D01*
X104978127Y-59304715D01*
X104978126Y-59304715D01*
X104468019Y-59814821D01*
X104465925Y-59807007D01*
X104400099Y-59692993D01*
X104307007Y-59599901D01*
X104192993Y-59534075D01*
X104185174Y-59531979D01*
X104695283Y-59021871D01*
X104628942Y-58973671D01*
X104628936Y-58973667D01*
X104460635Y-58887914D01*
X104280996Y-58829546D01*
X104094445Y-58800000D01*
X103905555Y-58800000D01*
X103719003Y-58829546D01*
X103539364Y-58887914D01*
X103371063Y-58973667D01*
X103371059Y-58973669D01*
X103304715Y-59021871D01*
X103814824Y-59531980D01*
X103807007Y-59534075D01*
X103692993Y-59599901D01*
X103599901Y-59692993D01*
X103534075Y-59807007D01*
X103531980Y-59814824D01*
X103021871Y-59304715D01*
X102973669Y-59371059D01*
X102973667Y-59371063D01*
X102887914Y-59539364D01*
X102829546Y-59719003D01*
X102800000Y-59905554D01*
X102800000Y-60094445D01*
X102829546Y-60280996D01*
X102887914Y-60460635D01*
X102973667Y-60628936D01*
X102973671Y-60628942D01*
X103021871Y-60695283D01*
X103531979Y-60185174D01*
X103534075Y-60192993D01*
X103599901Y-60307007D01*
X103692993Y-60400099D01*
X103807007Y-60465925D01*
X103814821Y-60468019D01*
X103304715Y-60978126D01*
X103304715Y-60978127D01*
X103371057Y-61026328D01*
X103371063Y-61026332D01*
X103539364Y-61112085D01*
X103719003Y-61170453D01*
X103888365Y-61197277D01*
X103942881Y-61225054D01*
X103970659Y-61279571D01*
X103961088Y-61340003D01*
X103917823Y-61383268D01*
X103888365Y-61392839D01*
X103730593Y-61417828D01*
X103558362Y-61473788D01*
X103397008Y-61556002D01*
X103337612Y-61599156D01*
X103250499Y-61662447D01*
X103122447Y-61790499D01*
X103079869Y-61849101D01*
X103016001Y-61937009D01*
X103013970Y-61940325D01*
X103012701Y-61939547D01*
X102973521Y-61978716D01*
X102928589Y-61989500D01*
X89831411Y-61989500D01*
X89773220Y-61970593D01*
X89746906Y-61939787D01*
X89746030Y-61940325D01*
X89743998Y-61937009D01*
X89743996Y-61937006D01*
X89637553Y-61790499D01*
X89509501Y-61662447D01*
X89362994Y-61556004D01*
X89362993Y-61556003D01*
X89362991Y-61556002D01*
X89201637Y-61473788D01*
X89029406Y-61417828D01*
X88871634Y-61392839D01*
X88817117Y-61365061D01*
X88789340Y-61310545D01*
X88798911Y-61250113D01*
X88842176Y-61206848D01*
X88871634Y-61197277D01*
X89040996Y-61170453D01*
X89220635Y-61112085D01*
X89388939Y-61026330D01*
X89455283Y-60978127D01*
X88945175Y-60468019D01*
X88952993Y-60465925D01*
X89067007Y-60400099D01*
X89160099Y-60307007D01*
X89225925Y-60192993D01*
X89228019Y-60185175D01*
X89738127Y-60695283D01*
X89786330Y-60628939D01*
X89872085Y-60460635D01*
X89930453Y-60280996D01*
X89960000Y-60094445D01*
X89960000Y-59905554D01*
X89930453Y-59719003D01*
X89872085Y-59539364D01*
X89786332Y-59371063D01*
X89786328Y-59371057D01*
X89738127Y-59304715D01*
X89738126Y-59304715D01*
X89228019Y-59814822D01*
X89225925Y-59807007D01*
X89160099Y-59692993D01*
X89067007Y-59599901D01*
X88952993Y-59534075D01*
X88945174Y-59531979D01*
X89455283Y-59021871D01*
X89388942Y-58973671D01*
X89388936Y-58973667D01*
X89220635Y-58887914D01*
X89040996Y-58829546D01*
X88854445Y-58800000D01*
X88665555Y-58800000D01*
X88479003Y-58829546D01*
X88299364Y-58887914D01*
X88131063Y-58973667D01*
X88131059Y-58973669D01*
X88064715Y-59021871D01*
X88574824Y-59531980D01*
X88567007Y-59534075D01*
X88452993Y-59599901D01*
X88359901Y-59692993D01*
X88294075Y-59807007D01*
X88291980Y-59814824D01*
X87781871Y-59304715D01*
X87733669Y-59371059D01*
X87733667Y-59371063D01*
X87647914Y-59539364D01*
X87589546Y-59719003D01*
X87560000Y-59905554D01*
X87560000Y-60094445D01*
X87589546Y-60280996D01*
X87647914Y-60460635D01*
X87733667Y-60628936D01*
X87733671Y-60628942D01*
X87781871Y-60695283D01*
X88291979Y-60185174D01*
X88294075Y-60192993D01*
X88359901Y-60307007D01*
X88452993Y-60400099D01*
X88567007Y-60465925D01*
X88574822Y-60468019D01*
X88064715Y-60978126D01*
X88064715Y-60978127D01*
X88131057Y-61026328D01*
X88131063Y-61026332D01*
X88299364Y-61112085D01*
X88479003Y-61170453D01*
X88648365Y-61197277D01*
X88702881Y-61225054D01*
X88730659Y-61279571D01*
X88721088Y-61340003D01*
X88677823Y-61383268D01*
X88648365Y-61392839D01*
X88490593Y-61417828D01*
X88318362Y-61473788D01*
X88157008Y-61556002D01*
X88097612Y-61599156D01*
X88010499Y-61662447D01*
X87882447Y-61790499D01*
X87829225Y-61863752D01*
X87776002Y-61937008D01*
X87693788Y-62098362D01*
X87637828Y-62270593D01*
X87609500Y-62449450D01*
X87609500Y-62630549D01*
X87637828Y-62809406D01*
X87693788Y-62981637D01*
X87776001Y-63142990D01*
X87776004Y-63142994D01*
X87882447Y-63289501D01*
X88010499Y-63417553D01*
X88157006Y-63523996D01*
X88318361Y-63606211D01*
X88490591Y-63662171D01*
X88562136Y-63673502D01*
X88669451Y-63690500D01*
X88669454Y-63690500D01*
X88850549Y-63690500D01*
X88939977Y-63676335D01*
X89029409Y-63662171D01*
X89201639Y-63606211D01*
X89362994Y-63523996D01*
X89509501Y-63417553D01*
X89637553Y-63289501D01*
X89743996Y-63142994D01*
X89743998Y-63142989D01*
X89746030Y-63139675D01*
X89747298Y-63140452D01*
X89786479Y-63101284D01*
X89831411Y-63090500D01*
X102928589Y-63090500D01*
X102986780Y-63109407D01*
X103013093Y-63140212D01*
X103013970Y-63139675D01*
X103016001Y-63142990D01*
X103016002Y-63142991D01*
X103016004Y-63142994D01*
X103122447Y-63289501D01*
X103250499Y-63417553D01*
X103397006Y-63523996D01*
X103558361Y-63606211D01*
X103730591Y-63662171D01*
X103802136Y-63673502D01*
X103909451Y-63690500D01*
X103909454Y-63690500D01*
X104090549Y-63690500D01*
X104179977Y-63676335D01*
X104269409Y-63662171D01*
X104441639Y-63606211D01*
X104602994Y-63523996D01*
X104749501Y-63417553D01*
X104877553Y-63289501D01*
X104983996Y-63142994D01*
X105066211Y-62981639D01*
X105122171Y-62809409D01*
X105150500Y-62630546D01*
X105150500Y-62449454D01*
X105150500Y-62449450D01*
X105122171Y-62270587D01*
X105121264Y-62266810D01*
X105122710Y-62266462D01*
X105122715Y-62211061D01*
X105146862Y-62171661D01*
X105509997Y-61808527D01*
X105564512Y-61780751D01*
X105624944Y-61790322D01*
X105650003Y-61808528D01*
X105920504Y-62079029D01*
X105948281Y-62133546D01*
X105949500Y-62149033D01*
X105949500Y-65762475D01*
X105987016Y-65902485D01*
X106059490Y-66028015D01*
X107209837Y-67178361D01*
X108220504Y-68189028D01*
X108248281Y-68243545D01*
X108249500Y-68259032D01*
X108249500Y-69714672D01*
X108249501Y-69714684D01*
X108264033Y-69787736D01*
X108264035Y-69787742D01*
X108319397Y-69870599D01*
X108319400Y-69870602D01*
X108402257Y-69925964D01*
X108402260Y-69925966D01*
X108457808Y-69937015D01*
X108475315Y-69940498D01*
X108475320Y-69940498D01*
X108475326Y-69940500D01*
X108758461Y-69940500D01*
X108816652Y-69959407D01*
X108852616Y-70008907D01*
X108852616Y-70070093D01*
X108816652Y-70119593D01*
X108816651Y-70119593D01*
X108733122Y-70180279D01*
X109276687Y-70723844D01*
X109162292Y-70789890D01*
X109059890Y-70892292D01*
X108993844Y-71006687D01*
X108450279Y-70463122D01*
X108388141Y-70548647D01*
X108388139Y-70548651D01*
X108295243Y-70730972D01*
X108232008Y-70925587D01*
X108200000Y-71127684D01*
X108200000Y-71332315D01*
X108232008Y-71534412D01*
X108295243Y-71729027D01*
X108388139Y-71911348D01*
X108388143Y-71911354D01*
X108450279Y-71996876D01*
X108993843Y-71453311D01*
X109059890Y-71567708D01*
X109162292Y-71670110D01*
X109276686Y-71736154D01*
X108733122Y-72279718D01*
X108733122Y-72279719D01*
X108818645Y-72341856D01*
X108818651Y-72341860D01*
X109000979Y-72434760D01*
X109003970Y-72435999D01*
X109050496Y-72475735D01*
X109064780Y-72535229D01*
X109041366Y-72591758D01*
X109011030Y-72615673D01*
X108844597Y-72700474D01*
X108685355Y-72816171D01*
X108546171Y-72955355D01*
X108430474Y-73114597D01*
X108341116Y-73289974D01*
X108280289Y-73477178D01*
X108249500Y-73671579D01*
X108249500Y-73868420D01*
X108280289Y-74062821D01*
X108341116Y-74250025D01*
X108398398Y-74362449D01*
X108430476Y-74425405D01*
X108546172Y-74584646D01*
X108685354Y-74723828D01*
X108844595Y-74839524D01*
X109019975Y-74928884D01*
X109019977Y-74928884D01*
X109019978Y-74928885D01*
X109019981Y-74928887D01*
X109072175Y-74945846D01*
X109121675Y-74981810D01*
X109140582Y-75040001D01*
X109121674Y-75098191D01*
X109072175Y-75134154D01*
X109019981Y-75151112D01*
X109019978Y-75151114D01*
X108844597Y-75240474D01*
X108685355Y-75356171D01*
X108546171Y-75495355D01*
X108430474Y-75654597D01*
X108341116Y-75829974D01*
X108280289Y-76017178D01*
X108249500Y-76211579D01*
X108249500Y-76408420D01*
X108280289Y-76602821D01*
X108341116Y-76790025D01*
X108398398Y-76902449D01*
X108430476Y-76965405D01*
X108546172Y-77124646D01*
X108685354Y-77263828D01*
X108844595Y-77379524D01*
X109019975Y-77468884D01*
X109207174Y-77529709D01*
X109207175Y-77529709D01*
X109207178Y-77529710D01*
X109401580Y-77560500D01*
X109401583Y-77560500D01*
X109598420Y-77560500D01*
X109792821Y-77529710D01*
X109792822Y-77529709D01*
X109792826Y-77529709D01*
X109980025Y-77468884D01*
X110155405Y-77379524D01*
X110314646Y-77263828D01*
X110453828Y-77124646D01*
X110569524Y-76965405D01*
X110658884Y-76790025D01*
X110658886Y-76790019D01*
X110659034Y-76789664D01*
X110659118Y-76789565D01*
X110660650Y-76786559D01*
X110661371Y-76786926D01*
X110698767Y-76743136D01*
X110758261Y-76728849D01*
X110814791Y-76752260D01*
X110846763Y-76804427D01*
X110849500Y-76827544D01*
X110849500Y-80325988D01*
X110830593Y-80384179D01*
X110781093Y-80420143D01*
X110719907Y-80420143D01*
X110670407Y-80384179D01*
X110659936Y-80365977D01*
X110651787Y-80347523D01*
X110572477Y-80268213D01*
X110469872Y-80222909D01*
X110444797Y-80220000D01*
X109700001Y-80220000D01*
X109700000Y-80220001D01*
X109700000Y-80958120D01*
X109692993Y-80954075D01*
X109565826Y-80920000D01*
X109434174Y-80920000D01*
X109307007Y-80954075D01*
X109300000Y-80958120D01*
X109300000Y-80220001D01*
X109299999Y-80220000D01*
X108555210Y-80220000D01*
X108555207Y-80220001D01*
X108530125Y-80222909D01*
X108427522Y-80268213D01*
X108348213Y-80347522D01*
X108302909Y-80450127D01*
X108300000Y-80475202D01*
X108300000Y-81219999D01*
X108300001Y-81220000D01*
X109038120Y-81220000D01*
X109034075Y-81227007D01*
X109000000Y-81354174D01*
X109000000Y-81485826D01*
X109034075Y-81612993D01*
X109038120Y-81620000D01*
X108300002Y-81620000D01*
X108300001Y-81620001D01*
X108300001Y-82364791D01*
X108302909Y-82389874D01*
X108348213Y-82492477D01*
X108427522Y-82571786D01*
X108530127Y-82617090D01*
X108555203Y-82619999D01*
X109347996Y-82619999D01*
X109406187Y-82638906D01*
X109442151Y-82688406D01*
X109442151Y-82749592D01*
X109406187Y-82799092D01*
X109363483Y-82816780D01*
X109230593Y-82837828D01*
X109058362Y-82893788D01*
X108897008Y-82976002D01*
X108823752Y-83029225D01*
X108750499Y-83082447D01*
X108622447Y-83210499D01*
X108569225Y-83283752D01*
X108516002Y-83357008D01*
X108433788Y-83518362D01*
X108377828Y-83690593D01*
X108349500Y-83869450D01*
X108349500Y-84050549D01*
X108377828Y-84229406D01*
X108433788Y-84401637D01*
X108471334Y-84475326D01*
X108516004Y-84562994D01*
X108622447Y-84709501D01*
X108750499Y-84837553D01*
X108897006Y-84943996D01*
X109058361Y-85026211D01*
X109230591Y-85082171D01*
X109302136Y-85093502D01*
X109409451Y-85110500D01*
X109409454Y-85110500D01*
X109590549Y-85110500D01*
X109679977Y-85096335D01*
X109769409Y-85082171D01*
X109941639Y-85026211D01*
X110102994Y-84943996D01*
X110249501Y-84837553D01*
X110377553Y-84709501D01*
X110483996Y-84562994D01*
X110566211Y-84401639D01*
X110622171Y-84229409D01*
X110650500Y-84050546D01*
X110650500Y-83869454D01*
X110650500Y-83869450D01*
X110622171Y-83690587D01*
X110621264Y-83686810D01*
X110622713Y-83686461D01*
X110622711Y-83631076D01*
X110646861Y-83591662D01*
X111830498Y-82408026D01*
X111885013Y-82380251D01*
X111945445Y-82389822D01*
X111988710Y-82433087D01*
X111999500Y-82478032D01*
X111999500Y-87900500D01*
X111980593Y-87958691D01*
X111931093Y-87994655D01*
X111900500Y-87999500D01*
X81099500Y-87999500D01*
X81041309Y-87980593D01*
X81005345Y-87931093D01*
X81000500Y-87900500D01*
X81000500Y-84475327D01*
X87609500Y-84475327D01*
X87609500Y-86324672D01*
X87609501Y-86324684D01*
X87624033Y-86397736D01*
X87624035Y-86397742D01*
X87679397Y-86480599D01*
X87679399Y-86480601D01*
X87762260Y-86535966D01*
X87817808Y-86547015D01*
X87835315Y-86550498D01*
X87835320Y-86550498D01*
X87835326Y-86550500D01*
X87835327Y-86550500D01*
X89684673Y-86550500D01*
X89684674Y-86550500D01*
X89757740Y-86535966D01*
X89840601Y-86480601D01*
X89895966Y-86397740D01*
X89910500Y-86324674D01*
X89910500Y-84475327D01*
X102849500Y-84475327D01*
X102849500Y-86324672D01*
X102849501Y-86324684D01*
X102864033Y-86397736D01*
X102864035Y-86397742D01*
X102919397Y-86480599D01*
X102919399Y-86480601D01*
X103002260Y-86535966D01*
X103057808Y-86547015D01*
X103075315Y-86550498D01*
X103075320Y-86550498D01*
X103075326Y-86550500D01*
X103075327Y-86550500D01*
X104924673Y-86550500D01*
X104924674Y-86550500D01*
X104997740Y-86535966D01*
X105080601Y-86480601D01*
X105135966Y-86397740D01*
X105150500Y-86324674D01*
X105150500Y-84475326D01*
X105135966Y-84402260D01*
X105080601Y-84319399D01*
X105080599Y-84319397D01*
X104997742Y-84264035D01*
X104997740Y-84264034D01*
X104997737Y-84264033D01*
X104997736Y-84264033D01*
X104924684Y-84249501D01*
X104924674Y-84249500D01*
X103075326Y-84249500D01*
X103075325Y-84249500D01*
X103075315Y-84249501D01*
X103002263Y-84264033D01*
X103002257Y-84264035D01*
X102919400Y-84319397D01*
X102919397Y-84319400D01*
X102864035Y-84402257D01*
X102864033Y-84402263D01*
X102849501Y-84475315D01*
X102849500Y-84475327D01*
X89910500Y-84475327D01*
X89910500Y-84475326D01*
X89895966Y-84402260D01*
X89840601Y-84319399D01*
X89840599Y-84319397D01*
X89757742Y-84264035D01*
X89757740Y-84264034D01*
X89757737Y-84264033D01*
X89757736Y-84264033D01*
X89684684Y-84249501D01*
X89684674Y-84249500D01*
X87835326Y-84249500D01*
X87835325Y-84249500D01*
X87835315Y-84249501D01*
X87762263Y-84264033D01*
X87762257Y-84264035D01*
X87679400Y-84319397D01*
X87679397Y-84319400D01*
X87624035Y-84402257D01*
X87624033Y-84402263D01*
X87609501Y-84475315D01*
X87609500Y-84475327D01*
X81000500Y-84475327D01*
X81000500Y-82769450D01*
X87609500Y-82769450D01*
X87609500Y-82950549D01*
X87637828Y-83129406D01*
X87675681Y-83245909D01*
X87693789Y-83301639D01*
X87776004Y-83462994D01*
X87882447Y-83609501D01*
X88010499Y-83737553D01*
X88157006Y-83843996D01*
X88318361Y-83926211D01*
X88490591Y-83982171D01*
X88562136Y-83993502D01*
X88669451Y-84010500D01*
X88669454Y-84010500D01*
X88850549Y-84010500D01*
X88939977Y-83996335D01*
X89029409Y-83982171D01*
X89201639Y-83926211D01*
X89362994Y-83843996D01*
X89509501Y-83737553D01*
X89637553Y-83609501D01*
X89743996Y-83462994D01*
X89826211Y-83301639D01*
X89882171Y-83129409D01*
X89906468Y-82976004D01*
X89910500Y-82950549D01*
X89910500Y-82769450D01*
X102849500Y-82769450D01*
X102849500Y-82950549D01*
X102877828Y-83129406D01*
X102915681Y-83245909D01*
X102933789Y-83301639D01*
X103016004Y-83462994D01*
X103122447Y-83609501D01*
X103250499Y-83737553D01*
X103397006Y-83843996D01*
X103558361Y-83926211D01*
X103730591Y-83982171D01*
X103802136Y-83993502D01*
X103909451Y-84010500D01*
X103909454Y-84010500D01*
X104090549Y-84010500D01*
X104179977Y-83996335D01*
X104269409Y-83982171D01*
X104441639Y-83926211D01*
X104602994Y-83843996D01*
X104749501Y-83737553D01*
X104877553Y-83609501D01*
X104983996Y-83462994D01*
X105066211Y-83301639D01*
X105122171Y-83129409D01*
X105146468Y-82976004D01*
X105150500Y-82950549D01*
X105150500Y-82769450D01*
X105122171Y-82590593D01*
X105122171Y-82590591D01*
X105066211Y-82418361D01*
X104983996Y-82257006D01*
X104877553Y-82110499D01*
X104749501Y-81982447D01*
X104602994Y-81876004D01*
X104602993Y-81876003D01*
X104602991Y-81876002D01*
X104441637Y-81793788D01*
X104269406Y-81737828D01*
X104090549Y-81709500D01*
X104090546Y-81709500D01*
X103909454Y-81709500D01*
X103909451Y-81709500D01*
X103730593Y-81737828D01*
X103558362Y-81793788D01*
X103397008Y-81876002D01*
X103336450Y-81920000D01*
X103250499Y-81982447D01*
X103122447Y-82110499D01*
X103069225Y-82183752D01*
X103016002Y-82257008D01*
X102933788Y-82418362D01*
X102877828Y-82590593D01*
X102849500Y-82769450D01*
X89910500Y-82769450D01*
X89882171Y-82590593D01*
X89882171Y-82590591D01*
X89826211Y-82418361D01*
X89743996Y-82257006D01*
X89637553Y-82110499D01*
X89509501Y-81982447D01*
X89362994Y-81876004D01*
X89362993Y-81876003D01*
X89362991Y-81876002D01*
X89201637Y-81793788D01*
X89029406Y-81737828D01*
X88850549Y-81709500D01*
X88850546Y-81709500D01*
X88669454Y-81709500D01*
X88669451Y-81709500D01*
X88490593Y-81737828D01*
X88318362Y-81793788D01*
X88157008Y-81876002D01*
X88096450Y-81920000D01*
X88010499Y-81982447D01*
X87882447Y-82110499D01*
X87829225Y-82183752D01*
X87776002Y-82257008D01*
X87693788Y-82418362D01*
X87637828Y-82590593D01*
X87609500Y-82769450D01*
X81000500Y-82769450D01*
X81000500Y-80229450D01*
X87609500Y-80229450D01*
X87609500Y-80410549D01*
X87637828Y-80589406D01*
X87637829Y-80589409D01*
X87693789Y-80761639D01*
X87776004Y-80922994D01*
X87882447Y-81069501D01*
X88010499Y-81197553D01*
X88157006Y-81303996D01*
X88318361Y-81386211D01*
X88490591Y-81442171D01*
X88562136Y-81453502D01*
X88669451Y-81470500D01*
X88669454Y-81470500D01*
X88850549Y-81470500D01*
X88939977Y-81456335D01*
X89029409Y-81442171D01*
X89201639Y-81386211D01*
X89362994Y-81303996D01*
X89509501Y-81197553D01*
X89637553Y-81069501D01*
X89743996Y-80922994D01*
X89826211Y-80761639D01*
X89882171Y-80589409D01*
X89910500Y-80410546D01*
X89910500Y-80229454D01*
X89910500Y-80229450D01*
X102849500Y-80229450D01*
X102849500Y-80410549D01*
X102877828Y-80589406D01*
X102877829Y-80589409D01*
X102933789Y-80761639D01*
X103016004Y-80922994D01*
X103122447Y-81069501D01*
X103250499Y-81197553D01*
X103397006Y-81303996D01*
X103558361Y-81386211D01*
X103730591Y-81442171D01*
X103802136Y-81453502D01*
X103909451Y-81470500D01*
X103909454Y-81470500D01*
X104090549Y-81470500D01*
X104179977Y-81456335D01*
X104269409Y-81442171D01*
X104441639Y-81386211D01*
X104602994Y-81303996D01*
X104749501Y-81197553D01*
X104877553Y-81069501D01*
X104983996Y-80922994D01*
X105066211Y-80761639D01*
X105122171Y-80589409D01*
X105150500Y-80410546D01*
X105150500Y-80229454D01*
X105150500Y-80229450D01*
X105122171Y-80050593D01*
X105122171Y-80050591D01*
X105066211Y-79878361D01*
X104983996Y-79717006D01*
X104877553Y-79570499D01*
X104749501Y-79442447D01*
X104602994Y-79336004D01*
X104602993Y-79336003D01*
X104602991Y-79336002D01*
X104441637Y-79253788D01*
X104269406Y-79197828D01*
X104090549Y-79169500D01*
X104090546Y-79169500D01*
X103909454Y-79169500D01*
X103909451Y-79169500D01*
X103730593Y-79197828D01*
X103558362Y-79253788D01*
X103397008Y-79336002D01*
X103323752Y-79389225D01*
X103250499Y-79442447D01*
X103122447Y-79570499D01*
X103069225Y-79643752D01*
X103016002Y-79717008D01*
X102933788Y-79878362D01*
X102877828Y-80050593D01*
X102849500Y-80229450D01*
X89910500Y-80229450D01*
X89882171Y-80050593D01*
X89882171Y-80050591D01*
X89826211Y-79878361D01*
X89743996Y-79717006D01*
X89637553Y-79570499D01*
X89509501Y-79442447D01*
X89362994Y-79336004D01*
X89362993Y-79336003D01*
X89362991Y-79336002D01*
X89201637Y-79253788D01*
X89029406Y-79197828D01*
X88850549Y-79169500D01*
X88850546Y-79169500D01*
X88669454Y-79169500D01*
X88669451Y-79169500D01*
X88490593Y-79197828D01*
X88318362Y-79253788D01*
X88157008Y-79336002D01*
X88083752Y-79389225D01*
X88010499Y-79442447D01*
X87882447Y-79570499D01*
X87829225Y-79643752D01*
X87776002Y-79717008D01*
X87693788Y-79878362D01*
X87637828Y-80050593D01*
X87609500Y-80229450D01*
X81000500Y-80229450D01*
X81000500Y-77689450D01*
X87609500Y-77689450D01*
X87609500Y-77870549D01*
X87637828Y-78049406D01*
X87637829Y-78049409D01*
X87693789Y-78221639D01*
X87776004Y-78382994D01*
X87882447Y-78529501D01*
X88010499Y-78657553D01*
X88157006Y-78763996D01*
X88318361Y-78846211D01*
X88490591Y-78902171D01*
X88562136Y-78913502D01*
X88669451Y-78930500D01*
X88669454Y-78930500D01*
X88850549Y-78930500D01*
X88939977Y-78916335D01*
X89029409Y-78902171D01*
X89201639Y-78846211D01*
X89362994Y-78763996D01*
X89509501Y-78657553D01*
X89637553Y-78529501D01*
X89743996Y-78382994D01*
X89826211Y-78221639D01*
X89882171Y-78049409D01*
X89910500Y-77870546D01*
X89910500Y-77689454D01*
X89910500Y-77689450D01*
X102849500Y-77689450D01*
X102849500Y-77870549D01*
X102877828Y-78049406D01*
X102877829Y-78049409D01*
X102933789Y-78221639D01*
X103016004Y-78382994D01*
X103122447Y-78529501D01*
X103250499Y-78657553D01*
X103397006Y-78763996D01*
X103558361Y-78846211D01*
X103730591Y-78902171D01*
X103802136Y-78913502D01*
X103909451Y-78930500D01*
X103909454Y-78930500D01*
X104090549Y-78930500D01*
X104179977Y-78916335D01*
X104269409Y-78902171D01*
X104441639Y-78846211D01*
X104602994Y-78763996D01*
X104749501Y-78657553D01*
X104877553Y-78529501D01*
X104983996Y-78382994D01*
X105066211Y-78221639D01*
X105122171Y-78049409D01*
X105150500Y-77870546D01*
X105150500Y-77689454D01*
X105150500Y-77689450D01*
X105122171Y-77510593D01*
X105122171Y-77510591D01*
X105066211Y-77338361D01*
X104983996Y-77177006D01*
X104877553Y-77030499D01*
X104749501Y-76902447D01*
X104602994Y-76796004D01*
X104602993Y-76796003D01*
X104602991Y-76796002D01*
X104441637Y-76713788D01*
X104269406Y-76657828D01*
X104090549Y-76629500D01*
X104090546Y-76629500D01*
X103909454Y-76629500D01*
X103909451Y-76629500D01*
X103730593Y-76657828D01*
X103558362Y-76713788D01*
X103397008Y-76796002D01*
X103323752Y-76849225D01*
X103250499Y-76902447D01*
X103122447Y-77030499D01*
X103082551Y-77085411D01*
X103016002Y-77177008D01*
X102933788Y-77338362D01*
X102877828Y-77510593D01*
X102849500Y-77689450D01*
X89910500Y-77689450D01*
X89882171Y-77510593D01*
X89882171Y-77510591D01*
X89826211Y-77338361D01*
X89743996Y-77177006D01*
X89637553Y-77030499D01*
X89509501Y-76902447D01*
X89362994Y-76796004D01*
X89362993Y-76796003D01*
X89362991Y-76796002D01*
X89201637Y-76713788D01*
X89029406Y-76657828D01*
X88850549Y-76629500D01*
X88850546Y-76629500D01*
X88669454Y-76629500D01*
X88669451Y-76629500D01*
X88490593Y-76657828D01*
X88318362Y-76713788D01*
X88157008Y-76796002D01*
X88083752Y-76849225D01*
X88010499Y-76902447D01*
X87882447Y-77030499D01*
X87842551Y-77085411D01*
X87776002Y-77177008D01*
X87693788Y-77338362D01*
X87637828Y-77510593D01*
X87609500Y-77689450D01*
X81000500Y-77689450D01*
X81000500Y-64627525D01*
X81249500Y-64627525D01*
X81249500Y-66917525D01*
X81249500Y-67062473D01*
X81287016Y-67202484D01*
X81359490Y-67328014D01*
X82220505Y-68189029D01*
X82248281Y-68243544D01*
X82249500Y-68259031D01*
X82249500Y-69714672D01*
X82249501Y-69714684D01*
X82264033Y-69787736D01*
X82264035Y-69787742D01*
X82319397Y-69870599D01*
X82319400Y-69870602D01*
X82402257Y-69925964D01*
X82402260Y-69925966D01*
X82457808Y-69937015D01*
X82475315Y-69940498D01*
X82475320Y-69940498D01*
X82475326Y-69940500D01*
X82475327Y-69940500D01*
X82758461Y-69940500D01*
X82816652Y-69959407D01*
X82852616Y-70008907D01*
X82852616Y-70070093D01*
X82816652Y-70119593D01*
X82816651Y-70119593D01*
X82733122Y-70180279D01*
X83276687Y-70723844D01*
X83162292Y-70789890D01*
X83059890Y-70892292D01*
X82993844Y-71006687D01*
X82450279Y-70463122D01*
X82388141Y-70548647D01*
X82388139Y-70548651D01*
X82295243Y-70730972D01*
X82232008Y-70925587D01*
X82200000Y-71127684D01*
X82200000Y-71332315D01*
X82232008Y-71534412D01*
X82295243Y-71729027D01*
X82388139Y-71911348D01*
X82388143Y-71911354D01*
X82450279Y-71996876D01*
X82993843Y-71453311D01*
X83059890Y-71567708D01*
X83162292Y-71670110D01*
X83276686Y-71736154D01*
X82733122Y-72279718D01*
X82733122Y-72279719D01*
X82818645Y-72341856D01*
X82818651Y-72341860D01*
X83000979Y-72434760D01*
X83003970Y-72435999D01*
X83050496Y-72475735D01*
X83064780Y-72535229D01*
X83041366Y-72591758D01*
X83011030Y-72615673D01*
X82844597Y-72700474D01*
X82685355Y-72816171D01*
X82546171Y-72955355D01*
X82430474Y-73114597D01*
X82341116Y-73289974D01*
X82280289Y-73477178D01*
X82249500Y-73671579D01*
X82249500Y-73868420D01*
X82280289Y-74062821D01*
X82341116Y-74250025D01*
X82398398Y-74362449D01*
X82430476Y-74425405D01*
X82546172Y-74584646D01*
X82685354Y-74723828D01*
X82844595Y-74839524D01*
X83019975Y-74928884D01*
X83019977Y-74928884D01*
X83019978Y-74928885D01*
X83019981Y-74928887D01*
X83072175Y-74945846D01*
X83121675Y-74981810D01*
X83140582Y-75040001D01*
X83121674Y-75098191D01*
X83072175Y-75134154D01*
X83019981Y-75151112D01*
X83019978Y-75151114D01*
X82844597Y-75240474D01*
X82685355Y-75356171D01*
X82546171Y-75495355D01*
X82430474Y-75654597D01*
X82341116Y-75829974D01*
X82280289Y-76017178D01*
X82249500Y-76211579D01*
X82249500Y-76408420D01*
X82280289Y-76602821D01*
X82341116Y-76790025D01*
X82398398Y-76902449D01*
X82430476Y-76965405D01*
X82546172Y-77124646D01*
X82685354Y-77263828D01*
X82844595Y-77379524D01*
X83019975Y-77468884D01*
X83207174Y-77529709D01*
X83207175Y-77529709D01*
X83207178Y-77529710D01*
X83401580Y-77560500D01*
X83401583Y-77560500D01*
X83598420Y-77560500D01*
X83792821Y-77529710D01*
X83792822Y-77529709D01*
X83792826Y-77529709D01*
X83980025Y-77468884D01*
X84155405Y-77379524D01*
X84314646Y-77263828D01*
X84453828Y-77124646D01*
X84569524Y-76965405D01*
X84658884Y-76790025D01*
X84719709Y-76602826D01*
X84750500Y-76408417D01*
X84750500Y-76211583D01*
X84750500Y-76211579D01*
X84719710Y-76017178D01*
X84719709Y-76017174D01*
X84658884Y-75829975D01*
X84569524Y-75654595D01*
X84453828Y-75495354D01*
X84314646Y-75356172D01*
X84155405Y-75240476D01*
X84155401Y-75240473D01*
X84155399Y-75240472D01*
X84142253Y-75233774D01*
X84142252Y-75233774D01*
X83980025Y-75151116D01*
X83974898Y-75149450D01*
X87609500Y-75149450D01*
X87609500Y-75330549D01*
X87637828Y-75509406D01*
X87693788Y-75681637D01*
X87771111Y-75833392D01*
X87776004Y-75842994D01*
X87882447Y-75989501D01*
X88010499Y-76117553D01*
X88157006Y-76223996D01*
X88318361Y-76306211D01*
X88490591Y-76362171D01*
X88562136Y-76373502D01*
X88669451Y-76390500D01*
X88669454Y-76390500D01*
X88850549Y-76390500D01*
X88939977Y-76376335D01*
X89029409Y-76362171D01*
X89201639Y-76306211D01*
X89362994Y-76223996D01*
X89509501Y-76117553D01*
X89637553Y-75989501D01*
X89743996Y-75842994D01*
X89826211Y-75681639D01*
X89882171Y-75509409D01*
X89896335Y-75419977D01*
X89910500Y-75330549D01*
X89910500Y-75149450D01*
X102849500Y-75149450D01*
X102849500Y-75330549D01*
X102877828Y-75509406D01*
X102933788Y-75681637D01*
X103011111Y-75833392D01*
X103016004Y-75842994D01*
X103122447Y-75989501D01*
X103250499Y-76117553D01*
X103397006Y-76223996D01*
X103558361Y-76306211D01*
X103730591Y-76362171D01*
X103802136Y-76373502D01*
X103909451Y-76390500D01*
X103909454Y-76390500D01*
X104090549Y-76390500D01*
X104269404Y-76362172D01*
X104269405Y-76362171D01*
X104269409Y-76362171D01*
X104427854Y-76310690D01*
X104489037Y-76310690D01*
X104528448Y-76334841D01*
X105570504Y-77376897D01*
X105598281Y-77431414D01*
X105599500Y-77446901D01*
X105599500Y-82947273D01*
X105599500Y-83052727D01*
X105623570Y-83142559D01*
X105626794Y-83154592D01*
X105679516Y-83245908D01*
X105679517Y-83245909D01*
X105679518Y-83245910D01*
X105679520Y-83245913D01*
X107143108Y-84709501D01*
X108405158Y-85971551D01*
X108432935Y-86026068D01*
X108429309Y-86072147D01*
X108377828Y-86230593D01*
X108349500Y-86409450D01*
X108349500Y-86590549D01*
X108377828Y-86769406D01*
X108377829Y-86769409D01*
X108433789Y-86941639D01*
X108516004Y-87102994D01*
X108622447Y-87249501D01*
X108750499Y-87377553D01*
X108897006Y-87483996D01*
X109058361Y-87566211D01*
X109230591Y-87622171D01*
X109302136Y-87633502D01*
X109409451Y-87650500D01*
X109409454Y-87650500D01*
X109590549Y-87650500D01*
X109679977Y-87636335D01*
X109769409Y-87622171D01*
X109941639Y-87566211D01*
X110102994Y-87483996D01*
X110249501Y-87377553D01*
X110377553Y-87249501D01*
X110483996Y-87102994D01*
X110566211Y-86941639D01*
X110622171Y-86769409D01*
X110650500Y-86590546D01*
X110650500Y-86409454D01*
X110650500Y-86409450D01*
X110622171Y-86230593D01*
X110622171Y-86230591D01*
X110566211Y-86058361D01*
X110483996Y-85897006D01*
X110377553Y-85750499D01*
X110249501Y-85622447D01*
X110102994Y-85516004D01*
X110102993Y-85516003D01*
X110102991Y-85516002D01*
X109941637Y-85433788D01*
X109769406Y-85377828D01*
X109590549Y-85349500D01*
X109590546Y-85349500D01*
X109409454Y-85349500D01*
X109409451Y-85349500D01*
X109230593Y-85377828D01*
X109072147Y-85429309D01*
X109010962Y-85429308D01*
X108971551Y-85405158D01*
X106429496Y-82863103D01*
X106401719Y-82808586D01*
X106400500Y-82793099D01*
X106400500Y-77187274D01*
X106400500Y-77187273D01*
X106373207Y-77085413D01*
X106373207Y-77085412D01*
X106373207Y-77085411D01*
X106320483Y-76994091D01*
X106320482Y-76994090D01*
X106320481Y-76994089D01*
X106320480Y-76994087D01*
X105094841Y-75768448D01*
X105067064Y-75713931D01*
X105070689Y-75667854D01*
X105122171Y-75509409D01*
X105124397Y-75495354D01*
X105150500Y-75330549D01*
X105150500Y-75149450D01*
X105123948Y-74981810D01*
X105122171Y-74970591D01*
X105066211Y-74798361D01*
X104983996Y-74637006D01*
X104877553Y-74490499D01*
X104749501Y-74362447D01*
X104602994Y-74256004D01*
X104602993Y-74256003D01*
X104602991Y-74256002D01*
X104441637Y-74173788D01*
X104269406Y-74117828D01*
X104090549Y-74089500D01*
X104090546Y-74089500D01*
X103909454Y-74089500D01*
X103909451Y-74089500D01*
X103730593Y-74117828D01*
X103558362Y-74173788D01*
X103397008Y-74256002D01*
X103323752Y-74309225D01*
X103250499Y-74362447D01*
X103122447Y-74490499D01*
X103069225Y-74563752D01*
X103016002Y-74637008D01*
X102933788Y-74798362D01*
X102877828Y-74970593D01*
X102849500Y-75149450D01*
X89910500Y-75149450D01*
X89883948Y-74981810D01*
X89882171Y-74970591D01*
X89826211Y-74798361D01*
X89743996Y-74637006D01*
X89637553Y-74490499D01*
X89509501Y-74362447D01*
X89362994Y-74256004D01*
X89362993Y-74256003D01*
X89362991Y-74256002D01*
X89201637Y-74173788D01*
X89029406Y-74117828D01*
X88850549Y-74089500D01*
X88850546Y-74089500D01*
X88669454Y-74089500D01*
X88669451Y-74089500D01*
X88490593Y-74117828D01*
X88318362Y-74173788D01*
X88157008Y-74256002D01*
X88083752Y-74309225D01*
X88010499Y-74362447D01*
X87882447Y-74490499D01*
X87829225Y-74563752D01*
X87776002Y-74637008D01*
X87693788Y-74798362D01*
X87637828Y-74970593D01*
X87609500Y-75149450D01*
X83974898Y-75149450D01*
X83927823Y-75134154D01*
X83878324Y-75098191D01*
X83859417Y-75040000D01*
X83878324Y-74981809D01*
X83927823Y-74945845D01*
X83980025Y-74928884D01*
X84155405Y-74839524D01*
X84314646Y-74723828D01*
X84453828Y-74584646D01*
X84569524Y-74425405D01*
X84658884Y-74250025D01*
X84719709Y-74062826D01*
X84750500Y-73868417D01*
X84750500Y-73671583D01*
X84750500Y-73671579D01*
X84719710Y-73477178D01*
X84719709Y-73477174D01*
X84658884Y-73289975D01*
X84569524Y-73114595D01*
X84453828Y-72955354D01*
X84314646Y-72816172D01*
X84155405Y-72700476D01*
X84155404Y-72700475D01*
X84155402Y-72700474D01*
X83988969Y-72615673D01*
X83945704Y-72572408D01*
X83936133Y-72511976D01*
X83963910Y-72457460D01*
X83996034Y-72435996D01*
X83999032Y-72434754D01*
X84181348Y-72341860D01*
X84181353Y-72341856D01*
X84266876Y-72279720D01*
X84266876Y-72279719D01*
X83723312Y-71736155D01*
X83837708Y-71670110D01*
X83940110Y-71567708D01*
X84006155Y-71453312D01*
X84549719Y-71996876D01*
X84549720Y-71996876D01*
X84611856Y-71911353D01*
X84611860Y-71911348D01*
X84704756Y-71729027D01*
X84767991Y-71534412D01*
X84800000Y-71332315D01*
X84800000Y-71127684D01*
X84767991Y-70925587D01*
X84704756Y-70730972D01*
X84611860Y-70548651D01*
X84611856Y-70548645D01*
X84549719Y-70463122D01*
X84549718Y-70463122D01*
X84006154Y-71006686D01*
X83940110Y-70892292D01*
X83837708Y-70789890D01*
X83723311Y-70723843D01*
X84266876Y-70180280D01*
X84183348Y-70119593D01*
X84147384Y-70070092D01*
X84147384Y-70008907D01*
X84183348Y-69959407D01*
X84241539Y-69940500D01*
X84524673Y-69940500D01*
X84524674Y-69940500D01*
X84597740Y-69925966D01*
X84680601Y-69870601D01*
X84735966Y-69787740D01*
X84750500Y-69714674D01*
X84750500Y-67665326D01*
X84735966Y-67592260D01*
X84694001Y-67529454D01*
X84680602Y-67509400D01*
X84680599Y-67509397D01*
X84597742Y-67454035D01*
X84597740Y-67454034D01*
X84597737Y-67454033D01*
X84597736Y-67454033D01*
X84524684Y-67439501D01*
X84524674Y-67439500D01*
X84524673Y-67439500D01*
X83069033Y-67439500D01*
X83010842Y-67420593D01*
X82999029Y-67410504D01*
X82379496Y-66790970D01*
X82351719Y-66736453D01*
X82350500Y-66720966D01*
X82350500Y-64969032D01*
X82369407Y-64910841D01*
X82379490Y-64899034D01*
X82764274Y-64514250D01*
X82818790Y-64486474D01*
X82879222Y-64496045D01*
X82922487Y-64539310D01*
X82932058Y-64599742D01*
X82928432Y-64614847D01*
X82877828Y-64770593D01*
X82849500Y-64949450D01*
X82849500Y-65130549D01*
X82877828Y-65309406D01*
X82933788Y-65481637D01*
X82978020Y-65568448D01*
X83016004Y-65642994D01*
X83122447Y-65789501D01*
X83250499Y-65917553D01*
X83397006Y-66023996D01*
X83558361Y-66106211D01*
X83730591Y-66162171D01*
X83802136Y-66173502D01*
X83909451Y-66190500D01*
X83909454Y-66190500D01*
X84090549Y-66190500D01*
X84269404Y-66162172D01*
X84269405Y-66162171D01*
X84269409Y-66162171D01*
X84427854Y-66110690D01*
X84489037Y-66110690D01*
X84528448Y-66134841D01*
X86070504Y-67676897D01*
X86098281Y-67731414D01*
X86099500Y-67746901D01*
X86099500Y-70387273D01*
X86099500Y-70492727D01*
X86123570Y-70582559D01*
X86126794Y-70594592D01*
X86179516Y-70685908D01*
X86179518Y-70685910D01*
X86179520Y-70685913D01*
X87006450Y-71512842D01*
X87665158Y-72171550D01*
X87692935Y-72226067D01*
X87689309Y-72272146D01*
X87637828Y-72430593D01*
X87609500Y-72609450D01*
X87609500Y-72790549D01*
X87637828Y-72969406D01*
X87693788Y-73141637D01*
X87771111Y-73293392D01*
X87776004Y-73302994D01*
X87882447Y-73449501D01*
X88010499Y-73577553D01*
X88157006Y-73683996D01*
X88318361Y-73766211D01*
X88490591Y-73822171D01*
X88562136Y-73833502D01*
X88669451Y-73850500D01*
X88669454Y-73850500D01*
X88850549Y-73850500D01*
X88939977Y-73836335D01*
X89029409Y-73822171D01*
X89201639Y-73766211D01*
X89362994Y-73683996D01*
X89509501Y-73577553D01*
X89637553Y-73449501D01*
X89743996Y-73302994D01*
X89826211Y-73141639D01*
X89882171Y-72969409D01*
X89896335Y-72879977D01*
X89910500Y-72790549D01*
X89910500Y-72609450D01*
X102849500Y-72609450D01*
X102849500Y-72790549D01*
X102877828Y-72969406D01*
X102933788Y-73141637D01*
X103011111Y-73293392D01*
X103016004Y-73302994D01*
X103122447Y-73449501D01*
X103250499Y-73577553D01*
X103397006Y-73683996D01*
X103558361Y-73766211D01*
X103730591Y-73822171D01*
X103802136Y-73833502D01*
X103909451Y-73850500D01*
X103909454Y-73850500D01*
X104090549Y-73850500D01*
X104179977Y-73836335D01*
X104269409Y-73822171D01*
X104441639Y-73766211D01*
X104602994Y-73683996D01*
X104749501Y-73577553D01*
X104877553Y-73449501D01*
X104983996Y-73302994D01*
X105066211Y-73141639D01*
X105122171Y-72969409D01*
X105136335Y-72879977D01*
X105150500Y-72790549D01*
X105150500Y-72609450D01*
X105129321Y-72475735D01*
X105122171Y-72430591D01*
X105066211Y-72258361D01*
X104983996Y-72097006D01*
X104877553Y-71950499D01*
X104749501Y-71822447D01*
X104602994Y-71716004D01*
X104602993Y-71716003D01*
X104602991Y-71716002D01*
X104441637Y-71633788D01*
X104269406Y-71577828D01*
X104090549Y-71549500D01*
X104090546Y-71549500D01*
X103909454Y-71549500D01*
X103909451Y-71549500D01*
X103730593Y-71577828D01*
X103558362Y-71633788D01*
X103397008Y-71716002D01*
X103379081Y-71729027D01*
X103250499Y-71822447D01*
X103122447Y-71950499D01*
X103069225Y-72023752D01*
X103016002Y-72097008D01*
X102933788Y-72258362D01*
X102877828Y-72430593D01*
X102849500Y-72609450D01*
X89910500Y-72609450D01*
X89889321Y-72475735D01*
X89882171Y-72430591D01*
X89826211Y-72258361D01*
X89743996Y-72097006D01*
X89637553Y-71950499D01*
X89509501Y-71822447D01*
X89362994Y-71716004D01*
X89362993Y-71716003D01*
X89362991Y-71716002D01*
X89201637Y-71633788D01*
X89029406Y-71577828D01*
X88850549Y-71549500D01*
X88850546Y-71549500D01*
X88669454Y-71549500D01*
X88669451Y-71549500D01*
X88490593Y-71577828D01*
X88332146Y-71629309D01*
X88270960Y-71629308D01*
X88231550Y-71605158D01*
X86929496Y-70303103D01*
X86925869Y-70295985D01*
X86919407Y-70291290D01*
X86912243Y-70269241D01*
X86901719Y-70248586D01*
X86900500Y-70233099D01*
X86900500Y-70069450D01*
X87609500Y-70069450D01*
X87609500Y-70250549D01*
X87637828Y-70429406D01*
X87693788Y-70601637D01*
X87759687Y-70730972D01*
X87776004Y-70762994D01*
X87882447Y-70909501D01*
X88010499Y-71037553D01*
X88157006Y-71143996D01*
X88318361Y-71226211D01*
X88490591Y-71282171D01*
X88562136Y-71293502D01*
X88669451Y-71310500D01*
X88669454Y-71310500D01*
X88850549Y-71310500D01*
X88939977Y-71296335D01*
X89029409Y-71282171D01*
X89201639Y-71226211D01*
X89362994Y-71143996D01*
X89509501Y-71037553D01*
X89637553Y-70909501D01*
X89743996Y-70762994D01*
X89826211Y-70601639D01*
X89882171Y-70429409D01*
X89904047Y-70291290D01*
X89910500Y-70250549D01*
X89910500Y-70069450D01*
X102849500Y-70069450D01*
X102849500Y-70250549D01*
X102877828Y-70429406D01*
X102933788Y-70601637D01*
X102999687Y-70730972D01*
X103016004Y-70762994D01*
X103122447Y-70909501D01*
X103250499Y-71037553D01*
X103397006Y-71143996D01*
X103558361Y-71226211D01*
X103730591Y-71282171D01*
X103802136Y-71293502D01*
X103909451Y-71310500D01*
X103909454Y-71310500D01*
X104090549Y-71310500D01*
X104179977Y-71296335D01*
X104269409Y-71282171D01*
X104441639Y-71226211D01*
X104602994Y-71143996D01*
X104749501Y-71037553D01*
X104877553Y-70909501D01*
X104983996Y-70762994D01*
X105066211Y-70601639D01*
X105122171Y-70429409D01*
X105144047Y-70291290D01*
X105150500Y-70250549D01*
X105150500Y-70069450D01*
X105127774Y-69925966D01*
X105122171Y-69890591D01*
X105066211Y-69718361D01*
X104983996Y-69557006D01*
X104877553Y-69410499D01*
X104749501Y-69282447D01*
X104602994Y-69176004D01*
X104602993Y-69176003D01*
X104602991Y-69176002D01*
X104441637Y-69093788D01*
X104269406Y-69037828D01*
X104090549Y-69009500D01*
X104090546Y-69009500D01*
X103909454Y-69009500D01*
X103909451Y-69009500D01*
X103730593Y-69037828D01*
X103558362Y-69093788D01*
X103397008Y-69176002D01*
X103323752Y-69229225D01*
X103250499Y-69282447D01*
X103122447Y-69410499D01*
X103069225Y-69483752D01*
X103016002Y-69557008D01*
X102933788Y-69718362D01*
X102877828Y-69890593D01*
X102849500Y-70069450D01*
X89910500Y-70069450D01*
X89887774Y-69925966D01*
X89882171Y-69890591D01*
X89826211Y-69718361D01*
X89743996Y-69557006D01*
X89637553Y-69410499D01*
X89509501Y-69282447D01*
X89362994Y-69176004D01*
X89362993Y-69176003D01*
X89362991Y-69176002D01*
X89201637Y-69093788D01*
X89029406Y-69037828D01*
X88850549Y-69009500D01*
X88850546Y-69009500D01*
X88669454Y-69009500D01*
X88669451Y-69009500D01*
X88490593Y-69037828D01*
X88318362Y-69093788D01*
X88157008Y-69176002D01*
X88083752Y-69229225D01*
X88010499Y-69282447D01*
X87882447Y-69410499D01*
X87829225Y-69483752D01*
X87776002Y-69557008D01*
X87693788Y-69718362D01*
X87637828Y-69890593D01*
X87609500Y-70069450D01*
X86900500Y-70069450D01*
X86900500Y-67529450D01*
X87609500Y-67529450D01*
X87609500Y-67710549D01*
X87637828Y-67889406D01*
X87693788Y-68061637D01*
X87773471Y-68218024D01*
X87776004Y-68222994D01*
X87882447Y-68369501D01*
X88010499Y-68497553D01*
X88157006Y-68603996D01*
X88318361Y-68686211D01*
X88490591Y-68742171D01*
X88562136Y-68753502D01*
X88669451Y-68770500D01*
X88669454Y-68770500D01*
X88850549Y-68770500D01*
X88939977Y-68756335D01*
X89029409Y-68742171D01*
X89201639Y-68686211D01*
X89362994Y-68603996D01*
X89509501Y-68497553D01*
X89637553Y-68369501D01*
X89743996Y-68222994D01*
X89826211Y-68061639D01*
X89882171Y-67889409D01*
X89910500Y-67710546D01*
X89910500Y-67529454D01*
X89910500Y-67529450D01*
X102849500Y-67529450D01*
X102849500Y-67710549D01*
X102877828Y-67889406D01*
X102933788Y-68061637D01*
X103013471Y-68218024D01*
X103016004Y-68222994D01*
X103122447Y-68369501D01*
X103250499Y-68497553D01*
X103397006Y-68603996D01*
X103558361Y-68686211D01*
X103730591Y-68742171D01*
X103802136Y-68753502D01*
X103909451Y-68770500D01*
X103909454Y-68770500D01*
X104090549Y-68770500D01*
X104179977Y-68756335D01*
X104269409Y-68742171D01*
X104441639Y-68686211D01*
X104602994Y-68603996D01*
X104749501Y-68497553D01*
X104877553Y-68369501D01*
X104983996Y-68222994D01*
X105066211Y-68061639D01*
X105122171Y-67889409D01*
X105150500Y-67710546D01*
X105150500Y-67529454D01*
X105150500Y-67529450D01*
X105122171Y-67350593D01*
X105122171Y-67350591D01*
X105066211Y-67178361D01*
X104983996Y-67017006D01*
X104877553Y-66870499D01*
X104749501Y-66742447D01*
X104602994Y-66636004D01*
X104602993Y-66636003D01*
X104602991Y-66636002D01*
X104441637Y-66553788D01*
X104269406Y-66497828D01*
X104090549Y-66469500D01*
X104090546Y-66469500D01*
X103909454Y-66469500D01*
X103909451Y-66469500D01*
X103730593Y-66497828D01*
X103558362Y-66553788D01*
X103397008Y-66636002D01*
X103323752Y-66689225D01*
X103250499Y-66742447D01*
X103122447Y-66870499D01*
X103088281Y-66917525D01*
X103016002Y-67017008D01*
X102933788Y-67178362D01*
X102877828Y-67350593D01*
X102849500Y-67529450D01*
X89910500Y-67529450D01*
X89882171Y-67350593D01*
X89882171Y-67350591D01*
X89826211Y-67178361D01*
X89743996Y-67017006D01*
X89637553Y-66870499D01*
X89509501Y-66742447D01*
X89362994Y-66636004D01*
X89362993Y-66636003D01*
X89362991Y-66636002D01*
X89201637Y-66553788D01*
X89029406Y-66497828D01*
X88850549Y-66469500D01*
X88850546Y-66469500D01*
X88669454Y-66469500D01*
X88669451Y-66469500D01*
X88490593Y-66497828D01*
X88318362Y-66553788D01*
X88157008Y-66636002D01*
X88083752Y-66689225D01*
X88010499Y-66742447D01*
X87882447Y-66870499D01*
X87848281Y-66917525D01*
X87776002Y-67017008D01*
X87693788Y-67178362D01*
X87637828Y-67350593D01*
X87609500Y-67529450D01*
X86900500Y-67529450D01*
X86900500Y-67487274D01*
X86900500Y-67487273D01*
X86891594Y-67454034D01*
X86873207Y-67385412D01*
X86873205Y-67385409D01*
X86873205Y-67385407D01*
X86820483Y-67294091D01*
X86820482Y-67294090D01*
X86820481Y-67294089D01*
X86820480Y-67294087D01*
X85094841Y-65568448D01*
X85067064Y-65513931D01*
X85070689Y-65467854D01*
X85122171Y-65309409D01*
X85122172Y-65309404D01*
X85150500Y-65130549D01*
X85150500Y-64989450D01*
X87609500Y-64989450D01*
X87609500Y-65170549D01*
X87637828Y-65349406D01*
X87693788Y-65521637D01*
X87717639Y-65568448D01*
X87776004Y-65682994D01*
X87882447Y-65829501D01*
X88010499Y-65957553D01*
X88157006Y-66063996D01*
X88318361Y-66146211D01*
X88490591Y-66202171D01*
X88562136Y-66213502D01*
X88669451Y-66230500D01*
X88669454Y-66230500D01*
X88850549Y-66230500D01*
X88939977Y-66216335D01*
X89029409Y-66202171D01*
X89201639Y-66146211D01*
X89362994Y-66063996D01*
X89509501Y-65957553D01*
X89637553Y-65829501D01*
X89743996Y-65682994D01*
X89826211Y-65521639D01*
X89882171Y-65349409D01*
X89910500Y-65170546D01*
X89910500Y-64989454D01*
X89910500Y-64989450D01*
X102849500Y-64989450D01*
X102849500Y-65170549D01*
X102877828Y-65349406D01*
X102933788Y-65521637D01*
X102957639Y-65568448D01*
X103016004Y-65682994D01*
X103122447Y-65829501D01*
X103250499Y-65957553D01*
X103397006Y-66063996D01*
X103558361Y-66146211D01*
X103730591Y-66202171D01*
X103802136Y-66213502D01*
X103909451Y-66230500D01*
X103909454Y-66230500D01*
X104090549Y-66230500D01*
X104179977Y-66216335D01*
X104269409Y-66202171D01*
X104441639Y-66146211D01*
X104602994Y-66063996D01*
X104749501Y-65957553D01*
X104877553Y-65829501D01*
X104983996Y-65682994D01*
X105066211Y-65521639D01*
X105122171Y-65349409D01*
X105150500Y-65170546D01*
X105150500Y-64989454D01*
X105150500Y-64989450D01*
X105122171Y-64810593D01*
X105122171Y-64810591D01*
X105066211Y-64638361D01*
X104983996Y-64477006D01*
X104877553Y-64330499D01*
X104749501Y-64202447D01*
X104602994Y-64096004D01*
X104602993Y-64096003D01*
X104602991Y-64096002D01*
X104441637Y-64013788D01*
X104269406Y-63957828D01*
X104090549Y-63929500D01*
X104090546Y-63929500D01*
X103909454Y-63929500D01*
X103909451Y-63929500D01*
X103730593Y-63957828D01*
X103558362Y-64013788D01*
X103397008Y-64096002D01*
X103323752Y-64149225D01*
X103250499Y-64202447D01*
X103122447Y-64330499D01*
X103093841Y-64369872D01*
X103016002Y-64477008D01*
X102933788Y-64638362D01*
X102877828Y-64810593D01*
X102849500Y-64989450D01*
X89910500Y-64989450D01*
X89882171Y-64810593D01*
X89882171Y-64810591D01*
X89826211Y-64638361D01*
X89743996Y-64477006D01*
X89637553Y-64330499D01*
X89509501Y-64202447D01*
X89362994Y-64096004D01*
X89362993Y-64096003D01*
X89362991Y-64096002D01*
X89201637Y-64013788D01*
X89029406Y-63957828D01*
X88850549Y-63929500D01*
X88850546Y-63929500D01*
X88669454Y-63929500D01*
X88669451Y-63929500D01*
X88490593Y-63957828D01*
X88318362Y-64013788D01*
X88157008Y-64096002D01*
X88083752Y-64149225D01*
X88010499Y-64202447D01*
X87882447Y-64330499D01*
X87853841Y-64369872D01*
X87776002Y-64477008D01*
X87693788Y-64638362D01*
X87637828Y-64810593D01*
X87609500Y-64989450D01*
X85150500Y-64989450D01*
X85150500Y-64949450D01*
X85122171Y-64770593D01*
X85122171Y-64770591D01*
X85066211Y-64598361D01*
X84983996Y-64437006D01*
X84877553Y-64290499D01*
X84749501Y-64162447D01*
X84602994Y-64056004D01*
X84602993Y-64056003D01*
X84602991Y-64056002D01*
X84441637Y-63973788D01*
X84269406Y-63917828D01*
X84090549Y-63889500D01*
X84090546Y-63889500D01*
X83909454Y-63889500D01*
X83909451Y-63889500D01*
X83730593Y-63917828D01*
X83574846Y-63968432D01*
X83513661Y-63968431D01*
X83464161Y-63932467D01*
X83445254Y-63874276D01*
X83464162Y-63816086D01*
X83474243Y-63804280D01*
X83631662Y-63646861D01*
X83686177Y-63619086D01*
X83726569Y-63622265D01*
X83726810Y-63621264D01*
X83730587Y-63622171D01*
X83909451Y-63650500D01*
X83909454Y-63650500D01*
X84090549Y-63650500D01*
X84179977Y-63636335D01*
X84269409Y-63622171D01*
X84441639Y-63566211D01*
X84602994Y-63483996D01*
X84749501Y-63377553D01*
X84877553Y-63249501D01*
X84983996Y-63102994D01*
X85066211Y-62941639D01*
X85122171Y-62769409D01*
X85144231Y-62630127D01*
X85150500Y-62590549D01*
X85150500Y-62409450D01*
X85128506Y-62270587D01*
X85122171Y-62230591D01*
X85066211Y-62058361D01*
X84983996Y-61897006D01*
X84877553Y-61750499D01*
X84749501Y-61622447D01*
X84602994Y-61516004D01*
X84602993Y-61516003D01*
X84602991Y-61516002D01*
X84441637Y-61433788D01*
X84269406Y-61377828D01*
X84136516Y-61356780D01*
X84081999Y-61329002D01*
X84054222Y-61274486D01*
X84063793Y-61214054D01*
X84107058Y-61170789D01*
X84152003Y-61159999D01*
X84944790Y-61159999D01*
X84944791Y-61159998D01*
X84969874Y-61157090D01*
X85072477Y-61111786D01*
X85151786Y-61032477D01*
X85197090Y-60929872D01*
X85199999Y-60904797D01*
X85200000Y-60904795D01*
X85200000Y-60160001D01*
X85199999Y-60160000D01*
X84461880Y-60160000D01*
X84465925Y-60152993D01*
X84500000Y-60025826D01*
X84500000Y-59894174D01*
X84465925Y-59767007D01*
X84461880Y-59760000D01*
X85199998Y-59760000D01*
X85199999Y-59759999D01*
X85199999Y-59015210D01*
X85199998Y-59015208D01*
X85197090Y-58990125D01*
X85151786Y-58887522D01*
X85072477Y-58808213D01*
X84969872Y-58762909D01*
X84944797Y-58760000D01*
X84200001Y-58760000D01*
X84200000Y-58760001D01*
X84200000Y-59498120D01*
X84192993Y-59494075D01*
X84065826Y-59460000D01*
X83934174Y-59460000D01*
X83807007Y-59494075D01*
X83800000Y-59498120D01*
X83800000Y-58760001D01*
X83799999Y-58760000D01*
X83055210Y-58760000D01*
X83055207Y-58760001D01*
X83030125Y-58762909D01*
X82927522Y-58808213D01*
X82848213Y-58887522D01*
X82802909Y-58990127D01*
X82800000Y-59015202D01*
X82800000Y-59759999D01*
X82800001Y-59760000D01*
X83538120Y-59760000D01*
X83534075Y-59767007D01*
X83500000Y-59894174D01*
X83500000Y-60025826D01*
X83534075Y-60152993D01*
X83538120Y-60160000D01*
X82800002Y-60160000D01*
X82800001Y-60160001D01*
X82800001Y-60904791D01*
X82802909Y-60929874D01*
X82848213Y-61032477D01*
X82927522Y-61111786D01*
X83030127Y-61157090D01*
X83055203Y-61159999D01*
X83847995Y-61159999D01*
X83906186Y-61178906D01*
X83942150Y-61228406D01*
X83942150Y-61289592D01*
X83906186Y-61339092D01*
X83863482Y-61356780D01*
X83730593Y-61377828D01*
X83558362Y-61433788D01*
X83397008Y-61516002D01*
X83344022Y-61554499D01*
X83250499Y-61622447D01*
X83122447Y-61750499D01*
X83080287Y-61808528D01*
X83016002Y-61897008D01*
X82933788Y-62058362D01*
X82877828Y-62230593D01*
X82849500Y-62409450D01*
X82849500Y-62590549D01*
X82877828Y-62769412D01*
X82878736Y-62773190D01*
X82877285Y-62773538D01*
X82877288Y-62828922D01*
X82853136Y-62868337D01*
X81707687Y-64013788D01*
X81359490Y-64361985D01*
X81293083Y-64477006D01*
X81293082Y-64477008D01*
X81287017Y-64487512D01*
X81287016Y-64487514D01*
X81287016Y-64487515D01*
X81249500Y-64627525D01*
X81000500Y-64627525D01*
X81000500Y-57099500D01*
X81019407Y-57041309D01*
X81068907Y-57005345D01*
X81099500Y-57000500D01*
X111900500Y-57000500D01*
X111958691Y-57019407D01*
G37*
%TD.AperFunction*%
%TA.AperFunction,Conductor*%
G36*
X110549719Y-71996876D02*
G01*
X110549720Y-71996876D01*
X110611856Y-71911353D01*
X110611860Y-71911348D01*
X110662290Y-71812373D01*
X110705554Y-71769109D01*
X110765986Y-71759537D01*
X110820503Y-71787314D01*
X110848281Y-71841830D01*
X110849500Y-71857318D01*
X110849500Y-73252455D01*
X110830593Y-73310646D01*
X110781093Y-73346610D01*
X110719907Y-73346610D01*
X110670407Y-73310646D01*
X110660744Y-73293392D01*
X110660650Y-73293441D01*
X110659419Y-73291026D01*
X110659037Y-73290343D01*
X110658886Y-73289980D01*
X110658884Y-73289977D01*
X110658884Y-73289975D01*
X110569524Y-73114595D01*
X110453828Y-72955354D01*
X110314646Y-72816172D01*
X110155405Y-72700476D01*
X110155404Y-72700475D01*
X110155402Y-72700474D01*
X109988969Y-72615673D01*
X109945704Y-72572408D01*
X109936133Y-72511976D01*
X109963910Y-72457460D01*
X109996034Y-72435996D01*
X109999032Y-72434754D01*
X110181348Y-72341860D01*
X110181353Y-72341856D01*
X110266876Y-72279720D01*
X110266876Y-72279719D01*
X109723312Y-71736155D01*
X109837708Y-71670110D01*
X109940110Y-71567708D01*
X110006155Y-71453312D01*
X110549719Y-71996876D01*
G37*
%TD.AperFunction*%
%TD*%
M02*
