%TF.GenerationSoftware,KiCad,Pcbnew,10.0.6*%
%TF.CreationDate,2026-10-05T04:19:11+07:00*%
%TF.ProjectId,robosen_master_block,726f626f-7365-46e5-9f6d-61737465725f,rev?*%
%TF.SameCoordinates,Original*%
%TF.FileFunction,Soldermask,Top*%
%TF.FilePolarity,Negative*%
%FSLAX46Y46*%
G04 Gerber Fmt 4.6, Leading zero omitted, Abs format (unit mm)*
G04 Created by KiCad (PCBNEW 10.0.6) date 2026-10-05 04:19:11*
%MOMM*%
%LPD*%
G01*
G04 APERTURE LIST*
%ADD10R,2.000000X2.000000*%
%ADD11C,2.000000*%
%ADD12R,1.600000X1.600000*%
%ADD13C,1.600000*%
%ADD14C,3.200000*%
%ADD15R,1.800000X1.800000*%
%ADD16C,1.800000*%
%ADD17R,2.200000X2.200000*%
%ADD18C,2.200000*%
%ADD19R,2.400000X2.400000*%
%ADD20C,2.400000*%
%ADD21R,1.700000X1.700000*%
%ADD22C,1.700000*%
G04 APERTURE END LIST*
D10*
%TO.C,J1*%
X89500000Y-92000000D03*
D11*
X89500000Y-94540000D03*
X89500000Y-97080000D03*
X89500000Y-99620000D03*
%TD*%
D12*
%TO.C,C1*%
X186960000Y-97500000D03*
D13*
X189500000Y-97500000D03*
%TD*%
D10*
%TO.C,J2*%
X199000000Y-92000000D03*
D11*
X199000000Y-94540000D03*
X199000000Y-97080000D03*
X199000000Y-99620000D03*
%TD*%
D14*
%TO.C,H3*%
X91500000Y-120500000D03*
%TD*%
%TO.C,H2*%
X192250000Y-92000000D03*
%TD*%
%TO.C,SW1*%
X90000000Y-67500000D03*
X90000000Y-83500000D03*
D15*
X103500000Y-85500000D03*
D16*
X100960000Y-85500000D03*
X98420000Y-85500000D03*
X95880000Y-85500000D03*
X93340000Y-85500000D03*
%TD*%
D15*
%TO.C,U3*%
X145060000Y-121300000D03*
D16*
X147600000Y-121300000D03*
X157500000Y-121300000D03*
X160040000Y-121300000D03*
X145060000Y-97520000D03*
X147600000Y-97520000D03*
X157500000Y-97520000D03*
X160040000Y-97520000D03*
%TD*%
D17*
%TO.C,SW3*%
X178000000Y-103500000D03*
D18*
X178000000Y-108500000D03*
X190500000Y-103500000D03*
X190500000Y-108500000D03*
%TD*%
D14*
%TO.C,SW2*%
X185880000Y-67500000D03*
X185880000Y-83500000D03*
D15*
X199380000Y-85500000D03*
D16*
X196840000Y-85500000D03*
X194300000Y-85500000D03*
X191760000Y-85500000D03*
X189220000Y-85500000D03*
%TD*%
D17*
%TO.C,SW5*%
X96000000Y-103500000D03*
D18*
X96000000Y-108500000D03*
X108500000Y-103500000D03*
X108500000Y-108500000D03*
%TD*%
D15*
%TO.C,R2*%
X188920000Y-115500000D03*
D16*
X199080000Y-115500000D03*
%TD*%
D18*
%TO.C,DISP1*%
X110500000Y-65500000D03*
X110500000Y-90500000D03*
X176500000Y-65500000D03*
X176500000Y-90500000D03*
D15*
X109500000Y-69110000D03*
D16*
X109500000Y-71650000D03*
X109500000Y-74190000D03*
X109500000Y-76730000D03*
X109500000Y-79270000D03*
X109500000Y-81810000D03*
X109500000Y-84350000D03*
X109500000Y-86890000D03*
%TD*%
D15*
%TO.C,U2*%
X123200000Y-99800000D03*
D16*
X126400000Y-99800000D03*
X133800000Y-99800000D03*
X137000000Y-99800000D03*
X137000000Y-121500000D03*
X123200000Y-121500000D03*
%TD*%
D14*
%TO.C,H1*%
X96250000Y-92000000D03*
%TD*%
D19*
%TO.C,SW4*%
X109920000Y-120000000D03*
D20*
X115000000Y-120000000D03*
%TD*%
D15*
%TO.C,R3*%
X165340000Y-119300000D03*
D16*
X175500000Y-119300000D03*
%TD*%
D15*
%TO.C,R4*%
X179190000Y-119300000D03*
D16*
X189350000Y-119300000D03*
%TD*%
D14*
%TO.C,H4*%
X197000000Y-120500000D03*
%TD*%
D15*
%TO.C,R1*%
X196500000Y-112660000D03*
D16*
X196500000Y-102500000D03*
%TD*%
D14*
%TO.C,BT1*%
X115750000Y-105800000D03*
X171250000Y-105800000D03*
D19*
X102000000Y-105800000D03*
D20*
X185000000Y-105800000D03*
%TD*%
D21*
%TO.C,U1*%
X172780000Y-90360000D03*
D22*
X170240000Y-90360000D03*
X167700000Y-90360000D03*
X165160000Y-90360000D03*
X162620000Y-90360000D03*
X160080000Y-90360000D03*
X157540000Y-90360000D03*
X155000000Y-90360000D03*
X152460000Y-90360000D03*
X149920000Y-90360000D03*
X147380000Y-90360000D03*
X144840000Y-90360000D03*
X142300000Y-90360000D03*
X139760000Y-90360000D03*
X137220000Y-90360000D03*
X134680000Y-90360000D03*
X132140000Y-90360000D03*
X129600000Y-90360000D03*
X127060000Y-90360000D03*
X124520000Y-90360000D03*
X121980000Y-90360000D03*
X119440000Y-90360000D03*
D21*
X172780000Y-67500000D03*
D22*
X170240000Y-67500000D03*
X167700000Y-67500000D03*
X165160000Y-67500000D03*
X162620000Y-67500000D03*
X160080000Y-67500000D03*
X157540000Y-67500000D03*
X155000000Y-67500000D03*
X152460000Y-67500000D03*
X149920000Y-67500000D03*
X147380000Y-67500000D03*
X144840000Y-67500000D03*
X142300000Y-67500000D03*
X139760000Y-67500000D03*
X137220000Y-67500000D03*
X134680000Y-67500000D03*
X132140000Y-67500000D03*
X129600000Y-67500000D03*
X127060000Y-67500000D03*
X124520000Y-67500000D03*
X121980000Y-67500000D03*
X119440000Y-67500000D03*
%TD*%
M02*
